<svg width="868" height="875" viewBox="0 0 868 875" fill="none" xmlns="http://www.w3.org/2000/svg">
<g opacity="0.5">
<path d="M199.676 621.296H59.3434C29.3304 621.296 5 645.665 5 675.726V816.281C5 846.341 29.3304 870.71 59.3434 870.71H199.676C229.689 870.71 254.019 846.341 254.019 816.281V675.726C254.019 645.665 229.689 621.296 199.676 621.296Z" fill="#046AD0"/>
<path d="M501.65 313.104H361.318C331.305 313.104 306.975 337.472 306.975 367.533V508.088C306.975 538.149 331.305 562.518 361.318 562.518H501.65C531.664 562.518 555.994 538.149 555.994 508.088V367.533C555.994 337.472 531.664 313.104 501.65 313.104Z" fill="#046AD0"/>
<path d="M808.656 4.89062H668.324C638.311 4.89062 613.98 29.2596 613.98 59.3203V199.876C613.98 229.936 638.311 254.305 668.324 254.305H808.656C838.669 254.305 863 229.936 863 199.876V59.3203C863 29.2596 838.669 4.89062 808.656 4.89062Z" fill="#046AD0"/>
<path d="M501.65 621.296H361.318C331.305 621.296 306.975 645.665 306.975 675.726V816.281C306.975 846.341 331.305 870.71 361.318 870.71H501.65C531.664 870.71 555.994 846.341 555.994 816.281V675.726C555.994 645.665 531.664 621.296 501.65 621.296Z" stroke="#046AD0" stroke-width="8.3" stroke-miterlimit="10"/>
<path d="M808.656 313.104H668.324C638.311 313.104 613.98 337.472 613.98 367.533V508.088C613.98 538.149 638.311 562.518 668.324 562.518H808.656C838.669 562.518 863 538.149 863 508.088V367.533C863 337.472 838.669 313.104 808.656 313.104Z" stroke="#046AD0" stroke-width="8.3" stroke-miterlimit="10"/>
<path d="M199.676 313.104H59.3434C29.3304 313.104 5 337.472 5 367.533V508.088C5 538.149 29.3304 562.518 59.3434 562.518H199.676C229.689 562.518 254.019 538.149 254.019 508.088V367.533C254.019 337.472 229.689 313.104 199.676 313.104Z" stroke="#046AD0" stroke-width="8.3" stroke-miterlimit="10"/>
<path d="M501.65 4.89062H361.318C331.305 4.89062 306.975 29.2596 306.975 59.3203V199.876C306.975 229.936 331.305 254.305 361.318 254.305H501.65C531.664 254.305 555.994 229.936 555.994 199.876V59.3203C555.994 29.2596 531.664 4.89062 501.65 4.89062Z" stroke="#046AD0" stroke-width="8.3" stroke-miterlimit="10"/>
</g>
</svg>
