<svg width="686" height="699" viewBox="0 0 686 699" fill="none" xmlns="http://www.w3.org/2000/svg">
<g opacity="0.9">
<path opacity="0.5" d="M126.418 375.011C281.679 345.583 240.039 10.2839 431.298 75.4938C570.759 123.043 613.255 305.322 553.764 418.709C494.027 532.575 324.98 622.941 194.299 570.592C145.177 550.917 32.6106 465.536 31.0318 405.451C29.4531 345.367 75.7644 384.612 126.418 375.011Z" fill="#407BFF"/>
<path d="M44.4766 613.555V617.242H618.453V379.205H579.876L513.601 422.529H450.393L379.519 468.854V487.499H350.37L269.709 540.218H216.125L149.377 583.852H101.698L44.4766 613.555Z" fill="#083CF5"/>
<path opacity="0.2" d="M44.4766 613.555V617.242H618.453V379.205H579.876L513.601 422.529H450.393L379.519 468.854V487.499H350.37L269.709 540.218H216.125L149.377 583.852H101.698L44.4766 613.555Z" fill="black"/>
<path d="M83.0547 617.241H618.454V382.891L552.179 426.198H488.971L418.097 472.523V491.184H388.948L308.287 543.903H254.703L187.972 587.537H140.276L83.0547 617.241Z" fill="#083CF5"/>
<path opacity="0.1" d="M83.0547 617.241H618.454V382.891L552.179 426.198H488.971L418.097 472.523V491.184H388.948L308.287 543.903H254.703L187.972 587.537H140.276L83.0547 617.241Z" fill="white"/>
<path d="M196.073 177.556C193.789 180.214 191.179 183.183 188.945 186.103C186.71 189.023 184.263 191.991 182.045 195.009C177.619 200.861 173.634 207.033 170.121 213.474L168.93 215.839L168.49 216.736C168.359 216.981 168.261 217.324 168.131 217.617C167.606 219.119 167.186 220.656 166.875 222.217C166.19 225.61 165.668 229.296 165.244 233.032C164.477 240.502 163.971 248.316 163.498 255.982L154.543 256.782C152.813 248.851 151.722 240.794 151.281 232.689C151.05 228.471 151.104 224.242 151.444 220.031C151.612 217.699 151.977 215.385 152.537 213.115C152.716 212.479 152.847 211.875 153.092 211.207C153.336 210.538 153.565 209.804 153.744 209.38L154.967 206.378C156.635 202.462 158.536 198.649 160.66 194.96C162.699 191.306 164.966 187.848 167.185 184.455C169.403 181.063 171.932 177.768 174.493 174.668C175.765 173.037 177.07 171.406 178.391 169.922C179.712 168.437 181.034 166.888 182.567 165.24L196.073 177.556Z" fill="#9A5448"/>
<path d="M199.026 181.667C197.395 184.684 195.551 187.604 193.773 190.328C190.707 195.042 187.738 199.12 185.618 201.926C183.709 204.454 182.486 205.939 182.486 205.939L158.328 189.48C158.328 189.48 173.009 160.902 184.313 159.075C195.959 157.232 206.611 168.128 199.026 181.667Z" fill="#083CF5"/>
<path opacity="0.7" d="M199.026 181.667C197.395 184.684 195.551 187.604 193.773 190.328C190.707 195.042 187.738 199.12 185.618 201.926C183.709 204.454 182.486 205.939 182.486 205.939L158.328 189.48C158.328 189.48 173.009 160.902 184.313 159.075C195.959 157.232 206.611 168.128 199.026 181.667Z" fill="black"/>
<path d="M241.582 530.184H253.555L254.746 502.438H242.773L241.582 530.184Z" fill="#9A5448"/>
<path d="M125.051 478.492L134.773 485.506L157.707 467.84L147.985 460.826L125.051 478.492Z" fill="#9A5448"/>
<path d="M254.749 502.438L254.145 516.743H242.156L242.76 502.438H254.749Z" fill="#9A5448"/>
<path d="M147.986 460.826L157.708 467.84L145.866 476.942L136.16 469.928L147.986 460.826Z" fill="#9A5448"/>
<path d="M229.432 263.277C229.432 263.277 230.802 348.555 220.085 381.994C203.121 434.958 151.869 477.858 151.869 477.858L133.535 464.629C133.535 464.629 176.19 428.384 184.101 383.788C191.132 343.71 188.147 296.015 188.147 263.277H229.432Z" fill="#083CF5"/>
<path opacity="0.7" d="M229.432 263.277C229.432 263.277 230.802 348.555 220.085 381.994C203.121 434.958 151.869 477.858 151.869 477.858L133.535 464.629C133.535 464.629 176.19 428.384 184.101 383.788C191.132 343.71 188.147 296.015 188.147 263.277H229.432Z" fill="white"/>
<path d="M163.922 253.783L168.245 261.547L153.108 263.798C153.108 263.798 151.558 257.274 155.293 252.771L163.922 253.783Z" fill="#9A5448"/>
<path d="M170.53 271.872L157.938 273.144L153.109 263.798L168.247 261.547L170.53 271.872Z" fill="#9A5448"/>
<path d="M240.345 115.182C240.492 116.128 241.112 116.813 241.748 116.813C242.384 116.813 242.743 115.851 242.596 114.905C242.449 113.959 241.83 113.273 241.193 113.273C240.557 113.273 240.198 114.22 240.345 115.182Z" fill="#263238"/>
<path d="M241.031 116.844C242.626 119.58 244.591 122.083 246.871 124.282C246.298 124.86 245.605 125.305 244.841 125.587C244.078 125.869 243.262 125.98 242.45 125.913L241.031 116.844Z" fill="#63352D"/>
<path d="M236.036 110.418C235.963 110.42 235.89 110.408 235.822 110.382C235.754 110.356 235.692 110.317 235.639 110.267C235.586 110.217 235.543 110.157 235.513 110.091C235.483 110.025 235.467 109.953 235.465 109.88C235.465 109.801 235.48 109.722 235.511 109.65C235.542 109.577 235.587 109.511 235.644 109.456C236.271 108.814 237.042 108.33 237.893 108.047C238.744 107.763 239.651 107.687 240.538 107.825C240.611 107.838 240.681 107.867 240.744 107.908C240.806 107.949 240.86 108.003 240.901 108.065C240.942 108.128 240.97 108.198 240.983 108.271C240.997 108.345 240.995 108.421 240.978 108.493C240.965 108.565 240.937 108.634 240.897 108.695C240.856 108.756 240.804 108.809 240.744 108.85C240.683 108.89 240.615 108.919 240.543 108.933C240.471 108.948 240.398 108.948 240.326 108.934C239.62 108.838 238.902 108.91 238.23 109.146C237.558 109.381 236.951 109.772 236.46 110.288C236.403 110.338 236.335 110.376 236.262 110.399C236.189 110.421 236.112 110.428 236.036 110.418Z" fill="#263238"/>
<path d="M208.469 125.703C210.198 134.463 211.911 150.53 205.777 156.369C205.777 156.369 208.175 165.275 224.454 165.275C242.397 165.275 233.018 156.369 233.018 156.369C223.231 154.037 223.492 146.794 225.205 140.057L208.469 125.703Z" fill="#9A5448"/>
<path d="M199.122 162.306C201.063 159.272 197.801 151.964 197.801 151.964C197.801 151.964 226.656 144.706 238.433 155.847C240.88 158.146 238.172 161.539 238.172 161.539L199.122 162.306Z" fill="#083CF5"/>
<path d="M139.895 491.246C138.378 491.246 136.159 488.277 135.54 487.217C135.509 487.171 135.492 487.117 135.492 487.062C135.492 487.007 135.509 486.953 135.54 486.907C135.572 486.866 135.615 486.834 135.663 486.814C135.712 486.794 135.765 486.787 135.817 486.793C135.98 486.793 139.911 487.641 140.825 489.191C140.929 489.354 140.996 489.538 141.021 489.729C141.046 489.921 141.029 490.116 140.971 490.3C140.743 491.001 140.319 491.197 140.009 491.23L139.895 491.246ZM136.388 487.511C137.415 489.011 139.112 490.773 139.96 490.675C140.042 490.675 140.286 490.675 140.449 490.121C140.482 490.014 140.491 489.901 140.474 489.791C140.457 489.681 140.415 489.576 140.351 489.485C139.255 488.437 137.878 487.729 136.388 487.446V487.511Z" fill="#083CF5"/>
<path d="M137.725 487.529C137.037 487.545 136.35 487.463 135.686 487.284C135.646 487.258 135.612 487.221 135.59 487.179C135.567 487.136 135.555 487.088 135.555 487.04C135.555 486.991 135.567 486.944 135.59 486.901C135.612 486.858 135.646 486.822 135.686 486.795C135.8 486.697 138.492 484.544 140.27 484.724C140.487 484.747 140.696 484.815 140.887 484.921C141.078 485.027 141.245 485.171 141.379 485.343C141.529 485.498 141.619 485.701 141.634 485.916C141.649 486.131 141.587 486.344 141.46 486.518C140.873 487.236 139.209 487.529 137.725 487.529ZM136.436 486.877C137.953 487.105 140.449 486.877 140.922 486.192C140.961 486.109 140.973 486.016 140.959 485.926C140.944 485.836 140.903 485.752 140.84 485.686C140.755 485.574 140.647 485.481 140.524 485.413C140.4 485.346 140.263 485.305 140.123 485.294C138.762 485.436 137.477 485.988 136.436 486.877Z" fill="#083CF5"/>
<path d="M258.367 530.805C257.137 530.789 255.909 530.674 254.697 530.462C254.64 530.453 254.587 530.426 254.546 530.385C254.505 530.344 254.478 530.291 254.469 530.234C254.459 530.176 254.468 530.116 254.494 530.063C254.521 530.01 254.563 529.967 254.616 529.94C254.795 529.842 258.971 527.445 260.977 527.999C261.163 528.041 261.339 528.121 261.493 528.233C261.647 528.345 261.777 528.488 261.874 528.652C262.002 528.833 262.071 529.05 262.071 529.271C262.071 529.493 262.002 529.71 261.874 529.891C261.401 530.593 259.917 530.805 258.367 530.805ZM255.611 530.038C257.845 530.364 260.879 530.332 261.434 529.565C261.515 529.361 261.515 529.133 261.434 528.929C261.372 528.827 261.29 528.739 261.191 528.671C261.093 528.603 260.981 528.558 260.863 528.537C259.591 528.211 257.079 529.288 255.611 530.038Z" fill="#083CF5"/>
<path d="M254.795 530.396H254.632C254.591 530.367 254.559 530.327 254.539 530.281C254.519 530.235 254.512 530.185 254.518 530.135C254.652 528.429 255.32 526.808 256.426 525.502C256.652 525.316 256.912 525.176 257.192 525.092C257.472 525.008 257.767 524.981 258.057 525.013C258.301 524.985 258.546 525.052 258.741 525.202C258.936 525.351 259.065 525.57 259.101 525.812C259.33 527.166 256.459 529.76 255.024 530.412L254.795 530.396ZM257.731 525.502C257.369 525.508 257.019 525.634 256.736 525.861C255.83 526.902 255.262 528.193 255.105 529.564C256.589 528.667 258.531 526.628 258.367 525.828C258.367 525.828 258.367 525.551 257.813 525.502H257.731Z" fill="#083CF5"/>
<path d="M136.16 485.408L126.846 475.621C126.679 475.451 126.459 475.342 126.222 475.313C125.985 475.283 125.746 475.334 125.541 475.458L116.227 481.135C116.03 481.252 115.858 481.407 115.721 481.592C115.583 481.776 115.484 481.985 115.428 482.208C115.372 482.431 115.36 482.663 115.394 482.89C115.427 483.117 115.506 483.335 115.624 483.532C115.703 483.657 115.796 483.772 115.901 483.875C119.163 487.137 120.99 488.654 125.085 492.928C127.613 495.554 134.48 504.787 137.955 508.424C141.429 512.062 145.491 509.076 144.381 507.282C139.488 499.224 137.106 491.231 136.976 487.251C136.943 486.557 136.652 485.9 136.16 485.408Z" fill="#263238"/>
<path d="M253.474 528.762H240.425C240.188 528.76 239.958 528.841 239.774 528.989C239.59 529.138 239.462 529.346 239.414 529.577L237.032 540.18C236.929 540.63 237.009 541.102 237.254 541.493C237.498 541.884 237.888 542.163 238.337 542.268C238.478 542.284 238.62 542.284 238.761 542.268C243.491 542.268 250.31 541.909 256.247 541.909C263.18 541.909 269.166 542.284 277.306 542.284C282.199 542.284 283.586 537.309 281.53 536.869C272.151 534.813 264.501 534.585 256.394 529.594C255.515 529.054 254.505 528.766 253.474 528.762Z" fill="#263238"/>
<path opacity="0.3" d="M193.773 190.331C190.706 195.045 187.738 199.123 185.617 201.929C185.862 196.318 187.02 187.248 191.375 180.332C192.957 181.898 193.594 185.943 193.773 190.331Z" fill="black"/>
<path d="M259.693 170.9C260.345 171.928 261.536 173.494 262.629 174.946C263.722 176.397 264.978 177.882 266.217 179.35C268.713 182.27 271.258 185.173 273.917 187.962C279.036 193.505 284.649 198.572 290.685 203.1C292.088 204.124 293.541 205.077 295.04 205.954L296.035 206.525C296.149 206.525 296.198 206.672 296.41 206.737L296.671 206.851L297.03 206.966C297.298 207.048 297.57 207.113 297.846 207.161C301.096 207.616 304.396 207.572 307.633 207.031C315.276 205.822 322.829 204.1 330.241 201.876L334.107 210.032C326.84 214.731 318.965 218.414 310.7 220.977C306.026 222.491 301.125 223.181 296.215 223.016C295.477 222.981 294.742 222.904 294.013 222.788L292.887 222.576L291.68 222.282C290.834 222.053 290.006 221.764 289.201 221.418L288.695 221.206L288.287 221.01L287.472 220.618C285.367 219.591 283.328 218.465 281.338 217.242C273.996 212.46 267.193 206.898 261.047 200.653C258.029 197.603 255.093 194.503 252.336 191.208C250.933 189.577 249.58 187.946 248.226 186.119C246.746 184.229 245.39 182.246 244.164 180.182L259.693 170.9Z" fill="#9A5448"/>
<path d="M328.312 204.047L336.273 194.57L341.688 208.403C341.688 208.403 334.821 211.665 329.471 209.789L328.312 204.047Z" fill="#9A5448"/>
<path d="M347.952 192.514L350.17 203.573L341.688 208.401L336.289 194.569L347.952 192.514Z" fill="#9A5448"/>
<path d="M208.176 118.133C210.721 129.747 211.634 136.679 218.501 141.768C228.827 149.435 242.463 141.768 243.426 129.649C244.29 118.72 239.967 101.56 227.766 98.6564C225.075 98.0092 222.262 98.0619 219.597 98.8095C216.931 99.5571 214.502 100.975 212.539 102.927C210.577 104.88 209.147 107.302 208.386 109.964C207.625 112.626 207.559 115.438 208.192 118.133H208.176Z" fill="#9A5448"/>
<path d="M203.266 95.4452C193.071 95.7225 191.848 105.754 196.904 108.707C196.904 108.707 191.032 111.529 194.05 118.265C198.65 128.493 207.458 139.732 216.462 139.112C227.636 138.345 230.816 126.176 230.425 114.171C236.313 108.609 232.757 105.901 238.581 102.508C248.89 96.5055 254.109 79.2966 236.95 79.5576C219.366 79.8349 229.283 94.7438 203.266 95.4452Z" fill="#263238"/>
<path d="M198.178 107.238C198.178 107.238 194.247 109.277 188.195 105.754C190.3 110.908 196.759 113.029 198.178 107.238Z" fill="#263238"/>
<path d="M224.29 117.06C224.606 119.999 225.885 122.752 227.927 124.89C230.635 127.679 233.294 125.787 233.636 122.263C233.946 119.099 232.902 113.83 229.656 112.362C226.41 110.894 223.947 113.504 224.29 117.06Z" fill="#9A5448"/>
<path d="M159.668 473.992L152.148 478.478L132.117 464.025L138.789 458.92L159.668 473.992Z" fill="#083CF5"/>
<path d="M217.458 277.925C215.19 293.29 223.199 336.076 225.972 350.088C228.876 323.891 229.414 292.817 229.463 275.853C223.591 271.873 218.502 270.845 217.458 277.925Z" fill="#083CF5"/>
<path opacity="0.4" d="M217.458 277.925C215.19 293.29 223.199 336.076 225.972 350.088C228.876 323.891 229.414 292.817 229.463 275.853C223.591 271.873 218.502 270.845 217.458 277.925Z" fill="white"/>
<path d="M252.152 263.277C252.152 263.277 270.209 339.779 271.481 376.317C272.9 417.309 258.595 513.972 258.595 513.972H238.303C238.303 513.972 235.808 416.558 234.894 379.221C233.916 338.523 210.035 263.277 210.035 263.277H252.152Z" fill="#083CF5"/>
<path opacity="0.7" d="M252.152 263.277C252.152 263.277 270.209 339.779 271.481 376.317C272.9 417.309 258.595 513.972 258.595 513.972H238.303C238.303 513.972 235.808 416.558 234.894 379.221C233.916 338.523 210.035 263.277 210.035 263.277H252.152Z" fill="white"/>
<path d="M262.51 505.928C262.608 505.928 261.369 514.345 261.369 514.345H236.673L236.004 506.825L262.51 505.928Z" fill="#083CF5"/>
<path d="M257.34 198.762C257.34 202.84 257.242 207.326 257.014 212.268C256.427 225.709 254.959 242.461 252.12 263.275H188.064C187.624 253.488 193.806 205.434 184.312 159.076C191.429 157.709 198.627 156.805 205.86 156.368C214.933 155.846 224.028 155.846 233.101 156.368C239.318 156.989 245.48 158.08 251.533 159.63C251.533 159.63 257.356 166.367 257.34 198.762Z" fill="#083CF5"/>
<path opacity="0.7" d="M257.34 198.762C257.34 202.84 257.242 207.326 257.014 212.268C256.427 225.709 254.959 242.461 252.12 263.275H188.064C187.624 253.488 193.806 205.434 184.312 159.076C191.429 157.709 198.627 156.805 205.86 156.368C214.933 155.846 224.028 155.846 233.101 156.368C239.318 156.989 245.48 158.08 251.533 159.63C251.533 159.63 257.356 166.367 257.34 198.762Z" fill="black"/>
<path opacity="0.3" d="M257.34 198.764C257.34 202.842 257.242 207.328 257.014 212.27C249.494 204.93 248.988 189.939 248.988 189.939L257.34 198.764Z" fill="black"/>
<path d="M234.375 173.675C235.795 185.093 261.698 209.137 261.698 209.137L285.023 190.655C279.162 181.977 272.303 174.016 264.585 166.938C247.718 152.29 232.663 160.022 234.375 173.675Z" fill="#083CF5"/>
<path opacity="0.7" d="M234.375 173.675C235.795 185.093 261.698 209.137 261.698 209.137L285.023 190.655C279.162 181.977 272.303 174.016 264.585 166.938C247.718 152.29 232.663 160.022 234.375 173.675Z" fill="black"/>
<path d="M507.678 412.118L495.689 413.292L483.211 384.747L495.2 383.572L507.678 412.118Z" fill="#E4897B"/>
<path d="M587.474 376.233L577.035 382.953L558.113 360.949L568.553 354.229L587.474 376.233Z" fill="#E4897B"/>
<path d="M483.227 384.766L489.653 399.479H502.164L495.216 383.592L483.227 384.766Z" fill="#CE6F64"/>
<path d="M568.569 354.229L558.113 360.949L567.884 372.286L578.323 365.565L568.569 354.229Z" fill="#CE6F64"/>
<path d="M404.863 107.367C404.602 111.803 404.047 115.849 403.411 120.057C402.775 124.266 401.877 128.343 400.866 132.47C398.894 140.876 395.84 148.991 391.781 156.612C390.712 158.588 389.519 160.495 388.208 162.321C386.936 164.131 385.582 165.795 384.228 167.41C381.521 170.672 378.715 173.69 375.86 176.675C370.102 182.596 364.23 188.256 357.917 193.656L353.383 189.284C358.391 182.939 363.529 176.659 368.406 170.297C373.283 163.936 378.34 157.607 381.455 151.245C384.638 144.308 387.034 137.037 388.6 129.567C389.464 125.783 390.117 121.917 390.737 118.149C391.356 114.381 391.813 110.303 392.156 106.73L404.863 107.367Z" fill="#E4897B"/>
<path d="M399.874 26.4944C391.131 26.4944 381.213 35.8736 381.621 49.3307C382.029 62.7879 384.883 82.7697 364.086 101.267C371.557 117.579 406.692 132.863 430.148 121.363C452.381 110.467 443.198 50.0648 427.359 34.2424C418.485 25.3852 408.128 22.4164 399.874 26.4944Z" fill="#263238"/>
<path d="M414.388 108.901C413.735 112.848 410.457 120.319 407.863 125.865C405.938 129.878 404.373 132.895 404.373 132.895L402.089 131.884L383.184 123.467C384.619 113.272 386.952 102.262 398.19 97.2544C405.204 94.1552 415.546 101.854 414.388 108.901Z" fill="#083CF5"/>
<path opacity="0.6" d="M414.388 108.901C413.735 112.848 410.457 120.319 407.863 125.865C405.938 129.878 404.373 132.895 404.373 132.895L402.089 131.884L383.184 123.467C384.619 113.272 386.952 102.262 398.19 97.2544C405.204 94.1552 415.546 101.854 414.388 108.901Z" fill="white"/>
<path d="M407.813 125.864C405.889 129.877 404.323 132.894 404.323 132.894L402.039 131.883C402.349 127.854 403.148 121.509 405.301 118.654C406.643 120.851 407.5 123.309 407.813 125.864Z" fill="#083CF5"/>
<path opacity="0.5" d="M407.813 125.979C405.889 129.992 404.323 133.01 404.323 133.01L402.039 131.998C402.349 127.969 403.148 121.624 405.301 118.77C406.643 120.966 407.5 123.424 407.813 125.979Z" fill="white"/>
<path d="M471.741 153.104L423.621 168.274C390.345 102.44 395.076 98.9488 395.076 98.9488C395.076 98.9488 402.758 94.561 410.751 90.9071L414.389 89.276C421.488 86.4499 428.782 84.1385 436.214 82.3598C437.307 82.0662 438.399 81.8052 439.476 81.5442C445.394 80.2103 451.385 79.2245 457.419 78.5918C458.137 87.71 458.854 95.4255 459.637 102.13C460.649 110.873 461.741 117.87 462.9 123.922C465.067 133.869 468.023 143.627 471.741 153.104Z" fill="#083CF5"/>
<path opacity="0.6" d="M471.741 153.104L423.621 168.274C390.345 102.44 395.076 98.9488 395.076 98.9488C395.076 98.9488 402.758 94.561 410.751 90.9071L414.389 89.276C421.488 86.4499 428.782 84.1385 436.214 82.3598C437.307 82.0662 438.399 81.8052 439.476 81.5442C445.394 80.2103 451.385 79.2245 457.419 78.5918C458.137 87.71 458.854 95.4255 459.637 102.13C460.649 110.873 461.741 117.87 462.9 123.922C465.067 133.869 468.023 143.627 471.741 153.104Z" fill="white"/>
<path d="M423.621 168.278C423.621 168.278 421.99 266.801 434.86 302.393C447.257 336.517 484.236 395.174 484.236 395.174L505.669 394.619C505.669 394.619 471.627 320.352 466.032 290.975C456.783 242.252 458.822 157.219 458.822 157.219L423.621 168.278Z" fill="#083CF5"/>
<path opacity="0.4" d="M423.621 168.278C423.621 168.278 421.99 266.801 434.86 302.393C447.257 336.517 484.236 395.174 484.236 395.174L505.669 394.619C505.669 394.619 471.627 320.352 466.032 290.975C456.783 242.252 458.822 157.219 458.822 157.219L423.621 168.278Z" fill="black"/>
<path opacity="0.3" d="M442.867 176.74L448.625 160.428L458.82 157.166C458.82 157.166 457.89 195.874 460.125 236.017C450.876 218.286 442.867 185.663 442.867 176.74Z" fill="black"/>
<path d="M434.223 165.142C434.223 165.142 467.662 241.627 489.275 285.163C506.728 320.315 561.046 367.505 561.046 367.505L575.922 357.179C575.922 357.179 535.062 301.295 523.007 277.448C484.43 201.141 493.94 169.693 471.756 153.104L434.223 165.142Z" fill="#083CF5"/>
<path opacity="0.4" d="M434.223 165.142C434.223 165.142 467.662 241.627 489.275 285.163C506.728 320.315 561.046 367.505 561.046 367.505L575.922 357.179C575.922 357.179 535.062 301.295 523.007 277.448C484.43 201.141 493.94 169.693 471.756 153.104L434.223 165.142Z" fill="black"/>
<path d="M356.287 188.127L345.391 190.15L353.106 200.589C353.106 200.589 358.799 196.625 359.99 191.601L356.287 188.127Z" fill="#E4897B"/>
<path d="M338.246 198.404L345.407 205.092L353.09 200.59L345.391 190.15L338.246 198.404Z" fill="#E4897B"/>
<path d="M573.184 379.66L584.521 371.504C584.713 371.363 584.95 371.297 585.187 371.318C585.424 371.339 585.645 371.446 585.81 371.619L593.541 379.66C593.893 380.052 594.075 380.568 594.048 381.093C594.02 381.619 593.785 382.113 593.394 382.466L593.215 382.613C589.202 385.369 587.131 386.511 582.156 390.084C579.089 392.286 572.63 397.603 568.389 400.637C564.148 403.671 560.934 399.642 562.419 398.011C569.106 390.638 570.884 385.614 571.945 381.455C572.14 380.732 572.577 380.098 573.184 379.66Z" fill="#263238"/>
<path d="M494.1 409.591H508.781C509.044 409.598 509.298 409.689 509.506 409.85C509.715 410.012 509.866 410.235 509.939 410.488L513.201 422.135C513.268 422.366 513.289 422.608 513.262 422.848C513.236 423.087 513.162 423.319 513.045 423.53C512.928 423.74 512.771 423.926 512.582 424.076C512.393 424.225 512.177 424.336 511.945 424.402C511.767 424.427 511.585 424.427 511.407 424.402H477.462C472.079 424.402 470.938 418.954 473.189 418.465C483.171 416.246 488.929 413.212 492.012 410.309C492.592 409.813 493.338 409.556 494.1 409.591Z" fill="#263238"/>
<path d="M439.51 81.5781V82.4426C439.51 82.9483 439.167 94.6275 427.227 103.844L426.02 104.773L424.552 104.447C418.223 103.077 414.014 100.451 412.008 96.6501C411.078 94.8859 410.655 92.8986 410.785 90.9084L414.422 89.2773C421.522 86.4512 428.816 84.1398 436.247 82.3611C437.324 82.1001 438.417 81.8228 439.51 81.5781Z" fill="white"/>
<path d="M426.297 58.498C427.145 65.9525 429.836 79.2628 436.23 82.3947C436.23 82.3947 436.067 92.8994 425.22 101.267C410.849 98.1355 414.405 89.3109 414.405 89.3109C421.648 84.9556 419.609 79.2139 416.51 74.1899L426.297 58.498Z" fill="#E4897B"/>
<path d="M422.314 64.8906L416.523 74.172C417.26 75.3379 417.893 76.5659 418.416 77.8421C421.27 76.4556 424.94 72.3451 424.255 69.1154C423.866 67.6023 423.209 66.1713 422.314 64.8906Z" fill="#CE6F64"/>
<path d="M422.557 42.3653C426.651 54.943 428.617 60.1646 425.384 69.073C420.51 82.4622 405.399 85.1612 397.926 74.1888C391.215 64.2925 385.659 45.4171 394.79 35.3796C397.918 31.955 402.172 30.02 406.614 30.0002C411.057 29.9803 415.324 31.8773 418.479 35.2738C420.334 37.2559 421.731 39.6857 422.557 42.3653Z" fill="#E4897B"/>
<path d="M407.507 28.3223C403.559 32.6122 411.666 50.5551 424.031 53.3118C436.395 56.0685 426.412 36.5597 426.412 36.5597L407.507 28.3223Z" fill="#263238"/>
<path d="M408.793 33.3443C409.25 38.2378 389.594 45.627 387.914 49.2482C388.73 43.3597 389.007 36.4599 396.429 31.5664C403.851 26.6728 409.968 28.5813 409.968 28.5813L408.793 33.3443Z" fill="#263238"/>
<path d="M407.342 33.541C407.342 33.541 405.172 39.1686 396.902 46.0521C403.423 44.1902 409.01 39.9536 412.562 34.1772L407.342 33.541Z" fill="#263238"/>
<path d="M429.935 51.3224C430.295 53.6796 429.709 56.0834 428.304 58.0102C426.428 60.5548 423.557 59.3477 422.465 56.5748C421.47 54.0628 421.241 49.7239 423.9 48.1742C424.36 47.9093 424.868 47.7378 425.395 47.6699C425.921 47.6019 426.456 47.6387 426.969 47.7782C427.481 47.9176 427.961 48.157 428.38 48.4825C428.8 48.808 429.151 49.2133 429.413 49.6749C429.706 50.1792 429.884 50.7416 429.935 51.3224Z" fill="#E4897B"/>
<path d="M471.51 150.057L475.05 153.678C475.327 153.955 475.05 154.428 474.479 154.591L424.059 170.544C423.894 170.618 423.708 170.636 423.532 170.594C423.355 170.553 423.197 170.455 423.081 170.316L421.286 166.156C421.172 165.863 421.466 165.504 421.939 165.341L470.613 149.942C470.759 149.88 470.919 149.858 471.077 149.878C471.235 149.898 471.384 149.96 471.51 150.057Z" fill="#263238"/>
<path d="M405.647 52.8531C406.039 53.7666 405.859 54.729 405.256 54.9736C404.652 55.2183 403.853 54.6963 403.462 53.7666C403.07 52.8368 403.25 51.8907 403.853 51.6461C404.457 51.4014 405.256 51.9233 405.647 52.8531Z" fill="#263238"/>
<path d="M395.222 57.2561C395.613 58.1859 395.434 59.1319 394.83 59.3929C394.227 59.6539 393.427 59.1156 393.036 58.1859C392.644 57.2561 392.824 56.31 393.427 56.049C394.031 55.788 394.83 56.3426 395.222 57.2561Z" fill="#263238"/>
<path d="M393.706 56L391.227 56.2936C391.227 56.2936 393.102 57.5496 393.706 56Z" fill="#263238"/>
<path d="M398.893 57.4551C398.963 59.9107 398.694 62.3642 398.094 64.7464C398.708 64.8813 399.344 64.8812 399.958 64.746C400.572 64.6108 401.149 64.3438 401.65 63.9635L398.893 57.4551Z" fill="#DE5753"/>
<path d="M409.274 72.1843C409.21 72.1801 409.149 72.1549 409.101 72.1127C409.052 72.0705 409.019 72.0135 409.006 71.9505C408.993 71.8875 409.001 71.822 409.029 71.764C409.057 71.7061 409.103 71.6589 409.16 71.6297C410.318 71.1668 411.35 70.4385 412.175 69.5035C412.999 68.5686 413.593 67.453 413.907 66.2468C413.911 66.2103 413.922 66.1749 413.94 66.1428C413.958 66.1107 413.982 66.0824 414.011 66.0596C414.04 66.0369 414.073 66.0201 414.108 66.0102C414.144 66.0003 414.18 65.9976 414.217 66.0021C414.256 66.008 414.293 66.0217 414.326 66.0422C414.36 66.0628 414.389 66.0898 414.412 66.1217C414.434 66.1537 414.451 66.1898 414.459 66.2281C414.468 66.2664 414.469 66.3061 414.462 66.3447C414.143 67.6526 413.514 68.8646 412.629 69.8782C411.743 70.8918 410.626 71.6772 409.372 72.168L409.274 72.1843Z" fill="#263238"/>
<g style="mix-blend-mode:overlay">
<path d="M419.605 62.8548C419.631 62.9137 419.637 62.9795 419.622 63.0419C419.606 63.1044 419.571 63.1602 419.521 63.2007C419.471 63.2411 419.409 63.264 419.345 63.2659C419.281 63.2677 419.217 63.2485 419.165 63.211C418.222 62.3956 417.101 61.8129 415.892 61.5101C414.683 61.2073 413.419 61.1927 412.203 61.4674C412.169 61.4806 412.133 61.4869 412.096 61.4858C412.059 61.4847 412.023 61.4764 411.989 61.4612C411.956 61.4461 411.926 61.4244 411.901 61.3975C411.876 61.3706 411.856 61.339 411.844 61.3045C411.831 61.2674 411.826 61.228 411.829 61.1889C411.832 61.1498 411.843 61.1116 411.86 61.0767C411.878 61.0418 411.903 61.0107 411.933 60.9855C411.963 60.9603 411.998 60.9414 412.036 60.9299C413.344 60.612 414.709 60.6137 416.016 60.9349C417.323 61.2562 418.534 61.8874 419.546 62.7754L419.605 62.8548Z" fill="#263238"/>
</g>
<path d="M407.132 48.2057C407.035 48.2221 406.936 48.2221 406.839 48.2057C406.206 47.8261 405.494 47.5978 404.758 47.5383C404.023 47.4789 403.283 47.5901 402.598 47.8632C402.461 47.9326 402.303 47.9459 402.157 47.9002C402.01 47.8545 401.888 47.7534 401.815 47.6185C401.745 47.4794 401.731 47.3186 401.776 47.1696C401.822 47.0207 401.923 46.8951 402.06 46.8192C402.916 46.447 403.849 46.2868 404.781 46.3521C405.712 46.4174 406.614 46.7063 407.41 47.1944C407.543 47.2727 407.641 47.4007 407.68 47.5504C407.72 47.7001 407.699 47.8594 407.622 47.9937C407.562 48.0641 407.487 48.1199 407.402 48.1567C407.317 48.1934 407.225 48.2102 407.132 48.2057Z" fill="#263238"/>
<path d="M388.226 54.5176H388.111C388.037 54.5039 387.967 54.4756 387.904 54.4346C387.841 54.3935 387.786 54.3403 387.744 54.2782C387.702 54.216 387.672 54.1461 387.656 54.0724C387.641 53.9987 387.641 53.9227 387.655 53.8488C387.813 52.9218 388.192 52.0465 388.76 51.2969C389.327 50.5474 390.067 49.9456 390.917 49.5425C391.062 49.4879 391.223 49.4913 391.366 49.5521C391.508 49.6128 391.622 49.7262 391.684 49.8687C391.744 50.0116 391.745 50.1723 391.687 50.3158C391.629 50.4594 391.516 50.5743 391.374 50.6354C390.699 50.9641 390.113 51.4495 389.665 52.0512C389.216 52.6528 388.919 53.3531 388.797 54.0935C388.766 54.2198 388.692 54.3316 388.588 54.4091C388.484 54.4866 388.355 54.525 388.226 54.5176Z" fill="#263238"/>
<path d="M464.807 90.1445C466.748 91.5963 468.379 92.9501 470.075 94.4182C471.772 95.8863 473.338 97.3543 474.969 98.8713C478.15 101.938 481.184 105.151 484.103 108.512C487.041 111.889 489.765 115.446 492.259 119.163C492.912 120.077 493.483 121.072 494.086 122.018C494.69 122.964 495.293 123.926 495.831 124.921C496.37 125.916 496.941 126.846 497.463 127.971L498.327 129.766L499.029 131.609C500.527 136.237 501.233 141.084 501.117 145.947C501.017 150.471 500.531 154.979 499.665 159.42C498.798 163.742 497.71 168.016 496.402 172.225C495.087 176.411 493.546 180.522 491.786 184.54L485.898 182.355C486.909 178.44 487.871 174.329 488.589 170.268C489.39 166.246 489.972 162.184 490.334 158.099C490.728 154.143 490.821 150.162 490.612 146.192C490.492 144.309 490.257 142.435 489.91 140.58C489.57 138.864 489.073 137.182 488.426 135.556L487.937 134.431L487.382 133.387C486.942 132.637 486.338 131.756 485.751 130.94C485.164 130.125 484.674 129.309 484.12 128.477C483.565 127.645 483.01 126.846 482.374 126.047C480.009 122.784 477.318 119.832 474.643 116.814C471.967 113.797 469.031 110.942 466.046 108.185C464.562 106.782 463.061 105.412 461.528 104.075C459.995 102.737 458.396 101.4 457.059 100.258L464.807 90.1445Z" fill="#E4897B"/>
<path d="M487.794 178.453L478.855 184.978L490.274 191.013C490.274 191.013 493.683 184.978 492.574 179.937L487.794 178.453Z" fill="#E4897B"/>
<path d="M476.016 195.549L485.379 198.453L490.337 191.047L478.854 185.012L476.016 195.549Z" fill="#E4897B"/>
<path d="M568.894 384.766H568.698C568.414 384.731 568.144 384.623 567.915 384.451C567.686 384.279 567.506 384.05 567.393 383.787C567.305 383.633 567.258 383.459 567.258 383.281C567.258 383.104 567.305 382.929 567.393 382.776C568.193 381.406 572.678 381.145 573.184 381.145C573.238 381.145 573.291 381.16 573.338 381.189C573.384 381.218 573.421 381.259 573.445 381.308C573.477 381.356 573.494 381.413 573.494 381.471C573.494 381.529 573.477 381.586 573.445 381.634C572.368 382.825 570.427 384.766 568.894 384.766ZM572.483 381.781C570.688 381.911 568.307 382.335 567.899 383.053C567.85 383.116 567.823 383.193 567.823 383.273C567.823 383.353 567.85 383.43 567.899 383.493C567.969 383.671 568.084 383.827 568.233 383.947C568.382 384.067 568.559 384.147 568.747 384.178C569.612 384.26 570.966 383.379 572.483 381.781Z" fill="#083CF5"/>
<path d="M572.873 381.748C571.372 381.748 568.42 380.916 567.865 379.709C567.768 379.497 567.747 379.257 567.807 379.031C567.866 378.805 568.002 378.607 568.191 378.47C568.359 378.32 568.555 378.207 568.769 378.136C568.982 378.066 569.208 378.041 569.431 378.062C571.225 378.241 573.33 381.145 573.411 381.324C573.435 381.369 573.448 381.42 573.448 381.471C573.448 381.522 573.435 381.573 573.411 381.618C573.391 381.664 573.359 381.705 573.319 381.736C573.279 381.767 573.233 381.788 573.183 381.797L572.873 381.748ZM569.252 378.649C569.131 378.646 569.011 378.668 568.899 378.713C568.787 378.758 568.685 378.825 568.599 378.91C568.322 379.155 568.355 379.334 568.403 379.465C568.762 380.264 571.079 381.096 572.596 381.096C571.845 380.166 570.442 378.698 569.333 378.584L569.252 378.649Z" fill="#083CF5"/>
<path d="M487.563 412.022C486.559 412.094 485.556 411.855 484.692 411.337C484.472 411.169 484.29 410.955 484.161 410.71C484.031 410.465 483.957 410.194 483.942 409.917C483.919 409.762 483.943 409.603 484.009 409.461C484.076 409.319 484.183 409.2 484.317 409.118C485.639 408.221 490.663 410.488 491.658 410.961C491.713 410.986 491.759 411.028 491.789 411.081C491.818 411.134 491.829 411.195 491.821 411.255C491.815 411.317 491.79 411.376 491.749 411.423C491.708 411.47 491.653 411.502 491.592 411.516C490.27 411.823 488.92 411.992 487.563 412.022ZM485.214 409.477C485.015 409.463 484.817 409.509 484.644 409.607C484.604 409.641 484.573 409.684 484.553 409.732C484.533 409.78 484.525 409.833 484.529 409.885C484.534 410.077 484.584 410.266 484.675 410.436C484.765 410.606 484.894 410.752 485.051 410.863C485.9 411.516 487.938 411.598 490.581 411.124C488.89 410.295 487.079 409.739 485.214 409.477Z" fill="#083CF5"/>
<path d="M491.528 411.515H491.414C489.783 410.83 486.406 408.139 486.602 406.752C486.602 406.442 486.847 406.067 487.597 405.969C490.533 405.627 491.773 410.863 491.822 411.173C491.831 411.226 491.827 411.281 491.81 411.332C491.793 411.383 491.763 411.429 491.724 411.466C491.667 411.507 491.597 411.524 491.528 411.515ZM487.874 406.54H487.678C487.369 406.54 487.189 406.671 487.173 406.817C487.075 407.617 489.391 409.754 491.071 410.683C490.696 409.395 489.685 406.54 487.874 406.54Z" fill="#083CF5"/>
<path d="M404.132 51.582L401.652 51.8756C401.652 51.8756 403.512 53.1316 404.132 51.582Z" fill="#263238"/>
<path d="M481.218 396.312L507.675 395.643L506.158 387.504L477.254 388.874L481.218 396.312Z" fill="#083CF5"/>
<path opacity="0.5" d="M481.218 396.312L507.675 395.643L506.158 387.504L477.254 388.874L481.218 396.312Z" fill="white"/>
<path d="M561.794 372.433L579.28 359.987L575.317 352.354L556.102 366.887L561.794 372.433Z" fill="#083CF5"/>
<path opacity="0.5" d="M561.794 372.433L579.28 359.987L575.317 352.354L556.102 366.887L561.794 372.433Z" fill="white"/>
<path d="M466.701 157.576L468.006 157.152C468.267 157.07 468.43 156.874 468.348 156.728L465.967 151.328C465.967 151.165 465.641 151.1 465.38 151.182L464.075 151.606C463.814 151.687 463.651 151.883 463.732 152.03L466.097 157.429C466.167 157.517 466.265 157.579 466.374 157.606C466.483 157.633 466.598 157.622 466.701 157.576Z" fill="#083CF5"/>
<path d="M427.879 169.906L429.184 169.498C429.445 169.4 429.592 169.204 429.527 169.058L427.145 163.658C427.145 163.495 426.803 163.43 426.542 163.512L425.237 163.936C424.976 163.936 424.829 164.213 424.894 164.36L427.276 169.759C427.341 169.906 427.7 169.906 427.879 169.906Z" fill="#083CF5"/>
<path d="M447.277 163.706L448.582 163.299C448.635 163.298 448.688 163.285 448.736 163.261C448.783 163.237 448.825 163.202 448.858 163.16C448.891 163.118 448.914 163.069 448.925 163.017C448.937 162.964 448.936 162.91 448.924 162.858L446.543 157.459C446.543 157.312 446.2 157.247 445.939 157.328L444.651 157.736C444.39 157.818 444.226 158.014 444.292 158.177L446.673 163.576C446.747 163.659 446.845 163.716 446.954 163.74C447.062 163.763 447.175 163.752 447.277 163.706Z" fill="#083CF5"/>
<path opacity="0.4" d="M466.701 157.576L468.006 157.152C468.267 157.07 468.43 156.874 468.348 156.728L465.967 151.328C465.967 151.165 465.641 151.1 465.38 151.182L464.075 151.606C463.814 151.687 463.651 151.883 463.732 152.03L466.097 157.429C466.167 157.517 466.265 157.579 466.374 157.606C466.483 157.633 466.598 157.622 466.701 157.576Z" fill="black"/>
<path opacity="0.4" d="M427.879 169.906L429.184 169.498C429.445 169.4 429.592 169.204 429.527 169.058L427.145 163.658C427.145 163.495 426.803 163.43 426.542 163.512L425.237 163.936C424.976 163.936 424.829 164.213 424.894 164.36L427.276 169.759C427.341 169.906 427.7 169.906 427.879 169.906Z" fill="black"/>
<path opacity="0.4" d="M447.277 163.706L448.582 163.299C448.635 163.298 448.688 163.285 448.736 163.261C448.783 163.237 448.825 163.202 448.858 163.16C448.891 163.118 448.914 163.069 448.925 163.017C448.937 162.964 448.936 162.91 448.924 162.858L446.543 157.459C446.543 157.312 446.2 157.247 445.939 157.328L444.651 157.736C444.39 157.818 444.226 158.014 444.292 158.177L446.673 163.576C446.747 163.659 446.845 163.716 446.954 163.74C447.062 163.763 447.175 163.752 447.277 163.706Z" fill="black"/>
<path d="M463.05 123.958C458.433 117.434 454.013 102.247 455.155 96.5547L459.722 102.166C460.733 110.909 461.826 117.907 463.05 123.958Z" fill="#083CF5"/>
<path opacity="0.5" d="M463.05 123.958C458.433 117.434 454.013 102.247 455.155 96.5547L459.722 102.166C460.733 110.909 461.826 117.907 463.05 123.958Z" fill="white"/>
<path d="M457.5 78.5604C463.747 78.2831 476.03 93.6324 476.03 93.6324L463.274 111.575C463.274 111.575 448.953 100.157 447.843 92.2133C446.897 85.5907 449.54 78.9845 457.5 78.5604Z" fill="#083CF5"/>
<path opacity="0.6" d="M457.5 78.5604C463.747 78.2831 476.03 93.6324 476.03 93.6324L463.274 111.575C463.274 111.575 448.953 100.157 447.843 92.2133C446.897 85.5907 449.54 78.9845 457.5 78.5604Z" fill="white"/>
</g>
</svg>
