<svg width="614" height="773" viewBox="0 0 614 773" fill="none" xmlns="http://www.w3.org/2000/svg">
<path d="M102.268 217.597L12.2673 195.001C-6.98122 190.168 -26.052 200.059 -30.3285 217.092L-50.3244 296.736C-54.6009 313.769 -42.4637 331.495 -23.2152 336.328L66.7854 358.924C86.0339 363.757 105.105 353.866 109.381 336.833L129.377 257.189C133.654 240.156 121.516 222.43 102.268 217.597Z" fill="#EDEDED" fill-opacity="0.2"/>
<path d="M338.711 92.9222L248.711 70.326C229.462 65.4933 210.392 75.384 206.115 92.4174L186.119 172.061C181.843 189.094 193.98 206.82 213.228 211.653L303.229 234.249C322.477 239.082 341.548 229.191 345.825 212.158L365.821 132.514C370.097 115.481 357.96 97.7548 338.711 92.9222Z" fill="#EDEDED" fill-opacity="0.2"/>
<path d="M579.148 -30.7505L489.147 -53.3467C469.899 -58.1794 450.828 -48.2887 446.551 -31.2553L426.556 48.3881C422.279 65.4215 434.416 83.1475 453.665 87.9801L543.665 110.576C562.914 115.409 581.985 105.518 586.261 88.4849L606.257 8.8415C610.533 -8.1919 598.396 -25.9178 579.148 -30.7505Z" fill="#EDEDED" fill-opacity="0.2"/>
<path d="M295.245 266.048L205.245 243.451C185.996 238.619 166.926 248.509 162.649 265.543L142.653 345.186C138.377 362.22 150.514 379.946 169.762 384.778L259.763 407.374C279.011 412.207 298.082 402.316 302.359 385.283L322.355 305.64C326.631 288.606 314.494 270.88 295.245 266.048Z" stroke="#EDEDED" stroke-opacity="0.2" stroke-width="0.830793" stroke-miterlimit="10"/>
<path d="M535.681 142.375L445.681 119.779C426.432 114.946 407.362 124.837 403.085 141.87L383.089 221.514C378.813 238.547 390.95 256.273 410.198 261.106L500.199 283.702C519.447 288.534 538.518 278.644 542.795 261.61L562.791 181.967C567.067 164.934 554.93 147.208 535.681 142.375Z" stroke="#EDEDED" stroke-opacity="0.2" stroke-width="0.830793" stroke-miterlimit="10"/>
<path d="M145.734 44.4719L55.7333 21.8757C36.4848 17.043 17.4141 26.9337 13.1375 43.9671L-6.85832 123.611C-11.1348 140.644 1.00234 158.37 20.2508 163.203L110.251 185.799C129.5 190.631 148.571 180.741 152.847 163.707L172.843 84.0639C177.12 67.0305 164.982 49.3046 145.734 44.4719Z" stroke="#EDEDED" stroke-opacity="0.2" stroke-width="0.830793" stroke-miterlimit="10"/>
<path d="M382.178 -80.2032L292.177 -102.799C272.928 -107.632 253.858 -97.7414 249.581 -80.708L229.585 -1.06455C225.309 15.9688 237.446 33.6948 256.694 38.5275L346.695 61.1236C365.943 65.9563 385.014 56.0656 389.291 39.0323L409.287 -40.6112C413.563 -57.6446 401.426 -75.3705 382.178 -80.2032Z" stroke="#EDEDED" stroke-opacity="0.2" stroke-width="0.830793" stroke-miterlimit="10"/>
<path d="M15.3358 563.848L-74.6648 541.252C-93.9133 536.419 -112.984 546.31 -117.261 563.343L-137.257 642.987C-141.533 660.02 -129.396 677.746 -110.147 682.579L-20.1468 705.175C-0.898261 710.007 18.1725 700.117 22.4491 683.083L42.4449 603.44C46.7214 586.407 34.5842 568.681 15.3358 563.848Z" fill="#EDEDED" fill-opacity="0.2"/>
<path d="M251.779 439.173L161.779 416.577C142.53 411.744 123.459 421.635 119.183 438.668L99.1871 518.311C94.9106 535.345 107.048 553.071 126.296 557.903L216.297 580.5C235.545 585.332 254.616 575.442 258.893 558.408L278.888 478.765C283.165 461.731 271.028 444.006 251.779 439.173Z" fill="#EDEDED" fill-opacity="0.2"/>
<path d="M492.216 315.5L402.215 292.904C382.967 288.071 363.896 297.962 359.619 314.995L339.623 394.639C335.347 411.672 347.484 429.398 366.733 434.231L456.733 456.827C475.982 461.66 495.052 451.769 499.329 434.736L519.325 355.092C523.601 338.059 511.464 320.333 492.216 315.5Z" fill="#EDEDED" fill-opacity="0.2"/>
<path d="M208.313 612.298L118.313 589.702C99.0642 584.869 79.9934 594.76 75.7169 611.793L55.721 691.437C51.4445 708.47 63.5817 726.196 82.8302 731.029L172.831 753.625C192.079 758.458 211.15 748.567 215.427 731.534L235.422 651.89C239.699 634.857 227.562 617.131 208.313 612.298Z" stroke="#EDEDED" stroke-opacity="0.2" stroke-width="0.830793" stroke-miterlimit="10"/>
<path d="M448.75 488.626L358.749 466.029C339.5 461.197 320.43 471.087 316.153 488.121L296.157 567.764C291.881 584.798 304.018 602.524 323.266 607.356L413.267 629.952C432.516 634.785 451.586 624.894 455.863 607.861L475.859 528.218C480.135 511.184 467.998 493.458 448.75 488.626Z" stroke="#EDEDED" stroke-opacity="0.2" stroke-width="0.830793" stroke-miterlimit="10"/>
<path d="M58.8018 390.723L-31.1988 368.126C-50.4473 363.294 -69.5181 373.184 -73.7946 390.218L-93.7904 469.861C-98.067 486.895 -85.9298 504.621 -66.6813 509.453L23.3193 532.049C42.5678 536.882 61.6386 526.991 65.9151 509.958L85.911 430.315C90.1875 413.281 78.0503 395.555 58.8018 390.723Z" stroke="#EDEDED" stroke-opacity="0.2" stroke-width="0.830793" stroke-miterlimit="10"/>
<path d="M295.245 266.048L205.245 243.451C185.996 238.619 166.926 248.509 162.649 265.543L142.653 345.186C138.377 362.22 150.514 379.946 169.762 384.778L259.763 407.374C279.011 412.207 298.082 402.316 302.359 385.283L322.355 305.64C326.631 288.606 314.494 270.88 295.245 266.048Z" stroke="#EDEDED" stroke-opacity="0.2" stroke-width="0.830793" stroke-miterlimit="10"/>
</svg>
