<svg width="414" height="402" viewBox="0 0 414 402" fill="none" xmlns="http://www.w3.org/2000/svg">
<mask id="mask0_4_2563" style="mask-type:alpha" maskUnits="userSpaceOnUse" x="0" y="0" width="414" height="402">
<rect width="414" height="402" fill="#D9D9D9"/>
</mask>
<g mask="url(#mask0_4_2563)">
<path d="M287.042 17.9729C287.127 20.9079 287.195 25.8583 287.939 28.6685C288.206 29.8436 289.125 31.4673 289.642 30.6838C290.596 29.1283 287.678 20.1075 287.059 17.9729C289.029 21.6232 293.417 32.228 289.477 32.069C285.486 32.3699 286.292 21.9752 287.042 17.9729Z" fill="#083CF5"/>
<path d="M308.103 33.9143C308.103 33.9143 306.576 26.8066 307.74 25.0353C308.904 23.2641 308.79 18.2229 308.512 16.8717C308.234 15.5206 307.377 13.6301 306.656 13.7777C305.935 13.9253 303.403 13.2952 302.897 13.3974L300.269 13.9651C299.361 14.1524 298.435 17.3032 297.794 18.274C297.152 19.2447 301.694 31.4788 301.694 31.4788L308.103 33.9143Z" fill="white"/>
<path d="M471.995 24.4732L287.49 17.4166L287.553 15.7589L472.063 22.8155L474.822 23.8885L471.995 24.4732Z" fill="#083CF5"/>
<path d="M286.821 14.1807L286.696 18.8699L303.233 18.4441L303.097 16.2301L286.821 14.1807Z" fill="#083CF5"/>
<path d="M302.807 12.8069V13.42C302.807 13.42 302.2 17.587 303.204 18.2512C304.209 18.9154 304.771 13.613 304.771 13.613C304.771 13.613 303.869 18.4158 304.771 18.8132C306.071 19.3809 306.764 14.3681 306.764 14.3681C306.764 14.3681 305.827 17.235 306.128 18.6883C306.429 20.1417 308.495 16.8717 308.495 16.8717C308.577 15.8554 308.366 14.8371 307.888 13.9366C307.093 12.4833 306.44 13.0737 305.963 12.7558C305.487 12.4379 303.375 12.489 302.807 12.8069Z" fill="white"/>
<path d="M303.749 16.0938C304.885 16.8261 300.133 19.2275 299.713 20.607C299.293 21.9865 300.087 24.0133 299.185 24.2403C298.884 24.3085 297.181 19.2105 297.59 18.5633C297.998 17.9161 302.625 15.3557 303.749 16.0938Z" fill="white"/>
<path d="M89.0882 53.9883C89.0882 53.9883 89.1393 46.716 87.6462 45.2229C86.1531 43.7299 85.2278 38.7511 85.2278 37.3829C85.2278 36.0147 85.699 33.9767 86.4143 33.9767C87.1296 33.9767 89.5026 32.8413 90.0193 32.8413C90.5359 32.8413 86.5109 22.4295 88.2651 21.9129C90.0193 21.3963 91.7735 32.8413 92.6988 32.8413C93.6242 32.8413 93.8343 20.4028 95.2819 20.4028C96.7296 20.4028 95.174 35.7309 96.0029 36.5597C96.8317 37.3886 94.8675 50.2755 94.8675 50.2755L89.0882 53.9883Z" fill="white"/>
<path d="M89.9853 32.2453L90.1215 32.8414C90.1215 32.8414 91.5692 36.8153 90.6892 37.6555C89.8093 38.4957 88.2083 33.4318 88.2083 33.4318C88.2083 33.4318 90.0705 37.9735 89.2416 38.5412C88.1062 39.353 86.4031 34.5956 86.4031 34.5956C86.4031 34.5956 87.9075 37.207 87.9075 38.6944C87.9075 40.1818 85.2166 37.3944 85.2166 37.3944C84.9278 36.418 84.9278 35.3789 85.2166 34.4026C85.6991 32.813 86.4541 33.2672 86.8629 32.8527C87.2716 32.4383 89.3665 32.0409 89.9853 32.2453Z" fill="white"/>
<path d="M95.0719 36.764C95.0719 36.764 90.6836 34.7089 89.7355 35.657C88.7874 36.6051 93.5789 38.8986 94.2771 40.1646C94.9754 41.4306 94.913 42.038 95.5715 42.6965C96.2301 43.3551 96.7069 37.2125 96.1789 36.6902C95.651 36.1679 95.0719 36.764 95.0719 36.764Z" fill="white"/>
<path d="M231.9 98.4622C231.9 98.4622 215.244 104.423 198.678 102.697C196.368 102.459 189.436 101.778 187.018 101.477C167.636 99.1037 147.045 98.1159 147.045 98.3998L148.402 106.121C148.402 106.121 173.694 117.06 193.467 121.256C208.886 124.531 225.224 122.641 231.588 122.641C246.116 122.635 240.91 98.4622 231.9 98.4622Z" fill="#001959"/>
<path d="M228.449 99.9213C228.449 99.9213 211.821 122.874 205.445 122.874C199.07 122.874 187.018 101.465 187.018 101.465L185.655 134.563C185.655 134.563 192.467 146.53 206.092 146.53C219.717 146.53 240.155 97.7413 240.155 97.7413L228.449 99.9213Z" fill="#083CF5"/>
<path d="M276.715 210.079V378.302H265.781L251.577 218.333L247.126 198.935L276.715 210.079Z" fill="#0A1532"/>
<path d="M233.825 375.196L234.898 386.079L212.837 384.677C212.837 384.677 222.034 380.425 226.536 380.425L227.501 375.196H233.825Z" fill="#001959"/>
<path d="M266.099 375.196V385.063H289.477L273.61 378.552L272.105 375.196H266.099Z" fill="#001959"/>
<path d="M230.09 208.109L227.393 217.754L222.301 376.621H235.256L259.991 208.109H230.09Z" fill="#0A1532"/>
<path d="M297.238 29.9573C297.238 29.9573 296.409 53.4546 293.445 59.6199C288.086 70.7696 270.408 91.9791 270.408 91.9791L281.438 119.019C281.438 119.019 302.024 87.3069 308.461 66.2791C311.3 56.946 310.011 31.0813 310.011 31.0813C306.69 28.0044 300.559 26.8746 297.238 29.9573Z" fill="#001959"/>
<path d="M194.063 381.907L192.57 381.265L192.632 379.375L186.802 379.772L185.734 384.881L185.95 387.657H207.733C207.733 387.657 198.122 383.19 194.063 381.907Z" fill="#083CF5"/>
<path d="M190.861 205.486L165.882 231.544L168.079 237.159C168.079 237.159 182.198 293.861 182.198 299.606C182.198 305.352 183.197 379.994 183.197 379.994L194.142 379.25L196.742 298.993L190.861 205.486Z" fill="#0A1532"/>
<path d="M144.366 198.634C144.684 202.466 135.095 286.22 135.095 286.22L122.793 377.484L129.974 377.637C128.271 372.085 152.575 300.004 152.575 300.004C152.575 300.004 172.161 240.514 171.411 240.514L182.97 216.137C182.97 216.137 192.274 209.375 192.967 195.824C178.598 194.325 144.366 198.634 144.366 198.634Z" fill="#0A1532"/>
<path d="M129.986 377.637L122.804 377.484V393.011H135.754C135.754 393.011 131.7 383.189 129.986 377.637Z" fill="#083CF5"/>
<path d="M139.637 221.655C137.974 209.949 138.751 151.259 138.036 129.811C138.036 129.124 142.686 102.033 142.686 102.033C143.821 102.033 156.878 100.205 167.154 100.205C173.796 100.245 180.431 100.674 187.023 101.488C187.023 101.488 191.508 115.584 191.508 130.322C191.508 138.667 195.074 190.709 193.859 214.536C179.876 216.375 153.608 221.337 139.637 221.655Z" fill="#083CF5"/>
<path d="M187.018 101.471C189.977 110.505 191.64 119.913 191.957 129.414C192.525 146.649 195.675 188.574 193.853 214.519C194.205 187.388 190.969 142.187 191.014 129.425C191.014 120.524 189.351 110.163 187.018 101.471Z" fill="#001959"/>
<path d="M176.844 80.8633C174.466 82.277 171.644 82.747 168.936 82.1804C168.936 82.1804 171.468 85.087 173.375 85.0927C175.283 85.0984 176.844 80.8633 176.844 80.8633Z" fill="white"/>
<path d="M143.952 101.233C143.952 101.233 142.248 110.316 143.753 110.112C145.257 109.907 146.364 103.799 146.364 103.799C146.364 103.799 145.927 112.048 147.312 111.883C148.697 111.718 149.26 103.856 149.26 103.856C149.26 103.856 149.708 110.555 150.86 111.469C152.013 112.383 152.388 103.384 152.388 103.384C152.388 103.384 152.757 108.959 153.523 108.868C154.289 108.778 155.567 103.583 155.845 101.074C156.123 98.5646 153.495 97.7755 150.963 98.0707C148.431 98.3659 149.214 98.1388 147.057 98.3943C144.9 98.6497 143.952 101.233 143.952 101.233Z" fill="white"/>
<path d="M153.778 67.4032C152.302 66.3019 150.128 65.7569 147.534 66.4665L147.863 67.3181C148.789 66.8759 149.805 66.6535 150.831 66.6683C151.857 66.6831 152.866 66.9346 153.778 67.4032V67.4032Z" fill="#083CF5"/>
<path d="M146.847 71.8142C147.262 70.4509 148.137 69.2734 149.322 68.4818C150.248 67.9165 151.328 67.6546 152.41 67.7324C152.773 67.7324 153.131 67.8175 153.489 67.863C152.779 67.6909 152.049 67.624 151.32 67.6643C149.049 67.7664 147.187 69.5604 146.409 71.6836L146.847 71.8142Z" fill="#083CF5"/>
<path d="M169.748 91.0311C169.748 91.0311 168.613 103.271 172.184 109.277C172.459 109.717 172.614 110.221 172.634 110.739C172.654 111.257 172.538 111.771 172.297 112.23C172.057 112.69 171.7 113.078 171.263 113.357C170.826 113.635 170.323 113.795 169.805 113.819C167.998 113.829 166.2 113.561 164.474 113.024C162.266 112.411 158.797 110.367 157.968 107.636C155.419 99.2061 160.239 84.1959 160.239 84.1959L169.748 91.0311Z" fill="white"/>
<path d="M158.973 88.8796C159.643 86.041 160.256 84.1676 160.256 84.1676L169.748 91.0311C169.545 93.5903 169.515 96.1603 169.657 98.7236C166.563 98.0367 162.498 95.7261 158.973 88.8796Z" fill="#E9E9E9"/>
<path d="M172.609 61.8623C172.609 61.8623 174.67 61.0619 176.384 63.6903C178.099 66.3188 179.7 75.1296 178.212 83.2535C176.725 91.3774 175.59 94.4884 172.036 94.4884C168.482 94.4884 161.97 93.001 157.168 81.9988C152.365 70.9967 153.966 58.4277 172.609 61.8623Z" fill="white"/>
<path d="M173.183 68.5498C173.983 68.5498 177.56 69.0721 178.803 61.7374C180.046 54.4026 172.206 45.4272 166.83 47.8286C161.454 50.23 168.261 54.414 168.261 54.414C168.261 54.414 164.372 52.2396 163.231 54.7602C162.09 57.2809 163.799 58.4163 163.231 58.9897C162.663 59.563 158.967 54.448 154.857 58.5355C150.747 62.623 153.506 65.1663 152.479 67.4542C151.451 69.742 146.722 73.0347 151.445 80.7271C153.282 83.6595 156.201 85.7486 159.569 86.5404C159.032 84.574 158.763 82.5441 158.769 80.5057C158.769 77.0995 161.511 79.8245 161.511 79.8245C161.511 79.8245 160.256 79.5577 160.256 76.1628C160.256 72.5124 158.769 69.5604 158.769 68.6293C158.769 67.6983 158.422 65.2912 162.311 66.8978C166.2 68.5044 173.183 68.5498 173.183 68.5498Z" fill="#083CF5"/>
<path d="M171.616 83.3442C171.556 83.3495 171.496 83.3306 171.45 83.2918C171.403 83.2529 171.374 83.1973 171.369 83.137C171.364 83.0768 171.383 83.017 171.421 82.9706C171.46 82.9243 171.516 82.8954 171.576 82.8901L174.551 82.6006L173.807 74.8741C174.148 77.0711 174.778 81.1586 175.062 83.015L171.616 83.3442Z" fill="#083CF5"/>
<path d="M164.412 74.7548C166.683 71.2407 170.31 73.4718 170.344 73.4945C170.396 73.5269 170.432 73.5783 170.445 73.6374C170.458 73.6965 170.448 73.7584 170.415 73.8096C170.383 73.8608 170.332 73.897 170.272 73.9103C170.213 73.9237 170.151 73.913 170.1 73.8806C169.97 73.8011 166.842 71.8652 164.798 75.016C164.765 75.0672 164.714 75.1034 164.655 75.1167C164.596 75.13 164.534 75.1193 164.483 75.087C164.432 75.0546 164.395 75.0032 164.382 74.9441C164.369 74.885 164.379 74.8231 164.412 74.7719V74.7548Z" fill="#083CF5"/>
<path d="M177.912 71.4849C177.972 71.4849 178.03 71.5088 178.072 71.5514C178.115 71.594 178.139 71.6517 178.139 71.7119C178.139 71.7722 178.115 71.8299 178.072 71.8725C178.03 71.9151 177.972 71.939 177.912 71.939C175.959 71.939 175.561 73.8976 175.544 73.9828C175.533 74.0422 175.499 74.0948 175.448 74.1289C175.398 74.1629 175.337 74.1757 175.277 74.1644C175.218 74.1531 175.165 74.1187 175.131 74.0686C175.097 74.0186 175.085 73.9571 175.096 73.8976C175.101 73.8692 175.59 71.4849 177.912 71.4849Z" fill="#083CF5"/>
<path d="M169.384 86.3645C170.52 87.4999 173.148 87.4374 174.721 87.1706C174.758 87.1635 174.797 87.1639 174.834 87.1716C174.871 87.1793 174.906 87.1943 174.937 87.2156C174.969 87.237 174.996 87.2643 175.017 87.296C175.037 87.3278 175.052 87.3633 175.059 87.4006C175.066 87.4378 175.066 87.4761 175.058 87.5133C175.05 87.5504 175.035 87.5857 175.014 87.6171C174.992 87.6484 174.965 87.6753 174.933 87.6961C174.902 87.7169 174.866 87.7312 174.829 87.7383C170.458 88.7375 167.954 87.0911 168.72 86.3531C168.764 86.309 168.816 86.2742 168.874 86.2508C168.931 86.2274 168.993 86.2159 169.055 86.217C169.117 86.218 169.178 86.2317 169.235 86.257C169.291 86.2824 169.342 86.3189 169.384 86.3645V86.3645Z" fill="white"/>
<path d="M162.47 81.6979C162.47 81.6979 162.697 76.5545 158.695 75.5212C154.692 74.488 155.209 79.0183 157.44 81.2437C159.671 83.4691 162.47 81.6979 162.47 81.6979Z" fill="white"/>
<path d="M158.695 77.0486C160.398 76.5944 161.09 78.9334 161.164 79.1661C161.403 79.9269 161.289 80.6365 159.876 80.9033C158.462 81.1701 157.02 77.5084 158.695 77.0486Z" fill="white"/>
<path d="M231.9 98.4622C231.9 98.4622 216.538 104.764 201.647 105.275L204.912 122.805C217.867 124.316 226.24 122.612 231.594 122.612C246.116 122.635 240.91 98.4622 231.9 98.4622Z" fill="#001959"/>
<path d="M245.838 96.7195C245.838 96.7195 232.962 96.8785 228.744 101.097C224.526 105.315 222.301 220.519 222.301 220.519C222.301 220.519 281.484 218.328 281.592 215.518C282.222 199.094 282.285 135.681 281.439 119.042C280.83 108.743 277.418 98.8057 271.572 90.3045C264.283 90.2874 245.838 96.7195 245.838 96.7195Z" fill="#0A1C5B"/>
<path d="M228.449 99.9213C228.449 99.9213 228.313 109.13 229.76 108.704C231.208 108.278 231.265 102.033 231.265 102.033C231.265 102.033 232.236 110.237 233.575 109.839C234.915 109.442 234.143 101.602 234.143 101.602C234.143 101.602 235.721 108.125 237.016 108.829C238.31 109.533 237.146 100.608 237.146 100.608C237.146 100.608 238.458 106.036 239.184 105.825C239.911 105.615 240.32 100.268 240.149 97.747C239.979 95.2264 237.311 95.2264 234.887 95.9474C232.463 96.6684 233.121 95.9815 231.032 96.5946C228.943 97.2077 228.449 99.9213 228.449 99.9213Z" fill="white"/>
<path d="M254.45 64.1048C254.45 64.1048 255.886 59.9662 258.015 59.9719C260.144 59.9775 260.978 65.9895 258.639 67.2271C256.301 68.4647 253.786 67.1931 254.45 64.1048Z" fill="white"/>
<path d="M238.667 73.4208C238.667 73.4208 242.953 94.1762 245.599 97.7186C248.244 101.261 256.556 101.431 259.224 98.6724L256.289 80.8635L238.667 73.4208Z" fill="white"/>
<path d="M257.158 86.092L256.289 80.8578L238.69 73.4208C238.69 73.4208 239.553 77.5992 240.746 82.5041C242.877 84.5038 245.318 86.1466 247.972 87.3694C251.662 88.9873 255.001 88.3004 257.158 86.092Z" fill="#E9E9E9"/>
<path d="M248.165 48.7825C248.165 48.7825 253.042 48.7484 255.012 52.1263C256.982 55.5041 261.257 73.1825 260.263 77.673C259.27 82.1636 254.632 84.3606 249.091 82.1465C243.55 79.9325 235.466 73.631 233.609 66.6539C231.753 59.6767 238.725 46.7274 248.165 48.7825Z" fill="white"/>
<path d="M241.54 46.6477C238.577 48.2089 230.436 45.745 228.733 53.5794C227.03 61.4137 231.781 61.3797 231.168 64.2125C230.555 67.0454 231.168 68.0672 233.643 72.2626C236.119 76.4579 237.793 77.9964 238.56 78.7004C238.995 79.152 239.509 79.5212 240.076 79.7904L238.707 73.6024C238.707 73.6024 235.704 71.3315 236.085 69.5716C236.465 67.8118 239.491 69.3048 240.206 68.1354C241.342 66.2676 235.92 57.0424 242.96 53.2728C249.108 49.9688 254.507 51.6208 256.585 56.2306C258.475 55.4244 253.769 40.2099 241.54 46.6477Z" fill="#083CF5"/>
<path d="M239.9 69.5433C239.9 69.5433 237.333 66.2449 235.42 67.2214C233.507 68.1978 234.608 74.3234 237.089 74.4426C239.57 74.5618 241.444 72.1945 239.9 69.5433Z" fill="white"/>
<path d="M239.025 69.4411C239.025 69.4411 235.523 67.545 235.097 69.4922C234.671 71.4395 236.476 73.398 238.441 72.1377C240.405 70.8774 239.025 69.4411 239.025 69.4411Z" fill="white"/>
<path d="M248.432 75.9074C251.012 76.089 253.594 75.5816 255.914 74.4371C256.678 74.0303 257.404 73.5552 258.083 73.0178C257.536 73.7171 256.873 74.3181 256.124 74.7947C254.631 75.8961 251.35 76.7647 248.432 75.9074Z" fill="white"/>
<path d="M241.484 67.3179C241.484 67.2044 241.694 64.627 243.556 63.0828C245.418 61.5387 247.774 62.5776 247.876 62.623C247.94 62.6538 247.989 62.7089 248.012 62.7759C248.036 62.843 248.032 62.9166 248.001 62.9806C247.97 63.0446 247.915 63.0937 247.848 63.1172C247.781 63.1406 247.707 63.1364 247.643 63.1055C247.558 63.0658 245.531 62.1348 243.896 63.4916C242.261 64.8484 242.017 67.3293 242.017 67.352C242.011 67.4233 241.978 67.4894 241.924 67.5362C241.869 67.5829 241.799 67.6065 241.728 67.6018C241.658 67.596 241.593 67.5629 241.547 67.5098C241.502 67.4567 241.479 67.3878 241.484 67.3179V67.3179Z" fill="#083CF5"/>
<path d="M251.929 61.1923C252.757 59.1259 256.703 59.7106 257.316 60.3805C257.355 60.4336 257.373 60.4991 257.366 60.5645C257.36 60.6298 257.329 60.6905 257.281 60.7348C257.232 60.7791 257.169 60.8039 257.103 60.8045C257.037 60.8052 256.974 60.7815 256.924 60.7381V60.7381C256.924 60.7381 256.448 60.3124 254.654 60.2953C252.86 60.2783 252.423 61.3513 252.383 61.3967C252.345 61.4346 252.296 61.4601 252.242 61.4697C252.189 61.4793 252.135 61.4725 252.086 61.4504C252.036 61.4283 251.995 61.3918 251.967 61.3457C251.939 61.2996 251.926 61.2461 251.929 61.1923V61.1923Z" fill="#083CF5"/>
<path d="M253.967 69.759C253.409 69.3079 252.808 68.9124 252.173 68.5782C251.856 69.1217 251.586 69.6915 251.367 70.2813C251.714 69.8748 252.024 69.4378 252.292 68.9756C252.823 69.2918 253.384 69.5543 253.967 69.759V69.759Z" fill="#083CF5"/>
<path d="M239.74 56.8779C239.74 56.8779 241.444 51.6834 241.063 49.3217C240.683 46.9601 238.185 45.6884 236.817 46.5627C235.449 47.4369 235.801 48.578 235.801 48.578C235.801 48.578 235.017 46.2391 236.113 44.6438C237.209 43.0486 239.519 43.5084 240.706 43.7412C241.004 43.7787 241.293 43.8753 241.554 44.0254C241.815 44.1755 242.044 44.3761 242.227 44.6154C242.227 44.6154 242.505 42.5774 241.092 41.8677C239.678 41.1581 238.213 42.0551 238.213 42.0551C238.705 41.4676 239.347 41.0255 240.072 40.7763C240.796 40.5272 241.575 40.4806 242.324 40.6415C244.912 41.2092 245.077 42.6171 245.463 43.2246C245.849 43.832 245.463 45.2342 245.463 45.2342C245.463 45.2342 247.092 44.184 247.376 42.8896C247.66 41.5952 245.366 39.5345 245.366 39.5345C245.366 39.5345 252.122 38.4275 250.754 44.712C251.169 44.7267 251.58 44.6322 251.947 44.4379C252.313 44.2436 252.622 43.9564 252.843 43.6049C253.564 42.4071 252.73 40.9367 252.73 40.9367C252.73 40.9367 263.596 51.7231 256.59 56.2307C256.323 56.401 255.841 52.3646 249.607 52.2568C243.714 52.1659 239.74 56.8779 239.74 56.8779Z" fill="#083CF5"/>
<path d="M242.755 66.5231C242.643 67.2828 242.755 68.0586 243.078 68.7552C243.401 69.4518 243.921 70.0388 244.573 70.444C245.226 70.8492 245.982 71.055 246.75 71.0361C247.517 71.0172 248.263 70.7744 248.894 70.3375C249.526 69.9006 250.016 69.2887 250.304 68.577C250.592 67.8654 250.666 67.0849 250.517 66.3317C250.368 65.5785 250.002 64.8853 249.464 64.3373C248.926 63.7894 248.24 63.4106 247.489 63.2475C246.427 63.0554 245.332 63.2924 244.445 63.9064C243.557 64.5205 242.949 65.4615 242.755 66.5231V66.5231Z" fill="#083CF5"/>
<g opacity="0.69">
<path d="M244.719 63.7302L249.341 70.2815C249.114 70.5273 248.856 70.7429 248.574 70.923L243.942 64.3433C244.176 64.109 244.437 63.9032 244.719 63.7302V63.7302Z" fill="#083CF5"/>
<path d="M243.329 65.1154L247.717 71.3601C247.552 71.4168 247.383 71.4623 247.212 71.4964L243.067 65.6149C243.141 65.4419 243.229 65.2749 243.329 65.1154V65.1154Z" fill="#083CF5"/>
</g>
<path d="M252.116 63.5314C252.007 64.2898 252.121 65.0638 252.445 65.7582C252.769 66.4526 253.289 67.0373 253.94 67.4404C254.592 67.8436 255.347 68.0475 256.113 68.0273C256.88 68.0072 257.623 67.7637 258.253 67.3268C258.882 66.8899 259.371 66.2787 259.658 65.5681C259.945 64.8576 260.018 64.0787 259.868 63.3271C259.719 62.5755 259.353 61.8839 258.816 61.3372C258.279 60.7906 257.594 60.4127 256.845 60.25C255.783 60.0582 254.688 60.2961 253.801 60.9114C252.914 61.5268 252.308 62.4692 252.116 63.5314V63.5314Z" fill="#083CF5"/>
<g opacity="0.69">
<path d="M254.08 60.7324L258.696 67.2894C258.47 67.5331 258.215 67.7468 257.935 67.9252L253.297 61.3455C253.532 61.1098 253.795 60.9039 254.08 60.7324V60.7324Z" fill="#083CF5"/>
<path d="M252.684 62.129L257.078 68.3738C256.911 68.4312 256.74 68.4767 256.567 68.51L252.422 62.6286C252.499 62.4567 252.586 62.2899 252.684 62.129V62.129Z" fill="#083CF5"/>
</g>
<path d="M252.4 64.6776L249.804 65.6611L250.041 66.2876L252.637 65.304L252.4 64.6776Z" fill="#083CF5"/>
<path d="M238.612 67.1725L238.469 67.8271L243.001 68.8136L243.144 68.159L238.612 67.1725Z" fill="#083CF5"/>
<path d="M142.663 102.016C142.663 102.016 142.288 117.798 138.013 129.794C138.013 129.794 118.172 113.597 103.917 102.306C92.0689 92.9158 86.3918 50.3662 86.3918 50.3662L97.8368 45.8927C97.8368 45.8927 104.11 80.7271 115.464 90.2873C130.224 102.692 142.663 102.016 142.663 102.016Z" fill="#083CF5"/>
<path d="M169.748 76.2594C169.748 76.4921 169.678 76.7195 169.548 76.9125C169.418 77.1055 169.233 77.2553 169.017 77.3427C168.802 77.4301 168.565 77.4512 168.337 77.4033C168.109 77.3553 167.901 77.2405 167.739 77.0735C167.577 76.9066 167.468 76.695 167.427 76.466C167.386 76.2369 167.414 76.0008 167.508 75.7877C167.602 75.5747 167.757 75.3945 167.954 75.2702C168.15 75.1459 168.38 75.0831 168.612 75.0899C168.916 75.0988 169.205 75.2259 169.417 75.4443C169.629 75.6626 169.748 75.9551 169.748 76.2594V76.2594Z" fill="#083CF5"/>
<path d="M178.014 75.8279C178.015 76.0594 177.947 76.2861 177.819 76.4791C177.692 76.6722 177.509 76.823 177.296 76.9124C177.082 77.0017 176.847 77.0257 176.62 76.9812C176.392 76.9367 176.183 76.8258 176.019 76.6625C175.855 76.4992 175.743 76.2908 175.698 76.0638C175.652 75.8368 175.675 75.6014 175.763 75.3873C175.852 75.1733 176.002 74.9903 176.194 74.8616C176.386 74.7328 176.613 74.6641 176.844 74.6641C177.153 74.6641 177.45 74.7865 177.669 75.0046C177.888 75.2227 178.012 75.5187 178.014 75.8279V75.8279Z" fill="#083CF5"/>
<path d="M394.744 194.007C394.744 194.007 391.337 202.063 390.917 202.455C390.497 202.846 388.573 200.541 388.573 200.541C388.573 200.541 394.744 191.259 394.744 194.007Z" fill="white"/>
<path d="M385.922 198.827C385.922 198.572 392.28 191.595 393.132 192.452C393.983 193.309 388.261 200.593 388.261 200.593L385.922 198.827Z" fill="white"/>
<path d="M367.551 357.773L365.751 369.127L374.267 370.075C374.267 370.075 375.465 365.767 377.202 358.943L367.551 357.773Z" fill="white"/>
<path d="M345.183 198.561C345.183 198.561 324.899 268.542 327.897 275.167H345.615L371.457 233.401L345.183 198.561Z" fill="#083CF5"/>
<path d="M299.693 135.068C297.717 135.068 278.069 96.5548 276.565 93.546C276.565 92.3084 276.502 89.1406 275.9 87.3523C275.145 85.0815 275.293 81.7944 273.891 82.2429C272.489 82.6914 272.909 85.2518 273.232 86.2169C273.293 86.4558 273.266 86.7087 273.155 86.9289C273.044 87.1491 272.857 87.3218 272.629 87.4152C272.401 87.5085 272.147 87.5162 271.913 87.4369C271.68 87.3575 271.483 87.1964 271.359 86.9833C269.792 84.6387 266.817 73.6876 265.801 75.6803C265.233 76.8157 268.253 84.6103 268.793 86.2282C269.332 87.8462 265.159 80.2162 263.292 77.1449C261.424 74.0737 260.788 76.248 261.941 77.8943C263.093 79.5407 267.26 87.1309 266.664 87.3296C266.068 87.5283 260.987 79.0524 259.539 79.535C258.092 80.0175 259.925 81.1246 260.765 82.4417C261.606 83.7587 265.426 87.3466 264.802 88.5899C264.802 88.5899 258.966 84.4683 259.125 85.3653C259.284 86.2623 267.152 93.3473 269.48 95.9133C273.079 105.337 288.844 146.309 292.756 150.214C297.178 154.642 327.187 146.428 327.187 146.428L330.026 125.576C330.026 125.576 302.225 135.068 299.693 135.068Z" fill="white"/>
<path d="M330.406 307.18C330.406 307.18 332.716 323.961 332.716 330.904C332.716 337.847 339.466 351.733 342.935 358.676C346.404 365.619 340.426 376.224 328.856 375.452C317.286 374.68 318.069 364.847 314.584 371.018C311.098 377.189 329.049 380.465 335.992 376.803C342.935 373.141 345.887 368.509 345.887 362.531C345.887 356.553 335.992 341.316 335.22 333.01C334.448 324.705 334.834 312.573 334.834 312.573L330.406 307.18Z" fill="#083CF5"/>
<path d="M330.02 125.587C330.02 125.587 314.385 157.651 318.961 162.233C323.537 166.814 345.183 193.82 345.183 198.566L374.88 189.403C374.88 189.403 364.718 166.031 366.932 153.07C369.146 140.109 371.4 126.853 363.191 123.061C354.982 119.269 330.02 125.587 330.02 125.587Z" fill="#001959"/>
<path d="M319.075 160.626C317.542 154.841 327.732 131.105 330.02 125.587C325.723 133.535 318.098 149.562 317.372 158.264C317.122 164.373 318.2 160.382 337.86 186.565C339.892 189.199 341.834 191.89 343.645 194.688C335.992 179.792 319.359 161.852 319.075 160.626Z" fill="#051533"/>
<path d="M396.044 209.931C389.725 197.93 373.852 186.894 373.852 186.894L343.645 194.688L345.183 198.56L357.502 219.724C357.502 219.724 369.192 269.319 369.192 277.221C369.192 285.124 366.353 357.773 366.353 357.773L377.815 358.96C383.378 337.092 394.471 289.376 389.413 274.689C389.408 274.689 402.385 221.938 396.044 209.931Z" fill="#083CF5"/>
<path d="M363.213 123.061C363.213 123.061 391.031 128.114 401.437 133.172C411.843 138.23 393.54 187.501 393.54 187.501L390.889 202.778C390.889 202.778 387.568 201.359 386.648 200.598C386.047 200.093 385.064 198.555 384.258 198.555C382.652 198.555 380.852 196.38 380.852 196.38L387.199 185.321C387.199 185.321 394.011 152.627 388.459 147.098C384.485 143.124 374.499 144.486 369.277 145.554C368.291 145.764 367.264 145.64 366.356 145.202C365.449 144.764 364.713 144.037 364.264 143.135C361.272 137.134 356.032 124.73 363.213 123.061Z" fill="white"/>
<path d="M327.897 275.166C327.897 275.166 327.607 318.88 330.593 321.838C333.579 324.795 338.598 324.443 341.204 321.838C343.809 319.232 346.795 279.413 345.637 275.166C344.479 270.92 330.593 270.154 327.897 275.166Z" fill="#001959"/>
<path d="M354.636 113.455L355.164 112.808C358.281 107.648 369.05 104.293 374.574 112.161C376.521 114.943 379.167 119.609 375.397 125.905L373.472 124.503C374.598 123.002 375.246 121.197 375.332 119.323C375.418 117.449 374.938 115.592 373.955 113.995C373.768 113.83 370.657 107.142 362.51 108.647C356.969 109.623 355.38 112.933 354.636 113.455Z" fill="#001959"/>
<path d="M354.698 112.996C354.698 112.996 361.385 110.611 365.587 112.087C369.788 113.563 371.831 121.29 368.737 130.981C365.643 140.671 356.248 145.996 356.248 152.196C356.248 158.395 363.321 158.071 363.321 158.071C363.321 158.071 360.375 161.648 354.669 160.342C348.964 159.037 350.128 150.356 350.128 150.356C350.128 150.356 346.977 153.859 348.306 156.334C348.306 156.334 344.383 155.534 345.575 147.733C346.767 139.933 354.09 128.642 355.731 122.754C357.372 116.867 352.927 115.318 352.927 115.318L354.698 112.996Z" fill="#001959"/>
<path d="M336.827 77.5934C336.827 77.5934 331.576 75.4759 329.447 76.0606C327.318 76.6453 324.269 78.0305 322.379 82.3054C320.488 86.5802 323.151 99.2911 326.16 105.263C329.169 111.236 340.239 118.837 340.239 118.837C340.239 118.837 343.078 119.331 347.443 114.086C351.809 108.84 345.434 78.7004 336.827 77.5934Z" fill="#001959"/>
<path d="M348.862 105.099V122.13C348.862 122.13 342.657 139.485 337.082 139.008C331.507 138.531 336.197 126.393 337.082 122.732C337.968 119.07 337.417 110.52 337.417 110.52L348.862 105.099Z" fill="white"/>
<path d="M348.862 105.099V110.645C345.552 113.983 340.131 116.839 338.371 117.639L337.559 118.008C337.667 114.369 337.417 110.515 337.417 110.515L348.862 105.099Z" fill="#E9E9E9"/>
<path d="M330.315 81.7433C328.005 83.3214 326.339 85.6765 325.62 88.3798C324.57 92.7511 326.812 95.8111 326.812 98.0308C326.812 100.251 327.164 102.113 330.315 109.47C333.466 116.828 336.06 115.249 338.371 114.301C340.681 113.353 349.288 109.192 351.178 105.025C353.069 100.858 351.314 87.6815 345.575 83.4521C339.835 79.2227 331.167 81.1075 330.315 81.7433Z" fill="white"/>
<path d="M330.519 77.0825C330.519 77.0825 327.511 80.29 329.611 83.7871C331.712 87.2842 341.482 93.1542 345.297 97.1282C349.112 101.102 349.271 106.717 348.238 108.817C347.204 110.918 348.862 116.197 348.862 116.197C348.862 116.197 359.416 115.102 361.823 102.97C363.293 95.5897 362.095 82.6176 357.196 78.1668C352.297 73.716 343.855 71.4622 338.621 72.9212C335.646 73.6934 332.88 75.1145 330.519 77.0825V77.0825Z" fill="#001959"/>
<path d="M329.078 82.72C328.943 82.8618 328.831 83.0224 328.743 83.1968C326.222 91.5762 340.971 87.3638 348.079 95.3344C350.753 98.3319 352.263 103.208 352.683 107.642C353.251 113.756 348.522 118.996 342.629 118.758L342.828 121.852C347.199 121.852 352.904 118.588 354.908 114.472C357.304 109.555 355.056 102.487 352.314 97.7755C349.299 92.581 344.287 90.963 338.689 89.7652C332.796 88.5106 327.993 88.2892 328.692 84.1392C328.788 83.5772 329.078 82.8733 329.078 82.72Z" fill="#001959"/>
<path d="M331.502 97.5995L331.229 98.6611C330.184 102.885 329.719 102.028 329.855 102.584C330.111 103.447 332.035 104.23 332.972 104.196C331.797 104.06 330.048 102.891 330.264 102.385C330.474 102.175 330.639 102.158 331.161 99.7738C331.317 99.0563 331.431 98.3303 331.502 97.5995V97.5995Z" fill="#001959"/>
<path d="M329.906 93.3531C329.278 92.8269 328.503 92.5076 327.687 92.4391C327.326 92.4547 326.972 92.5438 326.647 92.7009C326.322 92.8581 326.032 93.08 325.796 93.3531C326.084 93.1282 326.429 92.9883 326.792 92.9492C327.155 92.9101 327.522 92.9733 327.851 93.1317C328.913 93.6994 329.906 94.1365 329.906 93.3531Z" fill="#001959"/>
<path d="M337.417 90.7358C337.417 90.7358 334.357 91.5646 333.71 92.2402C333.063 92.9157 333.71 93.9092 334.278 93.3756C334.845 92.8419 336.753 90.7358 337.417 90.7358Z" fill="#001959"/>
<path d="M336.395 105.871C336.395 105.871 331.223 105.962 331.445 106.706C331.666 107.449 332.677 109.164 332.864 109.805C333.051 110.447 333.67 111.264 335.237 110.765C336.804 110.265 336.668 106.796 336.395 105.871Z" fill="#083CF5"/>
<path d="M336.395 105.871C336.486 106.243 336.539 106.624 336.554 107.006C335.419 106.972 332.858 107.006 331.904 107.784C331.726 107.44 331.573 107.083 331.445 106.717C331.223 105.962 336.395 105.871 336.395 105.871Z" fill="white"/>
<path d="M336.327 100.222C336.691 101.165 338.218 101.403 339.734 100.762C341.249 100.12 342.186 98.8371 341.817 97.9231C341.448 97.0091 339.921 96.7366 338.411 97.3554C336.901 97.9742 335.964 99.2799 336.327 100.222Z" fill="white"/>
<path d="M335.737 95.9362C335.737 96.731 336.106 97.3725 336.566 97.3725C337.026 97.3725 337.395 96.731 337.395 95.9362C337.395 95.1414 337.026 94.4999 336.566 94.4999C336.106 94.4999 335.737 95.1414 335.737 95.9362Z" fill="#001959"/>
<path d="M328.135 97.8608C328.34 98.5363 328.862 98.9678 329.271 98.8202C329.68 98.6726 329.895 98.014 329.691 97.3385C329.487 96.6629 328.959 96.2314 328.556 96.3791C328.152 96.5267 327.925 97.1852 328.135 97.8608Z" fill="#001959"/>
<path d="M334.863 96.7593C334.863 96.7593 334.295 95.8964 335.317 94.8234C335.917 94.3085 336.662 93.9931 337.45 93.9208C338.237 93.8486 339.027 94.0232 339.711 94.4203C340.387 94.9031 341.21 95.1358 342.039 95.0788C342.039 95.0788 340.375 95.4138 339.705 94.9823C338.825 94.4146 337.73 93.9321 336.328 94.6247C335.923 94.8274 335.576 95.1295 335.32 95.5029C335.063 95.8762 334.906 96.3086 334.863 96.7593Z" fill="#001959"/>
<path d="M330.457 97.5199C330.457 97.5199 330.639 96.7876 329.685 96.3391C329.148 96.1533 328.567 96.1382 328.021 96.2957C327.475 96.4533 326.992 96.7758 326.636 97.219C326.301 97.7214 325.805 98.0939 325.229 98.2749C325.229 98.2749 326.693 98.3034 326.932 97.7697C327.05 97.3809 327.296 97.0431 327.63 96.8105C327.963 96.5779 328.365 96.4639 328.771 96.4867C329.109 96.529 329.435 96.643 329.726 96.8212C330.016 96.9994 330.266 97.2376 330.457 97.5199Z" fill="#001959"/>
<path d="M344.236 96.7593C344.236 96.7593 345.297 93.4496 346.989 94.2841C348.681 95.1186 349.339 99.9271 348.164 101.148C346.989 102.368 344.236 100.166 344.236 96.7593Z" fill="white"/>
<path d="M344.985 97.0943C344.985 97.0943 345.195 94.5509 346.688 95.1073C347.193 95.2889 348.959 99.2345 347.67 99.6943C346.381 100.154 344.888 98.3716 344.985 97.0943Z" fill="white"/>
<path d="M365.871 363.973C365.871 363.973 365.388 370.081 365.065 374.231C364.741 378.381 362.72 381.532 367.579 382.809C372.439 384.086 377.798 383.065 378.513 380.425C379.229 377.785 374.886 371.012 375.107 368.327C375.329 365.642 373.972 364.415 373.109 365.205C372.246 365.994 365.871 363.973 365.871 363.973Z" fill="#083CF5"/>
<path d="M364.559 380.612C365.325 381.674 366.529 381.935 367.863 382.116C370.702 382.52 376.946 382.9 378.513 380.413C378.464 381.164 378.119 381.864 377.554 382.361C373.705 385.892 364.718 384.081 364.559 380.612Z" fill="#083CF5"/>
<path d="M374.307 370.904C374.268 371.625 373.979 372.31 373.489 372.839C373 373.369 372.34 373.711 371.625 373.806C370.909 373.901 370.183 373.743 369.572 373.36C368.961 372.976 368.503 372.39 368.278 371.705L368.227 371.552C367.35 369.013 366.627 366.423 366.064 363.797C365.678 362.497 365.184 360.714 367.858 359.715C370.532 358.716 374.284 359.147 374.188 360.391C374.12 361.202 374.75 365.761 374.307 370.904Z" fill="#046AD0"/>
<path d="M367.858 359.715C365.184 360.714 365.678 362.497 366.064 363.797C366.626 366.423 367.349 369.013 368.227 371.551L368.278 371.705C368.373 371.979 368.503 372.241 368.664 372.482C368.63 372.409 368.602 372.329 368.573 372.25L368.516 372.096C367.636 369.559 366.916 366.969 366.359 364.342C365.973 363.042 365.473 361.259 368.153 360.254C370.35 359.437 373.262 359.596 374.188 360.356C374.21 359.158 370.509 358.721 367.858 359.715Z" fill="white"/>
<path d="M368.715 372.562C368.715 372.562 369.509 365.029 368.499 364.614C367.643 364.319 366.764 364.097 365.87 363.95C365.87 363.95 365.797 371.614 366.926 372.999C368.056 374.384 368.715 372.562 368.715 372.562Z" fill="#083CF5"/>
<path d="M375.039 367.595C375.035 367.643 375.02 367.689 374.995 367.73C374.971 367.772 374.937 367.807 374.897 367.833C371.769 369.854 367.88 367.226 367.715 367.112C367.649 367.066 367.603 366.996 367.587 366.917C367.571 366.837 367.586 366.755 367.63 366.686C367.651 366.653 367.678 366.624 367.711 366.601C367.743 366.578 367.779 366.562 367.818 366.553C367.857 366.545 367.897 366.544 367.936 366.551C367.975 366.559 368.012 366.574 368.045 366.596C368.079 366.624 371.78 369.116 374.585 367.305C374.618 367.284 374.655 367.27 374.694 367.263C374.733 367.257 374.773 367.259 374.811 367.268C374.849 367.278 374.885 367.295 374.917 367.319C374.948 367.343 374.974 367.373 374.993 367.407C375.028 367.464 375.043 367.529 375.039 367.595V367.595Z" fill="white"/>
<path d="M374.971 370.637C374.968 370.684 374.955 370.728 374.932 370.769C374.91 370.809 374.878 370.844 374.841 370.87C372.893 372.204 368.108 370.183 367.909 370.098C367.834 370.064 367.775 370.003 367.744 369.927C367.714 369.851 367.714 369.766 367.744 369.689C367.758 369.653 367.779 369.619 367.806 369.591C367.833 369.562 367.866 369.54 367.902 369.524C367.938 369.509 367.977 369.501 368.016 369.501C368.055 369.501 368.094 369.509 368.13 369.525C369.43 370.092 373.115 371.313 374.511 370.354C374.544 370.331 374.58 370.315 374.619 370.306C374.658 370.298 374.698 370.298 374.737 370.306C374.776 370.314 374.813 370.33 374.845 370.353C374.878 370.376 374.905 370.405 374.926 370.439C374.963 370.498 374.979 370.568 374.971 370.637Z" fill="white"/>
<path d="M374.994 372.835C374.992 372.875 374.982 372.914 374.964 372.95C374.947 372.986 374.922 373.018 374.892 373.045C373.319 374.436 368.17 372.704 367.585 372.477C367.548 372.464 367.514 372.443 367.484 372.416C367.455 372.39 367.431 372.358 367.414 372.322C367.397 372.286 367.388 372.247 367.386 372.207C367.384 372.168 367.39 372.128 367.404 372.091C367.415 372.053 367.433 372.018 367.458 371.987C367.483 371.956 367.514 371.931 367.549 371.912C367.584 371.894 367.622 371.882 367.661 371.879C367.701 371.875 367.741 371.88 367.778 371.892C369.271 372.415 373.393 373.539 374.511 372.551C374.541 372.524 374.575 372.504 374.612 372.491C374.65 372.479 374.689 372.474 374.729 372.477C374.768 372.48 374.806 372.491 374.841 372.51C374.876 372.529 374.907 372.554 374.931 372.585C374.958 372.62 374.977 372.66 374.988 372.703C374.999 372.746 375.001 372.791 374.994 372.835V372.835Z" fill="white"/>
<path d="M367.279 375.457C367.279 375.457 365.706 379.261 366.37 380.079C367.035 380.896 376.442 381.555 376.589 379.863C376.737 378.171 374.886 374.657 374.046 374.328C373.206 373.998 367.279 375.457 367.279 375.457Z" fill="#083CF5"/>
<path d="M330.855 275.189C329.197 316.581 331.422 318.392 331.468 318.903C331.468 318.607 329.106 316.013 329.197 275.189C329.214 274.98 329.309 274.786 329.463 274.644C329.617 274.502 329.819 274.423 330.029 274.423C330.238 274.423 330.44 274.502 330.594 274.644C330.748 274.786 330.843 274.98 330.86 275.189C330.858 275.189 330.857 275.189 330.855 275.189V275.189Z" fill="#001959"/>
<path d="M84.9229 374.367L87.6308 385.562L95.8682 383.155C95.8682 383.155 95.3005 378.722 94.2956 371.756L84.9229 374.367Z" fill="white"/>
<path d="M34.2209 371.529V383.042L42.7933 382.627C42.7933 382.627 43.2985 378.188 43.9287 371.177L34.2209 371.529Z" fill="white"/>
<path d="M74.1817 101.494C74.1817 101.494 80.347 103.986 83.3388 107.103C86.3306 110.22 87.6931 116.419 87.097 121.296C86.501 126.172 85.2179 127.086 85.2179 127.086C85.2179 127.086 88.0565 133.944 87.1879 139.825C86.3193 145.707 79.9099 151.322 75.7202 152.122C75.7202 152.122 81.5335 145.173 80.7671 141.517C80.7671 141.517 76.5774 147.49 72.3821 149.806C68.1867 152.122 47.9197 172.463 34.8057 157.924C34.8057 157.924 45.5239 153.098 42.0155 143.482C38.5071 133.865 48.1751 125.145 48.1751 125.145C48.1751 125.145 40.6473 129.334 36.7131 123.72C32.7789 118.105 39.5516 113.739 39.8752 114.069C40.1988 114.398 37.2241 119.507 40.7325 120.841C44.2409 122.176 45.0528 116.788 50.5709 111.043C56.089 105.298 71.5305 98.7293 74.1817 101.494Z" fill="#05143D"/>
<path d="M72.4729 152.394L75.7486 130.912L64.6897 130.123L61.4197 147.853C63.8154 150.123 68.0902 154.665 72.4729 152.394Z" fill="white"/>
<path d="M74.3181 140.314L75.7487 130.929L64.6898 130.14L63.4011 137.112C63.5317 137.282 63.6736 137.447 63.8212 137.611C65.865 139.905 70.4293 143.538 74.3181 140.314Z" fill="#E9E9E9"/>
<path d="M77.3495 106.535C77.3495 106.535 81.8912 108.147 81.8912 114.296C81.8912 114.296 81.3973 128.386 75.7657 135.431C71.6385 140.592 66.1147 136.709 63.8439 134.409C60.4887 131.054 61.4424 126.496 61.4424 120.347C61.4424 114.199 71.1616 102.164 77.3495 106.535Z" fill="white"/>
<path d="M69.9182 121.437C69.8973 121.665 69.8106 121.882 69.6685 122.062C69.5265 122.242 69.3353 122.376 69.1182 122.449C68.9012 122.522 68.6675 122.53 68.4459 122.473C68.2242 122.415 68.0241 122.294 67.8698 122.125C67.7155 121.956 67.6138 121.746 67.5769 121.52C67.5401 121.294 67.5697 121.062 67.6622 120.852C67.7548 120.643 67.9062 120.465 68.0981 120.34C68.29 120.215 68.5141 120.149 68.7431 120.149C68.9049 120.156 69.0637 120.195 69.2104 120.264C69.3571 120.333 69.4888 120.43 69.5979 120.549C69.7071 120.669 69.7916 120.809 69.8466 120.961C69.9015 121.114 69.9259 121.276 69.9182 121.437V121.437Z" fill="#001959"/>
<path d="M79.3992 122.613C79.3794 122.841 79.2935 123.059 79.1521 123.239C79.0106 123.419 78.8197 123.555 78.6026 123.628C78.3855 123.702 78.1517 123.711 77.9296 123.654C77.7075 123.597 77.5069 123.477 77.3521 123.308C77.1972 123.139 77.0949 122.928 77.0577 122.702C77.0204 122.476 77.0498 122.244 77.1423 122.034C77.2348 121.824 77.3863 121.646 77.5784 121.521C77.7705 121.396 77.9948 121.329 78.2241 121.33C78.5499 121.344 78.8566 121.488 79.0769 121.728C79.2972 121.969 79.4131 122.287 79.3992 122.613V122.613Z" fill="#001959"/>
<path d="M65.4558 121.068C65.4558 121.068 67.6869 119.609 69.3389 120.018C70.9909 120.427 71.2124 121.432 71.2124 121.432C70.2971 120.797 69.1757 120.531 68.0729 120.688C66.2847 120.983 65.4558 121.068 65.4558 121.068Z" fill="#001959"/>
<path d="M81.8287 123.299C81.8287 123.299 80.0404 121.318 78.3373 121.301C76.6342 121.284 76.1687 122.192 76.1687 122.192C77.2139 121.806 78.3668 121.832 79.3932 122.266C81.0509 123.004 81.8287 123.299 81.8287 123.299Z" fill="#001959"/>
<path d="M74.7155 124.14C74.934 125.354 75.2589 126.547 75.6863 127.705C75.0478 128.095 74.3498 128.379 73.6199 128.545C75.5444 128.624 76.0837 127.858 76.1689 127.824C75.7747 126.562 75.289 125.331 74.7155 124.14V124.14Z" fill="#001959"/>
<path d="M70.1116 125.792C70.1116 126.785 68.8229 127.591 67.2277 127.591C65.6324 127.591 64.3438 126.785 64.3438 125.792C64.3438 124.798 65.6324 124.009 67.222 124.009C68.8116 124.009 70.1116 124.798 70.1116 125.792Z" fill="white"/>
<path d="M79.8019 124.832C78.5927 124.832 77.6162 125.587 77.6162 126.535C77.6162 127.364 78.3939 128.057 79.4158 128.199C79.7791 127.103 80.0857 125.99 80.3525 124.895C80.1714 124.856 79.987 124.835 79.8019 124.832Z" fill="white"/>
<path d="M80.6874 104.94C80.6874 104.94 81.4538 113.733 73.9658 114.284C69.5699 114.571 65.335 116.049 61.7147 118.559L58.3823 128.551C58.3823 128.551 56.7643 120.841 56.9857 115.187C57.2071 109.532 65.2798 101.658 70.6106 100.943C75.9414 100.228 80.6874 104.94 80.6874 104.94Z" fill="#001959"/>
<path d="M62.7369 119.905C62.7369 119.905 62.2147 118.037 60.574 118.446C58.9333 118.854 59.7338 123.685 60.574 124.526C61.4142 125.366 64.3833 124.707 62.7369 119.905Z" fill="white"/>
<path d="M62.311 120.836C62.311 120.836 61.3402 118.565 60.5738 119.314C59.8074 120.064 60.7271 123.442 61.397 123.442C62.0669 123.442 62.311 120.836 62.311 120.836Z" fill="white"/>
<path d="M69.5607 131.191C69.3676 131.049 69.4301 130.998 69.2825 131.191C68.8794 131.758 69.5834 133.569 70.7869 133.95C72.3424 134.449 74.5735 133.382 74.5735 132.457C74.6019 132.161 72.5354 133.291 69.5607 131.191Z" fill="#001959"/>
<path d="M66.2566 118.139C66.2566 118.139 69.0099 117.145 70.1113 117.145C71.2126 117.145 72.7228 118.417 72.4332 119.155C72.1437 119.893 70.8266 117.918 69.9183 117.918C69.0099 117.918 66.2566 118.139 66.2566 118.139Z" fill="#001959"/>
<path d="M80.6874 120.546C80.6874 120.546 80.0289 118.939 78.9843 118.622C77.9397 118.304 76.1458 119.07 76.1458 119.865C76.1458 120.66 78.0476 119.15 78.9162 119.416C79.577 119.669 80.1796 120.053 80.6874 120.546Z" fill="#001959"/>
<path d="M48.2034 147.909C42.9465 141.017 30.7863 122.896 29.7133 101.596C28.1464 70.5538 32.8697 60.7211 32.8697 60.7211C32.8697 60.7211 36.3725 57.9791 37.6441 55.9581C38.9158 53.9371 41.5556 51.9842 40.3066 51.1837C39.0577 50.3832 37.3035 52.8244 36.7585 53.693C36.6806 53.8189 36.563 53.9153 36.4241 53.9667C36.2852 54.0181 36.1332 54.0217 35.9921 53.9768C35.8117 53.93 35.6428 53.8469 35.4955 53.7328C35.3482 53.6186 35.2257 53.4756 35.1354 53.3126C35.0451 53.1495 34.989 52.9698 34.9703 52.7844C34.9517 52.599 34.971 52.4117 35.027 52.234C35.5193 50.8544 36.183 49.5422 37.0026 48.3281C39.5459 44.2974 41.4988 40.4881 40.2499 40.772C39.0009 41.0558 34.8964 48.3281 34.0051 49.7701C33.1138 51.2121 36.3554 43.1507 37.5589 39.7444C38.7625 36.3382 36.6676 37.2408 36.1226 39.1767C35.5776 41.1126 32.3474 49.14 31.8195 48.8277C31.2915 48.5155 34.658 39.1767 33.3296 38.3763C32.0011 37.5758 32.3474 39.682 31.8648 41.1637C31.3823 42.6454 31.019 47.8796 29.6565 48.1862C29.6565 48.1862 29.1512 41.0558 28.5551 41.7427C28.2543 42.0834 27.38 49.6906 27.3232 52.8868C27.204 60.4487 16.8547 100.778 19.2901 111.36C21.6688 121.704 24.7969 151.401 33.0968 157.345C42.8443 157.719 43.6731 155.102 48.2034 147.909Z" fill="white"/>
<path d="M34.5901 206.837C34.5901 206.837 22.7307 233.605 22.7307 241.973C22.7307 250.341 28.9755 372.483 28.9755 372.483L48.4194 373.311C48.4194 373.311 47.5792 259.123 50.5086 256.194C53.438 253.264 56.3616 253.684 56.3616 253.684L81.386 375.122L99.5526 373.743C99.5526 373.743 89.8506 257.868 84.8321 245.316C79.8135 232.765 68.9363 206.837 68.9363 206.837H34.5901Z" fill="#001959"/>
<path d="M103.374 188.779C103.374 188.779 125.514 198.202 128.483 195.205C131.452 192.208 129.108 176.953 126.78 176.953C124.452 176.953 108.409 168.035 104.537 168.035C100.666 168.035 96.1751 181.563 103.374 188.779Z" fill="white"/>
<path d="M163.635 162.045C163.297 162.54 162.819 162.924 162.262 163.147C161.706 163.371 161.096 163.424 160.509 163.301C159.922 163.177 159.385 162.883 158.966 162.454C158.546 162.025 158.264 161.482 158.153 160.892C158.043 160.303 158.11 159.694 158.345 159.143C158.581 158.591 158.975 158.122 159.477 157.795C159.98 157.467 160.568 157.296 161.168 157.303C161.767 157.31 162.351 157.494 162.846 157.833C163.508 158.288 163.962 158.987 164.11 159.776C164.258 160.566 164.087 161.382 163.635 162.045V162.045Z" fill="#001959"/>
<path d="M158.622 157.067L126.797 176.936C126.797 176.936 120.495 191.475 128.5 195.188L162.994 164.134L158.622 157.067Z" fill="#4064E4"/>
<path d="M169.909 157.719C169.722 157.589 169.565 157.421 169.449 157.225C169.347 157.05 169.281 156.855 169.255 156.654C169.228 156.453 169.242 156.248 169.294 156.052C169.347 155.856 169.438 155.672 169.562 155.511C169.686 155.35 169.84 155.215 170.016 155.114L176.341 151.406C176.516 151.296 176.711 151.221 176.916 151.187C177.12 151.154 177.33 151.161 177.531 151.21C177.732 151.259 177.922 151.348 178.088 151.472C178.255 151.595 178.394 151.751 178.499 151.93C178.604 152.109 178.672 152.307 178.698 152.512C178.725 152.718 178.71 152.926 178.654 153.126C178.599 153.326 178.503 153.512 178.374 153.674C178.245 153.836 178.084 153.97 177.902 154.069L171.578 157.776C171.323 157.927 171.031 158.002 170.735 157.992C170.439 157.982 170.152 157.887 169.909 157.719V157.719Z" fill="#001959"/>
<path d="M169.67 158.9C169.537 158.734 169.444 158.54 169.397 158.332C169.356 158.143 169.352 157.946 169.387 157.755C169.422 157.564 169.494 157.382 169.599 157.219C169.705 157.055 169.842 156.915 170.002 156.805C170.162 156.695 170.343 156.618 170.533 156.578L177.345 155.085C177.717 155.028 178.096 155.114 178.406 155.326C178.716 155.539 178.933 155.861 179.013 156.228C179.094 156.595 179.031 156.979 178.838 157.301C178.645 157.624 178.337 157.861 177.975 157.963L171.163 159.457C170.887 159.517 170.599 159.497 170.335 159.398C170.07 159.299 169.839 159.127 169.67 158.9V158.9Z" fill="#001959"/>
<path d="M168.619 155.647C168.515 155.573 168.42 155.487 168.335 155.392C168.2 155.24 168.097 155.063 168.031 154.871C167.964 154.679 167.937 154.476 167.95 154.273C167.962 154.071 168.015 153.873 168.104 153.69C168.194 153.508 168.319 153.345 168.472 153.212L173.422 148.863C173.573 148.728 173.75 148.625 173.941 148.559C174.133 148.493 174.335 148.465 174.538 148.478C174.74 148.49 174.938 148.543 175.119 148.633C175.301 148.722 175.463 148.847 175.596 148.999C175.866 149.307 176.003 149.709 175.978 150.117C175.952 150.526 175.766 150.908 175.46 151.179L170.51 155.528C170.252 155.754 169.927 155.888 169.585 155.91C169.243 155.932 168.903 155.839 168.619 155.647V155.647Z" fill="#001959"/>
<path d="M175.489 149.391L175.415 149.334C175.198 149.127 175.072 148.842 175.065 148.542C175.057 148.242 175.169 147.951 175.375 147.733L177.782 144.742C177.866 144.623 177.972 144.521 178.094 144.444C178.217 144.366 178.354 144.313 178.497 144.289C178.64 144.265 178.787 144.269 178.928 144.302C179.07 144.335 179.203 144.396 179.321 144.48C179.537 144.689 179.662 144.974 179.668 145.274C179.675 145.574 179.562 145.864 179.355 146.081L176.954 149.068C176.79 149.29 176.552 149.446 176.282 149.506C176.013 149.565 175.731 149.524 175.489 149.391V149.391Z" fill="#001959"/>
<path d="M178.492 152.468C178.471 152.448 178.452 152.425 178.436 152.4C178.27 152.194 178.192 151.931 178.22 151.669C178.248 151.406 178.378 151.165 178.583 150.998L181.064 148.994C181.27 148.83 181.533 148.753 181.795 148.781C182.058 148.808 182.299 148.938 182.466 149.142C182.549 149.243 182.611 149.36 182.648 149.486C182.686 149.611 182.698 149.743 182.684 149.873C182.671 150.004 182.631 150.13 182.568 150.245C182.506 150.36 182.421 150.462 182.319 150.544L179.838 152.554C179.643 152.709 179.397 152.786 179.149 152.77C178.9 152.754 178.666 152.647 178.492 152.468V152.468Z" fill="#001959"/>
<path d="M178.707 156.607L178.679 156.527C178.646 156.41 178.637 156.288 178.651 156.168C178.666 156.048 178.704 155.932 178.764 155.826C178.823 155.72 178.903 155.628 178.999 155.553C179.094 155.479 179.204 155.424 179.321 155.392L182.159 154.591C182.388 154.544 182.626 154.586 182.826 154.708C183.025 154.83 183.172 155.022 183.235 155.247C183.298 155.472 183.274 155.713 183.167 155.921C183.06 156.129 182.878 156.289 182.659 156.368L179.82 157.163C179.599 157.226 179.361 157.204 179.155 157.101C178.949 156.998 178.79 156.822 178.707 156.607V156.607Z" fill="#001959"/>
<path d="M167.581 153.74C167.281 153.534 167.063 153.228 166.966 152.877C166.87 152.526 166.9 152.152 167.053 151.821L169.891 145.661C169.968 145.466 170.084 145.289 170.232 145.14C170.38 144.992 170.556 144.875 170.751 144.796C170.945 144.718 171.154 144.68 171.363 144.685C171.573 144.69 171.779 144.737 171.97 144.825C172.161 144.912 172.331 145.037 172.472 145.192C172.613 145.348 172.72 145.53 172.788 145.728C172.856 145.927 172.883 146.137 172.867 146.346C172.851 146.555 172.793 146.759 172.696 146.944L169.857 153.11C169.773 153.294 169.653 153.461 169.504 153.599C169.355 153.737 169.181 153.844 168.99 153.915C168.8 153.986 168.598 154.018 168.395 154.011C168.192 154.003 167.992 153.955 167.808 153.87C167.728 153.834 167.652 153.79 167.581 153.74Z" fill="#001959"/>
<path d="M166.263 152.173C166.01 152.005 165.83 151.747 165.758 151.452L164.912 147.989C164.86 147.826 164.842 147.655 164.859 147.485C164.877 147.315 164.929 147.151 165.013 147.002C165.097 146.854 165.211 146.724 165.347 146.621C165.484 146.519 165.64 146.446 165.806 146.406C165.972 146.367 166.145 146.363 166.312 146.393C166.48 146.424 166.64 146.489 166.782 146.584C166.923 146.679 167.044 146.803 167.135 146.947C167.227 147.091 167.288 147.253 167.314 147.421L168.16 150.879C168.199 151.036 168.206 151.199 168.182 151.36C168.158 151.52 168.102 151.674 168.018 151.812C167.934 151.951 167.824 152.072 167.693 152.168C167.563 152.264 167.414 152.333 167.257 152.372C167.087 152.412 166.91 152.415 166.738 152.381C166.567 152.346 166.405 152.276 166.263 152.173V152.173Z" fill="#001959"/>
<path d="M165.264 146.524C165.074 146.426 164.92 146.27 164.826 146.077C164.732 145.885 164.703 145.667 164.742 145.457L165.162 143.215C165.187 143.087 165.236 142.966 165.307 142.857C165.378 142.749 165.47 142.655 165.577 142.582C165.684 142.509 165.805 142.458 165.932 142.432C166.059 142.405 166.19 142.404 166.318 142.428C166.445 142.452 166.567 142.502 166.675 142.573C166.784 142.644 166.877 142.736 166.95 142.843C167.023 142.95 167.074 143.071 167.101 143.198C167.127 143.325 167.128 143.456 167.104 143.584L166.684 145.82C166.653 145.97 166.589 146.111 166.496 146.232C166.402 146.353 166.283 146.451 166.146 146.519C166.009 146.586 165.859 146.622 165.706 146.623C165.553 146.624 165.402 146.59 165.264 146.524Z" fill="#001959"/>
<path d="M172.099 145.184C171.987 145.12 171.888 145.033 171.809 144.93C171.729 144.827 171.671 144.71 171.637 144.584C171.604 144.459 171.595 144.328 171.612 144.199C171.629 144.07 171.671 143.946 171.736 143.833L173.07 141.5C173.213 141.301 173.425 141.162 173.664 141.11C173.904 141.058 174.154 141.097 174.367 141.22C174.579 141.342 174.738 141.539 174.813 141.773C174.889 142.006 174.874 142.259 174.773 142.482L173.434 144.815C173.304 145.039 173.091 145.204 172.842 145.273C172.592 145.342 172.326 145.31 172.099 145.184V145.184Z" fill="#001959"/>
<path d="M174.303 141.04C174.109 140.933 173.963 140.755 173.898 140.543C173.832 140.332 173.851 140.103 173.951 139.905L174.836 138.304C174.886 138.195 174.957 138.098 175.045 138.019C175.134 137.939 175.238 137.879 175.351 137.842C175.464 137.804 175.584 137.791 175.703 137.802C175.821 137.813 175.936 137.849 176.04 137.907C176.144 137.964 176.235 138.043 176.308 138.138C176.38 138.232 176.432 138.341 176.46 138.457C176.488 138.572 176.492 138.693 176.472 138.81C176.451 138.927 176.406 139.039 176.341 139.138L175.455 140.739C175.339 140.929 175.155 141.066 174.94 141.123C174.725 141.179 174.496 141.149 174.303 141.04V141.04Z" fill="#001959"/>
<path d="M179.15 144.384C179.055 144.323 178.973 144.245 178.908 144.152C178.843 144.06 178.797 143.955 178.773 143.845C178.749 143.735 178.747 143.621 178.767 143.51C178.786 143.399 178.828 143.293 178.889 143.198L179.883 141.659C180.014 141.485 180.206 141.367 180.42 141.328C180.635 141.29 180.856 141.334 181.039 141.452C181.222 141.57 181.354 141.753 181.408 141.964C181.462 142.175 181.434 142.399 181.33 142.59L180.337 144.129C180.276 144.223 180.197 144.305 180.104 144.369C180.011 144.434 179.907 144.479 179.797 144.502C179.686 144.526 179.572 144.528 179.462 144.508C179.351 144.487 179.245 144.445 179.15 144.384Z" fill="#001959"/>
<path d="M182.312 149.334C182.147 149.176 182.051 148.959 182.045 148.731C182.038 148.502 182.122 148.281 182.278 148.114L183.538 146.791C183.695 146.625 183.911 146.529 184.139 146.522C184.367 146.516 184.588 146.6 184.753 146.757C184.919 146.913 185.016 147.129 185.022 147.357C185.028 147.585 184.944 147.806 184.787 147.972L183.527 149.3C183.37 149.465 183.154 149.561 182.927 149.567C182.699 149.574 182.478 149.49 182.312 149.334Z" fill="#001959"/>
<path d="M183.113 155.488C183.082 155.402 183.069 155.31 183.074 155.219C183.079 155.127 183.102 155.037 183.141 154.955C183.181 154.872 183.236 154.798 183.304 154.736C183.373 154.675 183.452 154.628 183.539 154.597L184.935 154.098C185.022 154.067 185.113 154.054 185.205 154.059C185.297 154.063 185.386 154.086 185.469 154.126C185.552 154.165 185.626 154.221 185.687 154.289C185.749 154.357 185.796 154.437 185.827 154.523C185.857 154.61 185.87 154.701 185.866 154.793C185.861 154.885 185.838 154.974 185.798 155.057C185.759 155.14 185.703 155.214 185.635 155.275C185.567 155.337 185.487 155.384 185.401 155.415L184.004 155.914C183.83 155.974 183.638 155.964 183.471 155.884C183.305 155.804 183.176 155.662 183.113 155.488V155.488Z" fill="#001959"/>
<path d="M165.435 151.52L161.239 156.925L164.941 162.454C164.941 162.454 172.258 159.706 173.314 158.616C174.081 157.822 170.266 153.632 168.097 151.372C167.922 151.19 167.709 151.048 167.473 150.955C167.238 150.863 166.985 150.822 166.732 150.836C166.479 150.85 166.233 150.918 166.009 151.036C165.785 151.154 165.589 151.319 165.435 151.52V151.52Z" fill="#4064E4"/>
<path d="M52.3874 221.739C45.5482 221.642 38.8688 219.658 33.0854 216.006L34.0392 214.649C34.1868 214.751 49.0721 224.941 65.0984 217.152L65.8251 218.645C61.6416 220.691 57.0444 221.75 52.3874 221.739V221.739Z" fill="#083CF5"/>
<path d="M52.1546 215.921C52.1546 216.311 52.0387 216.693 51.8217 217.018C51.6046 217.343 51.296 217.596 50.935 217.746C50.574 217.895 50.1767 217.935 49.7935 217.858C49.4103 217.782 49.0583 217.594 48.782 217.318C48.5057 217.041 48.3176 216.689 48.2413 216.306C48.1651 215.923 48.2042 215.526 48.3537 215.165C48.5033 214.804 48.7565 214.495 49.0814 214.278C49.4063 214.061 49.7882 213.945 50.179 213.945C50.7029 213.945 51.2054 214.153 51.5759 214.524C51.9464 214.894 52.1546 215.397 52.1546 215.921Z" fill="#083CF5"/>
<path d="M45.0831 208.964L43.9812 219.945L45.6306 220.111L46.7325 209.13L45.0831 208.964Z" fill="#083CF5"/>
<path d="M13 118.9C13 118.9 17.9901 150.555 22.8667 157.152C23.3222 157.737 23.6499 158.411 23.8288 159.131C24.0078 159.85 24.0339 160.6 23.9056 161.33C22.1003 170.55 18.1775 198.441 34.5899 206.866C54.3517 217.005 75.8337 207.774 82.5894 201.024C89.3451 194.274 96.078 194.109 104.23 197.561C112.383 201.013 118.037 183.527 118.037 174.699C118.037 165.872 86.2454 155.046 70.2474 148.403C54.2495 141.761 48.7087 142.346 42.7478 133.246C36.7869 124.145 36.7869 107.523 30.5137 110.032C24.2406 112.541 13 118.9 13 118.9Z" fill="#083CF5"/>
<path d="M70.2474 148.375C58.4902 143.493 52.3817 142.516 47.6016 138.724C46.8466 146.104 46.4662 160.49 53.9315 165.542C62.6118 171.407 82.5553 164.129 90.9176 156.664C81.6924 152.57 77.4062 151.344 70.2474 148.375Z" fill="white"/>
<path d="M77.616 108.283C77.616 108.283 64.0819 116.368 62.7364 119.904C61.391 123.441 56.7187 128.499 59.8411 139.905C62.9635 151.31 51.1212 156.158 46.8463 152.587C42.5715 149.016 43.4401 141.426 46.8463 141.982C46.8463 141.982 48.4757 145.445 51.1325 142.789C53.7894 140.132 51.4731 130.401 51.019 124.151C50.5648 117.9 66.2562 92.785 77.616 108.283Z" fill="#001959"/>
<path d="M42.9693 380.271C42.9693 380.271 42.447 385.648 42.095 389.304C41.743 392.96 43.0772 396.025 38.4844 396.343C33.8917 396.661 29.2081 394.901 28.964 392.489C28.7199 390.076 33.7157 384.915 33.9428 382.548C34.1699 380.181 35.5607 379.34 36.2136 380.164C36.8665 380.987 42.9693 380.271 42.9693 380.271Z" fill="#083CF5"/>
<path d="M41.55 394.941C40.6928 395.736 39.563 395.77 38.3254 395.707C35.697 395.594 29.9745 394.907 28.964 392.489C28.9257 392.819 28.9564 393.155 29.0541 393.473C29.1518 393.792 29.3144 394.087 29.5317 394.339C32.461 398.018 40.8688 397.904 41.55 394.941Z" fill="#083CF5"/>
<path d="M34.255 384.915C33.9881 387.93 38.0586 389.207 39.58 386.618C39.6025 386.576 39.6271 386.534 39.6538 386.493C40.8454 384.439 41.9017 382.31 42.8159 380.118C43.3836 379.045 44.099 377.581 41.8338 376.28C39.5687 374.98 36.1113 374.759 36.0035 375.838C35.9353 376.525 34.658 380.379 34.255 384.915Z" fill="#083CF5"/>
<path d="M41.8337 376.252C44.1045 377.552 43.3722 379.017 42.8158 380.09C41.9016 382.281 40.8453 384.411 39.6537 386.465C39.627 386.506 39.6024 386.547 39.5799 386.59C39.4512 386.815 39.2926 387.021 39.1087 387.203L39.2336 387.016L39.3017 386.891C40.4944 384.835 41.5526 382.703 42.4695 380.51C43.0372 379.443 43.7526 377.978 41.4874 376.678C39.6253 375.605 36.9457 375.27 36.009 375.781C36.1793 374.736 39.5913 374.935 41.8337 376.252Z" fill="white"/>
<path d="M39.052 387.26C39.052 387.26 39.5119 380.595 40.4883 380.447C41.3099 380.331 42.1396 380.281 42.9692 380.3C42.9692 380.3 41.8337 386.959 40.5961 387.981C39.3585 389.003 39.052 387.26 39.052 387.26Z" fill="#083CF5"/>
<path d="M34.1079 381.924C34.1039 381.966 34.1099 382.009 34.1257 382.048C34.1415 382.088 34.1665 382.123 34.1987 382.151C36.7136 384.421 40.6422 382.769 40.8068 382.718C40.8401 382.705 40.8703 382.685 40.8956 382.659C40.9209 382.633 40.9407 382.603 40.9539 382.57C40.9672 382.536 40.9736 382.501 40.9727 382.465C40.9718 382.429 40.9636 382.393 40.9487 382.361C40.9351 382.327 40.915 382.297 40.8895 382.272C40.8639 382.247 40.8335 382.227 40.8001 382.213C40.7667 382.2 40.731 382.194 40.6951 382.195C40.6592 382.196 40.6238 382.204 40.5911 382.219C40.557 382.219 36.8158 383.797 34.562 381.77C34.5372 381.745 34.5076 381.725 34.475 381.711C34.4423 381.698 34.4073 381.691 34.3719 381.691C34.3365 381.691 34.3014 381.698 34.2688 381.711C34.2361 381.725 34.2065 381.745 34.1817 381.77C34.1387 381.81 34.1123 381.865 34.1079 381.924V381.924Z" fill="white"/>
<path d="M33.6928 384.586C33.6894 384.627 33.6953 384.668 33.7101 384.706C33.7248 384.745 33.748 384.779 33.778 384.807C35.3278 386.283 39.9717 385.307 40.1704 385.267C40.2404 385.251 40.3015 385.208 40.3406 385.148C40.3798 385.087 40.394 385.014 40.3804 384.944C40.373 384.909 40.3588 384.875 40.3385 384.846C40.3182 384.816 40.2923 384.791 40.2622 384.772C40.2321 384.752 40.1985 384.739 40.1633 384.732C40.1281 384.726 40.0919 384.726 40.0569 384.734C38.7909 385.006 35.2654 385.477 34.1527 384.416C34.1274 384.39 34.0973 384.37 34.0642 384.356C34.0311 384.343 33.9956 384.336 33.9597 384.336C33.9238 384.336 33.8883 384.343 33.8552 384.356C33.8221 384.37 33.792 384.39 33.7666 384.416C33.7253 384.464 33.6996 384.523 33.6928 384.586V384.586Z" fill="white"/>
<path d="M33.3299 386.476C33.3232 386.547 33.3434 386.618 33.3866 386.675C34.5958 388.14 39.5235 387.476 40.0798 387.39C40.1155 387.386 40.1501 387.375 40.1813 387.357C40.2125 387.339 40.2398 387.315 40.2615 387.287C40.2833 387.258 40.2991 387.225 40.3078 387.191C40.3166 387.156 40.3182 387.119 40.3126 387.084C40.3078 387.049 40.2959 387.015 40.2778 386.984C40.2597 386.954 40.2357 386.927 40.2071 386.906C40.1786 386.885 40.1461 386.869 40.1116 386.861C40.0771 386.853 40.0412 386.851 40.0061 386.857C38.5698 387.061 34.6696 387.368 33.8124 386.329C33.7651 386.274 33.6983 386.24 33.6263 386.233C33.5542 386.227 33.4825 386.249 33.4263 386.295C33.3988 386.317 33.3761 386.344 33.3595 386.376C33.3429 386.407 33.3328 386.441 33.3299 386.476Z" fill="white"/>
<path d="M39.9035 390.008C39.9035 390.008 40.7267 393.567 40 394.163C39.2734 394.759 30.6555 393.811 30.8031 392.318C30.9507 390.825 33.1705 388.077 33.9653 387.93C34.7601 387.782 39.9035 390.008 39.9035 390.008Z" fill="#083CF5"/>
<path d="M97.8436 375.684C97.8436 375.684 93.0919 376.468 92.967 379.624C92.8421 382.781 96.7707 387.004 96.7707 387.004L100.449 384.506C99.3519 383.16 98.6729 381.522 98.4965 379.795C98.3651 378.412 98.1471 377.039 97.8436 375.684Z" fill="#083CF5"/>
<path d="M86.393 393.317L94.5168 393.499C97.8606 393.573 103.191 394.101 104.86 394.135C106.53 394.169 112.678 390.371 112.309 389.071C111.94 387.771 106.439 387.97 103.606 386.46C100.773 384.949 95.8964 381.35 94.8859 380.953C93.3076 380.385 89.2088 381.799 88.2039 382.741C87.1991 383.683 85.5755 392.454 86.393 393.317Z" fill="#083CF5"/>
<path d="M87.6589 391.143C101.051 389.338 97.151 393.312 110.282 389.962C107.08 391.177 102.334 392.352 99.0017 391.609C97.1444 391.265 95.2588 391.098 93.3701 391.109C91.4456 391.064 89.5437 391.098 87.6589 391.143Z" fill="#083CF5"/>
<path d="M96.6967 387.765C96.7387 387.818 96.7906 387.862 96.8497 387.894C96.9087 387.927 96.9736 387.948 97.0407 387.955C97.1077 387.962 97.1755 387.956 97.2402 387.938C97.3049 387.919 97.3652 387.887 97.4177 387.845C98.6967 386.811 100.069 385.899 101.517 385.12L100.585 384.438C99.2474 385.201 97.9718 386.069 96.7705 387.033C96.6666 387.122 96.6009 387.248 96.5872 387.384C96.5734 387.521 96.6127 387.657 96.6967 387.765V387.765Z" fill="white"/>
<path d="M96.1236 385.625C96.1817 385.66 96.246 385.682 96.313 385.692C96.3799 385.702 96.448 385.698 96.5135 385.681C96.579 385.664 96.6405 385.634 96.6944 385.594C96.7483 385.553 96.7936 385.502 96.8276 385.443C97.6495 384.338 98.5447 383.289 99.5071 382.304C99.4369 381.943 99.2517 381.614 98.9791 381.367C97.8997 382.489 96.8874 383.674 95.9476 384.915C95.9125 384.973 95.8892 385.038 95.8791 385.105C95.8689 385.172 95.8722 385.241 95.8885 385.307C95.9048 385.372 95.934 385.434 95.9744 385.489C96.0147 385.544 96.0655 385.59 96.1236 385.625V385.625Z" fill="white"/>
<path d="M26.9712 367.566L49.4466 368.145V373.266L26.9712 372.92V367.566Z" fill="#083CF5"/>
<path d="M78.8196 370.972L101.516 369.502V373.743L79.8585 375.684L78.8196 370.972Z" fill="#083CF5"/>
<path d="M157.431 160.547C157.431 160.547 128.392 176.442 128.392 179.792C128.392 183.141 131.401 182.381 133.996 179.792C136.59 177.203 157.431 160.547 157.431 160.547Z" fill="#001959"/>
</g>
</svg>
