<svg width="462" height="344" viewBox="0 0 462 344" fill="none" xmlns="http://www.w3.org/2000/svg">
<path d="M462 302.302H0V302.533H462V302.302Z" fill="#E6E6E6"/>
<path d="M115.334 316.272H84.7307V316.503H115.334V316.272Z" fill="#E6E6E6"/>
<path d="M75.0472 316.272H57.3157V316.503H75.0472V316.272Z" fill="#E6E6E6"/>
<path d="M194.548 319.67H176.817V319.901H194.548V319.67Z" fill="#E6E6E6"/>
<path d="M287.004 324.822H247.096V325.053H287.004V324.822Z" fill="#E6E6E6"/>
<path d="M238.872 324.822H233.023V325.053H238.872V324.822Z" fill="#E6E6E6"/>
<path d="M418.896 319.67H332.335V319.901H418.896V319.67Z" fill="#E6E6E6"/>
<path d="M218.988 261.121H40.5728C39.1751 261.118 37.8355 260.562 36.8481 259.573C35.8606 258.585 35.306 257.245 35.306 255.849V5.22611C35.3182 3.83743 35.8782 2.50962 36.8643 1.5311C37.8504 0.552581 39.1831 0.00237889 40.5728 0H218.988C220.387 0 221.729 0.555471 222.719 1.54421C223.708 2.53296 224.264 3.87398 224.264 5.27228V255.849C224.264 257.247 223.708 258.588 222.719 259.577C221.729 260.565 220.387 261.121 218.988 261.121ZM40.5728 0.184669C39.2364 0.187115 37.9556 0.719343 37.0114 1.66453C36.0673 2.60972 35.537 3.89064 35.537 5.22611V255.849C35.537 257.184 36.0673 258.465 37.0114 259.41C37.9556 260.355 39.2364 260.888 40.5728 260.89H218.988C220.325 260.888 221.607 260.356 222.553 259.411C223.498 258.466 224.031 257.185 224.033 255.849V5.22611C224.031 3.88979 223.498 2.60889 222.553 1.66397C221.607 0.719043 220.325 0.18711 218.988 0.184669H40.5728Z" fill="#E6E6E6"/>
<path d="M418.858 261.121H240.434C239.035 261.118 237.695 260.562 236.706 259.574C235.717 258.586 235.16 257.246 235.158 255.849V5.22611C235.173 3.83659 235.735 2.50879 236.722 1.53052C237.71 0.552258 239.043 0.00235294 240.434 0H418.858C420.247 0.00480553 421.577 0.556082 422.561 1.53434C423.545 2.5126 424.104 3.83902 424.116 5.22611V255.849C424.116 257.244 423.563 258.582 422.577 259.57C421.592 260.558 420.254 261.116 418.858 261.121ZM240.434 0.184669C239.097 0.18711 237.815 0.719043 236.869 1.66397C235.924 2.60889 235.391 3.88979 235.389 5.22611V255.849C235.391 257.185 235.924 258.466 236.869 259.411C237.815 260.356 239.097 260.888 240.434 260.89H418.858C420.196 260.888 421.477 260.356 422.423 259.411C423.369 258.466 423.901 257.185 423.903 255.849V5.22611C423.901 3.88979 423.369 2.60889 422.423 1.66397C421.477 0.719043 420.196 0.18711 418.858 0.184669H240.434Z" fill="#E6E6E6"/>
<path d="M247.078 223.43H226.759V303.973H247.078V223.43Z" fill="#E0E0E0"/>
<path d="M243.215 303.973H247.078V293.004H239.168L243.215 303.973Z" fill="#FAFAFA"/>
<path d="M158.041 223.43H137.722V303.973H158.041V223.43Z" fill="#E0E0E0"/>
<path d="M247.078 223.43H154.678V297.242H247.078V223.43Z" fill="#FAFAFA"/>
<path d="M243.723 227.059V246.588H158.004V227.059H243.696M244.056 226.699H157.671V246.938H244.084V226.699H244.056Z" fill="#E0E0E0"/>
<path d="M158.531 303.973H154.678V293.004H162.578L158.531 303.973Z" fill="#FAFAFA"/>
<path d="M198.835 236.819C198.835 237.222 198.955 237.617 199.18 237.952C199.404 238.288 199.723 238.549 200.096 238.704C200.469 238.858 200.88 238.899 201.276 238.82C201.672 238.741 202.036 238.547 202.321 238.261C202.607 237.976 202.801 237.612 202.88 237.217C202.959 236.821 202.919 236.411 202.764 236.038C202.61 235.665 202.348 235.346 202.012 235.122C201.676 234.898 201.281 234.778 200.877 234.778C200.336 234.778 199.817 234.993 199.434 235.376C199.051 235.758 198.835 236.277 198.835 236.819Z" fill="#E6E6E6"/>
<path d="M243.723 250.567V270.096H158.004V250.567H243.696M244.056 250.216H157.671V270.456H244.084V250.226L244.056 250.216Z" fill="#E0E0E0"/>
<path d="M198.835 260.382C198.835 260.786 198.955 261.18 199.18 261.516C199.404 261.852 199.723 262.113 200.096 262.268C200.469 262.422 200.88 262.462 201.276 262.384C201.672 262.305 202.036 262.111 202.321 261.825C202.607 261.54 202.801 261.176 202.88 260.78C202.959 260.385 202.919 259.974 202.764 259.601C202.61 259.228 202.348 258.91 202.012 258.686C201.676 258.461 201.281 258.342 200.877 258.342C200.336 258.342 199.817 258.557 199.434 258.939C199.051 259.322 198.835 259.841 198.835 260.382Z" fill="#E6E6E6"/>
<path d="M243.723 274.085V293.622H158.004V274.085H243.696M244.056 273.724H157.671V293.973H244.084V273.724H244.056Z" fill="#E0E0E0"/>
<path d="M198.835 283.854C198.837 284.257 198.959 284.65 199.184 284.985C199.41 285.319 199.729 285.579 200.102 285.732C200.476 285.885 200.886 285.924 201.282 285.845C201.677 285.765 202.04 285.57 202.325 285.284C202.609 284.998 202.803 284.635 202.881 284.239C202.959 283.843 202.918 283.434 202.763 283.061C202.608 282.689 202.347 282.371 202.011 282.147C201.675 281.923 201.281 281.804 200.878 281.804C200.609 281.804 200.342 281.857 200.094 281.96C199.846 282.063 199.62 282.214 199.43 282.405C199.241 282.595 199.09 282.821 198.988 283.07C198.886 283.318 198.834 283.585 198.835 283.854Z" fill="#E6E6E6"/>
<path d="M145.632 176.654H125.313V303.982H145.632V176.654Z" fill="#E0E0E0"/>
<path d="M141.769 303.973H145.632V293.004H137.731L141.769 303.973Z" fill="#FAFAFA"/>
<path d="M69.6973 176.654H49.3785V303.982H69.6973V176.654Z" fill="#E0E0E0"/>
<path d="M145.632 176.654H66.3247V297.251H145.632V176.654Z" fill="#FAFAFA"/>
<path d="M142.213 180.051V207.355H69.7434V180.051H142.213ZM142.638 179.636H69.2999V207.752H142.619V179.645L142.638 179.636Z" fill="#E0E0E0"/>
<path d="M142.213 210.688V283.106H107.692V210.688H142.213ZM142.638 210.263H107.276V283.53H142.638V210.263Z" fill="#E0E0E0"/>
<path d="M104.264 210.688V283.106H69.7434V210.688H104.264ZM104.68 210.263H69.2999V283.53H104.661V210.263H104.68Z" fill="#E0E0E0"/>
<path d="M70.187 303.973H66.3247V293.004H74.2341L70.187 303.973Z" fill="#FAFAFA"/>
<path d="M103.932 193.717C103.93 194.123 104.048 194.52 104.273 194.858C104.497 195.197 104.817 195.461 105.191 195.617C105.566 195.774 105.979 195.816 106.377 195.738C106.776 195.66 107.142 195.465 107.43 195.179C107.718 194.893 107.914 194.527 107.994 194.13C108.074 193.732 108.034 193.319 107.879 192.944C107.724 192.569 107.461 192.248 107.123 192.023C106.786 191.797 106.389 191.676 105.983 191.676C105.44 191.676 104.92 191.891 104.536 192.274C104.151 192.656 103.934 193.175 103.932 193.717Z" fill="#E6E6E6"/>
<path d="M111.25 245.175C111.25 245.581 111.37 245.977 111.596 246.315C111.822 246.652 112.143 246.915 112.518 247.069C112.893 247.224 113.306 247.264 113.704 247.185C114.103 247.105 114.468 246.909 114.755 246.621C115.041 246.333 115.236 245.967 115.314 245.569C115.392 245.171 115.35 244.758 115.193 244.384C115.037 244.01 114.772 243.69 114.434 243.466C114.095 243.242 113.698 243.123 113.292 243.125C113.023 243.125 112.756 243.178 112.508 243.281C112.26 243.384 112.034 243.535 111.844 243.726C111.655 243.916 111.504 244.142 111.402 244.391C111.3 244.64 111.248 244.906 111.25 245.175Z" fill="#E6E6E6"/>
<path d="M96.6227 245.175C96.6245 245.578 96.7458 245.972 96.9713 246.306C97.1968 246.64 97.5164 246.9 97.8897 247.053C98.263 247.207 98.6733 247.246 99.0688 247.166C99.4643 247.086 99.8273 246.891 100.112 246.605C100.397 246.319 100.59 245.956 100.668 245.56C100.746 245.165 100.705 244.755 100.55 244.383C100.396 244.01 100.134 243.692 99.7983 243.468C99.4627 243.244 99.0682 243.125 98.6647 243.125C98.3958 243.125 98.1295 243.178 97.8811 243.281C97.6328 243.384 97.4073 243.535 97.2175 243.726C97.0278 243.916 96.8776 244.142 96.7755 244.391C96.6734 244.64 96.6215 244.906 96.6227 245.175Z" fill="#E6E6E6"/>
<path d="M94.3126 141.151H85.7471C86.5365 145.303 87.0336 149.505 87.2348 153.727C87.2348 158.344 80.7113 176.654 90.0068 176.654C99.3022 176.654 92.7788 158.39 92.7788 153.727C92.9952 149.504 93.5077 145.302 94.3126 141.151Z" fill="#E0E0E0"/>
<path d="M61.7231 159.877V165.417C61.7329 168.387 62.9178 171.232 65.0194 173.332C67.1209 175.432 69.9685 176.616 72.9405 176.626H78.4845C81.4565 176.616 84.3041 175.432 86.4056 173.332C88.5072 171.232 89.6921 168.387 89.7019 165.417V159.877H61.7231Z" fill="#F5F5F5"/>
<path d="M180.799 211.685C180.799 218.149 188.034 223.43 196.877 223.43H204.86C213.703 223.43 220.938 218.149 220.938 211.685H180.799Z" fill="#E0E0E0"/>
<path d="M392.34 202.212C387.498 206.164 380.808 213.393 374.691 223.569C370.607 230.346 368.149 237.419 367.068 246.818C367.068 236.2 367.133 224.797 367.17 214.031C368.399 211.261 371.208 204.871 373.222 199.83C379.94 182.997 382.462 178.851 388.496 164.336C396.562 144.946 404.823 121.992 402.458 123.829C397.634 127.569 379.154 162.148 377.158 167.097C371.718 180.305 368.355 194.274 367.188 208.509C367.188 198.352 367.262 189.119 367.299 181.954C367.429 158.584 367.826 151.04 368.02 148.713C368.768 147.532 369.646 146.156 370.164 145.417C374.507 139.138 376.179 133.801 380.263 124.439C386.066 111.189 391.055 87.6529 389.595 88.8347C383.516 93.7839 378.729 104.402 372.428 117.948C366.126 131.493 367.928 139.277 366.68 150.837C366.422 153.109 366.218 161.677 366.07 173.542C364.444 160.892 361.376 152.564 355.786 144.992C348.912 135.676 342.259 129.388 337.38 126.101C332.501 122.814 345.807 145.694 352.164 155.648C357.828 164.549 363.049 172.388 366.024 180.116C365.867 196.21 365.793 216.579 365.793 235.517C364.333 226.893 361.949 217.595 358.771 210.402C354.945 201.759 349.069 188.5 344.384 184.004C343.266 182.923 349.281 208.712 353.144 215.563C357.006 222.415 359.843 228.887 362.273 232.774C362.836 233.698 364.721 237.179 365.793 239.192C365.793 262.34 365.923 282.764 366.126 289.717H367.124C367.059 287.926 367.041 276.144 367.068 260.558C369.48 252.1 374.987 242.442 379.533 233.633C384.486 224.095 397.181 198.288 392.34 202.212Z" fill="#E0E0E0"/>
<path d="M381.095 303.973H352.136L349.947 275.608H383.284L381.095 303.973Z" fill="#F0F0F0"/>
<path d="M385.437 278.914H347.784L346.712 269.339H386.518L385.437 278.914Z" fill="#F5F5F5"/>
<path d="M114.816 18.9283H63.0261V75.76H114.816V18.9283Z" fill="#E0E0E0"/>
<path d="M120.425 18.9283H66.9253V75.76H120.425V18.9283Z" fill="#F5F5F5"/>
<path d="M115.943 71.2819V23.4066L71.4066 23.4066V71.2819H115.943Z" fill="white"/>
<path d="M105.142 59.6662V35.0038H82.199V59.6662H105.142Z" fill="#F5F5F5"/>
<path d="M378.886 25.549H330.773V78.3456H378.886V25.549Z" fill="#E0E0E0"/>
<path d="M384.098 25.549H334.405V78.3456H384.098V25.549Z" fill="#F5F5F5"/>
<path d="M379.939 74.1812V29.7131L338.572 29.7131V74.1812H379.939Z" fill="white"/>
<path d="M359.251 64.8463C366.38 64.8463 372.16 59.0711 372.16 51.9472C372.16 44.8232 366.38 39.0481 359.251 39.0481C352.122 39.0481 346.343 44.8232 346.343 51.9472C346.343 59.0711 352.122 64.8463 359.251 64.8463Z" fill="#F5F5F5"/>
<path d="M168.621 52.8151H130.201V94.9748H168.621V52.8151Z" fill="#E0E0E0"/>
<path d="M172.779 52.8151H133.093V94.9748H172.779V52.8151Z" fill="#F5F5F5"/>
<path d="M169.452 91.6509V56.1392H136.419V91.6509H169.452Z" fill="white"/>
<path d="M152.941 64.911L143.904 80.5524H161.977L152.941 64.911Z" fill="#F5F5F5"/>
<path d="M231 344C329.944 344 410.154 339.32 410.154 333.548C410.154 327.775 329.944 323.096 231 323.096C132.056 323.096 51.8456 327.775 51.8456 333.548C51.8456 339.32 132.056 344 231 344Z" fill="#F5F5F5"/>
<path d="M322.707 100.118L313.541 96.4246C313.541 96.4246 301.446 118.465 297.981 119.582C293.268 121.096 283.511 125.307 277.727 126.045C276.941 126.969 275.657 129.84 275.777 130.884C283.548 133.478 300.624 130.034 304.283 127.32C312.608 121.161 322.707 100.118 322.707 100.118Z" fill="#E58A7B"/>
<path d="M325.525 95.1041C327.235 101.411 317.976 114.097 317.976 114.097L305.844 107.301C305.844 107.301 308.117 102.085 310.889 96.7754C315.334 88.1975 323.576 87.9113 325.525 95.1041Z" fill="#407BFF"/>
<path opacity="0.2" d="M325.525 95.1041C327.235 101.411 317.976 114.097 317.976 114.097L305.844 107.301C305.844 107.301 308.117 102.085 310.889 96.7754C315.334 88.1975 323.576 87.9113 325.525 95.1041Z" fill="black"/>
<path opacity="0.2" d="M310.658 110.016L315.435 112.694L316.276 98.0404C313.495 100.173 311.536 106.6 310.658 110.016Z" fill="black"/>
<path d="M317.542 90.3583C317.542 90.3583 308.099 111.355 313.606 150.449H350.815C351.407 144.743 349.448 116.895 356.535 90.0074C352.453 89.2103 348.323 88.6828 344.172 88.4285C338.906 88.1236 333.628 88.1236 328.362 88.4285C324.712 88.7989 321.095 89.444 317.542 90.3583Z" fill="#407BFF"/>
<path opacity="0.2" d="M317.542 90.3583C317.542 90.3583 308.099 111.355 313.606 150.449H350.815C351.407 144.743 349.448 116.895 356.535 90.0074C352.453 89.2103 348.323 88.6828 344.172 88.4285C338.906 88.1236 333.628 88.1236 328.362 88.4285C324.712 88.7989 321.095 89.444 317.542 90.3583Z" fill="black"/>
<g style="mix-blend-mode:multiply">
<path d="M308.912 334.379C308.856 335.376 322.966 336.179 340.42 336.179C357.875 336.179 372.086 335.376 372.141 334.379C372.197 333.382 358.096 332.588 340.633 332.588C323.169 332.588 308.976 333.391 308.912 334.379Z" fill="#E8ECF1"/>
</g>
<path d="M333.749 308.177L327.15 310.73L332.835 325.405L339.434 322.852L333.749 308.177Z" fill="#E58A7B"/>
<path d="M363.178 327.278H356.221L353.67 311.184H360.628L363.178 327.278Z" fill="#E58A7B"/>
<path d="M355.74 326.475H363.557C363.693 326.476 363.824 326.524 363.927 326.612C364.03 326.7 364.099 326.822 364.121 326.955L365.128 333.132C365.149 333.287 365.137 333.445 365.091 333.595C365.046 333.745 364.969 333.883 364.866 334C364.762 334.118 364.635 334.211 364.492 334.275C364.349 334.339 364.194 334.371 364.038 334.37C361.312 334.324 360 334.157 356.562 334.157C354.446 334.157 350.094 334.379 347.156 334.379C344.218 334.379 344.024 331.498 345.234 331.23C350.667 330.058 352.774 328.46 354.585 326.909C354.904 326.629 355.315 326.474 355.74 326.475Z" fill="#263238"/>
<path d="M332.64 324.093L340.032 321.932C340.164 321.895 340.305 321.904 340.431 321.958C340.557 322.012 340.661 322.107 340.725 322.228L343.497 327.768C343.561 327.908 343.594 328.061 343.594 328.216C343.593 328.37 343.558 328.523 343.492 328.663C343.426 328.802 343.33 328.926 343.211 329.025C343.093 329.124 342.954 329.196 342.804 329.236C340.115 329.974 338.313 330.427 334.95 331.406C332.631 332.08 330.265 333.178 327.974 333.908C326.385 334.416 322.652 334.434 320.721 334.434C317.865 334.434 317.228 331.424 318.457 331.286C321.552 330.944 321.968 331.101 323.677 330.242C326.474 329.021 329.009 327.271 331.143 325.09C331.546 324.632 332.062 324.288 332.64 324.093Z" fill="#263238"/>
<path d="M278.891 126.008L271.24 122.804L268.089 131.281C271.225 131.758 274.415 131.758 277.551 131.281L278.891 126.008Z" fill="#E58A7B"/>
<path d="M265.548 122.583L265.345 128.215L268.089 131.262L271.24 122.786L265.548 122.583Z" fill="#E58A7B"/>
<path d="M334.655 309.423L328.035 311.977L330.967 319.566L337.587 317.012L334.655 309.423Z" fill="#CF6F64"/>
<path d="M360.628 311.184H353.67L354.992 319.485H361.949L360.628 311.184Z" fill="#CF6F64"/>
<path opacity="0.2" d="M312.423 139.877C312.561 141.548 312.719 143.256 312.922 145.011L340.586 136.036C344.907 134.756 348.661 132.043 351.231 128.344C351.342 125.879 351.48 123.284 351.693 120.579C351.785 119.268 351.896 117.92 352.016 116.553C352.136 115.187 352.303 113.673 352.478 112.214L312.423 139.877Z" fill="black"/>
<path d="M321.46 109.592L320.536 109.481C321.081 104.864 324.527 101.226 328.159 101.318V102.242C324.98 102.177 321.949 105.455 321.46 109.592Z" fill="white"/>
<path d="M326.385 118.114H326.228V117.19C329.406 117.311 332.391 113.996 332.88 109.868L333.804 109.979C333.315 114.494 329.979 118.114 326.385 118.114Z" fill="white"/>
<path d="M343.654 70.6356C342.351 75.7232 340.817 85.0397 344.171 88.4284C344.171 88.4284 341.824 93.5899 332.372 93.5899C323.733 93.5899 328.362 88.4284 328.362 88.4284C334.109 87.0803 334.211 82.8884 333.453 78.918L343.654 70.6356Z" fill="#E58A7B"/>
<path d="M339.496 74.015L333.462 78.918C333.649 79.8303 333.758 80.7571 333.786 81.688C335.551 83.4423 339.09 79.0011 339.45 76.7296C339.633 75.8354 339.649 74.915 339.496 74.015Z" fill="#CF6F64"/>
<path d="M323.086 70.5709C323.506 71.298 324.071 71.9308 324.747 72.4297C325.423 72.9286 326.194 73.2828 327.013 73.4702C329.231 73.9595 330.339 71.919 329.73 69.8691C329.184 68.0225 327.364 65.5387 325.11 65.9634C324.627 66.0628 324.174 66.2764 323.791 66.5863C323.408 66.8962 323.104 67.2934 322.906 67.7446C322.708 68.1958 322.621 68.6878 322.652 69.1796C322.683 69.6713 322.832 70.1484 323.086 70.5709Z" fill="#CF6F64"/>
<path d="M326.754 54.2925C323.298 55.8714 322.079 69.5923 326.421 71.6236C330.764 73.655 333.296 51.2916 326.754 54.2925Z" fill="#263238"/>
<path d="M344.708 62.981C343.876 69.8691 343.784 73.9226 340.088 77.4498C338.942 78.6202 337.496 79.4517 335.907 79.8523C334.319 80.2529 332.651 80.207 331.087 79.7198C329.523 79.2326 328.124 78.323 327.045 77.0914C325.965 75.8598 325.248 74.3542 324.971 72.7407C323.853 66.5543 325.396 56.3329 332.307 53.5906C333.76 52.9505 335.357 52.7103 336.933 52.8947C338.509 53.0791 340.008 53.6815 341.273 54.6394C342.538 55.5973 343.523 56.8759 344.127 58.3427C344.731 59.8094 344.932 61.4108 344.708 62.981Z" fill="#E58A7B"/>
<path d="M333.352 57.8566C338.471 56.5546 342.231 55.6682 340.882 59.9248C339.099 65.6126 336.955 71.1157 339.829 71.365C341.585 71.522 349.346 68.2349 348.357 64.9016C347.498 62.0024 351.129 61.2083 351.776 59.7402C354.169 54.4217 347.323 55.1235 348.542 51.8918C349.762 48.6601 342.998 43.4524 339.302 46.047C333.287 50.239 322.966 50.1744 328.39 43.277C332.28 38.3556 325.341 39.362 325.341 39.362C325.341 39.362 329.536 41.8458 322.476 45.6869C315.01 49.7866 321.857 60.802 333.352 57.8566Z" fill="#263238"/>
<path d="M347.424 70.5709C346.413 72.0321 344.895 73.0655 343.164 73.4702C340.882 73.9595 340.004 71.919 340.864 69.8691C341.631 68.0225 343.737 65.5387 345.918 65.9634C348.099 66.3881 348.597 68.7611 347.424 70.5709Z" fill="#E58A7B"/>
<path d="M313.606 150.449C313.606 150.449 307.36 206.311 306.87 227.511C306.371 249.561 328.039 318.359 328.039 318.359L339.127 313.742C339.127 313.742 326.191 250.881 328.039 229.229C329.998 205.619 338.092 150.486 338.092 150.486L313.606 150.449Z" fill="#407BFF"/>
<path opacity="0.2" d="M329.129 165.786C324.148 176.109 327.503 196.524 330.201 208.62C331.226 200.079 332.446 190.808 333.601 182.231C333.49 169.045 332.464 158.861 329.129 165.786Z" fill="black"/>
<path d="M338.637 310.086C338.692 310.086 339.949 313.613 339.949 313.613L327.161 318.987L325.146 315.238L338.637 310.086Z" fill="#407BFF"/>
<path d="M326.81 150.449C326.81 150.449 331.587 203.578 334.747 223.476C338.221 245.276 351.841 317.879 351.841 317.879H364.583C364.583 317.879 356.95 247.04 355.509 225.452C353.938 202.036 350.815 150.449 350.815 150.449H326.81Z" fill="#407BFF"/>
<path d="M364.777 314.564C364.832 314.564 365.202 318.119 365.202 318.119H351.194L350.196 314.038L364.777 314.564Z" fill="#407BFF"/>
<path opacity="0.2" d="M359.898 310.353C359.869 310.354 359.841 310.344 359.819 310.325C359.797 310.306 359.782 310.28 359.778 310.252C359.704 309.606 352.82 245.618 351.527 226.228C350.122 205.194 347.295 158.538 347.267 158.067C347.266 158.052 347.268 158.036 347.273 158.022C347.278 158.007 347.286 157.994 347.296 157.982C347.306 157.971 347.319 157.962 347.333 157.956C347.347 157.95 347.363 157.947 347.378 157.947C347.408 157.947 347.437 157.958 347.46 157.979C347.482 157.999 347.496 158.027 347.498 158.058C347.498 158.528 350.353 205.148 351.758 226.219C353.051 245.609 359.935 309.55 360 310.243C360.002 310.258 360.002 310.274 359.998 310.289C359.994 310.304 359.987 310.318 359.978 310.33C359.968 310.342 359.956 310.352 359.942 310.359C359.929 310.367 359.914 310.371 359.898 310.372V310.353Z" fill="black"/>
<path d="M334.137 64.9018C334.137 65.465 333.786 65.9175 333.417 65.9175C333.047 65.9175 332.779 65.465 332.816 64.9018C332.853 64.3385 333.167 63.8861 333.537 63.8861C333.906 63.8861 334.174 64.3478 334.137 64.9018Z" fill="#263238"/>
<path d="M327.798 64.9018C327.798 65.465 327.438 65.9175 327.078 65.9175C326.717 65.9175 326.44 65.465 326.468 64.9018C326.495 64.3385 326.828 63.8861 327.198 63.8861C327.567 63.8861 327.835 64.3478 327.798 64.9018Z" fill="#263238"/>
<path d="M329.794 65.1879C329.023 66.9078 328.029 68.5189 326.837 69.98C327.761 70.9033 329.489 70.4786 329.489 70.4786L329.794 65.1879Z" fill="#DF5753"/>
<path d="M329.961 72.8332C329.939 72.8332 329.918 72.8289 329.898 72.8204C329.879 72.8119 329.861 72.7995 329.846 72.784C329.831 72.7684 329.82 72.75 329.813 72.7299C329.805 72.7097 329.802 72.6883 329.803 72.6669C329.806 72.622 329.825 72.5798 329.858 72.5488C329.891 72.5179 329.934 72.5007 329.979 72.5008C330.686 72.5056 331.385 72.3523 332.024 72.0519C332.664 71.7515 333.228 71.3117 333.675 70.7649C333.707 70.7369 333.748 70.7216 333.791 70.7216C333.833 70.7216 333.874 70.7369 333.906 70.7649C333.936 70.7958 333.953 70.8372 333.953 70.8803C333.953 70.9233 333.936 70.9647 333.906 70.9957C333.427 71.5769 332.825 72.0436 332.142 72.3615C331.459 72.6795 330.714 72.8406 329.961 72.8332Z" fill="#263238"/>
<path d="M335.264 63.2035C335.22 63.2263 335.171 63.2381 335.121 63.2381C335.071 63.2381 335.022 63.2263 334.978 63.2035C334.632 62.9801 334.239 62.8411 333.83 62.7977C333.42 62.7544 333.007 62.808 332.622 62.9541C332.584 62.9728 332.543 62.9839 332.502 62.9866C332.46 62.9893 332.418 62.9836 332.378 62.9698C332.338 62.956 332.302 62.9345 332.271 62.9064C332.24 62.8783 332.215 62.8442 332.197 62.8062C332.162 62.724 332.162 62.6316 332.194 62.5488C332.227 62.466 332.291 62.3992 332.372 62.3627C332.855 62.1654 333.379 62.0876 333.899 62.1358C334.418 62.1841 334.918 62.357 335.357 62.6399C335.392 62.664 335.423 62.6949 335.446 62.7307C335.469 62.7666 335.485 62.8068 335.493 62.8489C335.501 62.891 335.5 62.9343 335.491 62.9761C335.482 63.018 335.465 63.0576 335.44 63.0927C335.393 63.1456 335.332 63.1841 335.264 63.2035Z" fill="#263238"/>
<path d="M325.35 61.3559C325.301 61.344 325.256 61.3184 325.221 61.2821C325.19 61.252 325.165 61.2161 325.149 61.1764C325.132 61.1368 325.124 61.0942 325.124 61.0512C325.124 61.0082 325.132 60.9657 325.149 60.926C325.165 60.8864 325.19 60.8505 325.221 60.8204C325.575 60.4235 326.016 60.1136 326.509 59.915C327.003 59.7164 327.536 59.6344 328.067 59.6754C328.109 59.682 328.15 59.6972 328.186 59.7201C328.223 59.743 328.254 59.7732 328.278 59.8087C328.302 59.8442 328.319 59.8842 328.327 59.9264C328.335 59.9687 328.335 60.0121 328.325 60.054C328.305 60.1395 328.255 60.2148 328.184 60.2658C328.112 60.3169 328.025 60.34 327.937 60.331C327.517 60.3046 327.097 60.374 326.708 60.534C326.319 60.6939 325.971 60.9403 325.692 61.2544C325.65 61.3011 325.596 61.3353 325.535 61.3532C325.475 61.3711 325.411 61.3721 325.35 61.3559Z" fill="#263238"/>
<path d="M360.111 99.0931L350.501 96.5354C350.501 96.5354 341.076 119.72 337.741 121.226C333.213 123.294 321.746 130.459 316.867 133.848C316.599 135.002 316.812 138.058 317.422 138.898C325.738 137.384 341.658 131.262 344.985 128.151C352.571 121.05 360.111 99.0931 360.111 99.0931Z" fill="#E58A7B"/>
<path d="M353.402 327.694C352.933 327.731 352.466 327.604 352.081 327.334C351.962 327.226 351.873 327.09 351.823 326.938C351.773 326.785 351.763 326.623 351.795 326.466C351.8 326.368 351.833 326.273 351.888 326.192C351.943 326.11 352.02 326.046 352.109 326.004C352.885 325.607 355.056 326.983 355.306 327.14C355.333 327.157 355.354 327.182 355.366 327.212C355.378 327.242 355.379 327.275 355.371 327.306C355.363 327.338 355.347 327.368 355.324 327.392C355.301 327.416 355.273 327.434 355.241 327.445C354.639 327.592 354.022 327.676 353.402 327.694ZM352.478 326.253C352.408 326.238 352.336 326.238 352.266 326.253C352.23 326.271 352.201 326.299 352.181 326.334C352.162 326.368 352.152 326.408 352.155 326.447C352.13 326.555 352.134 326.667 352.167 326.772C352.199 326.878 352.259 326.972 352.34 327.048C352.7 327.371 353.606 327.408 354.798 327.177C354.088 326.71 353.289 326.395 352.451 326.253H352.478Z" fill="#407BFF"/>
<path d="M355.195 327.444C355.171 327.452 355.145 327.452 355.121 327.444C354.428 327.057 353.125 325.533 353.319 324.758C353.348 324.635 353.418 324.525 353.517 324.446C353.616 324.368 353.738 324.324 353.864 324.324C353.988 324.307 354.115 324.317 354.234 324.354C354.354 324.391 354.464 324.453 354.557 324.536C355.324 325.192 355.371 327.204 355.371 327.306C355.375 327.336 355.369 327.367 355.354 327.394C355.339 327.421 355.316 327.442 355.287 327.454C355.256 327.46 355.224 327.457 355.195 327.444ZM353.957 324.628H353.892C353.68 324.628 353.652 324.748 353.643 324.794C353.532 325.247 354.354 326.401 355.038 326.946C355.035 326.166 354.793 325.405 354.345 324.767C354.238 324.673 354.099 324.624 353.957 324.628Z" fill="#407BFF"/>
<path d="M328.87 326.54C328.305 326.737 327.689 326.737 327.124 326.54C326.995 326.47 326.887 326.369 326.808 326.247C326.728 326.124 326.681 325.983 326.671 325.838C326.659 325.747 326.671 325.654 326.705 325.568C326.739 325.483 326.794 325.407 326.865 325.349C327.604 324.684 330.626 325.349 330.968 325.478C331 325.486 331.029 325.505 331.049 325.532C331.069 325.559 331.08 325.592 331.079 325.626C331.08 325.66 331.071 325.694 331.053 325.724C331.035 325.754 331.008 325.777 330.977 325.792C330.297 326.099 329.592 326.349 328.87 326.54ZM327.364 325.441C327.258 325.462 327.16 325.51 327.078 325.579C327.048 325.601 327.026 325.631 327.013 325.666C327 325.7 326.996 325.737 327.004 325.773C327.01 325.87 327.04 325.964 327.092 326.046C327.143 326.129 327.215 326.197 327.299 326.244C327.789 326.503 328.926 326.3 330.395 325.681C329.405 325.431 328.381 325.35 327.364 325.441Z" fill="#407BFF"/>
<path d="M330.949 325.792H330.875C329.951 325.625 328.103 324.564 328.048 323.77C328.048 323.585 328.131 323.326 328.575 323.179C328.724 323.125 328.883 323.103 329.042 323.112C329.201 323.122 329.356 323.163 329.499 323.234C330.496 323.723 331.023 325.496 331.051 325.579C331.057 325.607 331.057 325.636 331.048 325.664C331.04 325.691 331.025 325.716 331.005 325.736C330.991 325.759 330.972 325.778 330.949 325.792ZM328.759 323.456H328.667C328.381 323.557 328.381 323.677 328.381 323.714C328.381 324.194 329.72 325.071 330.654 325.367C330.439 324.625 329.984 323.976 329.36 323.52C329.174 323.426 328.961 323.403 328.759 323.456Z" fill="#407BFF"/>
<path d="M317.653 133.303L308.015 137.735L306.897 140.505L310.455 142.896C310.455 142.896 317.108 142.176 319.002 137.901L317.653 133.303Z" fill="#E58A7B"/>
<path d="M318.059 139.055C317.844 137.205 317.233 135.422 316.267 133.829L317.791 132.684C318.938 134.52 319.67 136.584 319.935 138.732L318.059 139.055Z" fill="#263238"/>
<path d="M319.704 134.614C319.908 134.934 320.008 135.309 319.991 135.688C319.974 136.067 319.84 136.432 319.608 136.733C319.376 137.033 319.057 137.255 318.695 137.368C318.332 137.481 317.944 137.479 317.582 137.364C317.22 137.248 316.903 137.024 316.673 136.722C316.444 136.42 316.313 136.054 316.298 135.675C316.284 135.296 316.387 134.922 316.593 134.603C316.799 134.284 317.098 134.036 317.45 133.894C317.845 133.693 318.303 133.656 318.725 133.79C319.148 133.925 319.499 134.221 319.704 134.614Z" fill="#263238"/>
<path d="M301.501 141.317L302.786 142.61L311.434 138.917L308.016 137.735L301.501 141.317Z" fill="#E58A7B"/>
<path opacity="0.2" d="M338.637 310.086C338.692 310.086 339.949 313.613 339.949 313.613L327.161 318.987L325.146 315.238L338.637 310.086Z" fill="black"/>
<path opacity="0.2" d="M364.777 314.564C364.832 314.564 365.202 318.119 365.202 318.119H351.194L350.196 314.038L364.777 314.564Z" fill="black"/>
<path d="M362.615 96.4337C365.156 104.624 355.223 115.824 355.223 115.824L341.501 110.228C343.128 105.495 345.003 100.85 347.119 96.3137C351.333 87.2373 360.046 88.1698 362.615 96.4337Z" fill="#407BFF"/>
<path opacity="0.2" d="M362.615 96.4337C365.156 104.624 355.223 115.824 355.223 115.824L341.501 110.228C343.128 105.495 345.003 100.85 347.119 96.3137C351.333 87.2373 360.046 88.1698 362.615 96.4337Z" fill="black"/>
<path d="M226.269 14.3763H220.365V15.3281H226.269V14.3763Z" fill="#407BFF"/>
<path d="M302.701 52.0177L301.986 67.8646L302.937 67.9074L303.651 52.0605L302.701 52.0177Z" fill="#407BFF"/>
<path d="M300.864 18.6422H191.832L181.686 245.526H290.718L300.864 18.6422Z" fill="#407BFF"/>
<path opacity="0.56" d="M297.611 21.7631H188.579L178.434 248.646H287.466L297.611 21.7631Z" fill="#FAFAFA"/>
<path opacity="0.07" d="M294.359 24.8749H185.327L175.172 251.758H284.204L294.359 24.8749Z" fill="#407BFF"/>
<path d="M281.949 123.829H188.884L188.108 141.188H281.173L281.949 123.829Z" fill="white"/>
<path d="M240.065 111.161H189.448L189.106 118.926H239.723L240.065 111.161Z" fill="#407BFF"/>
<path d="M279.852 170.679H186.786L186.01 188.038H279.076L279.852 170.679Z" fill="white"/>
<path opacity="0.47" d="M262.786 211.482H200.203L199.27 232.285H261.853L262.786 211.482Z" fill="#407BFF"/>
<path d="M258.6 235.517H196.017C195.99 235.524 195.961 235.524 195.934 235.517C195.925 235.49 195.925 235.46 195.934 235.433L196.858 214.621C196.858 214.607 196.861 214.593 196.867 214.58C196.872 214.567 196.881 214.556 196.891 214.546C196.902 214.536 196.914 214.529 196.927 214.525C196.941 214.52 196.955 214.518 196.969 214.52H259.552C259.563 214.514 259.576 214.511 259.588 214.511C259.601 214.511 259.614 214.514 259.625 214.52C259.632 214.531 259.635 214.544 259.635 214.557C259.635 214.57 259.632 214.582 259.625 214.594L258.72 235.452C258.709 235.474 258.691 235.491 258.67 235.503C258.648 235.514 258.624 235.519 258.6 235.517ZM196.128 235.295H258.489L259.413 214.704H197.052L196.128 235.295Z" fill="white"/>
<path d="M229.133 158.011H187.35L187.008 165.786H228.782L229.133 158.011Z" fill="#407BFF"/>
<path d="M261.594 67.7546C261.355 72.8066 259.557 77.6608 256.447 81.6509C254.145 84.6648 251.182 87.1116 247.787 88.8034C244.391 90.4952 240.653 91.3871 236.858 91.4106C233.792 91.434 230.754 90.8298 227.93 89.6353C225.106 88.4408 222.558 86.6813 220.44 84.4651C218.323 82.2489 216.682 79.623 215.619 76.7491C214.555 73.8752 214.092 70.8142 214.257 67.7546C214.582 61.4057 217.322 55.4207 221.916 51.0235C226.511 46.6264 232.613 44.1492 238.974 44.0986C242.043 44.07 245.084 44.6705 247.911 45.863C250.739 47.0554 253.291 48.8145 255.411 51.0315C257.531 53.2486 259.173 55.8764 260.237 58.7528C261.3 61.6291 261.762 64.6929 261.594 67.7546Z" fill="white"/>
<path d="M263.821 49.0478C263.76 50.3911 263.282 51.6821 262.453 52.7411C261.839 53.5416 261.051 54.1915 260.148 54.6412C259.245 55.0908 258.251 55.3284 257.242 55.3357C256.264 55.3417 255.3 55.1083 254.433 54.656C253.567 54.2037 252.824 53.5463 252.271 52.7411C251.537 51.6531 251.174 50.358 251.236 49.0478C251.325 47.3621 252.054 45.774 253.275 44.6073C254.496 43.4406 256.116 42.7831 257.805 42.769C258.62 42.7616 259.428 42.921 260.179 43.2374C260.93 43.5538 261.608 44.0205 262.171 44.6087C262.735 45.197 263.172 45.8943 263.456 46.6577C263.739 47.4212 263.863 48.2346 263.821 49.0478Z" fill="#407BFF"/>
<path d="M198.909 132.509C198.865 133.253 198.54 133.952 198 134.466C197.46 134.98 196.745 135.271 195.999 135.279C195.639 135.283 195.281 135.213 194.949 135.074C194.617 134.935 194.317 134.729 194.068 134.47C193.818 134.21 193.625 133.902 193.499 133.565C193.374 133.227 193.319 132.868 193.338 132.509C193.378 131.763 193.701 131.061 194.242 130.546C194.784 130.031 195.501 129.742 196.248 129.739C196.608 129.736 196.965 129.806 197.296 129.946C197.628 130.085 197.927 130.291 198.176 130.55C198.425 130.81 198.619 131.117 198.745 131.454C198.871 131.791 198.927 132.15 198.909 132.509Z" fill="#263238"/>
<path d="M211.365 132.509C211.323 133.254 210.998 133.954 210.458 134.469C209.917 134.983 209.201 135.273 208.454 135.279C208.095 135.282 207.739 135.211 207.408 135.072C207.077 134.932 206.778 134.726 206.529 134.466C206.281 134.207 206.088 133.899 205.963 133.563C205.838 133.226 205.784 132.867 205.802 132.509C205.842 131.765 206.165 131.064 206.704 130.549C207.243 130.035 207.958 129.745 208.704 129.739C209.064 129.734 209.421 129.804 209.753 129.943C210.085 130.082 210.386 130.288 210.635 130.548C210.884 130.807 211.078 131.115 211.203 131.453C211.329 131.79 211.384 132.149 211.365 132.509Z" fill="#263238"/>
<path d="M223.83 132.509C223.788 133.254 223.463 133.954 222.923 134.469C222.382 134.983 221.666 135.273 220.919 135.279C220.559 135.282 220.203 135.211 219.871 135.072C219.54 134.932 219.24 134.726 218.991 134.467C218.742 134.208 218.548 133.9 218.422 133.563C218.296 133.227 218.24 132.868 218.258 132.509C218.3 131.764 218.625 131.063 219.165 130.549C219.706 130.034 220.422 129.745 221.169 129.739C221.529 129.734 221.886 129.804 222.218 129.943C222.55 130.082 222.85 130.288 223.1 130.548C223.349 130.807 223.543 131.115 223.668 131.453C223.794 131.79 223.849 132.149 223.83 132.509Z" fill="#263238"/>
<path d="M196.812 179.359C196.768 180.103 196.443 180.803 195.903 181.317C195.363 181.831 194.647 182.121 193.902 182.129C193.542 182.132 193.185 182.061 192.854 181.922C192.522 181.782 192.223 181.576 191.974 181.317C191.724 181.058 191.531 180.75 191.405 180.414C191.279 180.077 191.223 179.718 191.24 179.359C191.283 178.614 191.607 177.913 192.148 177.399C192.688 176.884 193.405 176.595 194.151 176.589C194.511 176.586 194.867 176.656 195.199 176.796C195.53 176.936 195.83 177.141 196.079 177.401C196.328 177.66 196.522 177.968 196.648 178.304C196.774 178.641 196.83 179 196.812 179.359Z" fill="#263238"/>
<path d="M209.268 179.359C209.225 180.102 208.902 180.802 208.364 181.316C207.825 181.83 207.111 182.121 206.366 182.129C206.006 182.133 205.649 182.064 205.317 181.925C204.985 181.785 204.685 181.58 204.435 181.32C204.186 181.06 203.992 180.752 203.867 180.415C203.741 180.078 203.686 179.718 203.705 179.359C203.747 178.614 204.072 177.913 204.612 177.399C205.153 176.884 205.869 176.595 206.616 176.589C206.975 176.586 207.331 176.656 207.662 176.796C207.993 176.936 208.292 177.142 208.541 177.401C208.789 177.661 208.982 177.968 209.107 178.305C209.232 178.642 209.286 179 209.268 179.359Z" fill="#263238"/>
<path d="M221.76 179.359C221.718 180.104 221.393 180.805 220.853 181.319C220.312 181.834 219.596 182.123 218.849 182.129C218.49 182.131 218.134 182.059 217.803 181.919C217.472 181.779 217.173 181.573 216.924 181.314C216.676 181.055 216.482 180.748 216.355 180.412C216.229 180.076 216.172 179.718 216.188 179.359C216.233 178.615 216.558 177.915 217.098 177.401C217.638 176.887 218.353 176.597 219.099 176.589C219.459 176.585 219.816 176.654 220.148 176.793C220.48 176.932 220.781 177.138 221.03 177.398C221.279 177.657 221.473 177.965 221.598 178.303C221.724 178.64 221.779 179 221.76 179.359Z" fill="#263238"/>
<path d="M234.197 179.359C234.153 180.103 233.828 180.803 233.287 181.317C232.747 181.831 232.032 182.121 231.286 182.129C230.927 182.131 230.571 182.059 230.24 181.919C229.909 181.779 229.61 181.573 229.361 181.314C229.113 181.055 228.919 180.748 228.792 180.412C228.666 180.076 228.609 179.718 228.625 179.359C228.67 178.615 228.995 177.915 229.535 177.401C230.075 176.887 230.79 176.597 231.536 176.589C231.896 176.586 232.252 176.656 232.584 176.796C232.915 176.936 233.215 177.141 233.464 177.401C233.713 177.66 233.907 177.968 234.033 178.304C234.159 178.641 234.215 179 234.197 179.359Z" fill="#263238"/>
<path d="M246.708 179.359C246.664 180.103 246.339 180.803 245.798 181.317C245.258 181.831 244.543 182.121 243.797 182.129C243.437 182.133 243.08 182.064 242.748 181.925C242.416 181.785 242.116 181.58 241.866 181.32C241.617 181.06 241.423 180.752 241.298 180.415C241.172 180.078 241.117 179.718 241.136 179.359C241.178 178.614 241.503 177.913 242.043 177.399C242.584 176.884 243.3 176.595 244.047 176.589C244.407 176.586 244.763 176.656 245.095 176.796C245.426 176.936 245.726 177.141 245.975 177.401C246.224 177.66 246.418 177.968 246.544 178.304C246.67 178.641 246.726 179 246.708 179.359Z" fill="#263238"/>
<path d="M244.817 66.5225C248.684 62.7432 248.89 56.6855 245.275 52.9922C241.661 49.2988 235.596 49.3685 231.728 53.1478C227.861 56.9271 227.656 62.9849 231.27 66.6782C234.884 70.3715 240.95 70.3018 244.817 66.5225Z" fill="#407BFF"/>
<path d="M256.447 81.6509C254.145 84.6648 251.182 87.1116 247.786 88.8034C244.391 90.4952 240.652 91.3871 236.858 91.4106C233.179 91.4418 229.548 90.5678 226.287 88.8658C223.025 87.1638 220.233 84.686 218.156 81.6509C222.647 77.1819 229.752 74.2642 237.625 74.2642C245.497 74.2642 252.353 77.1819 256.447 81.6509Z" fill="#407BFF"/>
<path opacity="0.1" d="M244.817 66.5225C248.684 62.7432 248.89 56.6855 245.275 52.9922C241.661 49.2988 235.596 49.3685 231.728 53.1478C227.861 56.9271 227.656 62.9849 231.27 66.6782C234.884 70.3715 240.95 70.3018 244.817 66.5225Z" fill="white"/>
<path opacity="0.1" d="M256.447 81.6509C254.145 84.6648 251.182 87.1116 247.786 88.8034C244.391 90.4952 240.652 91.3871 236.858 91.4106C233.179 91.4418 229.548 90.5678 226.287 88.8658C223.025 87.1638 220.233 84.686 218.156 81.6509C222.647 77.1819 229.752 74.2642 237.625 74.2642C245.497 74.2642 252.353 77.1819 256.447 81.6509Z" fill="white"/>
<path d="M120.499 145.371C119.621 147.291 118.697 149.406 117.893 151.456C117.089 153.505 116.267 155.62 115.555 157.725C114.103 161.874 112.996 166.136 112.247 170.467L112.044 171.825C112.025 172.057 112.047 172.292 112.109 172.517C112.327 173.282 112.67 174.006 113.125 174.659C114.312 176.35 115.688 177.899 117.228 179.276C118.851 180.785 120.553 182.205 122.328 183.533C124.102 184.899 125.969 186.229 127.808 187.484L126.08 190.725C121.689 188.814 117.522 186.426 113.652 183.606C111.587 182.102 109.724 180.339 108.108 178.362C107.15 177.185 106.403 175.851 105.9 174.419C105.607 173.525 105.457 172.59 105.456 171.649C105.456 171.428 105.456 171.104 105.456 170.947V170.495L105.548 169.572C106.078 164.761 107.09 160.016 108.57 155.408C109.291 153.136 110.058 150.874 110.935 148.667C111.813 146.46 112.719 144.3 113.837 142.056L120.499 145.371Z" fill="#E58A7B"/>
<path d="M126.505 186.912L133.037 183.606L131.347 190.771C131.347 190.771 126.865 192.027 124.786 189.848L126.505 186.912Z" fill="#E58A7B"/>
<path d="M139.016 184.779L137.279 190.707L131.347 190.771L133.038 183.606L139.016 184.779Z" fill="#E58A7B"/>
<path d="M148.237 110.801C148.587 112.081 149.073 113.319 149.688 114.494C149.508 114.698 149.277 114.849 149.018 114.932C148.76 115.015 148.483 115.026 148.219 114.965L148.237 110.801Z" fill="#DF5753"/>
<path d="M148.043 110.856C148.426 110.856 148.736 110.381 148.736 109.795C148.736 109.208 148.426 108.733 148.043 108.733C147.661 108.733 147.35 109.208 147.35 109.795C147.35 110.381 147.661 110.856 148.043 110.856Z" fill="#263238"/>
<path d="M147.84 108.77L149.244 108.373C149.244 108.373 148.561 109.463 147.84 108.77Z" fill="#263238"/>
<path d="M130.192 117.578C131.032 121.872 131.873 129.748 128.861 132.619C128.861 132.619 130.044 136.978 138.036 136.978C146.824 136.978 142.231 132.619 142.231 132.619C137.436 131.474 137.556 127.92 138.397 124.577L130.192 117.578Z" fill="#E58A7B"/>
<path d="M127.854 107.791C128.297 114.965 128.334 118.012 131.956 121.696C137.417 127.236 146.14 125.131 147.849 118.003C149.392 111.54 148.413 100.903 141.381 98.0495C139.838 97.4141 138.158 97.1827 136.5 97.3772C134.842 97.5716 133.261 98.1855 131.906 99.1607C130.552 100.136 129.469 101.44 128.76 102.951C128.051 104.461 127.739 106.127 127.854 107.791Z" fill="#E58A7B"/>
<path d="M128.565 99.7208C124.962 101.032 120.157 100.053 122.042 111.161C124.038 122.924 120.97 126.793 120.97 126.793C120.97 126.793 134.636 129.702 148.589 126.618C148.589 126.618 144.329 119.176 145.521 113.691C147.046 106.766 145.844 104.208 145.844 104.208C145.844 104.208 133.629 97.8741 128.565 99.7208Z" fill="#263238"/>
<path d="M143.812 111.53C143.815 112.894 144.206 114.229 144.939 115.38C145.918 116.876 147.073 116.304 147.36 114.716C147.618 113.321 147.424 110.856 146.177 109.896C144.93 108.936 143.83 109.877 143.812 111.53Z" fill="#E58A7B"/>
<path d="M125.433 100.93C124.398 98.0219 129.332 93.5437 139.773 95.3904C150.215 97.237 150.667 105.926 150.667 105.926L148.561 103.414L148.653 106.055L137.925 108.114L125.433 100.93Z" fill="#263238"/>
<path d="M126.32 133.109C126.258 132.687 126.364 132.258 126.614 131.913C126.864 131.568 127.24 131.335 127.66 131.262C130.912 130.727 138.304 129.637 142.019 130.154C144.791 130.542 145.511 132.149 145.632 133.469C145.65 133.7 145.619 133.933 145.541 134.151C145.462 134.369 145.338 134.568 145.176 134.734C145.014 134.9 144.818 135.03 144.602 135.114C144.386 135.199 144.154 135.236 143.922 135.223L127.863 134.503C127.484 134.484 127.124 134.335 126.843 134.081C126.562 133.827 126.377 133.483 126.32 133.109Z" fill="#407BFF"/>
<path opacity="0.6" d="M126.32 133.109C126.258 132.687 126.364 132.258 126.614 131.913C126.864 131.568 127.24 131.335 127.66 131.262C130.912 130.727 138.304 129.637 142.019 130.154C144.791 130.542 145.511 132.149 145.632 133.469C145.65 133.7 145.619 133.933 145.541 134.151C145.462 134.369 145.338 134.568 145.176 134.734C145.014 134.9 144.818 135.03 144.602 135.114C144.386 135.199 144.154 135.236 143.922 135.223L127.863 134.503C127.484 134.484 127.124 134.335 126.843 134.081C126.562 133.827 126.377 133.483 126.32 133.109Z" fill="black"/>
<path d="M135.606 294.416L141.566 298.553L151.536 285.045L145.576 280.917L135.606 294.416Z" fill="#E58A7B"/>
<path d="M121.709 294.149L128.002 297.731L136.826 283.447L130.533 279.865L121.709 294.149Z" fill="#E58A7B"/>
<path d="M151.527 285.045L146.389 292.007L140.429 287.879L145.567 280.917L151.527 285.045Z" fill="#CF6F64"/>
<path d="M130.524 279.865L136.826 283.456L132.28 290.815L125.978 287.224L130.524 279.865Z" fill="#CF6F64"/>
<path d="M140.633 178.205C140.633 178.205 163.899 207.502 159.528 235.526C156.008 258.157 135.588 288.803 135.588 288.803L125.987 284.038C132.754 270.488 138.529 256.466 143.266 242.082C144.727 237.616 145.153 232.876 144.513 228.222C143.873 223.567 142.182 219.119 139.57 215.212C127.78 198.01 108.893 208.25 121.598 178.205H140.633Z" fill="#407BFF"/>
<path opacity="0.6" d="M140.633 178.205C140.633 178.205 163.899 207.502 159.528 235.526C156.008 258.157 135.588 288.803 135.588 288.803L125.987 284.038C132.754 270.488 138.529 256.466 143.266 242.082C144.727 237.616 145.153 232.876 144.513 228.222C143.873 223.567 142.182 219.119 139.57 215.212C127.78 198.01 108.893 208.25 121.598 178.205H140.633Z" fill="black"/>
<path opacity="0.4" d="M152.044 197.022L148.662 193.661C148.662 193.929 155.214 234.344 157.052 245.701C158.137 242.383 158.968 238.988 159.538 235.544C161.7 221.796 157.182 207.752 152.044 197.022Z" fill="black"/>
<path d="M151.018 178.205C151.018 178.205 179.034 215.028 179.829 237.105C180.485 255.572 149.337 291.351 149.337 291.351L140.282 285.497C140.282 285.497 158.512 260.087 163.104 239.33C161.33 218.758 123.816 178.205 123.816 178.205H151.018Z" fill="#407BFF"/>
<path opacity="0.6" d="M151.018 178.205C151.018 178.205 179.034 215.028 179.829 237.105C180.485 255.572 149.337 291.351 149.337 291.351L140.282 285.497C140.282 285.497 158.512 260.087 163.104 239.33C161.33 218.758 123.816 178.205 123.816 178.205H151.018Z" fill="black"/>
<path d="M116.359 134.263C113.366 134.974 110.492 145.851 110.492 145.851L122.199 153.662C122.199 153.662 126.098 145.057 124.731 141.29C123.317 137.365 120.12 133.367 116.359 134.263Z" fill="#407BFF"/>
<path opacity="0.2" d="M118.651 141.271L117.838 150.754L122.19 153.672C123.391 150.968 124.281 148.137 124.842 145.232L118.651 141.271Z" fill="black"/>
<path d="M154.484 134.475C154.484 134.475 157.939 135.685 151.019 178.196H121.58C122.079 166.192 122.088 158.805 116.359 134.263C120.481 133.414 124.66 132.865 128.861 132.619C133.312 132.301 137.78 132.301 142.231 132.619C147.979 133.146 154.484 134.475 154.484 134.475Z" fill="#407BFF"/>
<path d="M157.477 141.271C158.143 143.118 158.845 145.103 159.584 147.014C160.323 148.926 161.025 150.892 161.774 152.831L164.038 158.63L164.611 160.08L164.906 160.8L165.045 161.16C165.045 161.224 165.045 161.224 165.045 161.215C164.876 160.977 164.655 160.782 164.398 160.643C164.033 160.428 163.62 160.304 163.197 160.283C162.845 160.272 162.495 160.338 162.171 160.477C161.746 160.67 161.746 160.754 161.755 160.744C161.832 160.683 161.901 160.611 161.959 160.532C162.47 159.861 162.913 159.14 163.28 158.381C163.714 157.531 164.13 156.626 164.546 155.712C165.359 153.865 166.107 151.954 166.856 150.024C167.604 148.095 168.316 146.146 169.009 144.18L171.116 138.289L174.673 139.212C173.971 143.422 173.065 147.522 171.975 151.696C171.448 153.773 170.829 155.832 170.127 157.91C169.776 158.953 169.388 159.987 168.944 161.049C168.482 162.201 167.913 163.308 167.244 164.355C166.998 164.707 166.726 165.04 166.431 165.352C165.959 165.861 165.386 166.267 164.749 166.543C164.184 166.785 163.571 166.899 162.957 166.875C162.268 166.85 161.597 166.65 161.007 166.294C160.311 165.86 159.733 165.26 159.325 164.549C159.187 164.308 159.067 164.068 158.983 163.893L158.808 163.542L158.457 162.822L157.754 161.391C156.83 159.47 155.907 157.531 155.103 155.583C154.299 153.635 153.449 151.659 152.654 149.673C151.859 147.688 151.148 145.703 150.473 143.561L157.477 141.271Z" fill="#E58A7B"/>
<path d="M154.484 134.475C158.023 135.316 162.005 145.768 162.005 145.768L151.481 154.715C151.481 154.715 144.671 143.321 146.048 139.563C147.48 135.648 149.864 133.376 154.484 134.475Z" fill="#407BFF"/>
<path d="M172.788 134.983L176.484 131.899L179.053 135.897L177.159 139.23C177.159 139.23 174.146 142.001 171.485 140.588C171.063 139.639 170.962 138.579 171.197 137.567C171.432 136.556 171.99 135.649 172.788 134.983Z" fill="#E58A7B"/>
<path d="M183.155 131.908L182.878 132.915L177.029 133.894L176.456 131.899L183.155 131.908Z" fill="#E58A7B"/>
<path d="M150.057 291.822L139.505 285.008L141.4 281.72L153.254 289.006L150.057 291.822Z" fill="#407BFF"/>
<path d="M132.132 297.251C131.206 297.138 130.316 296.823 129.526 296.328C129.494 296.316 129.465 296.295 129.445 296.267C129.425 296.239 129.415 296.205 129.415 296.171C129.415 296.136 129.425 296.103 129.445 296.074C129.465 296.046 129.494 296.025 129.526 296.014C129.813 295.921 132.298 295.155 133.019 295.746C133.1 295.813 133.161 295.901 133.197 296C133.233 296.099 133.242 296.206 133.222 296.309C133.209 296.475 133.154 296.636 133.062 296.775C132.97 296.914 132.844 297.027 132.696 297.103C132.522 297.198 132.329 297.248 132.132 297.251ZM130.053 296.235C131.208 296.826 132.132 297.039 132.575 296.817C132.672 296.764 132.753 296.686 132.811 296.593C132.87 296.499 132.903 296.392 132.908 296.282C132.908 296.134 132.908 296.069 132.825 296.032C132.437 295.718 131.051 295.958 130.034 296.235H130.053Z" fill="#263238"/>
<path d="M129.591 296.392C129.542 296.392 129.496 296.372 129.462 296.337C129.448 296.311 129.441 296.283 129.441 296.254C129.441 296.225 129.448 296.196 129.462 296.171C129.462 296.088 130.062 294.084 131.005 293.632C131.125 293.577 131.256 293.548 131.388 293.548C131.52 293.548 131.651 293.577 131.772 293.632C131.901 293.673 132.014 293.756 132.091 293.868C132.168 293.98 132.205 294.115 132.197 294.25C132.132 295.081 130.441 296.226 129.665 296.42L129.591 296.392ZM131.384 293.872C131.294 293.874 131.205 293.897 131.125 293.936C130.552 294.213 130.081 295.294 129.85 295.949C130.663 295.608 131.781 294.703 131.818 294.195C131.818 294.112 131.818 294.01 131.605 293.918C131.536 293.881 131.461 293.856 131.384 293.844V293.872Z" fill="#263238"/>
<path d="M145.317 301.24C144.273 301.24 142.823 299.901 142.028 299.079C142.008 299.051 141.997 299.017 141.997 298.982C141.997 298.948 142.008 298.914 142.028 298.885C142.046 298.856 142.072 298.831 142.103 298.815C142.134 298.799 142.169 298.791 142.204 298.793C142.573 298.793 145.779 299.273 146.232 300.178C146.28 300.259 146.306 300.352 146.306 300.446C146.306 300.54 146.28 300.633 146.232 300.714C146.164 300.855 146.062 300.976 145.934 301.066C145.806 301.157 145.658 301.213 145.502 301.231L145.317 301.24ZM142.638 299.209C143.802 300.335 144.828 300.963 145.41 300.889C145.512 300.876 145.609 300.838 145.693 300.778C145.776 300.719 145.844 300.639 145.89 300.547C145.911 300.516 145.922 300.479 145.922 300.441C145.922 300.404 145.911 300.367 145.89 300.335C145.65 299.836 143.941 299.412 142.638 299.209Z" fill="#263238"/>
<path d="M142.74 299.162C142.532 299.168 142.325 299.153 142.121 299.116C142.092 299.112 142.065 299.1 142.042 299.083C142.02 299.065 142.002 299.041 141.991 299.015C141.977 298.988 141.97 298.957 141.97 298.927C141.97 298.897 141.977 298.866 141.991 298.839C142.047 298.775 143.294 297.27 144.477 297.168C144.812 297.142 145.143 297.248 145.401 297.464C145.761 297.777 145.743 298.054 145.65 298.23C145.419 298.858 143.821 299.162 142.74 299.162ZM142.499 298.821C143.534 298.876 145.188 298.535 145.401 298.082C145.401 298.082 145.475 297.934 145.234 297.731C145.139 297.648 145.027 297.586 144.906 297.548C144.786 297.509 144.658 297.497 144.532 297.51C143.736 297.732 143.026 298.193 142.499 298.83V298.821Z" fill="#263238"/>
<path d="M129.84 295.395L122.005 293.179C121.87 293.138 121.724 293.149 121.596 293.208C121.469 293.268 121.367 293.373 121.312 293.502L118.669 299.439C118.607 299.592 118.578 299.755 118.584 299.919C118.589 300.083 118.63 300.244 118.702 300.392C118.775 300.539 118.878 300.67 119.004 300.774C119.131 300.879 119.278 300.956 119.436 301C122.208 301.72 123.539 301.923 126.985 302.911C129.11 303.502 132.141 304.601 135.07 305.432C137.999 306.263 138.979 303.41 137.842 302.8C132.705 300.086 132.298 298.184 130.894 296.152C130.642 295.785 130.269 295.517 129.84 295.395Z" fill="#407BFF"/>
<path d="M142.241 297.999L135.551 293.382C135.437 293.3 135.298 293.262 135.158 293.275C135.018 293.289 134.888 293.353 134.793 293.456L130.358 298.221C130.25 298.344 130.169 298.488 130.121 298.645C130.074 298.802 130.06 298.967 130.081 299.129C130.102 299.292 130.157 299.448 130.243 299.587C130.329 299.727 130.444 299.846 130.58 299.938C132.936 301.517 134.156 302.154 137.103 304.195C138.951 305.45 142.527 308.239 145.022 309.975C147.517 311.711 149.374 309.328 148.487 308.387C144.514 304.148 143.645 301.489 142.989 299.079C142.875 298.642 142.61 298.259 142.241 297.999Z" fill="#407BFF"/>
<path d="M136.817 289.412L124.759 283.42L126.006 280.151L138.886 286.467L136.817 289.412Z" fill="#407BFF"/>
<path d="M121.136 176.469L120.12 179.128C120.018 179.331 120.259 179.544 120.6 179.544H151.166C151.434 179.544 151.656 179.414 151.675 179.248L151.933 176.607C151.933 176.432 151.721 176.275 151.434 176.275H121.617C121.527 176.266 121.437 176.28 121.353 176.313C121.269 176.347 121.195 176.4 121.136 176.469Z" fill="#407BFF"/>
<path opacity="0.4" d="M121.136 176.469L120.12 179.128C120.018 179.331 120.259 179.544 120.6 179.544H151.166C151.434 179.544 151.656 179.414 151.675 179.248L151.933 176.607C151.933 176.432 151.721 176.275 151.434 176.275H121.617C121.527 176.266 121.437 176.28 121.353 176.313C121.269 176.347 121.195 176.4 121.136 176.469Z" fill="white"/>
<path d="M125.95 179.802H125.146C124.989 179.802 124.869 179.719 124.878 179.617L125.257 176.192C125.257 176.099 125.405 176.016 125.562 176.016H126.366C126.523 176.016 126.643 176.099 126.634 176.192L126.255 179.617C126.246 179.719 126.107 179.802 125.95 179.802Z" fill="#407BFF"/>
<path d="M144.8 179.802H144.005C143.848 179.802 143.728 179.719 143.737 179.617L144.107 176.192C144.107 176.099 144.264 176.016 144.421 176.016H145.216C145.373 176.016 145.502 176.099 145.484 176.192L145.114 179.617C145.068 179.719 144.966 179.802 144.8 179.802Z" fill="#407BFF"/>
<g style="mix-blend-mode:multiply">
<path d="M125.248 336.17C138.919 336.17 150.002 335.368 150.002 334.379C150.002 333.389 138.919 332.587 125.248 332.587C111.577 332.587 100.494 333.389 100.494 334.379C100.494 335.368 111.577 336.17 125.248 336.17Z" fill="#F5F5F5"/>
</g>
<path d="M140.328 331.849C135.948 330.575 131.088 328.94 128.15 327.232C128.066 327.177 127.974 327.149 127.891 327.103V307.288H136.752C137.425 307.248 138.057 306.953 138.519 306.463C138.981 305.973 139.238 305.325 139.238 304.652C139.238 303.978 138.981 303.33 138.519 302.84C138.057 302.35 137.425 302.055 136.752 302.016H127.937V211.694H122.615V302.016H113.809C113.45 301.994 113.089 302.047 112.751 302.17C112.412 302.292 112.102 302.483 111.84 302.73C111.578 302.977 111.369 303.275 111.227 303.605C111.084 303.936 111.01 304.292 111.01 304.652C111.01 305.012 111.084 305.368 111.227 305.698C111.369 306.029 111.578 306.327 111.84 306.573C112.102 306.82 112.412 307.011 112.751 307.134C113.089 307.257 113.45 307.309 113.809 307.288H122.615V327.075C122.532 327.075 122.448 327.149 122.365 327.204C119.381 328.94 114.558 330.575 110.178 331.821C109.882 331.91 109.628 332.103 109.462 332.363C109.295 332.624 109.228 332.935 109.271 333.241C109.315 333.546 109.467 333.826 109.699 334.03C109.931 334.234 110.229 334.348 110.538 334.351H139.968C140.263 334.331 140.542 334.21 140.759 334.009C140.976 333.808 141.118 333.538 141.16 333.245C141.202 332.953 141.143 332.654 140.991 332.4C140.84 332.146 140.606 331.951 140.328 331.849Z" fill="#E0E0E0"/>
<path d="M141.686 202.498H108.829C106.185 202.498 104.042 204.639 104.042 207.281V217.04C104.042 219.682 106.185 221.823 108.829 221.823H141.686C144.33 221.823 146.472 219.682 146.472 217.04V207.281C146.472 204.639 144.33 202.498 141.686 202.498Z" fill="#407BFF"/>
<path d="M108.524 221.833V223.513C108.524 224.898 110.03 226.024 111.878 226.024H138.674C140.522 226.024 142.028 224.898 142.028 223.513V221.833H108.524Z" fill="#407BFF"/>
<path opacity="0.3" d="M108.524 221.833V223.513C108.524 224.898 110.03 226.024 111.878 226.024H138.674C140.522 226.024 142.028 224.898 142.028 223.513V221.833H108.524Z" fill="white"/>
</svg>
