<svg width="462" height="385" viewBox="0 0 462 385" fill="none" xmlns="http://www.w3.org/2000/svg">
<path d="M274.042 5.43164C274.127 8.36668 274.195 13.3171 274.939 16.1272C275.206 17.3024 276.125 18.926 276.642 18.1426C277.596 16.5871 274.678 7.56621 274.059 5.43164C276.029 9.08199 280.417 19.6867 276.477 19.5278C272.486 19.8287 273.292 9.43397 274.042 5.43164Z" fill="#083CF5"/>
<path d="M295.104 21.3729C295.104 21.3729 293.576 14.2652 294.74 12.494C295.904 10.7227 295.79 5.6815 295.512 4.33036C295.234 2.97922 294.377 1.08875 293.656 1.23635C292.935 1.38396 290.403 0.753811 289.898 0.855998L287.269 1.4237C286.361 1.61105 285.436 4.76181 284.794 5.73259C284.153 6.70337 288.694 18.9374 288.694 18.9374L295.104 21.3729Z" fill="white"/>
<path d="M458.995 11.9321L274.49 4.87546L274.553 3.21777L459.063 10.2744L461.822 11.3473L458.995 11.9321Z" fill="#083CF5"/>
<path d="M273.821 1.63916L273.696 6.3284L290.233 5.90262L290.097 3.68857L273.821 1.63916Z" fill="#083CF5"/>
<path d="M289.807 0.265515V0.878647C289.807 0.878647 289.2 5.0456 290.204 5.70981C291.209 6.37403 291.771 1.07167 291.771 1.07167C291.771 1.07167 290.869 5.87446 291.771 6.27185C293.071 6.83956 293.764 1.82671 293.764 1.82671C293.764 1.82671 292.827 4.69363 293.128 6.14696C293.429 7.60028 295.495 4.33029 295.495 4.33029C295.577 3.31404 295.366 2.29569 294.888 1.39524C294.093 -0.0580828 293.44 0.532339 292.963 0.214424C292.487 -0.103492 290.375 -0.0524001 289.807 0.265515Z" fill="white"/>
<path d="M290.749 3.55225C291.885 4.28459 287.133 6.68598 286.713 8.0655C286.293 9.44503 287.088 11.4718 286.185 11.6988C285.884 11.767 284.181 6.66896 284.59 6.02178C284.999 5.37459 289.625 2.81424 290.749 3.55225Z" fill="white"/>
<path d="M76.088 41.4468C76.088 41.4468 76.139 34.1745 74.646 32.6814C73.1529 31.1884 72.2275 26.2096 72.2275 24.8414C72.2275 23.4732 72.6988 21.4352 73.4141 21.4352C74.1294 21.4352 76.5024 20.2998 77.019 20.2998C77.5356 20.2998 73.5106 9.88804 75.2648 9.37143C77.019 8.85482 78.7732 20.2998 79.6986 20.2998C80.6239 20.2998 80.834 7.86133 82.2817 7.86133C83.7293 7.86133 82.1738 23.1894 83.0027 24.0182C83.8315 24.8471 81.8672 37.734 81.8672 37.734L76.088 41.4468Z" fill="white"/>
<path d="M76.9853 19.7038L77.1215 20.2999C77.1215 20.2999 78.5692 24.2738 77.6892 25.114C76.8093 25.9542 75.2083 20.8903 75.2083 20.8903C75.2083 20.8903 77.0705 25.432 76.2416 25.9997C75.1062 26.8115 73.4031 22.0541 73.4031 22.0541C73.4031 22.0541 74.9075 24.6655 74.9075 26.1529C74.9075 27.6403 72.2166 24.8529 72.2166 24.8529C71.9278 23.8765 71.9278 22.8374 72.2166 21.8611C72.6991 20.2715 73.4541 20.7257 73.8629 20.3112C74.2716 19.8968 76.3665 19.4994 76.9853 19.7038Z" fill="white"/>
<path d="M82.0719 24.2226C82.0719 24.2226 77.6836 22.1675 76.7355 23.1156C75.7874 24.0637 80.5789 26.3572 81.2771 27.6232C81.9754 28.8892 81.913 29.4966 82.5715 30.1552C83.2301 30.8137 83.7069 24.6711 83.1789 24.1488C82.651 23.6266 82.0719 24.2226 82.0719 24.2226Z" fill="white"/>
<path d="M218.9 85.9208C218.9 85.9208 202.244 91.8818 185.678 90.1559C183.368 89.9175 176.436 89.2362 174.018 88.9354C154.636 86.5623 134.045 85.5745 134.045 85.8584L135.402 93.5792C135.402 93.5792 160.694 104.519 180.467 108.714C195.886 111.99 212.224 110.099 218.588 110.099C233.116 110.094 227.91 85.9208 218.9 85.9208Z" fill="#001959"/>
<path d="M215.449 87.3797C215.449 87.3797 198.821 110.332 192.445 110.332C186.07 110.332 174.018 88.9239 174.018 88.9239L172.655 122.021C172.655 122.021 179.468 133.988 193.093 133.988C206.718 133.988 227.155 85.1997 227.155 85.1997L215.449 87.3797Z" fill="#083CF5"/>
<path d="M263.715 197.538V365.76H252.781L238.577 205.792L234.126 186.394L263.715 197.538Z" fill="#0A1532"/>
<path d="M220.825 362.655L221.898 373.538L199.837 372.136C199.837 372.136 209.034 367.883 213.536 367.883L214.501 362.655H220.825Z" fill="#001959"/>
<path d="M253.099 362.655V372.522H276.477L260.61 366.01L259.105 362.655H253.099Z" fill="#001959"/>
<path d="M217.09 195.568L214.393 205.213L209.301 364.08H222.256L246.991 195.568H217.09Z" fill="#0A1532"/>
<path d="M284.238 17.4158C284.238 17.4158 283.409 40.9131 280.446 47.0784C275.087 58.2281 257.408 79.4376 257.408 79.4376L268.439 106.477C268.439 106.477 289.024 74.7654 295.462 53.7376C298.3 44.4045 297.011 18.5398 297.011 18.5398C293.69 15.4629 287.559 14.3331 284.238 17.4158Z" fill="#001959"/>
<path d="M181.063 369.365L179.57 368.724L179.632 366.833L173.802 367.23L172.734 372.34L172.95 375.116H194.733C194.733 375.116 185.122 370.648 181.063 369.365Z" fill="#083CF5"/>
<path d="M177.861 192.945L152.882 219.003L155.079 224.618C155.079 224.618 169.198 281.32 169.198 287.065C169.198 292.81 170.197 367.452 170.197 367.452L181.142 366.709L183.742 286.452L177.861 192.945Z" fill="#0A1532"/>
<path d="M131.366 186.093C131.684 189.925 122.095 273.678 122.095 273.678L109.793 364.943L116.974 365.096C115.271 359.544 139.575 287.462 139.575 287.462C139.575 287.462 159.161 227.972 158.411 227.972L169.97 203.595C169.97 203.595 179.274 196.834 179.967 183.282C165.598 181.784 131.366 186.093 131.366 186.093Z" fill="#0A1532"/>
<path d="M116.986 365.096L109.804 364.943V380.47H122.754C122.754 380.47 118.7 370.648 116.986 365.096Z" fill="#083CF5"/>
<path d="M126.637 209.113C124.974 197.407 125.751 138.718 125.036 117.27C125.036 116.583 129.686 89.4921 129.686 89.4921C130.821 89.4921 143.878 87.6641 154.154 87.6641C160.796 87.7039 167.431 88.1323 174.023 88.9471C174.023 88.9471 178.508 103.043 178.508 117.781C178.508 126.126 182.074 178.168 180.859 201.994C166.876 203.834 140.608 208.795 126.637 209.113Z" fill="#083CF5"/>
<path d="M174.018 88.9302C176.977 97.964 178.64 107.372 178.957 116.873C179.525 134.108 182.676 176.033 180.853 201.977C181.205 174.847 177.969 129.646 178.015 116.884C178.015 107.982 176.351 97.6218 174.018 88.9302Z" fill="#001959"/>
<path d="M163.844 68.3218C161.466 69.7355 158.644 70.2055 155.936 69.6389C155.936 69.6389 158.468 72.5455 160.375 72.5512C162.283 72.5569 163.844 68.3218 163.844 68.3218Z" fill="white"/>
<path d="M130.952 88.6916C130.952 88.6916 129.249 97.7749 130.753 97.5705C132.257 97.3661 133.364 91.2576 133.364 91.2576C133.364 91.2576 132.927 99.5064 134.313 99.3418C135.698 99.1771 136.26 91.3144 136.26 91.3144C136.26 91.3144 136.708 98.0133 137.861 98.9273C139.013 99.8413 139.388 90.8432 139.388 90.8432C139.388 90.8432 139.757 96.4181 140.523 96.3272C141.29 96.2364 142.567 91.0419 142.845 88.5326C143.123 86.0234 140.495 85.2343 137.963 85.5295C135.431 85.8247 136.214 85.5976 134.057 85.8531C131.9 86.1085 130.952 88.6916 130.952 88.6916Z" fill="white"/>
<path d="M140.778 54.8617C139.302 53.7604 137.128 53.2154 134.534 53.925L134.863 54.7766C135.789 54.3344 136.805 54.112 137.831 54.1268C138.857 54.1416 139.866 54.3931 140.778 54.8617V54.8617Z" fill="#083CF5"/>
<path d="M133.847 59.2726C134.262 57.9093 135.137 56.7318 136.322 55.9402C137.248 55.375 138.328 55.113 139.41 55.1908C139.774 55.1908 140.131 55.276 140.489 55.3214C139.78 55.1494 139.049 55.0824 138.32 55.1227C136.05 55.2249 134.187 57.0188 133.41 59.142L133.847 59.2726Z" fill="#083CF5"/>
<path d="M156.748 78.4895C156.748 78.4895 155.613 90.7292 159.184 96.7355C159.459 97.175 159.614 97.6789 159.634 98.197C159.654 98.7152 159.538 99.2295 159.298 99.6889C159.057 100.148 158.7 100.536 158.263 100.815C157.826 101.094 157.323 101.253 156.805 101.277C154.998 101.288 153.2 101.019 151.474 100.482C149.266 99.8693 145.797 97.8255 144.968 95.0949C142.419 86.6644 147.239 71.6543 147.239 71.6543L156.748 78.4895Z" fill="white"/>
<path d="M145.973 76.3379C146.643 73.4994 147.256 71.626 147.256 71.626L156.748 78.4895C156.545 81.0487 156.515 83.6187 156.657 86.182C153.563 85.495 149.498 83.1845 145.973 76.3379Z" fill="#E9E9E9"/>
<path d="M159.609 49.3209C159.609 49.3209 161.67 48.5204 163.384 51.1489C165.099 53.7774 166.7 62.5882 165.212 70.712C163.725 78.8359 162.59 81.9469 159.036 81.9469C155.482 81.9469 148.97 80.4595 144.168 69.4574C139.365 58.4553 140.966 45.8863 159.609 49.3209Z" fill="white"/>
<path d="M160.182 56.0084C160.983 56.0084 164.56 56.5307 165.803 49.196C167.046 41.8612 159.206 32.8858 153.83 35.2872C148.454 37.6886 155.26 41.8726 155.26 41.8726C155.26 41.8726 151.372 39.6983 150.231 42.2189C149.089 44.7395 150.798 45.8749 150.231 46.4483C149.663 47.0217 145.967 41.9066 141.857 45.9941C137.747 50.0816 140.506 52.6249 139.478 54.9128C138.451 57.2006 133.722 60.4933 138.445 68.1857C140.281 71.1181 143.201 73.2072 146.569 73.9991C146.032 72.0326 145.763 70.0028 145.768 67.9643C145.768 64.5581 148.51 67.2831 148.51 67.2831C148.51 67.2831 147.256 67.0163 147.256 63.6214C147.256 59.971 145.768 57.019 145.768 56.0879C145.768 55.1569 145.422 52.7498 149.311 54.3564C153.2 55.963 160.182 56.0084 160.182 56.0084Z" fill="#083CF5"/>
<path d="M158.616 70.8027C158.556 70.808 158.496 70.7891 158.45 70.7502C158.403 70.7114 158.374 70.6557 158.369 70.5955C158.364 70.5352 158.383 70.4754 158.421 70.4291C158.46 70.3828 158.516 70.3538 158.576 70.3485L161.551 70.059L160.807 62.3325C161.148 64.5295 161.778 68.617 162.062 70.4734L158.616 70.8027Z" fill="#083CF5"/>
<path d="M151.412 62.2132C153.683 58.6991 157.31 60.9302 157.344 60.9529C157.396 60.9853 157.432 61.0367 157.445 61.0957C157.458 61.1548 157.448 61.2168 157.415 61.268C157.383 61.3192 157.332 61.3554 157.272 61.3687C157.213 61.382 157.151 61.3713 157.1 61.339C156.97 61.2595 153.842 59.3236 151.798 62.4744C151.765 62.5256 151.714 62.5618 151.655 62.5751C151.596 62.5884 151.534 62.5777 151.483 62.5453C151.432 62.513 151.395 62.4616 151.382 62.4025C151.369 62.3434 151.379 62.2814 151.412 62.2302V62.2132Z" fill="#083CF5"/>
<path d="M164.912 58.9434C164.972 58.9434 165.03 58.9673 165.072 59.0099C165.115 59.0525 165.139 59.1102 165.139 59.1704C165.139 59.2307 165.115 59.2884 165.072 59.331C165.03 59.3736 164.972 59.3975 164.912 59.3975C162.959 59.3975 162.561 61.3561 162.544 61.4413C162.533 61.5007 162.499 61.5533 162.448 61.5873C162.398 61.6214 162.337 61.6342 162.277 61.6229C162.218 61.6116 162.165 61.5772 162.131 61.5271C162.097 61.4771 162.085 61.4156 162.096 61.3561C162.101 61.3277 162.59 58.9434 164.912 58.9434Z" fill="#083CF5"/>
<path d="M156.385 73.8234C157.52 74.9588 160.149 74.8963 161.721 74.6295C161.758 74.6224 161.797 74.6227 161.834 74.6305C161.871 74.6382 161.906 74.6531 161.938 74.6745C161.969 74.6958 161.996 74.7232 162.017 74.7549C162.038 74.7866 162.052 74.8221 162.059 74.8594C162.066 74.8967 162.066 74.935 162.058 74.9721C162.05 75.0093 162.035 75.0446 162.014 75.0759C161.993 75.1073 161.965 75.1341 161.934 75.155C161.902 75.1758 161.866 75.1901 161.829 75.1972C157.458 76.1964 154.954 74.55 155.721 73.812C155.764 73.7679 155.816 73.7331 155.874 73.7097C155.931 73.6863 155.993 73.6748 156.055 73.6758C156.117 73.6769 156.178 73.6905 156.235 73.7159C156.292 73.7412 156.343 73.7778 156.385 73.8234V73.8234Z" fill="white"/>
<path d="M149.47 69.1567C149.47 69.1567 149.697 64.0133 145.695 62.98C141.692 61.9468 142.209 66.4771 144.44 68.7025C146.671 70.9279 149.47 69.1567 149.47 69.1567Z" fill="white"/>
<path d="M145.695 64.5071C147.398 64.0529 148.09 66.3919 148.164 66.6246C148.403 67.3854 148.289 68.095 146.876 68.3618C145.462 68.6286 144.02 64.9669 145.695 64.5071Z" fill="white"/>
<path d="M218.9 85.9209C218.9 85.9209 203.538 92.2224 188.647 92.7334L191.912 110.264C204.867 111.774 213.24 110.071 218.594 110.071C233.116 110.094 227.91 85.9209 218.9 85.9209Z" fill="#001959"/>
<path d="M232.838 84.1783C232.838 84.1783 219.962 84.3373 215.744 88.5553C211.526 92.7734 209.301 207.978 209.301 207.978C209.301 207.978 268.484 205.787 268.592 202.976C269.222 186.553 269.285 123.14 268.439 106.5C267.83 96.2013 264.418 86.2644 258.572 77.7632C251.283 77.7462 232.838 84.1783 232.838 84.1783Z" fill="#0A1C5B"/>
<path d="M215.449 87.3801C215.449 87.3801 215.313 96.5882 216.76 96.1625C218.208 95.7367 218.265 89.4919 218.265 89.4919C218.265 89.4919 219.235 97.6953 220.575 97.2979C221.915 96.9005 221.143 89.0605 221.143 89.0605C221.143 89.0605 222.721 95.5834 224.015 96.2874C225.31 96.9913 224.146 88.067 224.146 88.067C224.146 88.067 225.457 93.4942 226.184 93.2842C226.911 93.0741 227.319 87.7264 227.149 85.2058C226.979 82.6851 224.311 82.6852 221.886 83.4061C219.462 84.1271 220.121 83.4402 218.032 84.0533C215.943 84.6665 215.449 87.3801 215.449 87.3801Z" fill="white"/>
<path d="M241.45 51.5636C241.45 51.5636 242.886 47.425 245.015 47.4307C247.144 47.4363 247.979 53.4484 245.64 54.6859C243.301 55.9235 240.786 54.6519 241.45 51.5636Z" fill="white"/>
<path d="M225.667 60.8794C225.667 60.8794 229.953 81.6347 232.599 85.1772C235.244 88.7197 243.555 88.89 246.224 86.1309L243.289 68.322L225.667 60.8794Z" fill="white"/>
<path d="M244.158 73.5506L243.289 68.3163L225.69 60.8794C225.69 60.8794 226.553 65.0577 227.746 69.9627C229.877 71.9624 232.318 73.6052 234.972 74.8279C238.662 76.4459 242.001 75.759 244.158 73.5506Z" fill="#E9E9E9"/>
<path d="M235.165 36.2413C235.165 36.2413 240.042 36.2073 242.012 39.5851C243.982 42.963 248.257 60.6413 247.263 65.1319C246.27 69.6224 241.631 71.8195 236.091 69.6054C230.55 67.3914 222.466 61.0898 220.609 54.1127C218.753 47.1356 225.724 34.1862 235.165 36.2413Z" fill="white"/>
<path d="M228.54 34.1063C225.577 35.6675 217.436 33.2037 215.733 41.038C214.029 48.8723 218.781 48.8383 218.168 51.6711C217.555 54.504 218.168 55.5259 220.643 59.7212C223.118 63.9165 224.793 65.455 225.56 66.159C225.995 66.6106 226.509 66.9798 227.075 67.249L225.707 61.061C225.707 61.061 222.704 58.7902 223.084 57.0303C223.465 55.2704 226.491 56.7634 227.206 55.594C228.341 53.7262 222.92 44.501 229.959 40.7314C236.108 37.4274 241.506 39.0794 243.584 43.6892C245.475 42.883 240.768 27.6685 228.54 34.1063Z" fill="#083CF5"/>
<path d="M226.9 57.0022C226.9 57.0022 224.333 53.7038 222.42 54.6802C220.507 55.6567 221.608 61.7822 224.089 61.9015C226.57 62.0207 228.444 59.6533 226.9 57.0022Z" fill="white"/>
<path d="M226.025 56.8996C226.025 56.8996 222.522 55.0034 222.097 56.9507C221.671 58.8979 223.476 60.8565 225.44 59.5962C227.405 58.3359 226.025 56.8996 226.025 56.8996Z" fill="white"/>
<path d="M235.432 63.3662C238.012 63.5478 240.594 63.0403 242.914 61.8958C243.678 61.489 244.404 61.014 245.083 60.4766C244.536 61.1759 243.873 61.7768 243.124 62.2535C241.631 63.3548 238.35 64.2234 235.432 63.3662Z" fill="white"/>
<path d="M228.484 54.7765C228.484 54.663 228.694 52.0856 230.556 50.5414C232.418 48.9973 234.774 50.0362 234.876 50.0816C234.94 50.1125 234.989 50.1675 235.012 50.2346C235.036 50.3016 235.032 50.3753 235.001 50.4393C234.97 50.5032 234.915 50.5524 234.848 50.5758C234.781 50.5992 234.707 50.595 234.643 50.5642C234.558 50.5244 232.531 49.5934 230.896 50.9502C229.261 52.307 229.017 54.7879 229.017 54.8106C229.011 54.8819 228.978 54.9481 228.924 54.9948C228.869 55.0415 228.799 55.0651 228.728 55.0604C228.658 55.0546 228.593 55.0216 228.547 54.9685C228.502 54.9154 228.479 54.8464 228.484 54.7765V54.7765Z" fill="#083CF5"/>
<path d="M238.929 48.6511C239.757 46.5847 243.703 47.1694 244.316 47.8393C244.355 47.8924 244.373 47.9579 244.366 48.0233C244.36 48.0886 244.329 48.1493 244.281 48.1936C244.232 48.2379 244.169 48.2627 244.103 48.2633C244.037 48.264 243.974 48.2403 243.924 48.1969V48.1969C243.924 48.1969 243.448 47.7712 241.654 47.7541C239.86 47.7371 239.423 48.8101 239.383 48.8555C239.345 48.8934 239.296 48.9189 239.242 48.9285C239.189 48.9381 239.135 48.9313 239.086 48.9092C239.036 48.8871 238.995 48.8506 238.967 48.8045C238.939 48.7584 238.926 48.705 238.929 48.6511V48.6511Z" fill="#083CF5"/>
<path d="M240.967 57.2175C240.409 56.7663 239.808 56.3708 239.173 56.0366C238.856 56.5801 238.586 57.1499 238.367 57.7397C238.714 57.3332 239.024 56.8962 239.292 56.434C239.823 56.7503 240.384 57.0127 240.967 57.2175V57.2175Z" fill="#083CF5"/>
<path d="M226.74 44.3365C226.74 44.3365 228.444 39.142 228.063 36.7803C227.683 34.4187 225.185 33.147 223.817 34.0213C222.449 34.8956 222.801 36.0367 222.801 36.0367C222.801 36.0367 222.017 33.6977 223.113 32.1025C224.209 30.5072 226.519 30.967 227.706 31.1998C228.004 31.2373 228.293 31.3339 228.554 31.484C228.815 31.6341 229.044 31.8347 229.227 32.0741C229.227 32.0741 229.505 30.036 228.092 29.3264C226.678 28.6167 225.213 29.5137 225.213 29.5137C225.705 28.9262 226.347 28.4841 227.072 28.235C227.796 27.9858 228.575 27.9392 229.324 28.1001C231.912 28.6678 232.077 30.0757 232.463 30.6832C232.849 31.2906 232.463 32.6929 232.463 32.6929C232.463 32.6929 234.092 31.6426 234.376 30.3482C234.66 29.0539 232.366 26.9931 232.366 26.9931C232.366 26.9931 239.122 25.8861 237.754 32.1706C238.169 32.1853 238.58 32.0908 238.947 31.8965C239.313 31.7023 239.622 31.415 239.843 31.0635C240.564 29.8657 239.73 28.3953 239.73 28.3953C239.73 28.3953 250.596 39.1817 243.59 43.6893C243.323 43.8596 242.841 39.8232 236.607 39.7154C230.714 39.6245 226.74 44.3365 226.74 44.3365Z" fill="#083CF5"/>
<path d="M229.754 53.9819C229.643 54.7415 229.755 55.5174 230.078 56.2139C230.401 56.9105 230.921 57.4975 231.573 57.9027C232.225 58.308 232.982 58.5138 233.749 58.4948C234.517 58.4759 235.262 58.2331 235.894 57.7962C236.525 57.3593 237.015 56.7474 237.304 56.0358C237.592 55.3241 237.666 54.5437 237.517 53.7905C237.368 53.0372 237.002 52.344 236.464 51.7961C235.926 51.2481 235.239 50.8693 234.489 50.7062C233.427 50.5141 232.332 50.7511 231.445 51.3652C230.557 51.9792 229.949 52.9203 229.754 53.9819V53.9819Z" fill="#083CF5"/>
<g opacity="0.69">
<path d="M231.719 51.189L236.34 57.7403C236.113 57.9861 235.856 58.2017 235.574 58.3818L230.941 51.8021C231.176 51.5678 231.437 51.362 231.719 51.189V51.189Z" fill="#083CF5"/>
<path d="M230.329 52.5742L234.717 58.819C234.552 58.8756 234.383 58.9212 234.212 58.9552L230.067 53.0738C230.141 52.9008 230.229 52.7338 230.329 52.5742V52.5742Z" fill="#083CF5"/>
</g>
<path d="M239.116 50.9902C239.007 51.7487 239.121 52.5226 239.445 53.2171C239.769 53.9115 240.289 54.4962 240.94 54.8993C241.592 55.3024 242.347 55.5064 243.113 55.4862C243.88 55.466 244.623 55.2225 245.253 54.7857C245.882 54.3488 246.371 53.7376 246.658 53.027C246.945 52.3165 247.018 51.5375 246.868 50.7859C246.719 50.0343 246.353 49.3427 245.816 48.7961C245.279 48.2495 244.594 47.8716 243.845 47.7089C242.783 47.517 241.688 47.7549 240.801 48.3703C239.914 48.9856 239.308 49.928 239.116 50.9902V50.9902Z" fill="#083CF5"/>
<g opacity="0.69">
<path d="M241.08 48.1909L245.696 54.7479C245.47 54.9916 245.215 55.2053 244.935 55.3837L240.297 48.804C240.532 48.5683 240.795 48.3623 241.08 48.1909V48.1909Z" fill="#083CF5"/>
<path d="M239.684 49.5874L244.078 55.8322C243.911 55.8895 243.74 55.9351 243.567 55.9684L239.422 50.087C239.499 49.9151 239.586 49.7482 239.684 49.5874V49.5874Z" fill="#083CF5"/>
</g>
<path d="M239.4 52.1361L236.804 53.1196L237.042 53.7461L239.638 52.7625L239.4 52.1361Z" fill="#083CF5"/>
<path d="M225.612 54.631L225.469 55.2856L230.001 56.2721L230.144 55.6175L225.612 54.631Z" fill="#083CF5"/>
<path d="M129.663 89.475C129.663 89.475 129.288 105.257 125.014 117.253C125.014 117.253 105.172 101.056 90.9172 89.7645C79.0691 80.3747 73.3921 37.8251 73.3921 37.8251L84.8371 33.3516C84.8371 33.3516 91.1102 68.186 102.464 77.7462C117.225 90.1505 129.663 89.475 129.663 89.475Z" fill="#083CF5"/>
<path d="M156.748 63.7178C156.748 63.9506 156.678 64.178 156.548 64.371C156.418 64.5639 156.233 64.7137 156.017 64.8012C155.802 64.8886 155.565 64.9097 155.337 64.8617C155.109 64.8138 154.901 64.699 154.739 64.532C154.577 64.365 154.468 64.1534 154.427 63.9244C154.386 63.6953 154.414 63.4592 154.508 63.2462C154.602 63.0332 154.757 62.853 154.954 62.7287C155.15 62.6044 155.38 62.5416 155.612 62.5483C155.916 62.5572 156.205 62.6843 156.417 62.9027C156.629 63.1211 156.748 63.4135 156.748 63.7178V63.7178Z" fill="#083CF5"/>
<path d="M165.014 63.2864C165.015 63.5179 164.947 63.7446 164.819 63.9376C164.692 64.1307 164.509 64.2815 164.296 64.3709C164.082 64.4602 163.847 64.4842 163.62 64.4397C163.392 64.3952 163.183 64.2843 163.019 64.121C162.855 63.9577 162.743 63.7493 162.698 63.5223C162.652 63.2953 162.675 63.0599 162.763 62.8458C162.852 62.6318 163.002 62.4488 163.194 62.3201C163.386 62.1913 163.613 62.1226 163.844 62.1226C164.153 62.1226 164.45 62.245 164.669 62.4631C164.888 62.6812 165.012 62.9772 165.014 63.2864V63.2864Z" fill="#083CF5"/>
<path d="M381.744 181.466C381.744 181.466 378.337 189.521 377.917 189.913C377.497 190.305 375.573 188 375.573 188C375.573 188 381.744 178.718 381.744 181.466Z" fill="white"/>
<path d="M372.922 186.286C372.922 186.03 379.28 179.053 380.132 179.91C380.983 180.768 375.261 188.051 375.261 188.051L372.922 186.286Z" fill="white"/>
<path d="M354.551 345.232L352.751 356.586L361.267 357.534C361.267 357.534 362.465 353.225 364.202 346.401L354.551 345.232Z" fill="white"/>
<path d="M332.183 186.019C332.183 186.019 311.899 256 314.897 262.625H332.615L358.457 220.859L332.183 186.019Z" fill="#083CF5"/>
<path d="M286.693 122.527C284.717 122.527 265.069 84.0135 263.565 81.0047C263.565 79.7671 263.502 76.5992 262.9 74.811C262.145 72.5401 262.293 69.2531 260.891 69.7016C259.489 70.1501 259.909 72.7105 260.232 73.6756C260.293 73.9145 260.266 74.1674 260.155 74.3876C260.044 74.6078 259.857 74.7805 259.629 74.8739C259.401 74.9672 259.147 74.9749 258.913 74.8955C258.68 74.8162 258.483 74.6551 258.359 74.442C256.792 72.0974 253.817 61.1463 252.801 63.1389C252.233 64.2743 255.253 72.069 255.793 73.6869C256.332 75.3049 252.159 67.6749 250.292 64.6036C248.424 61.5323 247.788 63.7066 248.941 65.353C250.093 66.9993 254.26 74.5896 253.664 74.7883C253.068 74.987 247.987 66.5111 246.539 66.9937C245.092 67.4762 246.925 68.5833 247.765 69.9003C248.606 71.2174 252.426 74.8053 251.802 76.0486C251.802 76.0486 245.966 71.927 246.125 72.824C246.284 73.721 254.152 80.806 256.48 83.372C260.079 92.7959 275.844 133.767 279.756 137.673C284.178 142.101 314.187 133.886 314.187 133.886L317.026 113.035C317.026 113.035 289.225 122.527 286.693 122.527Z" fill="white"/>
<path d="M317.406 294.638C317.406 294.638 319.717 311.42 319.717 318.363C319.717 325.306 326.467 339.192 329.935 346.135C333.404 353.078 327.426 363.683 315.856 362.91C304.286 362.138 305.07 352.306 301.584 358.477C298.098 364.648 316.049 367.923 322.992 364.262C329.935 360.6 332.887 355.967 332.887 349.99C332.887 344.012 322.992 328.774 322.22 320.469C321.448 312.163 321.834 300.031 321.834 300.031L317.406 294.638Z" fill="#083CF5"/>
<path d="M317.02 113.046C317.02 113.046 301.385 145.11 305.961 149.691C310.537 154.273 332.183 181.278 332.183 186.024L361.88 176.862C361.88 176.862 351.718 153.489 353.932 140.529C356.146 127.568 358.4 114.312 350.191 110.52C341.982 106.727 317.02 113.046 317.02 113.046Z" fill="#001959"/>
<path d="M306.074 148.085C304.542 142.3 314.732 118.564 317.02 113.046C312.722 120.994 305.098 137.02 304.371 145.723C304.122 151.832 305.2 147.841 324.86 174.023C326.892 176.657 328.834 179.348 330.645 182.147C322.992 167.25 306.358 149.311 306.074 148.085Z" fill="#051533"/>
<path d="M383.044 197.39C376.725 185.389 360.852 174.353 360.852 174.353L330.645 182.147L332.183 186.019L344.502 207.183C344.502 207.183 356.191 256.778 356.191 264.68C356.191 272.583 353.353 345.232 353.353 345.232L364.815 346.418C370.378 324.55 381.471 276.835 376.413 262.148C376.407 262.148 389.385 209.397 383.044 197.39Z" fill="#083CF5"/>
<path d="M350.214 110.52C350.214 110.52 378.031 115.572 388.437 120.63C398.843 125.689 380.54 174.96 380.54 174.96L377.889 190.237C377.889 190.237 374.568 188.817 373.649 188.057C373.047 187.552 372.065 186.013 371.258 186.013C369.652 186.013 367.852 183.839 367.852 183.839L374.199 172.78C374.199 172.78 381.012 140.086 375.459 134.556C371.486 130.582 361.5 131.945 356.277 133.012C355.291 133.222 354.264 133.098 353.356 132.661C352.449 132.223 351.713 131.496 351.264 130.594C348.272 124.593 343.032 112.189 350.214 110.52Z" fill="white"/>
<path d="M314.897 262.625C314.897 262.625 314.607 306.338 317.593 309.296C320.58 312.254 325.598 311.902 328.204 309.296C330.81 306.69 333.796 266.872 332.638 262.625C331.479 258.379 317.593 257.612 314.897 262.625Z" fill="#001959"/>
<path d="M341.636 100.914L342.164 100.267C345.28 95.1061 356.05 91.7509 361.574 99.6193C363.521 102.401 366.166 107.068 362.397 113.364L360.472 111.961C361.598 110.46 362.245 108.655 362.331 106.781C362.417 104.907 361.938 103.051 360.955 101.453C360.767 101.288 357.656 94.6008 349.51 96.1052C343.969 97.0817 342.379 100.391 341.636 100.914Z" fill="#001959"/>
<path d="M341.698 100.454C341.698 100.454 348.386 98.0695 352.587 99.5456C356.788 101.022 358.831 108.748 355.737 118.439C352.643 128.13 343.248 133.455 343.248 139.654C343.248 145.853 350.322 145.53 350.322 145.53C350.322 145.53 347.375 149.106 341.67 147.801C335.964 146.495 337.128 137.815 337.128 137.815C337.128 137.815 333.977 141.317 335.306 143.793C335.306 143.793 331.383 142.992 332.575 135.192C333.767 127.392 341.091 116.1 342.731 110.213C344.372 104.326 339.927 102.776 339.927 102.776L341.698 100.454Z" fill="#001959"/>
<path d="M323.827 65.0519C323.827 65.0519 318.576 62.9344 316.447 63.5191C314.318 64.1038 311.269 65.489 309.379 69.7638C307.488 74.0387 310.151 86.7496 313.16 92.7219C316.168 98.6941 327.239 106.296 327.239 106.296C327.239 106.296 330.077 106.79 334.443 101.544C338.809 96.2984 332.433 66.1589 323.827 65.0519Z" fill="#001959"/>
<path d="M335.862 92.5576V109.589C335.862 109.589 329.657 126.944 324.082 126.467C318.507 125.99 323.196 113.852 324.082 110.191C324.968 106.529 324.417 97.9792 324.417 97.9792L335.862 92.5576Z" fill="white"/>
<path d="M335.862 92.5576V98.1041C332.553 101.442 327.131 104.298 325.371 105.098L324.559 105.467C324.667 101.828 324.417 97.9735 324.417 97.9735L335.862 92.5576Z" fill="#E9E9E9"/>
<path d="M317.315 69.2016C315.006 70.7797 313.34 73.1348 312.62 75.8381C311.57 80.2094 313.813 83.2694 313.813 85.4891C313.813 87.7088 314.165 89.5709 317.315 96.9284C320.466 104.286 323.06 102.708 325.371 101.76C327.682 100.811 336.288 96.6502 338.178 92.4832C340.069 88.3163 338.315 75.1398 332.575 70.9104C326.836 66.681 318.167 68.5658 317.315 69.2016Z" fill="white"/>
<path d="M317.519 64.541C317.519 64.541 314.511 67.7486 316.611 71.2457C318.712 74.7427 328.482 80.6128 332.297 84.5867C336.112 88.5607 336.271 94.1753 335.238 96.2758C334.204 98.3763 335.862 103.656 335.862 103.656C335.862 103.656 346.416 102.56 348.823 90.4284C350.293 83.0482 349.095 70.0762 344.196 65.6254C339.297 61.1745 330.855 58.9208 325.621 60.3798C322.646 61.1519 319.88 62.573 317.519 64.541V64.541Z" fill="#001959"/>
<path d="M316.078 70.1787C315.944 70.3206 315.831 70.4812 315.743 70.6556C313.222 79.0349 327.971 74.8225 335.079 82.7931C337.753 85.7906 339.263 90.6672 339.683 95.101C340.251 101.215 335.522 106.455 329.629 106.217L329.828 109.311C334.199 109.311 339.905 106.046 341.909 101.93C344.304 97.0142 342.056 89.9462 339.314 85.2342C336.3 80.0397 331.287 78.4218 325.689 77.2239C319.796 75.9693 314.994 75.7479 315.692 71.598C315.788 71.0359 316.078 70.332 316.078 70.1787Z" fill="#001959"/>
<path d="M318.502 85.0581L318.229 86.1197C317.184 90.3434 316.719 89.4862 316.855 90.0426C317.111 90.9055 319.035 91.6889 319.972 91.6548C318.797 91.5186 317.048 90.3491 317.264 89.8439C317.474 89.6338 317.639 89.6168 318.161 87.2324C318.317 86.5149 318.431 85.7889 318.502 85.0581V85.0581Z" fill="#001959"/>
<path d="M316.906 80.8115C316.278 80.2853 315.503 79.966 314.686 79.8975C314.326 79.913 313.972 80.0021 313.647 80.1593C313.322 80.3165 313.032 80.5384 312.796 80.8115C313.084 80.5866 313.429 80.4467 313.792 80.4076C314.155 80.3685 314.522 80.4317 314.851 80.59C315.913 81.1578 316.906 81.5949 316.906 80.8115Z" fill="#001959"/>
<path d="M324.417 78.1943C324.417 78.1943 321.357 79.0232 320.71 79.6987C320.062 80.3743 320.71 81.3678 321.277 80.8341C321.845 80.3005 323.752 78.1943 324.417 78.1943Z" fill="#001959"/>
<path d="M323.395 93.3296C323.395 93.3296 318.223 93.4204 318.444 94.1641C318.666 94.9078 319.676 96.6223 319.864 97.2638C320.051 97.9053 320.67 98.7228 322.237 98.2232C323.804 97.7236 323.667 94.255 323.395 93.3296Z" fill="#083CF5"/>
<path d="M323.395 93.3296C323.486 93.7018 323.539 94.0822 323.554 94.465C322.418 94.4309 319.858 94.465 318.904 95.2428C318.726 94.8983 318.572 94.5416 318.444 94.1755C318.223 93.4204 323.395 93.3296 323.395 93.3296Z" fill="white"/>
<path d="M323.327 87.6809C323.691 88.6233 325.218 88.8617 326.734 88.2202C328.249 87.5787 329.186 86.2957 328.817 85.3817C328.448 84.4677 326.921 84.1952 325.411 84.814C323.901 85.4328 322.964 86.7385 323.327 87.6809Z" fill="white"/>
<path d="M322.737 83.3948C322.737 84.1896 323.106 84.8311 323.566 84.8311C324.026 84.8311 324.395 84.1896 324.395 83.3948C324.395 82.6 324.026 81.9585 323.566 81.9585C323.106 81.9585 322.737 82.6 322.737 83.3948Z" fill="#001959"/>
<path d="M315.135 85.3193C315.34 85.9948 315.862 86.4263 316.271 86.2787C316.68 86.1311 316.895 85.4725 316.691 84.797C316.487 84.1214 315.959 83.6899 315.556 83.8375C315.152 83.9852 314.925 84.6437 315.135 85.3193Z" fill="#001959"/>
<path d="M321.863 84.2176C321.863 84.2176 321.295 83.3547 322.317 82.2818C322.917 81.7669 323.662 81.4514 324.45 81.3792C325.237 81.307 326.027 81.4816 326.711 81.8787C327.387 82.3614 328.21 82.5942 329.039 82.5372C329.039 82.5372 327.375 82.8722 326.705 82.4407C325.825 81.873 324.73 81.3905 323.328 82.0831C322.923 82.2857 322.576 82.5879 322.32 82.9613C322.063 83.3346 321.906 83.7669 321.863 84.2176Z" fill="#001959"/>
<path d="M317.457 84.9787C317.457 84.9787 317.639 84.2463 316.685 83.7978C316.148 83.6121 315.567 83.5969 315.021 83.7545C314.475 83.912 313.992 84.2345 313.636 84.6778C313.301 85.1801 312.805 85.5527 312.229 85.7337C312.229 85.7337 313.693 85.7621 313.932 85.2284C314.05 84.8396 314.296 84.5018 314.63 84.2692C314.963 84.0366 315.365 83.9226 315.771 83.9454C316.109 83.9877 316.435 84.1018 316.726 84.2799C317.016 84.4581 317.266 84.6964 317.457 84.9787Z" fill="#001959"/>
<path d="M331.235 84.218C331.235 84.218 332.297 80.9083 333.989 81.7428C335.681 82.5774 336.339 87.3858 335.164 88.6064C333.989 89.8269 331.235 87.6243 331.235 84.218Z" fill="white"/>
<path d="M331.985 84.5529C331.985 84.5529 332.195 82.0095 333.688 82.5659C334.193 82.7476 335.959 86.6931 334.67 87.1529C333.381 87.6128 331.888 85.8302 331.985 84.5529Z" fill="white"/>
<path d="M352.87 351.431C352.87 351.431 352.388 357.54 352.064 361.69C351.741 365.84 349.72 368.99 354.579 370.268C359.439 371.545 364.798 370.523 365.513 367.883C366.229 365.243 361.886 358.471 362.107 355.785C362.328 353.1 360.972 351.874 360.109 352.663C359.246 353.452 352.87 351.431 352.87 351.431Z" fill="#083CF5"/>
<path d="M351.559 368.071C352.325 369.132 353.529 369.394 354.863 369.575C357.702 369.978 363.946 370.359 365.513 367.872C365.464 368.623 365.119 369.323 364.554 369.819C360.705 373.35 351.718 371.539 351.559 368.071Z" fill="#083CF5"/>
<path d="M361.307 358.363C361.268 359.083 360.979 359.768 360.489 360.298C360 360.828 359.34 361.17 358.625 361.265C357.909 361.36 357.183 361.202 356.572 360.818C355.961 360.434 355.503 359.849 355.278 359.163L355.227 359.01C354.35 356.471 353.627 353.882 353.064 351.255C352.678 349.955 352.184 348.173 354.858 347.173C357.532 346.174 361.284 346.606 361.188 347.849C361.12 348.661 361.75 353.219 361.307 358.363Z" fill="#046AD0"/>
<path d="M354.858 347.173C352.184 348.172 352.678 349.955 353.064 351.255C353.626 353.881 354.349 356.471 355.227 359.01L355.278 359.163C355.373 359.438 355.503 359.699 355.664 359.941C355.63 359.867 355.602 359.788 355.573 359.708L355.516 359.555C354.636 357.017 353.916 354.427 353.359 351.8C352.973 350.5 352.473 348.717 355.153 347.712C357.35 346.895 360.262 347.054 361.188 347.815C361.21 346.617 357.509 346.18 354.858 347.173Z" fill="white"/>
<path d="M355.714 360.021C355.714 360.021 356.509 352.487 355.499 352.073C354.643 351.778 353.763 351.556 352.87 351.409C352.87 351.409 352.796 359.073 353.926 360.458C355.056 361.843 355.714 360.021 355.714 360.021Z" fill="#083CF5"/>
<path d="M362.039 355.053C362.035 355.101 362.02 355.148 361.995 355.189C361.971 355.23 361.937 355.265 361.897 355.292C358.769 357.313 354.88 354.684 354.715 354.571C354.649 354.525 354.603 354.455 354.587 354.375C354.571 354.296 354.586 354.213 354.63 354.145C354.651 354.111 354.678 354.082 354.711 354.059C354.743 354.036 354.779 354.02 354.818 354.012C354.857 354.003 354.897 354.003 354.936 354.01C354.975 354.017 355.012 354.032 355.045 354.054C355.079 354.083 358.78 356.575 361.585 354.764C361.618 354.742 361.655 354.728 361.694 354.722C361.733 354.715 361.773 354.717 361.811 354.727C361.849 354.736 361.885 354.754 361.917 354.777C361.948 354.801 361.974 354.832 361.993 354.866C362.028 354.922 362.043 354.988 362.039 355.053V355.053Z" fill="white"/>
<path d="M361.971 358.096C361.968 358.142 361.955 358.187 361.932 358.227C361.91 358.268 361.878 358.302 361.841 358.329C359.893 359.663 355.108 357.642 354.909 357.557C354.834 357.523 354.775 357.462 354.744 357.385C354.714 357.309 354.714 357.224 354.744 357.148C354.758 357.111 354.779 357.077 354.806 357.049C354.833 357.021 354.866 356.998 354.902 356.983C354.938 356.967 354.977 356.959 355.016 356.959C355.055 356.96 355.094 356.968 355.13 356.983C356.43 357.551 360.115 358.771 361.511 357.812C361.544 357.789 361.58 357.773 361.619 357.765C361.658 357.757 361.698 357.757 361.737 357.765C361.776 357.773 361.813 357.789 361.845 357.811C361.878 357.834 361.905 357.863 361.926 357.897C361.963 357.956 361.979 358.026 361.971 358.096Z" fill="white"/>
<path d="M361.994 360.293C361.992 360.333 361.982 360.373 361.964 360.409C361.947 360.445 361.922 360.477 361.891 360.503C360.319 361.894 355.17 360.163 354.585 359.936C354.548 359.922 354.513 359.902 354.484 359.875C354.455 359.848 354.431 359.816 354.414 359.78C354.397 359.744 354.387 359.706 354.386 359.666C354.384 359.626 354.39 359.587 354.403 359.55C354.414 359.512 354.433 359.476 354.458 359.445C354.483 359.415 354.514 359.389 354.549 359.371C354.584 359.352 354.622 359.341 354.661 359.338C354.701 359.334 354.74 359.339 354.778 359.351C356.271 359.873 360.393 360.997 361.511 360.009C361.54 359.983 361.575 359.963 361.612 359.95C361.649 359.937 361.689 359.933 361.728 359.936C361.768 359.939 361.806 359.95 361.841 359.969C361.876 359.987 361.906 360.013 361.931 360.043C361.958 360.079 361.977 360.119 361.988 360.162C361.998 360.205 362 360.25 361.994 360.293V360.293Z" fill="white"/>
<path d="M354.278 362.916C354.278 362.916 352.706 366.72 353.37 367.537C354.034 368.355 363.441 369.013 363.589 367.321C363.736 365.63 361.886 362.115 361.045 361.786C360.205 361.457 354.278 362.916 354.278 362.916Z" fill="#083CF5"/>
<path d="M317.855 262.648C316.197 304.039 318.422 305.85 318.468 306.361C318.468 306.066 316.106 303.471 316.197 262.648C316.214 262.439 316.309 262.244 316.463 262.102C316.617 261.961 316.819 261.882 317.029 261.882C317.238 261.882 317.44 261.961 317.594 262.102C317.748 262.244 317.843 262.439 317.86 262.648C317.858 262.648 317.857 262.648 317.855 262.648V262.648Z" fill="#001959"/>
<path d="M71.9229 361.826L74.6308 373.021L82.8682 370.614C82.8682 370.614 82.3005 366.18 81.2956 359.214L71.9229 361.826Z" fill="white"/>
<path d="M21.2207 358.988V370.501L29.793 370.086C29.793 370.086 30.2983 365.647 30.9285 358.636L21.2207 358.988Z" fill="white"/>
<path d="M61.1817 88.9528C61.1817 88.9528 67.347 91.445 70.3388 94.5617C73.3306 97.6784 74.6931 103.878 74.097 108.754C73.501 113.631 72.2179 114.545 72.2179 114.545C72.2179 114.545 75.0565 121.403 74.1879 127.284C73.3193 133.166 66.9099 138.78 62.7202 139.581C62.7202 139.581 68.5335 132.632 67.7671 128.976C67.7671 128.976 63.5774 134.948 59.3821 137.265C55.1867 139.581 34.9197 159.922 21.8057 145.383C21.8057 145.383 32.5239 140.557 29.0155 130.94C25.5071 121.323 35.1751 112.603 35.1751 112.603C35.1751 112.603 27.6473 116.793 23.7131 111.178C19.7789 105.564 26.5516 101.198 26.8752 101.527C27.1988 101.857 24.2241 106.966 27.7325 108.3C31.2409 109.634 32.0528 104.247 37.5709 98.5016C43.089 92.7564 58.5305 86.1881 61.1817 88.9528Z" fill="#05143D"/>
<path d="M59.4731 139.853L62.7488 118.371L51.6899 117.582L48.4199 135.311C50.8156 137.582 55.0904 142.124 59.4731 139.853Z" fill="white"/>
<path d="M61.3183 127.772L62.749 118.388L51.6901 117.599L50.4014 124.571C50.5319 124.741 50.6739 124.906 50.8215 125.07C52.8652 127.364 57.4296 130.997 61.3183 127.772Z" fill="#E9E9E9"/>
<path d="M64.3498 93.9936C64.3498 93.9936 68.8914 95.6059 68.8914 101.754C68.8914 101.754 68.3976 115.845 62.7659 122.89C58.6387 128.05 53.1149 124.167 50.8441 121.868C47.489 118.513 48.4427 113.954 48.4427 107.806C48.4427 101.658 58.1618 89.6223 64.3498 93.9936Z" fill="white"/>
<path d="M56.9182 108.896C56.8973 109.124 56.8106 109.341 56.6685 109.521C56.5265 109.7 56.3353 109.835 56.1182 109.908C55.9012 109.981 55.6675 109.989 55.4459 109.931C55.2242 109.874 55.0241 109.753 54.8698 109.584C54.7155 109.415 54.6138 109.204 54.5769 108.978C54.5401 108.752 54.5697 108.52 54.6622 108.311C54.7548 108.102 54.9062 107.924 55.0981 107.799C55.29 107.674 55.5141 107.607 55.7431 107.607C55.9049 107.615 56.0637 107.654 56.2104 107.723C56.3571 107.791 56.4888 107.888 56.5979 108.008C56.7071 108.128 56.7916 108.268 56.8466 108.42C56.9015 108.573 56.9259 108.734 56.9182 108.896V108.896Z" fill="#001959"/>
<path d="M66.3992 110.071C66.3794 110.299 66.2935 110.517 66.1521 110.698C66.0106 110.878 65.8197 111.013 65.6026 111.087C65.3855 111.161 65.1517 111.17 64.9296 111.113C64.7075 111.056 64.5069 110.936 64.3521 110.766C64.1972 110.597 64.0949 110.387 64.0577 110.161C64.0204 109.935 64.0498 109.702 64.1423 109.493C64.2348 109.283 64.3863 109.105 64.5784 108.979C64.7705 108.854 64.9948 108.788 65.2241 108.788C65.5499 108.803 65.8566 108.946 66.0769 109.187C66.2972 109.427 66.4131 109.745 66.3992 110.071V110.071Z" fill="#001959"/>
<path d="M52.4556 108.527C52.4556 108.527 54.6866 107.068 56.3387 107.477C57.9907 107.886 58.2121 108.891 58.2121 108.891C57.2969 108.256 56.1755 107.99 55.0727 108.147C53.2844 108.442 52.4556 108.527 52.4556 108.527Z" fill="#001959"/>
<path d="M68.8285 110.758C68.8285 110.758 67.0402 108.777 65.3371 108.76C63.6339 108.742 63.1685 109.651 63.1685 109.651C64.2136 109.265 65.3666 109.291 66.393 109.725C68.0507 110.463 68.8285 110.758 68.8285 110.758Z" fill="#001959"/>
<path d="M61.7153 111.598C61.9337 112.813 62.2586 114.006 62.6861 115.163C62.0476 115.554 61.3496 115.838 60.6196 116.004C62.5442 116.083 63.0835 115.317 63.1686 115.283C62.7745 114.021 62.2887 112.789 61.7153 111.598V111.598Z" fill="#001959"/>
<path d="M57.1116 113.25C57.1116 114.244 55.8229 115.05 54.2277 115.05C52.6324 115.05 51.3438 114.244 51.3438 113.25C51.3438 112.257 52.6324 111.468 54.222 111.468C55.8116 111.468 57.1116 112.257 57.1116 113.25Z" fill="white"/>
<path d="M66.8019 112.291C65.5927 112.291 64.6162 113.046 64.6162 113.994C64.6162 114.823 65.3939 115.516 66.4158 115.658C66.7791 114.562 67.0857 113.449 67.3525 112.353C67.1714 112.315 66.987 112.294 66.8019 112.291Z" fill="white"/>
<path d="M67.6874 92.3987C67.6874 92.3987 68.4538 101.192 60.9658 101.743C56.5699 102.03 52.335 103.508 48.7147 106.018L45.3823 116.01C45.3823 116.01 43.7643 108.3 43.9857 102.646C44.2071 96.9914 52.2798 89.1174 57.6106 88.402C62.9414 87.6867 67.6874 92.3987 67.6874 92.3987Z" fill="#001959"/>
<path d="M49.7369 107.363C49.7369 107.363 49.2147 105.495 47.574 105.904C45.9333 106.313 46.7338 111.144 47.574 111.984C48.4142 112.824 51.3833 112.166 49.7369 107.363Z" fill="white"/>
<path d="M49.311 108.294C49.311 108.294 48.3402 106.023 47.5738 106.773C46.8074 107.522 47.7271 110.9 48.397 110.9C49.0669 110.9 49.311 108.294 49.311 108.294Z" fill="white"/>
<path d="M56.5607 118.649C56.3676 118.507 56.4301 118.456 56.2825 118.649C55.8794 119.217 56.5834 121.028 57.7869 121.408C59.3424 121.908 61.5735 120.841 61.5735 119.915C61.6019 119.62 59.5354 120.75 56.5607 118.649Z" fill="#001959"/>
<path d="M53.2563 105.597C53.2563 105.597 56.0097 104.604 57.111 104.604C58.2124 104.604 59.7225 105.876 59.433 106.614C59.1435 107.352 57.8264 105.376 56.918 105.376C56.0097 105.376 53.2563 105.597 53.2563 105.597Z" fill="#001959"/>
<path d="M67.6872 108.005C67.6872 108.005 67.0286 106.398 65.984 106.08C64.9395 105.763 63.1455 106.529 63.1455 107.324C63.1455 108.119 65.0473 106.608 65.9159 106.875C66.5768 107.128 67.1794 107.512 67.6872 108.005Z" fill="#001959"/>
<path d="M35.2032 135.368C29.9462 128.476 17.786 110.355 16.713 89.0547C15.1462 58.0126 19.8695 48.1799 19.8695 48.1799C19.8695 48.1799 23.3722 45.4379 24.6439 43.4168C25.9155 41.3958 28.5553 39.4429 27.3064 38.6424C26.0574 37.842 24.3032 40.2831 23.7582 41.1517C23.6804 41.2777 23.5627 41.374 23.4238 41.4255C23.285 41.4769 23.1329 41.4804 22.9918 41.4356C22.8114 41.3887 22.6425 41.3057 22.4952 41.1915C22.3479 41.0773 22.2254 40.9343 22.1351 40.7713C22.0449 40.6083 21.9887 40.4286 21.9701 40.2431C21.9514 40.0577 21.9707 39.8704 22.0268 39.6927C22.519 38.3131 23.1828 37.0009 24.0024 35.7869C26.5457 31.7562 28.4986 27.9469 27.2496 28.2307C26.0007 28.5146 21.8962 35.7869 21.0049 37.2289C20.1136 38.6708 23.3552 30.6094 24.5587 27.2032C25.7622 23.7969 23.6674 24.6996 23.1224 26.6355C22.5774 28.5713 19.3472 36.5987 18.8192 36.2865C18.2912 35.9742 21.6578 26.6355 20.3293 25.835C19.0009 25.0345 19.3472 27.1407 18.8646 28.6224C18.3821 30.1041 18.0187 35.3384 16.6562 35.6449C16.6562 35.6449 16.151 28.5146 15.5549 29.2015C15.254 29.5421 14.3797 37.1494 14.323 40.3455C14.2037 47.9074 3.85445 88.2372 6.2899 98.8192C8.66859 109.163 11.7967 138.86 20.0965 144.803C29.8441 145.178 30.6729 142.561 35.2032 135.368Z" fill="white"/>
<path d="M21.5899 194.296C21.5899 194.296 9.73047 221.063 9.73047 229.431C9.73047 237.799 15.9752 359.941 15.9752 359.941L35.4192 360.77C35.4192 360.77 34.579 246.582 37.5083 243.652C40.4377 240.723 43.3614 241.143 43.3614 241.143L68.3858 362.581L86.5524 361.201C86.5524 361.201 76.8503 245.327 71.8318 232.775C66.8133 220.223 55.9361 194.296 55.9361 194.296H21.5899Z" fill="#001959"/>
<path d="M90.3736 176.237C90.3736 176.237 112.514 185.661 115.483 182.664C118.452 179.666 116.108 164.412 113.78 164.412C111.452 164.412 95.4091 155.493 91.5373 155.493C87.6656 155.493 83.1751 169.022 90.3736 176.237Z" fill="white"/>
<path d="M150.635 149.504C150.297 149.999 149.819 150.383 149.263 150.606C148.706 150.829 148.096 150.883 147.509 150.759C146.922 150.636 146.385 150.341 145.966 149.913C145.547 149.484 145.264 148.94 145.153 148.351C145.043 147.762 145.11 147.153 145.346 146.601C145.581 146.05 145.975 145.581 146.478 145.253C146.98 144.926 147.568 144.755 148.168 144.761C148.767 144.768 149.352 144.953 149.846 145.292C150.508 145.747 150.963 146.446 151.111 147.235C151.258 148.024 151.088 148.84 150.635 149.504V149.504Z" fill="#001959"/>
<path d="M145.622 144.525L113.797 164.395C113.797 164.395 107.495 178.934 115.5 182.647L149.994 151.593L145.622 144.525Z" fill="#4064E4"/>
<path d="M156.908 145.178C156.722 145.048 156.565 144.88 156.449 144.684C156.347 144.508 156.281 144.314 156.254 144.113C156.228 143.911 156.241 143.707 156.294 143.51C156.347 143.314 156.438 143.13 156.562 142.969C156.686 142.808 156.84 142.674 157.016 142.572L163.34 138.865C163.516 138.754 163.711 138.68 163.916 138.646C164.12 138.612 164.329 138.62 164.531 138.669C164.732 138.718 164.922 138.807 165.088 138.93C165.254 139.054 165.394 139.21 165.499 139.389C165.604 139.567 165.672 139.765 165.698 139.971C165.725 140.176 165.71 140.385 165.654 140.585C165.598 140.785 165.503 140.971 165.374 141.133C165.245 141.295 165.084 141.429 164.902 141.528L158.577 145.235C158.323 145.386 158.03 145.461 157.735 145.451C157.439 145.44 157.152 145.346 156.908 145.178V145.178Z" fill="#001959"/>
<path d="M156.67 146.359C156.537 146.193 156.444 145.999 156.397 145.791C156.356 145.601 156.352 145.405 156.387 145.214C156.422 145.023 156.494 144.84 156.599 144.677C156.705 144.514 156.842 144.373 157.002 144.264C157.162 144.154 157.343 144.077 157.533 144.037L164.345 142.544C164.717 142.486 165.096 142.572 165.406 142.785C165.716 142.997 165.933 143.32 166.013 143.687C166.094 144.054 166.031 144.438 165.838 144.76C165.645 145.082 165.337 145.319 164.975 145.422L158.163 146.915C157.887 146.976 157.599 146.955 157.335 146.857C157.07 146.758 156.839 146.585 156.67 146.359V146.359Z" fill="#001959"/>
<path d="M155.619 143.106C155.516 143.032 155.42 142.946 155.336 142.851C155.201 142.699 155.097 142.522 155.031 142.33C154.965 142.138 154.937 141.935 154.95 141.732C154.962 141.53 155.015 141.331 155.105 141.149C155.194 140.967 155.319 140.804 155.472 140.671L160.422 136.322C160.574 136.187 160.75 136.084 160.942 136.018C161.133 135.951 161.336 135.924 161.538 135.937C161.74 135.949 161.938 136.002 162.119 136.091C162.301 136.181 162.463 136.306 162.597 136.458C162.866 136.766 163.003 137.168 162.978 137.576C162.952 137.985 162.766 138.366 162.46 138.638L157.51 142.987C157.252 143.213 156.927 143.347 156.585 143.369C156.243 143.39 155.903 143.298 155.619 143.106V143.106Z" fill="#001959"/>
<path d="M162.489 136.85L162.415 136.793C162.198 136.586 162.072 136.301 162.065 136.001C162.057 135.701 162.169 135.41 162.375 135.192L164.782 132.2C164.866 132.081 164.972 131.98 165.094 131.902C165.217 131.825 165.354 131.772 165.497 131.748C165.64 131.724 165.787 131.728 165.928 131.761C166.07 131.794 166.203 131.854 166.321 131.939C166.537 132.147 166.662 132.433 166.668 132.733C166.675 133.033 166.562 133.323 166.355 133.54L163.954 136.526C163.79 136.749 163.552 136.905 163.282 136.964C163.013 137.024 162.731 136.983 162.489 136.85V136.85Z" fill="#001959"/>
<path d="M165.492 139.927C165.471 139.907 165.452 139.884 165.436 139.859C165.27 139.653 165.192 139.39 165.22 139.127C165.248 138.865 165.378 138.624 165.583 138.457L168.064 136.453C168.27 136.288 168.533 136.212 168.795 136.239C169.058 136.267 169.299 136.397 169.466 136.6C169.549 136.702 169.611 136.819 169.648 136.945C169.686 137.07 169.698 137.202 169.684 137.332C169.671 137.463 169.631 137.589 169.568 137.704C169.506 137.819 169.421 137.921 169.319 138.003L166.838 140.012C166.643 140.167 166.397 140.245 166.149 140.229C165.9 140.213 165.666 140.106 165.492 139.927V139.927Z" fill="#001959"/>
<path d="M165.707 144.065L165.679 143.986C165.646 143.869 165.637 143.747 165.651 143.627C165.666 143.506 165.704 143.39 165.764 143.285C165.823 143.179 165.903 143.087 165.999 143.012C166.094 142.937 166.203 142.883 166.32 142.85L169.159 142.05C169.388 142.003 169.626 142.045 169.826 142.167C170.025 142.288 170.171 142.481 170.235 142.706C170.298 142.931 170.274 143.172 170.167 143.38C170.06 143.588 169.878 143.747 169.658 143.827L166.82 144.622C166.598 144.685 166.361 144.663 166.155 144.56C165.949 144.457 165.789 144.281 165.707 144.065V144.065Z" fill="#001959"/>
<path d="M154.581 141.199C154.281 140.993 154.063 140.687 153.966 140.336C153.87 139.985 153.9 139.611 154.053 139.28L156.891 133.12C156.968 132.925 157.084 132.748 157.232 132.599C157.38 132.451 157.556 132.334 157.751 132.255C157.945 132.177 158.154 132.139 158.363 132.144C158.573 132.149 158.779 132.196 158.97 132.284C159.161 132.371 159.331 132.496 159.472 132.651C159.613 132.807 159.72 132.989 159.788 133.187C159.856 133.386 159.883 133.596 159.867 133.805C159.851 134.014 159.793 134.218 159.696 134.403L156.857 140.569C156.773 140.753 156.653 140.919 156.504 141.058C156.355 141.196 156.181 141.303 155.99 141.374C155.8 141.445 155.598 141.477 155.395 141.469C155.192 141.462 154.992 141.414 154.808 141.329C154.728 141.293 154.652 141.249 154.581 141.199Z" fill="#001959"/>
<path d="M153.263 139.632C153.01 139.464 152.83 139.206 152.758 138.911L151.912 135.448C151.86 135.285 151.842 135.114 151.859 134.944C151.877 134.774 151.929 134.61 152.013 134.461C152.097 134.312 152.211 134.183 152.347 134.08C152.484 133.978 152.64 133.905 152.806 133.865C152.972 133.826 153.145 133.821 153.312 133.852C153.48 133.883 153.64 133.948 153.782 134.043C153.923 134.138 154.044 134.262 154.135 134.406C154.227 134.55 154.288 134.711 154.314 134.88L155.16 138.337C155.199 138.495 155.206 138.658 155.182 138.818C155.158 138.979 155.102 139.133 155.018 139.271C154.934 139.41 154.824 139.531 154.693 139.627C154.563 139.723 154.414 139.792 154.257 139.831C154.087 139.871 153.91 139.874 153.738 139.84C153.567 139.805 153.405 139.734 153.263 139.632V139.632Z" fill="#001959"/>
<path d="M152.264 133.983C152.074 133.885 151.92 133.728 151.826 133.536C151.732 133.344 151.703 133.126 151.742 132.916L152.162 130.673C152.187 130.546 152.236 130.424 152.307 130.316C152.378 130.207 152.47 130.114 152.577 130.041C152.684 129.968 152.805 129.917 152.932 129.89C153.059 129.864 153.19 129.863 153.318 129.887C153.445 129.911 153.567 129.96 153.675 130.031C153.784 130.103 153.877 130.195 153.95 130.302C154.023 130.409 154.074 130.53 154.101 130.657C154.127 130.784 154.128 130.915 154.104 131.042L153.684 133.279C153.653 133.429 153.589 133.569 153.496 133.69C153.402 133.811 153.283 133.909 153.146 133.977C153.009 134.045 152.859 134.081 152.706 134.082C152.553 134.083 152.402 134.049 152.264 133.983Z" fill="#001959"/>
<path d="M159.099 132.643C158.987 132.579 158.888 132.492 158.809 132.389C158.729 132.286 158.671 132.169 158.637 132.043C158.604 131.918 158.595 131.787 158.612 131.658C158.629 131.529 158.671 131.405 158.736 131.292L160.07 128.959C160.213 128.76 160.425 128.621 160.664 128.569C160.904 128.517 161.154 128.556 161.367 128.678C161.579 128.801 161.738 128.998 161.813 129.231C161.889 129.465 161.874 129.718 161.773 129.941L160.434 132.274C160.304 132.498 160.091 132.662 159.842 132.731C159.592 132.801 159.326 132.769 159.099 132.643V132.643Z" fill="#001959"/>
<path d="M161.303 128.499C161.109 128.392 160.963 128.214 160.898 128.002C160.832 127.79 160.851 127.561 160.951 127.363L161.836 125.762C161.886 125.654 161.957 125.557 162.045 125.477C162.134 125.398 162.238 125.338 162.351 125.3C162.464 125.263 162.584 125.249 162.703 125.261C162.821 125.272 162.936 125.307 163.04 125.365C163.144 125.423 163.235 125.502 163.308 125.596C163.38 125.691 163.432 125.8 163.46 125.915C163.488 126.031 163.492 126.151 163.472 126.269C163.451 126.386 163.406 126.498 163.341 126.597L162.455 128.198C162.339 128.388 162.155 128.525 161.94 128.581C161.725 128.637 161.496 128.608 161.303 128.499V128.499Z" fill="#001959"/>
<path d="M166.151 131.843C166.055 131.782 165.973 131.703 165.908 131.611C165.844 131.518 165.798 131.414 165.773 131.304C165.749 131.193 165.747 131.079 165.767 130.968C165.787 130.857 165.828 130.751 165.889 130.656L166.883 129.118C167.014 128.944 167.206 128.825 167.42 128.787C167.635 128.749 167.856 128.793 168.039 128.911C168.223 129.028 168.354 129.211 168.408 129.422C168.462 129.634 168.435 129.857 168.331 130.049L167.337 131.587C167.276 131.682 167.197 131.764 167.104 131.828C167.011 131.892 166.907 131.937 166.797 131.961C166.687 131.985 166.573 131.987 166.462 131.966C166.351 131.946 166.245 131.904 166.151 131.843Z" fill="#001959"/>
<path d="M169.312 136.793C169.147 136.635 169.051 136.418 169.044 136.19C169.038 135.961 169.122 135.74 169.278 135.573L170.538 134.25C170.695 134.084 170.911 133.988 171.139 133.981C171.367 133.975 171.588 134.059 171.753 134.216C171.919 134.372 172.015 134.588 172.022 134.816C172.028 135.044 171.944 135.265 171.787 135.431L170.527 136.759C170.37 136.924 170.154 137.02 169.926 137.026C169.699 137.033 169.478 136.949 169.312 136.793Z" fill="#001959"/>
<path d="M170.113 142.947C170.082 142.861 170.069 142.769 170.074 142.678C170.079 142.586 170.101 142.496 170.141 142.414C170.18 142.331 170.236 142.257 170.304 142.195C170.372 142.134 170.452 142.087 170.539 142.056L171.935 141.557C172.022 141.526 172.113 141.513 172.205 141.518C172.296 141.522 172.386 141.545 172.469 141.585C172.552 141.624 172.626 141.68 172.687 141.748C172.749 141.816 172.796 141.896 172.826 141.982C172.857 142.069 172.87 142.16 172.865 142.252C172.86 142.344 172.838 142.433 172.798 142.516C172.759 142.599 172.703 142.673 172.635 142.734C172.567 142.796 172.487 142.843 172.401 142.874L171.004 143.373C170.829 143.433 170.638 143.423 170.471 143.343C170.304 143.263 170.176 143.121 170.113 142.947V142.947Z" fill="#001959"/>
<path d="M152.435 138.979L148.239 144.383L151.941 149.913C151.941 149.913 159.258 147.165 160.314 146.075C161.081 145.28 157.266 141.091 155.097 138.831C154.922 138.649 154.709 138.507 154.473 138.414C154.238 138.321 153.985 138.281 153.732 138.295C153.479 138.309 153.233 138.377 153.009 138.495C152.785 138.613 152.589 138.778 152.435 138.979V138.979Z" fill="#4064E4"/>
<path d="M39.3874 209.198C32.5482 209.1 25.8688 207.116 20.0854 203.464L21.0392 202.107C21.1868 202.21 36.0721 212.4 52.0984 204.611L52.8251 206.104C48.6416 208.15 44.0444 209.208 39.3874 209.198V209.198Z" fill="#083CF5"/>
<path d="M39.1543 203.379C39.1543 203.77 39.0385 204.152 38.8214 204.477C38.6043 204.802 38.2958 205.055 37.9348 205.205C37.5738 205.354 37.1765 205.393 36.7933 205.317C36.41 205.241 36.0581 205.053 35.7818 204.776C35.5055 204.5 35.3173 204.148 35.2411 203.765C35.1649 203.382 35.204 202.984 35.3535 202.623C35.503 202.262 35.7563 201.954 36.0811 201.737C36.406 201.52 36.788 201.404 37.1787 201.404C37.7027 201.404 38.2052 201.612 38.5757 201.982C38.9462 202.353 39.1543 202.855 39.1543 203.379Z" fill="#083CF5"/>
<path d="M32.0828 196.423L30.981 207.404L32.6304 207.569L33.7322 196.588L32.0828 196.423Z" fill="#083CF5"/>
<path d="M0 106.358C0 106.358 4.99014 138.014 9.86673 144.61C10.3222 145.196 10.6499 145.87 10.8288 146.589C11.0078 147.309 11.0339 148.058 10.9056 148.789C9.1003 158.008 5.17749 185.9 21.5899 194.324C41.3517 204.464 62.8337 195.233 69.5894 188.483C76.3451 181.733 83.078 181.568 91.2303 185.02C99.3826 188.471 105.037 170.986 105.037 162.158C105.037 153.33 73.2454 142.504 57.2474 135.862C41.2495 129.22 35.7087 129.805 29.7478 120.704C23.7869 111.604 23.7869 94.9815 17.5137 97.4908C11.2406 100 0 106.358 0 106.358Z" fill="#083CF5"/>
<path d="M57.2472 135.834C45.49 130.951 39.3814 129.975 34.6014 126.183C33.8463 133.563 33.466 147.948 40.9313 153.001C49.6115 158.865 69.555 151.587 77.9173 144.122C68.6921 140.029 64.4059 138.803 57.2472 135.834Z" fill="white"/>
<path d="M64.6163 95.7422C64.6163 95.7422 51.0821 103.826 49.7367 107.363C48.3912 110.9 43.719 115.958 46.8414 127.363C49.9638 138.769 38.1214 143.617 33.8466 140.046C29.5718 136.475 30.4403 128.885 33.8466 129.441C33.8466 129.441 35.4759 132.904 38.1328 130.247C40.7896 127.591 38.4734 117.86 38.0192 111.61C37.565 105.359 53.2565 80.2438 64.6163 95.7422Z" fill="#001959"/>
<path d="M29.9691 367.73C29.9691 367.73 29.4468 373.106 29.0948 376.762C28.7428 380.418 30.0769 383.484 25.4842 383.802C20.8914 384.12 16.2079 382.36 15.9637 379.947C15.7196 377.534 20.7154 372.374 20.9425 370.006C21.1696 367.639 22.5605 366.799 23.2134 367.622C23.8662 368.445 29.9691 367.73 29.9691 367.73Z" fill="#083CF5"/>
<path d="M28.5503 382.4C27.6931 383.195 26.5633 383.229 25.3257 383.166C22.6972 383.053 16.9747 382.366 15.9642 379.947C15.9259 380.278 15.9566 380.613 16.0543 380.932C16.152 381.251 16.3147 381.545 16.5319 381.798C19.4613 385.477 27.869 385.363 28.5503 382.4Z" fill="#083CF5"/>
<path d="M21.2547 372.374C20.9879 375.388 25.0583 376.666 26.5798 374.077C26.6023 374.034 26.6268 373.993 26.6535 373.952C27.8451 371.898 28.9015 369.768 29.8157 367.577C30.3834 366.504 31.0987 365.039 28.8336 363.739C26.5684 362.439 23.1111 362.218 23.0032 363.296C22.9351 363.983 21.6578 367.838 21.2547 372.374Z" fill="#083CF5"/>
<path d="M28.8339 363.711C31.1048 365.011 30.3724 366.475 29.8161 367.548C28.9019 369.74 27.8455 371.87 26.6539 373.924C26.6272 373.964 26.6027 374.006 26.5802 374.049C26.4514 374.273 26.2929 374.48 26.1089 374.662L26.2338 374.475L26.3019 374.35C27.4947 372.293 28.5529 370.162 29.4698 367.969C30.0375 366.901 30.7528 365.437 28.4877 364.137C26.6256 363.064 23.946 362.729 23.0093 363.24C23.1796 362.195 26.5915 362.394 28.8339 363.711Z" fill="white"/>
<path d="M26.0518 374.719C26.0518 374.719 26.5116 368.054 27.4881 367.906C28.3096 367.79 29.1393 367.74 29.9689 367.759C29.9689 367.759 28.8335 374.418 27.5959 375.44C26.3583 376.462 26.0518 374.719 26.0518 374.719Z" fill="#083CF5"/>
<path d="M21.1077 369.382C21.1036 369.425 21.1097 369.467 21.1255 369.507C21.1413 369.546 21.1663 369.582 21.1985 369.609C23.7134 371.88 27.6419 370.228 27.8066 370.177C27.8398 370.164 27.87 370.143 27.8953 370.118C27.9206 370.092 27.9404 370.062 27.9537 370.029C27.9669 369.995 27.9734 369.959 27.9725 369.923C27.9716 369.888 27.9634 369.852 27.9485 369.819C27.9349 369.786 27.9148 369.756 27.8892 369.731C27.8637 369.705 27.8333 369.686 27.7999 369.672C27.7665 369.659 27.7308 369.653 27.6948 369.654C27.6589 369.655 27.6235 369.663 27.5908 369.678C27.5568 369.678 23.8156 371.256 21.5618 369.229C21.537 369.204 21.5074 369.184 21.4748 369.17C21.4421 369.156 21.407 369.149 21.3716 369.149C21.3362 369.149 21.3012 369.156 21.2685 369.17C21.2359 369.184 21.2063 369.204 21.1815 369.229C21.1384 369.269 21.112 369.324 21.1077 369.382V369.382Z" fill="white"/>
<path d="M20.6928 372.045C20.6894 372.086 20.6953 372.127 20.7101 372.165C20.7248 372.204 20.748 372.238 20.778 372.266C22.3278 373.742 26.9717 372.766 27.1704 372.726C27.2404 372.71 27.3015 372.667 27.3406 372.607C27.3798 372.546 27.394 372.473 27.3804 372.403C27.373 372.367 27.3588 372.334 27.3385 372.305C27.3182 372.275 27.2923 372.25 27.2622 372.23C27.2321 372.211 27.1985 372.197 27.1633 372.191C27.1281 372.184 27.0919 372.185 27.0569 372.192C25.7909 372.465 22.2654 372.936 21.1527 371.875C21.1274 371.849 21.0973 371.829 21.0642 371.815C21.0311 371.801 20.9956 371.794 20.9597 371.794C20.9238 371.794 20.8883 371.801 20.8552 371.815C20.8221 371.829 20.792 371.849 20.7666 371.875C20.7253 371.923 20.6996 371.982 20.6928 372.045V372.045Z" fill="white"/>
<path d="M20.3299 373.935C20.3232 374.006 20.3434 374.077 20.3866 374.134C21.5958 375.599 26.5235 374.935 27.0798 374.849C27.1155 374.845 27.1501 374.834 27.1813 374.816C27.2125 374.798 27.2398 374.774 27.2615 374.746C27.2833 374.717 27.2991 374.684 27.3078 374.65C27.3166 374.615 27.3182 374.578 27.3126 374.543C27.3078 374.508 27.2959 374.474 27.2778 374.443C27.2597 374.413 27.2357 374.386 27.2071 374.365C27.1786 374.344 27.1461 374.328 27.1116 374.32C27.0771 374.312 27.0412 374.31 27.0061 374.316C25.5698 374.52 21.6696 374.827 20.8124 373.788C20.7651 373.733 20.6983 373.699 20.6263 373.692C20.5542 373.686 20.4825 373.708 20.4263 373.754C20.3988 373.776 20.3761 373.803 20.3595 373.835C20.3429 373.866 20.3328 373.9 20.3299 373.935Z" fill="white"/>
<path d="M26.9035 377.466C26.9035 377.466 27.7267 381.026 27 381.622C26.2734 382.218 17.6555 381.27 17.8031 379.777C17.9507 378.284 20.1705 375.536 20.9653 375.388C21.7601 375.241 26.9035 377.466 26.9035 377.466Z" fill="#083CF5"/>
<path d="M84.8434 363.143C84.8434 363.143 80.0917 363.927 79.9668 367.083C79.8419 370.239 83.7705 374.463 83.7705 374.463L87.4492 371.965C86.3517 370.619 85.6727 368.981 85.4962 367.253C85.3649 365.871 85.1468 364.498 84.8434 363.143Z" fill="#083CF5"/>
<path d="M73.393 380.776L81.5168 380.958C84.8606 381.032 90.1914 381.56 91.8605 381.594C93.5295 381.628 99.6778 377.83 99.3088 376.53C98.9398 375.23 93.4387 375.429 90.6058 373.918C87.773 372.408 82.8964 368.809 81.8859 368.412C80.3076 367.844 76.2088 369.258 75.2039 370.2C74.1991 371.142 72.5755 379.913 73.393 380.776Z" fill="#083CF5"/>
<path d="M74.6587 378.602C88.0509 376.796 84.1507 380.77 97.2818 377.421C94.0799 378.636 89.3339 379.811 86.0014 379.067C84.1442 378.724 82.2586 378.556 80.3698 378.568C78.4453 378.522 76.5435 378.556 74.6587 378.602Z" fill="#083CF5"/>
<path d="M83.6967 375.224C83.7387 375.276 83.7906 375.32 83.8497 375.353C83.9087 375.386 83.9736 375.406 84.0407 375.414C84.1077 375.421 84.1755 375.415 84.2402 375.396C84.3049 375.377 84.3652 375.346 84.4177 375.303C85.6967 374.27 87.0689 373.358 88.5165 372.578L87.5855 371.897C86.2474 372.66 84.9718 373.527 83.7705 374.491C83.6666 374.581 83.6009 374.706 83.5872 374.843C83.5734 374.979 83.6127 375.116 83.6967 375.224V375.224Z" fill="white"/>
<path d="M83.1234 373.083C83.1814 373.118 83.2458 373.141 83.3127 373.151C83.3797 373.16 83.4478 373.157 83.5133 373.14C83.5788 373.123 83.6402 373.093 83.6941 373.052C83.7481 373.011 83.7934 372.96 83.8273 372.902C84.6492 371.797 85.5444 370.748 86.5069 369.762C86.4367 369.401 86.2514 369.073 85.9789 368.826C84.8994 369.948 83.8872 371.132 82.9474 372.374C82.9123 372.432 82.889 372.497 82.8788 372.564C82.8687 372.631 82.8719 372.699 82.8883 372.765C82.9046 372.831 82.9338 372.893 82.9741 372.948C83.0145 373.002 83.0652 373.048 83.1234 373.083V373.083Z" fill="white"/>
<path d="M13.9712 355.025L36.4466 355.604V360.725L13.9712 360.378V355.025Z" fill="#083CF5"/>
<path d="M65.8193 358.431L88.5162 356.961V361.202L66.8582 363.143L65.8193 358.431Z" fill="#083CF5"/>
<path d="M144.43 148.005C144.43 148.005 115.392 163.901 115.392 167.251C115.392 170.6 118.401 169.839 120.995 167.251C123.59 164.662 144.43 148.005 144.43 148.005Z" fill="#001959"/>
</svg>
