<svg width="129" height="66" viewBox="0 0 129 66" fill="none" xmlns="http://www.w3.org/2000/svg">
<path opacity="0.5" d="M111.644 6.98828C111.644 17.1668 104.803 26.273 95.1555 26.273C104.803 26.273 111.644 35.3799 111.644 45.5577C111.644 35.3799 118.485 26.273 128.133 26.273C118.485 26.273 111.644 17.1668 111.644 6.98828Z" fill="#FBE5F1"/>
<path opacity="0.5" d="M9.17046 0.614507C9.44564 5.82389 6.27568 10.5984 1.45465 10.7608C6.27568 10.5984 9.93796 15.1439 10.2131 20.352C9.93796 15.1439 13.1079 10.3681 17.9289 10.2057C13.1079 10.3681 9.44564 5.82389 9.17046 0.614507Z" fill="#FBE5F1"/>
<path opacity="0.5" d="M52.7554 45.5477C52.8112 50.7608 49.4422 55.4482 44.617 55.4812C49.4414 55.4482 52.9111 60.0895 52.967 65.302C52.9111 60.0895 56.2802 55.4015 61.1053 55.3685C56.2802 55.4015 52.8112 50.7608 52.7554 45.5477Z" fill="#FBE5F1"/>
</svg>
