<svg width="217" height="34" viewBox="0 0 217 34" fill="none" xmlns="http://www.w3.org/2000/svg">
<g opacity="0.5">
<path d="M44.043 26.1893L46.0324 23.7394C48.1604 25.7523 50.9902 26.8514 53.9168 26.8018C54.8673 26.8293 55.8141 26.6726 56.7053 26.3404C57.3684 26.093 57.9518 25.6695 58.393 25.1155C58.7558 24.6478 58.9562 24.0743 58.9638 23.4822C58.9688 22.8559 58.7887 22.2421 58.446 21.7182C57.9705 21.0689 57.3509 20.5392 56.636 20.1707C55.4744 19.5454 54.2553 19.0339 52.9955 18.6436C51.3385 18.1058 49.7468 17.3841 48.2501 16.4918C47.2479 15.9222 46.4064 15.1074 45.8041 14.1235C45.3324 13.2606 45.0922 12.2898 45.107 11.3061C45.0981 10.1027 45.4644 8.92652 46.1547 7.94154C46.9105 6.89307 47.9284 6.06223 49.1063 5.53246C50.4638 4.90608 51.9455 4.59615 53.4398 4.62599C54.9107 4.63843 56.3674 4.91502 57.7408 5.44263C59.1669 5.96471 60.4893 6.73615 61.6463 7.72105L59.6935 10.2812C58.8347 9.44019 57.8287 8.76473 56.7257 8.28862C55.606 7.81055 54.4001 7.5687 53.183 7.57814C51.5958 7.57814 50.4054 7.91568 49.6118 8.59077C49.248 8.87014 48.9519 9.22826 48.7458 9.63837C48.5397 10.0485 48.4288 10.4999 48.4214 10.959C48.4268 11.4945 48.5946 12.0157 48.9024 12.4535C49.3518 13.034 49.9295 13.5023 50.5902 13.8213C51.6828 14.3802 52.8235 14.8393 53.9983 15.1933C55.7589 15.7062 57.4406 16.4591 58.9964 17.4309C60.0742 18.0934 60.9862 18.9943 61.6626 20.0645C62.1968 20.9622 62.4786 21.988 62.4779 23.033C62.4883 24.2602 62.1304 25.4623 61.4506 26.4833C60.7023 27.5806 59.6612 28.445 58.446 28.9782C56.9293 29.6347 55.2871 29.9497 53.6355 29.901C52.4291 29.899 51.2282 29.7369 50.0643 29.4191C48.8973 29.1132 47.77 28.672 46.7051 28.1044C45.7323 27.5944 44.8361 26.9497 44.043 26.1893Z" fill="#046AD0"/>
<path d="M66.3851 20.3871C66.326 18.5907 66.6905 16.8057 67.4491 15.1769C68.0868 13.8429 69.0982 12.7236 70.3599 11.9553C71.652 11.2322 73.1074 10.8525 74.5875 10.8525C76.0676 10.8525 77.523 11.2322 78.815 11.9553C80.0735 12.7252 81.0818 13.8443 81.7177 15.1769C82.474 16.8065 82.8384 18.5909 82.7817 20.3871C82.8364 22.183 82.4721 23.967 81.7177 25.5972C81.084 26.9341 80.0699 28.0536 78.8028 28.8148C77.5074 29.5275 76.0533 29.9011 74.5752 29.9011C73.0972 29.9011 71.6431 29.5275 70.3477 28.8148C69.0863 28.0514 68.078 26.9321 67.4491 25.5972C66.6928 23.9676 66.3284 22.1832 66.3851 20.3871ZM69.7239 20.3871C69.6886 21.6173 69.885 22.8432 70.3028 24.0007C70.6266 24.8969 71.2082 25.677 71.9743 26.2424C72.7541 26.7412 73.6601 27.0062 74.5854 27.0062C75.5107 27.0062 76.4167 26.7412 77.1966 26.2424C77.9603 25.6755 78.5403 24.8958 78.864 24.0007C79.2846 22.8438 79.4837 21.6178 79.451 20.3871C79.4832 19.1576 79.284 17.9331 78.864 16.7775C78.5372 15.8784 77.9582 15.0929 77.1966 14.5154C76.4206 14.0063 75.5131 13.7352 74.5854 13.7352C73.6578 13.7352 72.7503 14.0063 71.9743 14.5154C71.2103 15.0915 70.6297 15.8774 70.3028 16.7775C69.8855 17.9337 69.6891 19.1582 69.7239 20.3871Z" fill="#046AD0"/>
<path d="M87.7758 22.4522V11.207H91.0372V22.0234C91.0372 23.6866 91.3986 24.8966 92.1216 25.6534C92.4795 26.03 92.9131 26.3264 93.3937 26.5227C93.8744 26.7191 94.3913 26.8111 94.9101 26.7926C95.8738 26.7886 96.8187 26.5248 97.6455 26.029C98.579 25.4707 99.4183 24.7678 100.132 23.9466V26.5068C99.378 27.4843 98.4508 28.3148 97.3969 28.9567C96.4083 29.5518 95.2811 29.8766 94.1279 29.8988C92.9747 29.9211 91.8359 29.6398 90.8252 29.0833C89.8462 28.5045 89.0657 27.6416 88.5871 26.6088C88.001 25.3042 87.7233 23.8818 87.7758 22.4522ZM100.352 29.5324L99.6064 25.9719V11.207H102.868V25.1879C102.868 25.686 102.868 26.1434 102.921 26.5558C102.974 26.9682 103.023 27.4418 103.117 27.9604L103.402 29.5283L100.352 29.5324Z" fill="#046AD0"/>
<path d="M106.586 26.8991L109.998 22.9139C110.417 23.4983 110.963 23.9788 111.596 24.3185C112.271 24.6882 113.029 24.878 113.798 24.8697C114.363 24.9012 114.928 24.8078 115.452 24.5961C115.977 24.3844 116.449 24.0596 116.835 23.6447C117.556 22.8281 117.919 21.6521 117.919 20.0883V4.98047H123.602V20.8151C123.655 22.5605 123.205 24.2844 122.306 25.7803C121.463 27.1264 120.255 28.2053 118.824 28.8917C117.312 29.616 115.653 29.982 113.977 29.9614C112.561 29.983 111.157 29.7047 109.855 29.1448C108.635 28.6071 107.526 27.8454 106.586 26.8991ZM112.11 9.26374V4.98047H121.702V9.26374H112.11Z" fill="#046AD0"/>
<path d="M128.771 22.4529V10.8525H134.099V21.6322C134.099 22.7945 134.378 23.6547 134.935 24.2128C135.231 24.493 135.58 24.71 135.962 24.8504C136.344 24.9908 136.751 25.0517 137.157 25.0294C137.889 25.0237 138.611 24.8535 139.269 24.5312C139.994 24.1784 140.632 23.6678 141.136 23.0368V26.5606C140.437 27.5255 139.57 28.3556 138.576 29.0105C137.567 29.6502 136.393 29.9783 135.2 29.9537C134.111 29.958 133.04 29.6764 132.094 29.1371C131.075 28.5413 130.243 27.6714 129.693 26.6259C129.036 25.3361 128.719 23.8998 128.771 22.4529ZM141.279 29.5332L140.602 25.9726V10.8648H145.93V25.0866C145.93 25.5847 145.93 26.0298 145.983 26.4177C146.036 26.8056 146.085 27.267 146.179 27.7896L146.464 29.5332H141.279Z" fill="#046AD0"/>
<path d="M150.727 10.8529H155.916L156.589 14.4094V29.5172H151.261V15.2995C151.261 14.8014 151.261 14.3563 151.208 13.9643C151.155 13.5723 151.106 13.1191 151.012 12.5965L150.727 10.8529ZM156.059 17.3289V13.8051C156.764 12.829 157.65 11.9974 158.668 11.3552C159.698 10.7198 160.887 10.3926 162.097 10.4119C163.244 10.4109 164.371 10.7213 165.356 11.3101C166.342 11.8989 167.15 12.7442 167.694 13.7561C168.365 15.0441 168.69 16.4853 168.636 17.9373V29.5335H163.307V18.7498C163.333 18.0796 163.193 17.4135 162.9 16.8103C162.654 16.3291 162.263 15.9377 161.783 15.6915C161.274 15.4472 160.716 15.3256 160.152 15.3363C159.369 15.3509 158.598 15.5367 157.894 15.8809C157.189 16.2251 156.569 16.7193 156.075 17.3289H156.059Z" fill="#046AD0"/>
<path d="M173.391 5.47894C173.387 5.08064 173.461 4.68547 173.61 4.31618C173.759 3.94688 173.98 3.61074 174.259 3.32709C174.844 2.74363 175.635 2.41602 176.461 2.41602C177.286 2.41602 178.077 2.74363 178.662 3.32709C178.938 3.61194 179.156 3.94866 179.302 4.31792C179.448 4.68719 179.52 5.08174 179.514 5.47894C179.519 5.87695 179.445 6.27194 179.296 6.64122C179.148 7.01051 178.928 7.3468 178.65 7.63078C178.064 8.20757 177.276 8.5308 176.454 8.5308C175.633 8.5308 174.845 8.20757 174.259 7.63078C173.98 7.347 173.76 7.01083 173.611 6.64157C173.462 6.2723 173.387 5.8772 173.391 5.47894ZM173.798 29.533V10.8524H179.131V29.533H173.798Z" fill="#046AD0"/>
<path d="M183.129 20.211C183.078 18.3966 183.482 16.5983 184.303 14.9804C185.045 13.5639 186.177 12.3904 187.565 11.5995C189.027 10.8168 190.659 10.4072 192.316 10.4072C193.974 10.4072 195.606 10.8168 197.068 11.5995C198.439 12.3983 199.556 13.5707 200.288 14.9804C201.107 16.5935 201.511 18.3858 201.462 20.1947C201.508 21.9915 201.104 23.7712 200.288 25.3721C199.553 26.7835 198.431 27.9561 197.055 28.753C195.594 29.5358 193.962 29.9453 192.304 29.9453C190.646 29.9453 189.014 29.5358 187.553 28.753C186.165 27.9622 185.033 26.7887 184.291 25.3721C183.482 23.775 183.083 22.0013 183.129 20.211ZM188.531 20.211C188.499 21.2619 188.655 22.31 188.992 23.306C189.233 24.022 189.692 24.6444 190.304 25.0863C190.903 25.4573 191.592 25.6538 192.296 25.6538C192.999 25.6538 193.689 25.4573 194.287 25.0863C194.899 24.6444 195.358 24.022 195.6 23.306C195.938 22.3105 196.094 21.262 196.061 20.211C196.095 19.1599 195.939 18.1114 195.6 17.1159C195.356 16.3956 194.898 15.7673 194.287 15.3152C193.693 14.934 193.002 14.7314 192.296 14.7314C191.59 14.7314 190.899 14.934 190.304 15.3152C189.694 15.7673 189.236 16.3956 188.992 17.1159C188.655 18.1118 188.499 19.16 188.531 20.211Z" fill="#046AD0"/>
<path d="M204.941 10.8536H210.135L210.804 14.5734V29.5178H205.475V15.3002C205.475 14.802 205.455 14.3569 205.422 13.965C205.39 13.573 205.321 13.1197 205.227 12.5971L204.941 10.8536ZM210.27 17.8644V14.5162C210.929 13.3154 211.86 12.2862 212.989 11.511C214.038 10.7997 215.277 10.4213 216.544 10.4248V15.6922C215.36 15.663 214.178 15.8187 213.042 16.1536C212.01 16.5272 211.067 17.1096 210.27 17.8644Z" fill="#046AD0"/>
<path d="M8.27288 24.0283H3.03021C1.90896 24.0283 1 24.9387 1 26.0618V31.3127C1 32.4358 1.90896 33.3462 3.03021 33.3462H8.27288C9.39413 33.3462 10.3031 32.4358 10.3031 31.3127V26.0618C10.3031 24.9387 9.39413 24.0283 8.27288 24.0283Z" fill="#046AD0"/>
<path d="M19.5541 12.5146H14.3115C13.1902 12.5146 12.2812 13.425 12.2812 14.5481V19.7991C12.2812 20.9221 13.1902 21.8325 14.3115 21.8325H19.5541C20.6754 21.8325 21.5843 20.9221 21.5843 19.7991V14.5481C21.5843 13.425 20.6754 12.5146 19.5541 12.5146Z" fill="#046AD0"/>
<path d="M31.0229 1H25.7802C24.659 1 23.75 1.9104 23.75 3.03343V8.28442C23.75 9.40745 24.659 10.3179 25.7802 10.3179H31.0229C32.1441 10.3179 33.0531 9.40745 33.0531 8.28442V3.03343C33.0531 1.9104 32.1441 1 31.0229 1Z" fill="#046AD0"/>
<path d="M19.5541 24.0283H14.3115C13.1902 24.0283 12.2812 24.9387 12.2812 26.0618V31.3127C12.2812 32.4358 13.1902 33.3462 14.3115 33.3462H19.5541C20.6754 33.3462 21.5843 32.4358 21.5843 31.3127V26.0618C21.5843 24.9387 20.6754 24.0283 19.5541 24.0283Z" stroke="#046AD0" stroke-width="0.830793" stroke-miterlimit="10"/>
<path d="M31.0229 12.5146H25.7802C24.659 12.5146 23.75 13.425 23.75 14.5481V19.7991C23.75 20.9221 24.659 21.8325 25.7802 21.8325H31.0229C32.1441 21.8325 33.0531 20.9221 33.0531 19.7991V14.5481C33.0531 13.425 32.1441 12.5146 31.0229 12.5146Z" stroke="#046AD0" stroke-width="0.830793" stroke-miterlimit="10"/>
<path d="M8.27288 12.5146H3.03021C1.90896 12.5146 1 13.425 1 14.5481V19.7991C1 20.9221 1.90896 21.8325 3.03021 21.8325H8.27288C9.39413 21.8325 10.3031 20.9221 10.3031 19.7991V14.5481C10.3031 13.425 9.39413 12.5146 8.27288 12.5146Z" stroke="#046AD0" stroke-width="0.830793" stroke-miterlimit="10"/>
<path d="M19.5541 1H14.3115C13.1902 1 12.2812 1.9104 12.2812 3.03343V8.28442C12.2812 9.40745 13.1902 10.3179 14.3115 10.3179H19.5541C20.6754 10.3179 21.5843 9.40745 21.5843 8.28442V3.03343C21.5843 1.9104 20.6754 1 19.5541 1Z" stroke="#046AD0" stroke-width="0.830793" stroke-miterlimit="10"/>
</g>
</svg>
