<svg width="254" height="254" viewBox="0 0 254 254" fill="none" xmlns="http://www.w3.org/2000/svg">
<path fill-rule="evenodd" clip-rule="evenodd" d="M106.232 35.0788C126.054 30.6002 146.793 32.6492 165.355 40.9202C173.427 44.5166 182.885 40.8889 186.482 32.8173C190.078 24.7458 186.451 15.2869 178.379 11.6905C153.513 0.611 125.732 -2.13376 99.1794 3.86554C72.6264 9.86483 48.7241 24.2868 31.0372 44.9804C13.3503 65.674 2.8265 91.5306 1.03536 118.694C-0.755775 145.857 6.28169 172.872 21.0982 195.709C35.9147 218.546 57.7164 235.981 83.2517 245.415C108.787 254.849 136.688 255.776 162.793 248.058C188.898 240.339 211.809 224.389 228.108 202.586C244.408 180.782 253.223 154.294 253.238 127.072V127.063V116.921C253.238 108.085 246.075 100.921 237.238 100.921C228.402 100.921 221.238 108.085 221.238 116.921V127.054C221.227 147.376 214.646 167.149 202.479 183.426C190.311 199.702 173.208 211.609 153.72 217.371C134.232 223.133 113.404 222.441 94.3414 215.398C75.279 208.356 59.0038 195.34 47.9431 178.292C36.8825 161.244 31.6289 141.077 32.966 120.799C34.3031 100.522 42.1592 81.2195 55.3627 65.7715C68.5662 50.3234 86.4095 39.5573 106.232 35.0788ZM248.549 49.629C254.799 43.3825 254.802 33.2518 248.555 27.0016C242.309 20.7514 232.178 20.7485 225.928 26.9951L126.931 125.935L105.15 104.189C98.8971 97.9458 88.7664 97.9538 82.523 104.207C76.2795 110.46 76.2875 120.591 82.5408 126.835L115.631 159.873C121.88 166.112 132.001 166.109 138.247 159.867L248.549 49.629Z" fill="#EDEDED"/>
</svg>
