<svg width="82" height="88" viewBox="0 0 82 88" fill="none" xmlns="http://www.w3.org/2000/svg">
<path opacity="0.5" d="M64.9556 48.7285C64.9556 58.907 58.1146 68.0132 48.4667 68.0132C58.1146 68.0132 64.9556 77.1201 64.9556 87.2979C64.9556 77.1201 71.7966 68.0132 81.4445 68.0132C71.7966 68.0132 64.9556 58.907 64.9556 48.7285Z" fill="#FBE5F1"/>
<path opacity="0.5" d="M48.9904 0.779896C49.0179 3.34536 47.3599 5.65206 44.9854 5.66829C47.3595 5.65207 49.067 7.9361 49.0945 10.5012C49.067 7.9361 50.725 5.62907 53.0995 5.61284C50.725 5.62907 49.0179 3.34536 48.9904 0.779896Z" fill="#FBE5F1"/>
<path opacity="0.5" d="M5.69408 30.8925C5.73144 34.3807 3.47713 37.5172 0.248522 37.5392C3.4766 37.5172 5.7983 40.6228 5.83565 44.1106C5.7983 40.6228 8.0526 37.4859 11.2812 37.4638C8.0526 37.4859 5.73144 34.3807 5.69408 30.8925Z" fill="#FBE5F1"/>
</svg>
