<svg width="933" height="386" viewBox="0 0 933 386" fill="none" xmlns="http://www.w3.org/2000/svg">
<path d="M34.7367 310.663C34.212 310.665 34.0418 311.866 33.5808 311.843C33.1215 311.82 33.1307 310.619 32.2177 309.412C32.053 309.194 31.0154 307.821 30.324 308.008C29.0134 308.362 30.0993 314.007 28.2048 314.69C27.789 314.84 27.1855 314.766 25.8754 315.191C25.3542 315.36 25.0867 315.489 25.0159 315.721C24.9156 316.05 25.299 316.298 25.8931 317.05C26.784 318.176 26.5473 318.409 27.3185 319.209C27.891 319.803 28.3222 319.986 28.2579 320.266C28.167 320.661 27.245 320.549 27.0547 321.008C26.8605 321.475 27.5595 322.222 28.1512 322.669C29.2615 323.507 30.316 323.531 31.2955 323.769C32.36 324.027 33.8336 324.659 35.4266 326.363L49 341.991C46.2705 338.692 38.9101 329.451 36.2861 325.834C35.5286 324.789 34.7852 323.689 35 322.42C35.2068 321.197 36.2769 319.965 36.9028 317.975C36.9759 317.742 37.1709 317.093 36.8703 316.826C36.6217 316.606 36.2609 316.848 36.0257 316.646C35.7102 316.375 36.1033 315.719 36.1798 314.681C36.2337 313.95 36.1028 313.401 35.9902 312.929C35.9563 312.786 35.4351 310.661 34.7367 310.663Z" fill="#F2F2F2"/>
<path d="M46.9999 295.853L44.4416 296.908L44.2065 296.82C43.1188 296.411 42.133 296.324 41.2755 296.56C41.1392 296.598 41.0047 296.642 40.8676 296.688C40.3245 296.87 39.6494 297.095 38.7593 296.938C38.2627 296.848 37.0872 296.537 36.9932 295.599C36.9655 295.347 37.0248 295.134 37.1128 294.96C37.0772 294.948 37.0415 294.936 37.0029 294.923C36.5331 294.754 36.3067 294.58 36.0887 294.412C35.921 294.283 35.7482 294.149 35.3723 293.97C35.2074 293.891 35.0654 293.833 34.946 293.785C34.5846 293.637 34.1472 293.433 34.0217 292.894C33.9063 292.313 34.2767 291.888 34.5218 291.606C34.9589 291.103 35.2973 290.836 35.5219 290.659C35.604 290.594 35.6962 290.521 35.7225 290.49C35.9317 290.233 35.3248 288.795 35.0992 288.253C34.5885 287.036 34.1465 285.982 34.7861 285.318C35.2434 284.842 36.0128 284.885 37.1349 285.45C37.4841 285.626 37.7687 285.838 37.9986 286.032C38.0614 285.8 38.1891 285.572 38.4411 285.424C39.0379 285.073 39.8221 285.481 40.7742 286.634C41.0116 286.92 41.3293 287.306 41.5825 287.9C41.7015 288.18 41.7777 288.441 41.8395 288.665C41.9628 288.636 42.1027 288.629 42.2584 288.671C42.7165 288.792 43.0266 289.224 43.1603 289.969C43.3184 290.786 43.3373 291.489 43.3548 292.11C43.3707 292.651 43.3857 293.118 43.4921 293.457C43.6977 294.085 44.2986 294.444 45.0631 294.849L46.9999 295.853Z" fill="#F2F2F2"/>
<path d="M47.8928 341.991L47.3128 341.624L46.6366 341.702C46.6259 341.639 46.5891 341.493 46.5337 341.265C46.231 340.017 45.3082 336.218 44.5384 330.235C44.0012 326.059 43.6972 321.765 43.6343 317.471C43.5715 313.171 43.7733 309.915 43.935 307.298C44.0573 305.325 44.2057 303.445 44.3513 301.614C44.7389 296.723 45.1044 292.103 44.8324 286.989C44.7723 285.847 44.646 283.47 43.2695 280.941C42.471 279.474 41.3711 278.172 40 277.072L40.8526 275.991C42.3661 277.207 43.5829 278.649 44.4696 280.278C45.9958 283.082 46.1334 285.672 46.1996 286.916C46.4762 292.121 46.1067 296.786 45.7151 301.724C45.5708 303.548 45.4224 305.419 45.3008 307.384C45.1405 309.977 44.9407 313.204 45.0028 317.449C45.0643 321.692 45.365 325.933 45.8949 330.057C46.6553 335.965 47.5647 339.707 47.8634 340.936C48.0224 341.593 48.0558 341.731 47.8928 341.991Z" fill="#F2F2F2"/>
<path d="M257.197 141.572V158.293C255.114 162.323 253.07 167.561 251.069 174.119C251.069 174.119 254.134 184.353 257.197 196.718V232.085H180.7L175.386 239.622H160.822V272.75H184.569V349H189.502V272.75H203.447V349H208.38V272.75H256.724V349H261.657V272.75H280.403V349H285.336L285.139 272.75H290.325V141.572H257.197Z" fill="#CCCCCC"/>
<path d="M83.1825 299.115C82.7167 298.33 80.7017 299.17 80.3313 298.458C79.9621 297.748 81.8343 296.665 82.9039 294.193C83.0968 293.748 84.3123 290.938 83.4124 290.072C81.7068 288.429 73.9019 295.209 71.1706 292.99C70.5711 292.503 70.1523 291.531 68.3381 289.953C67.6164 289.325 67.18 289.041 66.7576 289.147C66.1583 289.296 66.1108 290.099 65.4682 291.676C64.5044 294.041 63.9344 293.898 63.3729 295.785C62.956 297.186 63.0512 298 62.5607 298.159C61.8666 298.383 61.2277 296.898 60.348 297.031C59.4503 297.166 58.9076 298.896 58.7362 300.192C58.4145 302.622 59.3072 304.226 59.8019 305.913C60.3396 307.746 60.6587 310.533 59.417 314.479L47.1274 349.105C49.8406 342 57.6965 322.523 60.9975 315.285C61.9505 313.195 63.0027 311.076 65.1632 310.24C67.2432 309.434 70.0998 309.915 73.7417 309.038C74.1671 308.935 75.3474 308.635 75.4959 307.941C75.6188 307.367 74.9245 307.046 75.0312 306.509C75.1742 305.788 76.5395 305.779 78.2172 304.947C79.4003 304.361 80.1373 303.663 80.7711 303.063C80.9622 302.882 83.8025 300.16 83.1825 299.115Z" fill="#F2F2F2"/>
<path d="M45.2029 319.671L44.8896 316.876L45.0328 316.664C45.6949 315.683 46.0325 314.726 46.0365 313.818C46.0372 313.673 46.0304 313.529 46.0237 313.382C45.9967 312.798 45.9629 312.073 46.3409 311.228C46.5529 310.757 47.1483 309.666 48.0434 309.801C48.2843 309.835 48.4666 309.946 48.605 310.075C48.6252 310.043 48.6462 310.011 48.6684 309.975C48.9472 309.55 49.1679 309.368 49.3806 309.192C49.5439 309.057 49.7127 308.918 49.9773 308.589C50.0934 308.445 50.1838 308.318 50.2601 308.211C50.4917 307.888 50.7941 307.504 51.3273 307.51C51.897 307.537 52.1954 308.009 52.3932 308.32C52.7462 308.877 52.9062 309.278 53.0122 309.544C53.0507 309.641 53.0945 309.75 53.1168 309.784C53.3004 310.054 54.7929 309.801 55.3552 309.71C56.6181 309.499 57.711 309.317 58.1613 310.113C58.4839 310.683 58.2443 311.436 57.4275 312.412C57.173 312.716 56.9023 312.947 56.662 313.128C56.8612 313.247 57.0393 313.429 57.1116 313.715C57.2817 314.393 56.6992 315.072 55.3808 315.736C55.0535 315.902 54.6127 316.124 53.995 316.23C53.7041 316.28 53.4422 316.292 53.2181 316.299C53.2133 316.429 53.183 316.569 53.104 316.714C52.8725 317.139 52.3905 317.341 51.6642 317.293C50.8649 317.251 50.2068 317.098 49.6263 316.965C49.1194 316.849 48.6826 316.75 48.3397 316.773C47.7038 316.824 47.2138 317.333 46.6387 317.993L45.2029 319.671Z" fill="#F2F2F2"/>
<path d="M45.2029 294.787L44.8896 291.992L45.0328 291.78C45.6949 290.799 46.0325 289.842 46.0365 288.934C46.0372 288.789 46.0304 288.645 46.0237 288.498C45.9967 287.914 45.9629 287.189 46.3409 286.344C46.5529 285.873 47.1483 284.782 48.0434 284.917C48.2843 284.951 48.4666 285.062 48.605 285.191C48.6252 285.159 48.6462 285.127 48.6684 285.091C48.9472 284.666 49.1679 284.484 49.3806 284.308C49.5439 284.173 49.7127 284.034 49.9773 283.705C50.0934 283.561 50.1838 283.434 50.2601 283.327C50.4917 283.004 50.7941 282.62 51.3273 282.626C51.897 282.653 52.1954 283.124 52.3932 283.436C52.7462 283.993 52.9062 284.394 53.0122 284.659C53.0507 284.757 53.0945 284.866 53.1168 284.9C53.3004 285.17 54.7929 284.917 55.3552 284.826C56.6181 284.615 57.711 284.433 58.1613 285.229C58.4839 285.799 58.2443 286.552 57.4275 287.528C57.173 287.832 56.9023 288.063 56.662 288.244C56.8612 288.363 57.0393 288.545 57.1116 288.831C57.2817 289.509 56.6992 290.188 55.3808 290.852C55.0535 291.018 54.6127 291.24 53.995 291.346C53.7041 291.396 53.4422 291.408 53.2181 291.415C53.2133 291.545 53.183 291.685 53.104 291.83C52.8725 292.255 52.3905 292.457 51.6642 292.409C50.8649 292.367 50.2068 292.214 49.6263 292.081C49.1194 291.965 48.6826 291.866 48.3397 291.889C47.7038 291.94 47.2138 292.449 46.6387 293.109L45.2029 294.787Z" fill="#F2F2F2"/>
<path d="M321.644 348.982C321.644 349.238 321.436 349.446 321.18 349.446H0V348.519H321.18C321.436 348.519 321.644 348.726 321.644 348.982Z" fill="#E6E6E6"/>
<path d="M144.849 100.556C141.584 96.7415 136.969 95.334 134.542 97.4122C132.115 99.4905 132.794 104.267 136.061 108.083C137.345 109.625 138.979 110.837 140.828 111.618L154.866 127.606L162.228 120.859L147.608 105.813C147.121 103.866 146.175 102.063 144.849 100.556Z" fill="#A0616A"/>
<path d="M250.217 120.054C250.217 120.054 253.287 134.108 241.101 138.589C228.914 143.071 197.333 160.278 194.995 159.489C192.658 158.701 185.01 162.55 175.983 154.338C166.957 146.126 145.149 121.367 145.149 121.367L154.119 109.185L187.892 132.515C187.892 132.515 188.614 132.3 191.816 131.969C195.017 131.637 192.513 133.656 197.521 129.617C202.528 125.578 234.49 111.103 234.49 111.103C234.49 111.103 243.868 106.456 250.217 120.054Z" fill="#0A1532"/>
<path d="M170.526 316.105L175.491 332.103L161.7 341.482L151.77 332.655C151.77 332.655 155.631 318.863 153.976 315.553L170.526 316.105Z" fill="#A0616A"/>
<path d="M240.588 89.3701L248.498 106.819L225.354 121.206L224.038 100.403L240.588 89.3701Z" fill="#A0616A"/>
<path opacity="0.1" d="M240.588 89.3701L248.498 106.819L225.354 121.206L224.038 100.403L240.588 89.3701Z" fill="black"/>
<path d="M231.492 104.926C240.774 104.926 248.298 97.4017 248.298 88.1199C248.298 78.8381 240.774 71.3137 231.492 71.3137C222.21 71.3137 214.686 78.8381 214.686 88.1199C214.686 97.4017 222.21 104.926 231.492 104.926Z" fill="#A0616A"/>
<path d="M225.141 117.505L248.863 101.507L245.001 236.665C245.001 236.665 225.417 202.738 210.522 201.083C210.522 201.083 212.177 197.221 213.28 195.014C214.384 192.808 216.039 181.774 216.039 181.774L223.762 122.194L225.141 117.505Z" fill="#083CF5"/>
<path d="M244.174 257.353L223.21 183.429C223.21 183.429 226.52 123.849 248.863 101.507L254.104 109.506C254.104 109.506 259.286 110.275 258.35 113.752C257.414 117.229 278.929 245.216 278.929 245.216H256.63C256.63 245.216 254.655 257.353 244.174 257.353Z" fill="#0A1532"/>
<path d="M225.141 117.505V115.299C225.141 115.299 214.935 116.126 214.384 122.194C213.832 128.263 209.419 151.984 213.832 166.328L208.315 175.154L204.454 196.118L216.59 199.428L223.21 148.52C223.21 148.52 227.624 121.643 225.141 117.505Z" fill="#0A1532"/>
<path d="M244.725 222.598C244.725 222.598 254.104 249.629 234.244 250.181C214.384 250.733 183.445 250.733 183.445 250.733L168.044 259.008L172.457 319.139L141.564 319.691C141.564 319.691 131.634 245.768 140.46 236.941C149.287 228.114 174.664 218.736 174.664 218.736L203.902 203.841L212.125 193.859L244.725 222.598Z" fill="#0A1532"/>
<path d="M245.851 97.9209C247.023 97.5045 257.993 84.6475 248.862 76.13C248.862 76.13 245.305 65.7249 231.117 66.8163C216.929 67.9077 213.109 75.6677 213.109 79.7003C213.109 83.7328 216.866 88.2667 216.866 88.2667C216.866 88.2667 214.2 77.1845 220.203 77.7302C226.206 78.2759 224.568 80.4587 228.934 79.3673C233.3 78.2759 237.665 79.913 237.665 79.913L242.031 81.55V88.2079C242.031 88.2079 243.934 86.6804 244.074 88.2079C244.213 89.7355 245.851 97.9209 245.851 97.9209Z" fill="#0A1532"/>
<path d="M150.942 234.183L150.39 251.284L128.875 247.423C128.875 247.423 138.113 232.219 136.804 227.96L150.942 234.183Z" fill="#A0616A"/>
<path d="M148.735 247.423C148.735 247.423 152.597 247.423 152.597 249.629C152.597 251.836 158.665 268.938 147.08 269.489C135.495 270.041 136.047 267.834 136.047 267.834C136.047 267.834 103.499 282.729 91.9137 260.663C91.9137 260.663 89.1553 255.146 95.7753 254.043C102.395 252.939 128.875 243.702 128.875 243.702C128.875 243.702 144.322 249.629 148.735 247.423Z" fill="#0A1532"/>
<path d="M171.078 332.104C171.078 332.104 174.94 327.425 175.491 327.834C176.043 328.242 188.18 342.034 179.905 345.895C171.63 349.757 167.216 351.412 167.216 351.412L165.01 348.102C165.01 348.102 148.46 364.1 123.083 353.067C123.083 353.067 120.876 348.102 125.841 346.999C130.806 345.895 151.77 329.085 151.77 329.085C151.77 329.085 160.596 335.414 165.01 334.31C169.423 333.207 171.078 332.104 171.078 332.104Z" fill="#0A1532"/>
<path d="M210.522 199.428C210.522 199.428 158.941 173.224 154.528 173.224C150.114 173.224 141.679 175.039 139.828 183.51C137.978 191.98 126.944 232.804 126.944 232.804L153.976 239.424L164.458 210.185L181.559 225.632L210.522 208.361V199.428Z" fill="#0A1532"/>
<path d="M186.234 189.305C181.266 190.034 177.615 193.188 178.079 196.35C178.544 199.511 182.947 201.482 187.917 200.752C189.906 200.488 191.803 199.751 193.449 198.603L214.46 195.248L212.675 185.422L192.152 189.773C190.245 189.146 188.215 188.986 186.234 189.305Z" fill="#A0616A"/>
<path d="M258.894 110.545C258.894 110.545 272.422 115.438 269.717 128.138C267.013 140.838 264.739 176.731 262.826 178.288C260.912 179.846 260.093 188.369 248.333 191.629C236.573 194.889 202.828 209.319 202.828 209.319L198.475 186.06L236.216 169.921C236.216 169.921 236.42 169.195 237.846 166.31C239.271 163.424 239.645 166.619 238.897 160.229C238.149 153.839 242.938 119.081 242.938 119.081C242.938 119.081 244.005 108.669 258.894 110.545Z" fill="#0A1532"/>
<path d="M136.737 7.68804C136.669 7.75426 136.606 7.82393 136.539 7.89071C126.018 -2.54934 109.074 -2.64119 98.441 7.6841C87.7698 18.0501 87.4092 35.0671 97.6317 45.8759L97.6251 45.8823L97.8796 46.1445L135.524 84.9041L174.546 47.0051L174.437 46.8934C174.503 46.8309 174.571 46.773 174.636 46.7097C185.412 36.2442 185.663 19.025 175.198 8.2494C164.732 -2.52613 147.513 -2.77744 136.737 7.68804Z" fill="#083CF5"/>
<path d="M854.321 322.664L873.828 324.782L883.163 318.428L888.565 324.782L885.969 338.187L883.005 348.77L865 339.64L850.5 338.332L854.321 322.664Z" fill="#EDEDED"/>
<path d="M755.516 300.126L802.604 299.271L859.878 323.593L852.242 340.241L800.483 325.727L720.307 348.77L731.336 294.155L755.516 300.126Z" fill="#0A1532"/>
<path d="M884.619 324.625L875.325 323.897L887.143 298.866C887.143 298.866 892.618 296.924 893.461 302.964C894.305 308.998 887.117 349.873 885.011 349.873C882.905 349.873 875.841 345.742 875.841 345.742L886.3 325.891L884.612 324.625H884.619Z" fill="#0A1532"/>
<path d="M722.513 243.906L717.849 228.379L704.298 227.955L698.792 247.263L722.513 243.906Z" fill="#EDEDED"/>
<path opacity="0.1" d="M722.513 243.906L717.849 228.379L704.298 227.955L698.792 247.263L722.513 243.906Z" fill="black"/>
<path d="M701.545 242.039L723.447 241.195L730.238 255.166L740.718 317.035L685.746 329.462C685.746 329.462 682.377 260.361 689.959 250.67C697.541 240.979 701.545 242.033 701.545 242.033V242.039Z" fill="#0A1C5B"/>
<path d="M766.054 192.881C766.976 187.975 770.249 184.465 773.377 185.051C776.505 185.637 778.29 190.089 777.368 195.002C777.025 196.971 776.222 198.821 775.017 200.415L770.861 221.166L762.662 219.499L766.298 198.782C765.751 196.859 765.672 194.837 766.067 192.881H766.054Z" fill="#EDEDED"/>
<path d="M704.777 247.29L749.808 238.419L762.465 200.356L776.644 203.714L762.419 259.94L711.448 266.644L704.777 247.29Z" fill="#0A1C5B"/>
<path d="M932.644 349.463C932.644 349.719 932.436 349.927 932.18 349.927H611V349H932.18C932.436 349 932.644 349.207 932.644 349.463Z" fill="#E6E6E6"/>
<path d="M773.412 131.947C773.458 131.992 773.497 132.032 773.544 132.077C780.365 125.359 791.359 125.3 798.259 131.947C805.18 138.613 805.417 149.559 798.786 156.513L798.622 156.683L774.203 181.615L748.887 157.238L748.96 157.166C748.92 157.127 748.874 157.088 748.828 157.049C741.835 150.317 741.677 139.24 748.465 132.313C755.254 125.379 766.425 125.222 773.412 131.953V131.947Z" fill="#083CF5"/>
<path d="M767.238 256.451C767.317 256.53 767.397 256.616 767.476 256.695C780.061 244.217 800.328 244.105 813.052 256.451C825.815 268.843 826.251 289.189 814.022 302.109L813.718 302.432L768.683 348.77L722.005 303.461L722.137 303.329C722.058 303.257 721.979 303.184 721.9 303.112C709.011 290.601 708.707 270.017 721.226 257.13C733.746 244.25 754.343 243.947 767.238 256.458H767.232L767.238 256.451Z" fill="#083CF5"/>
<path d="M698.504 308.272C698.504 308.272 681.849 322.021 688.031 330.361C694.207 338.702 715.219 353.633 724.709 349.002C734.2 344.371 753.901 310.904 753.901 310.904L759.055 345.187L772.54 344.005C772.54 344.005 782.334 295.582 773.304 288.156C764.268 280.729 723.141 293.857 723.141 293.857L698.511 308.279L698.504 308.272Z" fill="#0A1532"/>
<path d="M769.265 339.392L773.068 351.407L780.99 362.696L774.917 371.94L755.614 359.014L755.678 352.363L758.709 348.213L760.85 340.256L769.265 339.392Z" fill="#EDEDED"/>
<path d="M775.59 367.463L780.531 359.467L797.54 381.525C797.54 381.525 796.753 387.321 790.947 385.306C785.14 383.29 749.144 364.914 750.116 363.023C751.088 361.133 755.076 350.977 755.076 350.977L773.673 368.385L775.584 367.456L775.59 367.463Z" fill="#0A1532"/>
<path d="M764.994 307.968C769.966 308.462 773.739 311.425 773.423 314.586C773.107 317.747 768.827 319.914 763.855 319.42C761.866 319.248 759.95 318.603 758.257 317.543L737.23 315.192L738.185 306.881L759.14 308.718C761.003 308.007 763.012 307.75 764.994 307.974V307.968Z" fill="#EDEDED"/>
<path d="M705.501 251.61L718.224 295.706L757.236 305.031L755.116 319.453L697.869 310.121L686.799 259.921L705.501 251.61Z" fill="#0A1C5B"/>
<path d="M712.581 232.835C702.63 232.835 694.563 224.768 694.563 214.817C694.563 204.866 702.63 196.8 712.581 196.8C722.532 196.8 730.599 204.866 730.599 214.817C730.599 224.768 722.532 232.835 712.581 232.835Z" fill="#EDEDED"/>
<path d="M711.145 190.59C711.665 190.893 712.364 190.432 712.535 189.852C712.699 189.273 712.508 188.654 712.311 188.087C711.988 187.126 711.666 186.164 711.336 185.209C710.645 183.168 709.914 181.054 708.419 179.5C706.167 177.156 702.584 176.556 699.357 176.991C695.215 177.544 691.132 179.79 689.203 183.497C687.28 187.205 688.096 192.381 691.573 194.692C686.615 200.376 684.889 206.711 685.159 214.245C685.429 221.785 693.648 228.719 699.002 234.027C700.2 233.303 701.287 229.905 700.628 228.667C699.97 227.435 700.912 225.999 700.102 224.867C699.292 223.734 698.607 225.538 699.43 224.412C699.95 223.701 697.922 222.055 698.692 221.633C702.426 219.566 703.671 214.91 706.022 211.34C708.854 207.04 713.7 204.123 718.824 203.642C721.649 203.379 724.632 203.859 726.944 205.499C729.262 207.139 730.757 210.069 730.223 212.855C731.613 211.446 732.304 209.371 732.047 207.409C731.784 205.446 730.579 203.629 728.867 202.628C729.907 199.19 729.018 195.232 726.601 192.572C724.184 189.911 714.392 190.366 710.869 191.064L711.139 190.596L711.145 190.59Z" fill="#083CF5"/>
<path d="M710.592 203.741C705.923 204.248 702.552 208.291 699.707 212.025C698.067 214.179 696.348 216.556 696.388 219.263C696.427 221.995 698.258 224.346 699.134 226.941C700.563 231.182 699.173 236.22 695.769 239.124C699.127 239.763 702.762 237.241 703.342 233.869C704.02 229.944 701.043 226.157 701.392 222.186C701.702 218.69 704.455 216.003 706.799 213.388C709.143 210.774 711.336 207.31 710.263 203.971L710.592 203.747V203.741Z" fill="#083CF5"/>
<path d="M601.187 74.3363H564.933V16.2375L601.187 27.8573V74.3363Z" fill="#0A1532"/>
<path d="M603.645 137.548L555.76 166.146L544.947 210.203L550.353 346.238H574.065L579.316 215.227L589.828 346.238H613.91L620.001 199.117C621.679 188.426 620.355 177.478 616.177 167.495L603.645 137.548Z" fill="#0A1532"/>
<path d="M593.025 50.3138L572.931 48.7727L567.521 59.5607L552.064 63.4136L548.2 111.189C555.845 130.992 560.643 149.915 555.929 165.9L614.665 162.817L604.859 136.378C604.859 136.378 604.618 126.601 610.028 113.501C615.438 100.401 606.937 66.4959 606.937 66.4959L594.571 63.4136L593.025 50.3138Z" fill="#083CF5"/>
<path d="M457.623 68.8279C459.579 68.8885 461.387 68.5022 462.809 67.8102L481.411 69.565L481.987 60.689L463.055 59.8646C461.679 59.0858 459.898 58.5883 457.942 58.5277C453.472 58.3892 449.777 60.5827 449.689 63.427C449.601 66.2714 453.153 68.6894 457.623 68.8279Z" fill="#A0616A"/>
<path d="M567.66 95.9244C567.66 95.9244 567.003 67.6483 560.802 63.4042C558.244 61.6539 518.917 61.2563 517.484 61.1078C508.649 60.1922 502.362 56.6844 494.923 56.2999C476.794 55.3629 467.628 59.7623 467.628 59.7623L467.309 68.8405L567.66 95.9244Z" fill="#083CF5"/>
<path d="M580.968 47.8432C589.824 47.8432 597.004 40.664 597.004 31.808C597.004 22.9519 589.824 15.7727 580.968 15.7727C572.112 15.7727 564.933 22.9519 564.933 31.808C564.933 40.664 572.112 47.8432 580.968 47.8432Z" fill="#A0616A"/>
<path d="M576.311 7.87991C572.865 10.0648 570.341 8.50053 567.88 9.60242C563.071 11.7553 554.951 26.8765 555.684 33.2071C556.72 42.1729 559.997 42.5421 559.899 48.9747C559.742 59.3039 558.926 59.2611 561.029 62.8677C563.369 66.8792 576.618 65.79 579.078 60.3502C579.563 59.277 574.173 59.6991 568.217 45.6196C565.228 38.5545 567.19 32.1166 568.217 29.3199C568.457 28.6652 568.567 24.0168 569.08 24.5327C573.577 29.0561 576.098 25.7495 578.814 25.37C584.387 24.5913 588.584 29.1136 590.275 27.49C591.534 26.2819 589.929 23.0876 590.539 22.8525C591.189 22.6019 593.344 26.1061 594.754 29.8751C595.664 32.3056 596.119 33.5208 596.072 34.9101C595.927 39.2004 594.839 51.3646 592.912 54.9337C588.75 62.6414 593.99 65.5496 597.257 64.9878C599.897 64.5338 611.566 66.3211 612.204 65.024C612.773 63.8685 611.474 51.9825 610.108 40.9324C608.467 27.6508 601.888 15.4458 591.573 6.99091C590.968 6.49509 590.517 6.1549 590.275 6.02492C589.704 5.71704 583.813 2.64055 579.473 5.09742C577.875 6.00189 578.135 6.72345 576.311 7.87991Z" fill="#0A1532"/>
<path d="M415.016 164.327L349.958 163.576L343.228 206.376L359.68 354.3H381.248L386.226 216.513L395.2 356.928H417.283L427.355 196.99L415.016 164.327Z" fill="#083CF5"/>
<path d="M393.033 52.0264H369.842L365.322 61.0445L343.228 71.2254L351.092 129.432L345.1 167.759H419.945L413.255 123.42L422.242 70.0626L397.527 60.293L393.033 52.0264Z" fill="#0A1C5B"/>
<path d="M470.818 192.623C469.804 190.561 469.342 188.442 469.394 186.588L458.496 167.553L467.73 162.646L477.791 182.483C479.293 183.578 480.689 185.241 481.702 187.303C484.018 192.013 483.458 197.023 480.452 198.492C477.446 199.961 473.133 197.334 470.818 192.623Z" fill="#EDEDED"/>
<path d="M401.509 68.1585C401.509 68.1585 408.859 60.6027 417.103 65.8607C425.347 71.1187 455.421 124.924 455.421 124.924L478.62 171.18L462.245 178.803L442.489 134.509L401 89.8949L401.509 68.1585Z" fill="#0A1C5B"/>
<path d="M380.411 47.3785C391.962 47.3785 401.327 38.0143 401.327 26.4629C401.327 14.9116 391.962 5.54736 380.411 5.54736C368.86 5.54736 359.496 14.9116 359.496 26.4629C359.496 38.0143 368.86 47.3785 380.411 47.3785Z" fill="#EDEDED"/>
<path d="M373.749 43.6746C373.847 45.7413 373.896 46.7747 373.579 46.8996C372.625 47.2755 360.34 40.0071 358.894 35.1687C358.219 32.912 358.789 32.867 358.297 26.4469C357.826 20.3065 357.298 20.2576 357.922 18.7384C358.616 17.0499 360.735 14.9696 364.972 10.8089C366.575 9.23572 367.376 8.44912 367.882 8.04243C369.415 6.80982 375.125 2.21792 380.361 2.81118C382.556 3.05986 382.181 3.93781 390.38 8.39264C391.087 8.77634 392.034 9.28286 393.342 9.86441C396.523 11.2788 398.496 11.6455 399.535 12.0399C405.831 14.4304 403.984 27.7465 403.442 27.8228C403.245 27.8507 403.192 26.1239 402.159 25.9812C401.229 25.8527 400.636 27.1639 399.791 27.2116C397.483 27.3419 400.046 25.128 394.397 22.6692C392.2 21.7133 398.311 26.0232 392.494 25.9532C383.396 25.8438 389.215 26.4239 385.76 28.2422C383.24 29.5683 373.104 22.2707 373.516 24.6025C373.806 26.2473 374.997 26.7208 374.826 28.5634C374.659 30.3484 373.32 32.2725 372.139 32.3432C371.05 32.4083 370.454 30.8777 370.091 31.0242C369.696 31.1835 370.129 33.1042 370.981 35.0775C372.062 37.5826 372.708 37.6022 373.278 39.5289C373.606 40.6371 373.654 41.6496 373.749 43.6746Z" fill="#0A1532"/>
<path d="M539.168 186.779L404.197 152.361C395.569 150.161 390.336 141.336 392.531 132.689L409.322 66.5443C411.517 57.897 420.323 52.6517 428.951 54.8518L563.921 89.2692C572.549 91.4693 577.782 100.295 575.587 108.942L558.796 175.086C556.601 183.734 547.796 188.979 539.168 186.779Z" fill="white"/>
<path d="M539.152 186.779L404.132 152.362C399.816 151.262 396.349 148.506 393.873 144.851C390.27 139.534 389.33 132.839 390.912 126.611L404.997 71.145C406.579 64.9165 410.599 59.4861 416.3 56.5404C420.219 54.5158 424.579 53.7545 428.894 54.8546L563.915 89.2713C572.56 91.4749 577.785 100.282 575.585 108.943L558.788 175.087C556.592 183.734 547.783 188.979 539.152 186.779ZM428.525 56.3099C420.682 54.3108 422.732 61.4269 420.736 69.2841C411.001 107.618 431.137 147.251 467.808 161.908C487.604 169.82 504.07 176.287 504.07 176.287C531.492 183.277 559.378 166.672 566.355 139.198L574.133 108.573C576.128 100.716 571.388 92.7257 563.545 90.7266L428.525 56.3099Z" fill="#0A1C5B"/>
<path d="M491.92 108.139C490.977 100.394 483.93 94.8792 476.18 95.8214C468.504 96.7546 463.021 103.673 463.834 111.332L463.609 111.359L467.023 139.407L492.848 136.267C493.664 136.311 494.494 136.289 495.334 136.187C503.083 135.245 508.602 128.203 507.659 120.457C506.716 112.712 499.67 107.197 491.92 108.139Z" fill="#083CF5"/>
<path d="M480.574 189.139C490.456 189.139 498.468 181.128 498.468 171.245C498.468 161.362 490.456 153.351 480.574 153.351C470.691 153.351 462.679 161.362 462.679 171.245C462.679 181.128 470.691 189.139 480.574 189.139Z" fill="#083CF5"/>
<path d="M398.758 98.2368C396.824 99.4821 394.768 100.19 392.914 100.358L375.244 113.379L369.256 104.84L387.825 92.5517C388.738 90.9385 390.228 89.3623 392.162 88.1169C396.58 85.2719 401.639 85.2309 403.46 88.0255C405.282 90.82 403.177 95.3917 398.758 98.2368Z" fill="#EDEDED"/>
<path d="M357.37 67.5626C357.37 67.5626 343.865 66.0643 341.614 71.3085C339.363 76.5527 334.862 128.995 334.862 128.995L342.365 141.731L391.566 104.548L381.602 94.5984L360.516 104.548L357.37 67.5626Z" fill="#0A1C5B"/>
<path d="M553.083 84.5541C554.689 86.2055 556.534 87.3573 558.303 87.9349L572.605 104.633L580.352 97.595L565.01 81.4144C564.482 79.6298 563.383 77.7527 561.777 76.1013C558.109 72.3287 553.189 71.1626 550.789 73.4968C548.388 75.831 549.415 80.7815 553.083 84.5541Z" fill="#A0616A"/>
<path d="M600.215 63.979C600.215 63.979 613.721 65.5245 614.746 71.1485C615.772 76.7725 608.46 129.001 608.46 129.001L598.301 139.769L558.608 92.4864L570.546 84.9881L588.894 99.4048L600.215 63.979Z" fill="#083CF5"/>
<path d="M418.059 124.534C424.22 124.534 429.214 119.539 429.214 113.379C429.214 107.218 424.22 102.224 418.059 102.224C411.899 102.224 406.904 107.218 406.904 113.379C406.904 119.539 411.899 124.534 418.059 124.534Z" fill="#E6E6E6"/>
</svg>
