<svg width="1257" height="617" viewBox="0 0 1257 617" fill="none" xmlns="http://www.w3.org/2000/svg">
<path opacity="0.5" d="M111.644 13.9883C111.644 24.1668 104.803 33.273 95.1555 33.273C104.803 33.273 111.644 42.3799 111.644 52.5577C111.644 42.3799 118.485 33.273 128.133 33.273C118.485 33.273 111.644 24.1668 111.644 13.9883Z" fill="#FBE5F1"/>
<path opacity="0.5" d="M9.17046 7.61451C9.44564 12.8239 6.27568 17.5984 1.45465 17.7608C6.27568 17.5984 9.93796 22.1439 10.2131 27.352C9.93796 22.1439 13.1079 17.3681 17.9289 17.2057C13.1079 17.3681 9.44564 12.8239 9.17046 7.61451Z" fill="#FBE5F1"/>
<path opacity="0.5" d="M52.7554 52.5477C52.8112 57.7608 49.4422 62.4482 44.617 62.4812C49.4414 62.4482 52.9111 67.0895 52.967 72.302C52.9111 67.0895 56.2802 62.4015 61.1053 62.3685C56.2802 62.4015 52.8112 57.7608 52.7554 52.5477Z" fill="#FBE5F1"/>
<path opacity="0.5" d="M1239.96 48.7285C1239.96 58.907 1233.11 68.0132 1223.47 68.0132C1233.11 68.0132 1239.96 77.1201 1239.96 87.2979C1239.96 77.1201 1246.8 68.0132 1256.44 68.0132C1246.8 68.0132 1239.96 58.907 1239.96 48.7285Z" fill="#FBE5F1"/>
<path opacity="0.5" d="M1223.99 0.779651C1224.02 3.34511 1222.36 5.65182 1219.99 5.66804C1222.36 5.65182 1224.07 7.93585 1224.09 10.501C1224.07 7.93585 1225.72 5.62883 1228.1 5.6126C1225.72 5.62883 1224.02 3.34511 1223.99 0.779651Z" fill="#FBE5F1"/>
<path opacity="0.5" d="M1180.69 30.8927C1180.73 34.381 1178.48 37.5174 1175.25 37.5395C1178.48 37.5174 1180.8 40.623 1180.84 44.1108C1180.8 40.623 1183.05 37.4861 1186.28 37.4641C1183.05 37.4861 1180.73 34.381 1180.69 30.8927Z" fill="#FBE5F1"/>
<path d="M494.034 612.179H951.918L906.13 532.876H539.823L494.034 612.179Z" fill="#083CF5"/>
<path opacity="0.4" d="M494.034 612.179H951.918L906.13 532.876H539.823L494.034 612.179Z" fill="white"/>
<path d="M539.823 532.876H906.13L860.342 453.559H585.611L539.823 532.876Z" fill="#083CF5"/>
<path opacity="0.3" d="M539.823 532.876H906.13L860.342 453.559H585.611L539.823 532.876Z" fill="white"/>
<path d="M631.399 374.256L585.611 453.559H860.341L814.553 374.256H631.399Z" fill="#083CF5"/>
<path opacity="0.2" d="M631.399 374.256L585.611 453.559H860.341L814.553 374.256H631.399Z" fill="white"/>
<path d="M768.765 294.954H677.188L631.399 374.256H814.553L768.765 294.954Z" fill="#083CF5"/>
<path opacity="0.1" d="M768.765 294.954H677.188L631.399 374.256H814.553L768.765 294.954Z" fill="black"/>
<path d="M620.307 181.162C619.554 181.723 618.535 182.521 617.634 183.26C616.733 183.998 615.817 184.737 614.916 185.608C613.143 187.233 611.386 188.887 609.731 190.63C606.461 194.095 603.542 197.875 601.017 201.915C600.47 202.816 599.54 204.337 599.702 204.13C599.514 204.65 599.459 205.208 599.54 205.755C599.853 207.81 600.486 209.804 601.416 211.663C603.585 216.066 606.109 220.284 608.963 224.277L604.813 228.265C600.523 224.758 596.757 220.655 593.632 216.08C591.84 213.501 590.52 210.626 589.732 207.587C589.232 205.592 589.202 203.509 589.644 201.501C589.769 200.915 589.947 200.342 590.175 199.788C590.334 199.383 590.516 198.989 590.722 198.606L591.652 196.701C594.243 191.699 597.454 187.044 601.209 182.846C603.049 180.776 604.996 178.804 607.043 176.938C608.077 176.007 609.141 175.092 610.219 174.205C611.297 173.319 612.36 172.521 613.734 171.576L620.307 181.162Z" fill="#9A5448"/>
<path d="M621.297 164.043C614.03 164.368 603.085 178.991 603.085 178.991L614.768 192.846C614.768 192.846 629.539 184.884 631.164 174.353C631.946 169.095 628.446 163.718 621.297 164.043Z" fill="#083CF5"/>
<path d="M607.132 222.549L615.788 229.934L607.664 231.987C607.664 231.987 602.612 229.033 604.089 224.912L607.132 222.549Z" fill="#9A5448"/>
<path d="M615.846 234.262L611.622 238.353L607.664 232.061L615.787 230.008L615.846 234.262Z" fill="#9A5448"/>
<path d="M675.8 145.373C675.445 146.127 675.563 146.954 676.065 147.205C676.568 147.456 677.247 147.028 677.542 146.274C677.838 145.521 677.779 144.694 677.291 144.443C676.804 144.192 676.154 144.605 675.8 145.373Z" fill="black"/>
<path d="M677.1 144.369L679.182 144.753C679.182 144.753 677.572 145.713 677.1 144.369Z" fill="black"/>
<path d="M676.095 146.437C675.963 148.52 676.112 150.612 676.538 152.655C676.014 152.736 675.479 152.703 674.969 152.557C674.459 152.412 673.987 152.158 673.584 151.813L676.095 146.437Z" fill="#672626"/>
<path d="M679.197 140.794C679.118 140.775 679.047 140.734 678.99 140.676C678.545 140.225 678.001 139.883 677.402 139.675C676.802 139.468 676.163 139.401 675.534 139.48C675.47 139.495 675.403 139.497 675.339 139.486C675.274 139.474 675.212 139.45 675.157 139.414C675.101 139.378 675.054 139.331 675.017 139.277C674.981 139.222 674.955 139.16 674.943 139.096C674.917 138.967 674.942 138.832 675.014 138.722C675.086 138.611 675.199 138.533 675.327 138.505C676.116 138.397 676.919 138.474 677.673 138.731C678.427 138.987 679.11 139.415 679.67 139.982C679.716 140.027 679.752 140.081 679.777 140.141C679.802 140.2 679.815 140.264 679.815 140.329C679.815 140.394 679.802 140.458 679.777 140.517C679.752 140.577 679.716 140.631 679.67 140.676C679.607 140.734 679.531 140.776 679.449 140.796C679.366 140.817 679.279 140.816 679.197 140.794Z" fill="black"/>
<path d="M647.1 146.068C647.307 152.404 644.589 162.625 639.626 165.86C639.626 165.86 642.832 172.714 654.234 174.914C666.775 177.351 661.25 169.892 661.25 169.892C654.678 166.938 655.682 161.916 657.661 157.411L647.1 146.068Z" fill="#9A5448"/>
<path d="M679.551 181.384C680.128 184.604 680.733 188.03 681.442 191.339C682.151 194.648 682.801 198.03 683.584 201.339C684.367 204.647 685.179 207.941 686.05 211.205C686.479 212.845 686.966 214.455 687.439 216.065L688.694 219.979C689.212 220.798 689.902 221.494 690.718 222.017C691.905 222.829 693.16 223.535 694.47 224.129C697.421 225.494 700.467 226.644 703.583 227.571C706.759 228.59 710.052 229.462 713.376 230.244C716.699 231.027 720.067 231.721 723.375 232.445L722.844 238.191C715.665 238.085 708.509 237.358 701.456 236.02C697.791 235.336 694.189 234.348 690.688 233.066C688.777 232.361 686.937 231.475 685.194 230.422C682.994 229.172 681.126 227.415 679.743 225.296C679.534 224.967 679.342 224.627 679.167 224.277L678.916 223.716L678.724 223.243L678.237 221.973L677.277 219.447C676.671 217.749 676.051 216.065 675.49 214.351C674.352 210.954 673.318 207.527 672.432 204.012C670.555 197.111 669.075 190.109 668.001 183.038L679.551 181.384Z" fill="#9A5448"/>
<path d="M761.719 195.002L703.391 265.605L793.697 280.818L761.719 195.002Z" fill="#083CF5"/>
<path d="M721.499 232.992L729.785 230.17L730.746 237.91C730.746 237.91 723.183 241.957 720.406 236.433L721.499 232.992Z" fill="#9A5448"/>
<path d="M734.069 232.681L736.816 239.963L730.687 237.925L729.727 230.185L734.069 232.681Z" fill="#9A5448"/>
<path d="M617.56 469.747L628.032 470.515L631.149 446.469L620.677 445.701L617.56 469.747Z" fill="#9A5448"/>
<path d="M551.27 440.738L560.9 445.213L573.794 424.801L564.164 420.325L551.27 440.738Z" fill="#9A5448"/>
<path d="M563.455 442.909L553.987 435.627C553.836 435.49 553.638 435.415 553.434 435.415C553.229 435.415 553.032 435.49 552.88 435.627L546.218 442.082C546.057 442.255 545.934 442.46 545.857 442.683C545.78 442.907 545.751 443.144 545.772 443.38C545.793 443.615 545.863 443.844 545.978 444.05C546.093 444.257 546.251 444.437 546.44 444.578C549.793 447.06 551.536 448.094 555.701 451.284C558.256 453.249 561.816 456.395 565.346 459.112C568.876 461.83 571.683 458.566 570.457 457.133C564.903 450.678 565.316 447.975 564.548 444.445C564.362 443.828 563.978 443.288 563.455 442.909Z" fill="black"/>
<path d="M628.697 469.024H616.88C616.674 469.021 616.474 469.093 616.317 469.226C616.16 469.359 616.055 469.544 616.024 469.747L614.443 479.067C614.409 479.3 614.425 479.537 614.492 479.762C614.558 479.987 614.672 480.195 614.827 480.372C614.981 480.549 615.172 480.691 615.386 480.787C615.6 480.883 615.833 480.931 616.068 480.928C620.174 480.855 622.153 480.618 627.338 480.618C630.528 480.618 637.101 480.943 641.503 480.943C645.904 480.943 646.244 476.601 644.457 476.202C636.289 474.43 633.113 471.992 630.41 469.673C629.932 469.264 629.326 469.034 628.697 469.024Z" fill="black"/>
<path opacity="0.2" d="M631.149 446.484L629.421 459.836L619.066 458.108L620.662 445.701L631.149 446.484Z" fill="black"/>
<path opacity="0.2" d="M564.164 420.34L573.794 424.816L568.078 433.855L558.655 429.04L564.164 420.34Z" fill="black"/>
<path d="M618.342 227.837L660.364 235.946C680.216 177.499 675.46 175.608 675.46 175.608C672.376 173.94 669.195 172.46 665.933 171.177L665.371 170.956C662.683 169.981 662.122 169.833 658.518 168.784C652.329 167.307 646.569 166.126 639.449 165.107C638.991 165.107 638.533 164.959 638.09 164.914C636.791 164.752 635.506 164.619 634.28 164.501C633.438 164.398 632.611 164.353 631.813 164.294L629.095 164.146C624.502 163.925 621.223 163.984 621.223 163.984C623.615 200.497 621.858 210.984 618.342 227.837Z" fill="#083CF5"/>
<path opacity="0.2" d="M666.967 193.436C665.762 199.548 666.185 205.869 668.193 211.766C671.678 200.334 673.672 192.565 674.736 187.174C671.516 186.76 668.089 187.794 666.967 193.436Z" fill="black"/>
<path d="M675.106 175.461C682.107 180.025 686.582 190.231 687.764 196.036L671.516 209.329C671.516 209.329 662.654 189.552 665.608 184.5C668.577 179.183 672.462 173.718 675.106 175.461Z" fill="#083CF5"/>
<path d="M651.34 130.559C647.559 140.204 645.742 144.206 648.223 151.37C651.946 162.138 664.574 165.062 671.147 156.82C677.055 149.435 682.284 134.886 674.869 126.6C673.317 124.758 671.312 123.352 669.05 122.521C666.789 121.691 664.35 121.464 661.975 121.864C659.599 122.263 657.369 123.275 655.504 124.8C653.639 126.325 652.204 128.31 651.34 130.559Z" fill="#9A5448"/>
<path d="M669.197 141.119C668.727 142.991 668.851 144.963 669.551 146.762C670.511 149.302 672.506 149.243 673.466 147.441C674.426 145.639 674.943 142.537 673.362 140.529C671.782 138.52 669.803 139.052 669.197 141.119Z" fill="#9A5448"/>
<path d="M652.536 114.09C649.748 113.704 646.909 114.236 644.45 115.606C641.991 116.975 640.044 119.108 638.903 121.682C635.343 128.845 631.931 138.298 626.836 136.334C627.796 137.811 630.824 139.45 631.858 138.771C628.416 142.213 627.737 145.004 626.998 152.064C626.082 160.794 621.252 158.874 621.252 158.874C621.252 158.874 626.895 168.016 645.373 171.251C661.797 174.205 669.404 170.454 671.62 167.381C669.345 166.643 665.8 158.519 668.917 153.911C672.033 149.302 677.424 136.555 676.538 131.445C678.532 134.606 678.636 139.628 680.305 134.576C681.974 129.525 682.727 124.237 676.538 117.959C671.029 112.302 654.944 109.54 652.536 114.09Z" fill="black"/>
<path d="M649.272 233.833C649.272 233.833 628.8 302.413 618.8 341.85C608.254 383.488 572.318 432.393 572.318 432.393L559.024 425.007C559.024 425.007 580.826 378.288 591.047 339.427C611.725 260.538 601.814 243.818 618.357 227.792L649.272 233.833Z" fill="black"/>
<path d="M573.558 433.693L557.045 424.476L559.452 419.602L578.935 428.567L573.558 433.693Z" fill="#083CF5"/>
<path opacity="0.2" d="M639.656 248.427C626.23 258.766 625.329 298.248 625.639 316.076C632.463 291.158 640.543 263.434 645.269 247.378C643.984 246.285 642.123 246.521 639.656 248.427Z" fill="black"/>
<path d="M567.503 447.267C567.384 447.312 567.26 447.342 567.133 447.355C565.804 447.474 564.076 445.657 563.175 444.549C563.15 444.509 563.137 444.463 563.137 444.416C563.137 444.369 563.15 444.323 563.175 444.283C563.205 444.239 563.25 444.207 563.301 444.194C563.353 444.18 563.408 444.186 563.455 444.209C563.899 444.209 567.709 444.608 568.33 445.79C568.405 445.917 568.445 446.063 568.445 446.211C568.445 446.359 568.405 446.504 568.33 446.632C568.14 446.937 567.846 447.163 567.503 447.267ZM563.958 444.711C565.213 446.188 566.365 446.927 567.089 446.868C567.243 446.848 567.389 446.788 567.513 446.695C567.638 446.602 567.736 446.478 567.798 446.336C567.83 446.28 567.847 446.216 567.847 446.152C567.847 446.087 567.83 446.023 567.798 445.967C567.488 445.347 565.479 444.903 563.958 444.711Z" fill="#083CF5"/>
<path d="M659.729 235.946C659.729 235.946 662.344 318.882 656.48 350.107C650.394 382.602 631.828 456.454 631.828 456.454L616.732 454.548C616.732 454.548 626.274 379.884 630.336 347.61C634.767 312.412 628.962 229.979 628.962 229.979L659.729 235.946Z" fill="black"/>
<path d="M635.048 457.399L613.513 454.622L613.779 449.511L637.204 450.531L635.048 457.399Z" fill="#083CF5"/>
<path d="M566.587 444.106C565.553 444.527 564.437 444.709 563.323 444.637C563.281 444.631 563.241 444.614 563.208 444.588C563.174 444.562 563.148 444.528 563.131 444.49C563.112 444.45 563.103 444.407 563.103 444.364C563.103 444.321 563.112 444.278 563.131 444.239C563.219 444.15 565.021 441.816 566.528 441.713C566.725 441.691 566.924 441.715 567.111 441.781C567.298 441.848 567.467 441.956 567.606 442.097C567.763 442.219 567.872 442.392 567.915 442.586C567.958 442.78 567.932 442.983 567.842 443.16C567.543 443.609 567.1 443.942 566.587 444.106ZM563.854 444.179C565.139 444.179 567.119 443.589 567.429 442.939C567.429 442.835 567.517 442.673 567.281 442.451C567.194 442.362 567.087 442.292 566.97 442.249C566.852 442.206 566.726 442.189 566.602 442.2C565.701 442.259 564.504 443.441 563.854 444.209V444.179Z" fill="#083CF5"/>
<path d="M632.582 470.796C631.475 470.776 630.372 470.652 629.288 470.427C629.238 470.417 629.192 470.392 629.158 470.355C629.123 470.318 629.101 470.27 629.096 470.22C629.09 470.169 629.1 470.119 629.123 470.074C629.147 470.029 629.184 469.992 629.229 469.969C629.716 469.718 633.955 467.576 635.211 468.3C635.331 468.36 635.432 468.453 635.503 468.568C635.573 468.683 635.61 468.815 635.61 468.95C635.638 469.175 635.61 469.404 635.528 469.615C635.445 469.827 635.311 470.015 635.137 470.161C634.383 470.658 633.481 470.882 632.582 470.796ZM630.13 470.072C632.434 470.456 634.162 470.353 634.812 469.792C634.921 469.691 635.006 469.567 635.059 469.429C635.113 469.29 635.135 469.142 635.122 468.994C635.121 468.941 635.107 468.889 635.081 468.843C635.056 468.796 635.019 468.757 634.975 468.728C634.354 468.403 631.873 469.319 630.13 470.131V470.072Z" fill="#083CF5"/>
<path d="M629.347 470.486C629.299 470.5 629.247 470.5 629.199 470.486C629.162 470.463 629.132 470.43 629.114 470.39C629.096 470.351 629.089 470.307 629.096 470.264C629.096 470.072 629.598 465.833 631.946 465.833H632.153C632.833 465.907 633.025 466.247 633.069 466.527C633.261 467.709 630.72 469.969 629.45 470.545L629.347 470.486ZM631.961 466.247C630.484 466.247 629.849 468.728 629.657 469.791C630.972 469.023 632.685 467.236 632.611 466.527C632.611 466.527 632.611 466.291 632.124 466.247H631.961Z" fill="#083CF5"/>
<path d="M618.106 225.267L615.595 228.649C615.403 228.9 615.699 229.269 616.186 229.358L660.246 237.895C660.63 237.969 660.97 237.895 661.029 237.615L662.034 233.952C662.108 233.686 661.812 233.405 661.399 233.331L618.845 225.089C618.717 225.054 618.582 225.051 618.453 225.082C618.323 225.113 618.204 225.177 618.106 225.267Z" fill="#083CF5"/>
<path opacity="0.3" d="M618.106 225.267L615.595 228.649C615.403 228.9 615.699 229.269 616.186 229.358L660.246 237.895C660.63 237.969 660.97 237.895 661.029 237.615L662.034 233.952C662.108 233.686 661.812 233.405 661.399 233.331L618.845 225.089C618.717 225.054 618.582 225.051 618.453 225.082C618.323 225.113 618.204 225.177 618.106 225.267Z" fill="black"/>
<path d="M623.054 231.101L621.917 230.894C621.695 230.894 621.533 230.687 621.577 230.554L622.921 225.798C622.921 225.665 623.172 225.577 623.394 225.621L624.546 225.843C624.768 225.843 624.915 226.035 624.886 226.182L623.542 230.939C623.497 231.071 623.291 231.145 623.054 231.101Z" fill="black"/>
<path d="M651.827 236.743L650.69 236.522C650.468 236.522 650.32 236.33 650.35 236.197L651.694 231.441C651.694 231.308 651.945 231.219 652.167 231.263L653.319 231.485C653.54 231.485 653.688 231.677 653.659 231.825L652.314 236.581C652.285 236.714 652.078 236.788 651.827 236.743Z" fill="black"/>
<path d="M588.891 614.808H592.554L603.011 563.288L604.843 554.264L616.246 498.136H659.966L683.599 614.822H687.262L663.112 495.994C663.042 495.579 662.827 495.203 662.505 494.933C662.183 494.662 661.775 494.515 661.354 494.517H614.783C614.363 494.515 613.955 494.662 613.633 494.933C613.311 495.203 613.096 495.579 613.026 495.994L603.011 545.298L601.18 554.308L588.891 614.808Z" fill="black"/>
<path d="M518.701 614.808H522.364L545.997 498.121H589.703L601.106 554.249L602.937 563.244L613.395 614.763H617.058L604.769 554.205L602.937 545.224L592.997 495.98C592.926 495.565 592.711 495.189 592.389 494.918C592.067 494.647 591.659 494.5 591.239 494.502H544.609C544.188 494.5 543.78 494.647 543.458 494.918C543.136 495.189 542.921 495.565 542.851 495.98L518.701 614.808Z" fill="black"/>
<path d="M666.583 480.943H539.439C537.993 480.941 536.561 481.225 535.225 481.777C533.889 482.329 532.675 483.14 531.653 484.162C530.631 485.184 529.821 486.398 529.268 487.734C528.716 489.07 528.433 490.502 528.435 491.947V492.317C528.433 492.844 528.535 493.366 528.735 493.853C528.935 494.34 529.23 494.783 529.602 495.157C529.974 495.53 530.416 495.826 530.902 496.028C531.389 496.23 531.91 496.334 532.437 496.334H673.584C674.111 496.334 674.632 496.23 675.119 496.028C675.606 495.826 676.048 495.53 676.419 495.157C676.791 494.783 677.086 494.34 677.286 493.853C677.486 493.366 677.589 492.844 677.587 492.317V491.947C677.589 490.502 677.305 489.07 676.753 487.734C676.201 486.398 675.39 485.184 674.368 484.162C673.346 483.14 672.132 482.329 670.796 481.777C669.46 481.225 668.028 480.941 666.583 480.943Z" fill="#083CF5"/>
<path d="M906.13 314.746C909.247 320.492 912.127 326.237 914.889 332.116C917.651 337.995 920.236 343.932 922.644 350.062L923.53 352.366L923.973 353.533L924.224 354.213L924.593 355.38C925.275 357.92 925.366 360.583 924.859 363.164C924.127 366.963 922.796 370.623 920.916 374.005C919.297 377.055 917.45 379.978 915.391 382.749C913.394 385.485 911.218 388.085 908.878 390.533L902.26 385.792C904.914 380.328 907.237 374.71 909.217 368.968C910.063 366.547 910.585 364.024 910.768 361.465C910.768 360.49 910.606 359.707 910.488 359.737L910.296 359.323L909.779 358.275L908.759 356.177C905.983 350.564 903.102 344.937 900.207 339.309L891.596 322.397L906.13 314.746Z" fill="#FF8B7B"/>
<path d="M903.471 384.359L897.268 387.786L906.588 395.762C906.588 395.762 910.458 391.937 909.793 387.328L903.471 384.359Z" fill="#FF8B7B"/>
<path d="M891.286 393.827L899.306 400.045L906.558 395.747L897.238 387.786L891.286 393.827Z" fill="#FF8B7B"/>
<path d="M858.141 273.522C858.008 274.29 857.506 274.851 857.018 274.763C856.531 274.674 856.206 274.009 856.324 273.285C856.442 272.562 856.945 271.956 857.447 272.045C857.949 272.133 858.259 272.754 858.141 273.522Z" fill="black"/>
<path d="M857.58 274.851C856.299 277.027 854.723 279.015 852.897 280.759C853.362 281.218 853.922 281.568 854.537 281.785C855.152 282.002 855.808 282.08 856.457 282.015L857.58 274.851Z" fill="#FF5652"/>
<path d="M861.582 269.711C861.522 269.711 861.462 269.7 861.407 269.677C861.351 269.654 861.3 269.62 861.257 269.578C860.863 269.165 860.376 268.852 859.836 268.665C859.297 268.478 858.721 268.421 858.156 268.5C858.038 268.522 857.917 268.497 857.818 268.431C857.718 268.364 857.649 268.262 857.624 268.145C857.611 268.088 857.609 268.029 857.619 267.971C857.629 267.913 857.651 267.858 857.683 267.808C857.714 267.759 857.755 267.716 857.803 267.683C857.852 267.649 857.906 267.626 857.964 267.613C858.68 267.495 859.414 267.555 860.101 267.786C860.789 268.018 861.409 268.415 861.907 268.943C861.95 268.984 861.983 269.033 862.006 269.088C862.029 269.143 862.041 269.201 862.041 269.26C862.041 269.32 862.029 269.378 862.006 269.433C861.983 269.487 861.95 269.537 861.907 269.578C861.865 269.62 861.814 269.654 861.758 269.677C861.702 269.7 861.643 269.711 861.582 269.711Z" fill="black"/>
<path d="M883.664 281.956C882.291 288.986 880.917 301.851 885.835 306.534C885.835 306.534 883.915 313.668 870.858 313.668C856.501 313.668 864.005 306.534 864.005 306.534C871.833 304.673 871.626 298.853 870.267 293.403L883.664 281.956Z" fill="#FF8B7B"/>
<path d="M893.59 313.668C893.39 313.272 893.25 312.849 893.176 312.412C891.906 305.574 886.559 300.197 879.631 299.931C872.246 299.665 864.078 300.906 859.189 306.652C857.047 309.163 859.425 312.841 859.425 312.841L893.59 313.668Z" fill="#083CF5"/>
<path d="M916.337 600.318H916.248C916.078 600.222 915.944 600.074 915.864 599.896C915.784 599.718 915.764 599.519 915.805 599.328C915.813 599.174 915.856 599.024 915.93 598.888C916.004 598.753 916.108 598.636 916.233 598.546C917.37 597.674 920.531 598.206 920.664 598.235C920.707 598.245 920.747 598.264 920.781 598.292C920.814 598.321 920.84 598.357 920.856 598.398C920.865 598.442 920.862 598.487 920.846 598.529C920.83 598.571 920.803 598.607 920.768 598.634C920 599.195 917.459 600.776 916.337 600.318ZM920.044 598.56C918.862 598.312 917.634 598.42 916.514 598.87C916.437 598.921 916.373 598.989 916.327 599.068C916.281 599.148 916.254 599.237 916.248 599.328C916.248 599.742 916.396 599.845 916.455 599.875C917.06 600.2 918.848 599.373 920.044 598.56Z" fill="#083CF5"/>
<path d="M919.025 598.22C917.932 597.792 916.765 597.083 916.602 596.404C916.563 596.237 916.583 596.062 916.658 595.909C916.734 595.755 916.86 595.632 917.016 595.562C917.161 595.469 917.324 595.408 917.495 595.382C917.665 595.357 917.839 595.368 918.005 595.414C919.394 595.769 920.768 598.206 920.827 598.368C920.848 598.401 920.859 598.44 920.859 598.479C920.859 598.518 920.848 598.557 920.827 598.59C920.805 598.625 920.774 598.654 920.738 598.675C920.702 598.695 920.661 598.707 920.62 598.708C920.068 598.618 919.532 598.454 919.025 598.22ZM918.05 595.901H917.902C917.793 595.87 917.68 595.862 917.568 595.877C917.456 595.893 917.348 595.931 917.252 595.99C917.001 596.138 917.031 596.271 917.045 596.33C917.193 596.965 918.966 597.895 920.177 598.161C919.674 597.237 918.942 596.459 918.05 595.901Z" fill="#083CF5"/>
<path d="M843.681 606.581C842.455 606.581 841.258 606.418 840.86 605.857C840.759 605.711 840.706 605.539 840.706 605.362C840.706 605.185 840.759 605.013 840.86 604.867C840.938 604.734 841.042 604.618 841.167 604.527C841.291 604.436 841.433 604.37 841.583 604.336C843.179 603.907 846.546 605.813 846.679 605.901C846.721 605.92 846.754 605.952 846.776 605.992C846.797 606.032 846.805 606.078 846.797 606.123C846.791 606.172 846.769 606.217 846.734 606.252C846.7 606.286 846.654 606.309 846.605 606.315C845.64 606.487 844.662 606.576 843.681 606.581ZM842.204 604.72C842.057 604.697 841.908 604.697 841.761 604.72C841.578 604.762 841.42 604.873 841.318 605.03C841.155 605.31 841.214 605.458 841.318 605.532C841.761 606.152 844.198 606.167 845.985 605.916C844.8 605.272 843.501 604.865 842.159 604.72H842.204Z" fill="#083CF5"/>
<path d="M846.576 606.315H846.487C845.335 605.798 843.031 603.715 843.208 602.637C843.208 602.371 843.429 602.061 844.05 602.002C844.277 601.975 844.507 601.995 844.725 602.061C844.944 602.127 845.146 602.238 845.32 602.386C846.189 603.436 846.706 604.733 846.797 606.093C846.798 606.132 846.789 606.169 846.771 606.203C846.753 606.237 846.726 606.265 846.694 606.285C846.659 606.309 846.617 606.319 846.576 606.315ZM844.242 602.43H844.094C843.681 602.43 843.651 602.637 843.651 602.696C843.533 603.346 845.128 604.971 846.28 605.65C846.18 604.556 845.735 603.522 845.01 602.696C844.795 602.517 844.522 602.423 844.242 602.43Z" fill="#083CF5"/>
<path d="M857.137 606.093H847.536L846.591 583.849H856.192L857.137 606.093Z" fill="#FF8B7B"/>
<path d="M931.107 596.079L922.112 598.132L911.61 576.818L920.605 574.75L931.107 596.079Z" fill="#FF8B7B"/>
<path d="M920.812 597.113L930.619 592.682C930.792 592.602 930.988 592.583 931.173 592.629C931.358 592.675 931.522 592.782 931.638 592.933L936.926 599.904C937.042 600.079 937.12 600.277 937.154 600.484C937.187 600.691 937.177 600.903 937.122 601.106C937.068 601.308 936.971 601.497 936.838 601.659C936.704 601.821 936.538 601.953 936.35 602.046C932.909 603.523 931.151 604.114 926.838 606.093C924.194 607.304 914.815 613.922 910.871 614.763C906.927 615.605 905.583 611.809 907.119 611.13C912.597 608.386 917.004 603.896 919.645 598.368C919.86 597.817 920.277 597.368 920.812 597.113Z" fill="black"/>
<path d="M847.609 604.985H858.096C858.285 604.987 858.468 605.052 858.615 605.17C858.762 605.288 858.866 605.452 858.909 605.635L860.799 614.173C860.849 614.379 860.851 614.593 860.805 614.8C860.758 615.007 860.666 615.201 860.533 615.366C860.4 615.532 860.232 615.664 860.04 615.755C859.848 615.845 859.638 615.89 859.426 615.886C855.645 615.812 850.18 615.591 845.423 615.591C839.855 615.591 835.084 615.901 828.541 615.901C824.597 615.901 823.504 611.913 825.158 611.558C832.662 609.904 838.791 609.727 845.29 605.724C845.979 605.266 846.783 605.01 847.609 604.985Z" fill="black"/>
<path d="M888.863 325.011C889.868 327.596 890.961 330.107 892.083 332.397C893.989 336.473 895.894 340.033 897.283 342.5C898.523 344.715 899.336 346.03 899.336 346.03L920.31 335.691C920.31 335.691 911.861 311.393 903.028 308.69C894.196 305.987 884.329 313.431 888.863 325.011Z" fill="black"/>
<path opacity="0.2" d="M898.154 327.419C896.337 328.763 895.022 332.382 894.092 336.621C895.288 338.955 896.396 341.052 897.282 342.529C898.523 344.745 899.321 346.06 899.321 346.06L901.728 344.863C901.676 338.872 900.462 332.948 898.154 327.419Z" fill="black"/>
<path d="M844.508 340.506C844.508 343.77 844.582 347.374 844.774 351.333C845.246 362.1 846.413 375.527 848.673 392.203H900.03C900.384 384.33 895.422 345.853 902.984 308.705C897.305 307.616 891.563 306.891 885.791 306.534C878.52 306.12 871.232 306.12 863.961 306.534C858.976 307.046 854.038 307.94 849.19 309.207C849.19 309.207 844.493 314.554 844.508 340.506Z" fill="black"/>
<path opacity="0.2" d="M846.015 333.578C845.542 334.612 845.04 335.661 844.538 336.784C844.538 337.98 844.538 339.221 844.538 340.506C844.538 341.023 844.538 341.555 844.538 342.086C850.918 338.202 855.099 330.048 855.099 330.048L846.015 333.578Z" fill="black"/>
<path d="M859.958 326.592L858.481 327.508L857.181 328.261C856.31 328.778 855.497 329.147 854.67 329.605C853.016 330.417 851.391 331.185 849.752 331.924C846.487 333.401 843.149 334.642 839.796 335.823C832.875 338.279 825.685 339.895 818.379 340.639C817.389 340.639 816.474 340.831 815.425 340.816H812.781H812.235C809.825 340.635 807.461 340.067 805.233 339.132C801.707 337.652 798.354 335.79 795.234 333.578C789.441 329.544 784.093 324.904 779.282 319.738L784.422 313.417C790.123 316.578 795.943 319.886 801.629 322.515C804.268 323.791 807.01 324.839 809.827 325.647C810.748 325.915 811.704 326.04 812.663 326.016L814.524 325.839C815.174 325.839 815.912 325.632 816.607 325.543C822.633 324.41 828.534 322.694 834.228 320.418C837.182 319.31 840.136 318.069 843.001 316.814C844.479 316.164 845.852 315.514 847.211 314.835L849.161 313.815L850.062 313.343L850.771 312.929L859.958 326.592Z" fill="#FF8B7B"/>
<path d="M786.209 315.411L780.212 307.671L774.126 317.907C774.126 317.907 779.724 322.072 784.2 321.319L786.209 315.411Z" fill="#FF8B7B"/>
<path d="M771.246 304.525L768.056 312.974L774.126 317.907L780.212 307.671L771.246 304.525Z" fill="#FF8B7B"/>
<path d="M868.628 324.45C863.65 332.161 836.576 340.594 836.576 340.594L826.148 319.148C833.39 314.912 841.103 311.541 849.131 309.104C866.412 304.377 874.61 315.189 868.628 324.45Z" fill="black"/>
<path opacity="0.2" d="M846.591 583.864L847.078 595.325H856.679L856.192 583.864H846.591Z" fill="black"/>
<path opacity="0.2" d="M920.605 574.765L911.61 576.833L917.031 587.822L926.026 585.754L920.605 574.765Z" fill="black"/>
<path d="M883.975 275.9C881.922 285.205 881.198 290.759 875.689 294.835C867.417 300.98 856.487 294.835 855.719 285.131C855.025 276.358 858.496 262.621 868.274 260.317C870.429 259.798 872.681 259.839 874.816 260.436C876.951 261.034 878.898 262.167 880.471 263.728C882.045 265.29 883.192 267.228 883.806 269.358C884.419 271.489 884.477 273.741 883.975 275.9Z" fill="#FF8B7B"/>
<path d="M892.526 253.094C900.694 253.316 903.663 266.89 901.226 270.937C901.226 270.937 898.612 272.414 895.436 277.392C890.621 284.984 884.477 293.196 877.269 292.709C868.318 292.088 866.929 281.749 867.239 272.133C862.513 267.702 859.928 267.348 857.609 260.923C850.445 241.116 864.211 231.19 892.526 253.094Z" fill="black"/>
<path d="M871.095 274.999C870.842 277.402 869.803 279.655 868.141 281.409C865.91 283.699 863.709 282.163 863.444 279.268C863.192 276.668 864.049 272.355 866.708 271.144C869.367 269.933 871.361 272.089 871.095 274.999Z" fill="#FF8B7B"/>
<path d="M866.885 392.202C866.885 392.202 865.777 460.545 874.359 487.339C887.962 529.774 911.285 586.862 911.285 586.862L928.832 582.431C928.832 582.431 909.498 524.56 903.22 488.816C897.578 456.705 899.971 418.479 899.971 392.247L866.885 392.202Z" fill="#083CF5"/>
<path opacity="0.2" d="M876.471 403.945C878.288 416.263 871.863 450.546 869.647 461.771C867.313 440.782 866.885 415.879 866.855 402.291C871.552 399.1 875.629 398.273 876.471 403.945Z" fill="black"/>
<path d="M906.647 581.692C906.573 581.692 910.945 587.246 910.945 587.246L930.147 582.357L928.02 575.843L906.647 581.692Z" fill="#083CF5"/>
<path opacity="0.2" d="M906.647 581.692C906.573 581.692 910.945 587.246 910.945 587.246L930.147 582.357L928.02 575.843L906.647 581.692Z" fill="white"/>
<path d="M848.658 392.202C848.658 392.202 834.198 453.515 833.179 482.804C832.042 515.639 843.518 593.11 843.518 593.11H859.766C859.766 593.11 861.819 515.107 862.498 485.123C863.296 452.51 882.497 392.202 882.497 392.202H848.658Z" fill="#083CF5"/>
<path d="M840.372 586.626C840.298 586.626 841.288 593.376 841.288 593.376H861.08L861.612 587.349L840.372 586.626Z" fill="#083CF5"/>
<path opacity="0.2" d="M840.372 586.626C840.298 586.626 841.288 593.376 841.288 593.376H861.08L861.612 587.349L840.372 586.626Z" fill="white"/>
<path d="M1013.73 317.133C1012.62 325.758 1011.41 334.429 1010.12 343.055L1006.27 369.287C1005.67 372.475 1004.4 375.497 1002.53 378.149C1000.83 380.529 998.77 382.635 996.432 384.397C992.313 387.4 987.734 389.715 982.873 391.251C978.409 392.714 973.829 393.791 969.181 394.471C966.891 394.825 964.617 395.061 962.327 395.253C960.038 395.445 957.822 395.564 955.385 395.564L954.632 387.233C958.605 386.317 962.815 385.254 966.758 383.939C970.666 382.726 974.486 381.246 978.191 379.508C981.56 378.004 984.69 376.013 987.481 373.6C988.571 372.611 989.503 371.46 990.243 370.188C990.783 369.182 991.11 368.076 991.203 366.939L991.632 360.72C991.78 358.505 991.986 356.289 992.178 354.103C992.562 349.701 993.001 345.315 993.493 340.943C994.453 332.169 995.59 323.469 996.964 314.74L1013.73 317.133Z" fill="#E4897B"/>
<path d="M1004.17 303.913C1004.17 303.913 991.026 337.56 1003.51 400.231H1063.12C1063.52 391.073 1057.77 346.452 1066.61 303.337C1060.02 302.066 1053.35 301.228 1046.65 300.826C1038.22 300.331 1029.76 300.331 1021.32 300.826C1015.53 301.405 1009.8 302.437 1004.17 303.913Z" fill="#083CF5"/>
<path opacity="0.2" d="M1004.17 303.913C1004.17 303.913 991.026 337.56 1003.51 400.231H1063.12C1063.52 391.073 1057.77 346.452 1066.61 303.337C1060.02 302.066 1053.35 301.228 1046.65 300.826C1038.22 300.331 1029.76 300.331 1021.32 300.826C1015.53 301.405 1009.8 302.437 1004.17 303.913Z" fill="black"/>
<path d="M1017.41 311.535C1021.16 321.505 1012.16 354.93 1012.16 354.93L987.407 342.552C987.407 342.552 988.574 325.891 994.246 313.012C999.918 300.132 1013.36 300.604 1017.41 311.535Z" fill="#083CF5"/>
<path opacity="0.2" d="M1017.41 311.535C1021.16 321.505 1012.16 354.93 1012.16 354.93L987.407 342.552C987.407 342.552 988.574 325.891 994.246 313.012C999.918 300.132 1013.36 300.604 1017.41 311.535Z" fill="black"/>
<path d="M1074.72 604.654H1063.56L1054.88 578.85H1066.03L1074.72 604.654Z" fill="#E4897B"/>
<path d="M982.193 578.85L983.715 592.158H994.866L993.33 578.85H982.193Z" fill="#CE6F64"/>
<path d="M1066.03 578.85H1054.88L1059.37 592.158H1070.51L1066.03 578.85Z" fill="#CE6F64"/>
<path d="M1024.66 400.231C1024.66 400.231 1002.5 462.267 1009.46 494.186C1017.05 529.118 1054.13 589.574 1054.13 589.574H1074.54C1074.54 589.574 1047.23 531.969 1042.88 497.362C1038.17 459.815 1063.12 428.147 1063.12 400.231H1024.66Z" fill="#083CF5"/>
<path opacity="0.7" d="M1024.66 400.231C1024.66 400.231 1002.5 462.267 1009.46 494.186C1017.05 529.118 1054.13 589.574 1054.13 589.574H1074.54C1074.54 589.574 1047.23 531.969 1042.88 497.362C1038.17 459.815 1063.12 428.147 1063.12 400.231H1024.66Z" fill="black"/>
<path d="M996.284 604.654H985.148L982.179 578.85H993.33L996.284 604.654Z" fill="#E4897B"/>
<path d="M1003.51 400.231C1003.51 400.231 960.067 460.45 961.278 494.422C962.534 529.768 979.535 589.574 979.535 589.574H998.411C998.411 589.574 990.686 531.836 991.513 497.125C992.429 459.283 1042.69 429.418 1042.69 400.231H1003.51Z" fill="#083CF5"/>
<path opacity="0.7" d="M1003.51 400.231C1003.51 400.231 960.067 460.45 961.278 494.422C962.534 529.768 979.535 589.574 979.535 589.574H998.411C998.411 589.574 990.686 531.836 991.513 497.125C992.429 459.283 1042.69 429.418 1042.69 400.231H1003.51Z" fill="black"/>
<path d="M1062.1 603.355H1075.69C1075.91 603.353 1076.13 603.429 1076.3 603.569C1076.47 603.709 1076.59 603.905 1076.64 604.123L1078.84 614.019C1078.89 614.26 1078.89 614.511 1078.83 614.752C1078.77 614.993 1078.66 615.217 1078.51 615.409C1078.35 615.601 1078.15 615.755 1077.93 615.859C1077.7 615.964 1077.46 616.016 1077.21 616.013C1072.78 615.939 1069.65 615.673 1064.14 615.673C1060.76 615.673 1053.8 616.028 1049.1 616.028C1044.41 616.028 1043.82 611.404 1045.74 610.991C1054.32 609.1 1057.55 606.56 1060.3 604.049C1060.79 603.602 1061.44 603.355 1062.1 603.355Z" fill="black"/>
<path d="M985.295 603.354H997.466C997.689 603.355 997.905 603.432 998.08 603.571C998.254 603.711 998.376 603.905 998.426 604.123L1000.63 614.019C1000.68 614.259 1000.68 614.508 1000.62 614.748C1000.57 614.988 1000.46 615.212 1000.3 615.403C1000.15 615.595 999.951 615.749 999.729 615.855C999.506 615.96 999.263 616.014 999.017 616.013C994.586 615.939 988.279 615.673 982.769 615.673C976.315 615.673 970.746 616.028 963.184 616.028C958.605 616.028 957.276 611.404 959.255 610.991C967.969 609.071 975.089 608.879 982.622 604.226C983.415 603.693 984.34 603.391 985.295 603.354Z" fill="black"/>
<path d="M960.555 386.214L948.398 387.027L954.085 400.069C956.368 400.005 958.57 399.212 960.369 397.806C962.169 396.4 963.471 394.455 964.085 392.255L960.555 386.214Z" fill="#E4897B"/>
<path d="M941.826 391.147L948.576 400.275L954.085 400.069L948.399 387.026L941.826 391.147Z" fill="#E4897B"/>
<path opacity="0.2" d="M1054.45 323.942C1056.4 314.105 1060.2 315.803 1063.79 320.648C1062.25 333.691 1061.53 346.819 1061.66 359.952C1059.15 355.787 1051.2 340.426 1054.45 323.942Z" fill="black"/>
<path d="M1044.14 272.29C1042.55 280.443 1040.95 295.376 1046.65 300.826C1046.65 300.826 1044.42 309.083 1029.27 309.083C1012.62 309.083 1021.32 300.826 1021.32 300.826C1030.4 298.655 1030.18 291.964 1028.59 285.568L1044.14 272.29Z" fill="#E4897B"/>
<path d="M1037.8 277.71L1028.59 285.568C1028.98 287.019 1029.24 288.502 1029.37 289.999C1032.84 289.497 1037.61 285.686 1037.98 282.053C1038.19 280.606 1038.13 279.135 1037.8 277.71Z" fill="#CE6F64"/>
<path d="M1024.36 240.991C1018.56 242.365 1012.44 259.232 1018.76 263.885C1025.09 268.538 1035.34 238.436 1024.36 240.991Z" fill="black"/>
<path d="M1046.5 262.659C1043.27 273.235 1041.91 279.586 1035.16 283.796C1025.03 290.132 1013 282.038 1013 270.709C1013 260.503 1018.31 244.935 1029.84 243.177C1032.38 242.787 1034.97 243.051 1037.38 243.944C1039.79 244.837 1041.93 246.33 1043.6 248.281C1045.26 250.232 1046.41 252.577 1046.92 255.093C1047.42 257.609 1047.28 260.213 1046.5 262.659Z" fill="#E4897B"/>
<path d="M1043.22 272.999C1037.01 273.973 1032.1 250.843 1048.44 249.056C1068.25 246.811 1053.24 271.433 1043.22 272.999Z" fill="black"/>
<path d="M1051.11 254.55C1043.3 254.698 1020.45 250.016 1017.49 237.343C1016.28 232.143 1025.28 225.349 1034.35 226.368C1022.37 231.626 1031.78 240.031 1044.48 238.923C1059 237.638 1061.66 254.358 1051.11 254.55Z" fill="black"/>
<path d="M1054.58 250.134C1054.58 250.134 1062.47 249.558 1060.49 256.588C1060.15 255.093 1059.42 253.712 1058.39 252.581C1057.35 251.45 1056.04 250.606 1054.58 250.134Z" fill="black"/>
<path d="M1052.47 249.883C1052.47 249.883 1059.25 253.974 1060.62 246.781C1059.64 247.951 1058.38 248.849 1056.95 249.392C1055.52 249.935 1053.98 250.104 1052.47 249.883Z" fill="black"/>
<path d="M1048.51 275.657C1046.51 277.586 1043.83 278.648 1041.05 278.611C1037.38 278.537 1036.62 274.993 1038.5 272.068C1040.21 269.439 1044.2 266.293 1047.46 267.785C1050.73 269.276 1050.92 273.25 1048.51 275.657Z" fill="#E4897B"/>
<path d="M1050.51 590.016H1077.2V582.838L1047.36 582.38L1050.51 590.016Z" fill="#083CF5"/>
<path d="M975.325 590.016H1002V582.749L972.179 582.38L975.325 590.016Z" fill="#083CF5"/>
<path d="M1029.5 261.758C1029.3 262.629 1028.66 263.235 1028.03 263.087C1027.39 262.94 1027.17 262.127 1027.38 261.256C1027.58 260.384 1028.22 259.779 1028.85 259.927C1029.49 260.074 1029.71 260.887 1029.5 261.758Z" fill="black"/>
<path d="M1019.62 259.38C1019.41 260.267 1018.78 260.857 1018.14 260.724C1017.51 260.592 1017.29 259.764 1017.49 258.893C1017.7 258.021 1018.34 257.416 1018.97 257.549C1019.61 257.682 1019.83 258.509 1019.62 259.38Z" fill="black"/>
<path d="M1022.66 260.591C1020.98 263.012 1018.96 265.189 1016.68 267.061C1017.18 267.631 1017.79 268.086 1018.48 268.395C1019.17 268.704 1019.92 268.858 1020.67 268.848L1022.66 260.591Z" fill="#DE5753"/>
<path d="M1024.63 272.097C1023.96 272.095 1023.3 272.015 1022.65 271.861C1022.58 271.844 1022.52 271.8 1022.48 271.74C1022.44 271.679 1022.43 271.606 1022.44 271.536C1022.45 271.502 1022.47 271.47 1022.49 271.442C1022.51 271.414 1022.54 271.39 1022.57 271.372C1022.6 271.355 1022.63 271.343 1022.66 271.338C1022.7 271.333 1022.73 271.335 1022.77 271.344C1023.85 271.63 1024.98 271.656 1026.08 271.42C1027.17 271.184 1028.19 270.692 1029.06 269.985C1029.11 269.936 1029.18 269.91 1029.25 269.911C1029.32 269.912 1029.39 269.942 1029.44 269.993C1029.49 270.044 1029.51 270.112 1029.51 270.182C1029.51 270.253 1029.48 270.32 1029.43 270.369C1028.09 271.505 1026.39 272.119 1024.63 272.097Z" fill="black"/>
<path d="M1033.36 259.306C1033.26 259.301 1033.16 259.268 1033.08 259.211C1032.99 259.153 1032.93 259.074 1032.89 258.981C1032.63 258.359 1032.23 257.807 1031.71 257.372C1031.2 256.938 1030.59 256.634 1029.93 256.485C1029.86 256.474 1029.8 256.45 1029.74 256.414C1029.68 256.377 1029.63 256.329 1029.59 256.273C1029.55 256.216 1029.52 256.152 1029.51 256.085C1029.49 256.017 1029.49 255.947 1029.5 255.879C1029.52 255.74 1029.6 255.616 1029.71 255.533C1029.83 255.45 1029.97 255.415 1030.11 255.436C1030.92 255.624 1031.68 256.005 1032.32 256.547C1032.96 257.089 1033.46 257.777 1033.77 258.553C1033.8 258.617 1033.82 258.686 1033.82 258.756C1033.82 258.827 1033.81 258.897 1033.79 258.963C1033.76 259.029 1033.72 259.089 1033.68 259.141C1033.63 259.192 1033.57 259.233 1033.51 259.262C1033.46 259.283 1033.41 259.298 1033.36 259.306Z" fill="black"/>
<path d="M1016.31 254.964C1016.19 254.968 1016.07 254.926 1015.97 254.846C1015.87 254.757 1015.8 254.629 1015.79 254.492C1015.77 254.354 1015.81 254.216 1015.9 254.107C1016.42 253.438 1017.09 252.906 1017.87 252.556C1018.64 252.206 1019.48 252.049 1020.33 252.098C1020.47 252.117 1020.59 252.189 1020.68 252.3C1020.77 252.41 1020.8 252.55 1020.79 252.689C1020.78 252.757 1020.76 252.823 1020.73 252.883C1020.69 252.943 1020.65 252.996 1020.6 253.039C1020.54 253.081 1020.48 253.113 1020.41 253.131C1020.35 253.15 1020.28 253.155 1020.21 253.147C1019.55 253.125 1018.89 253.261 1018.29 253.543C1017.69 253.826 1017.16 254.247 1016.76 254.772C1016.7 254.839 1016.64 254.891 1016.56 254.925C1016.48 254.958 1016.4 254.972 1016.31 254.964Z" fill="black"/>
<path d="M1058.39 605.304C1057.62 605.373 1056.84 605.175 1056.19 604.743C1055.99 604.572 1055.84 604.355 1055.74 604.11C1055.65 603.865 1055.62 603.6 1055.65 603.34C1055.65 603.188 1055.69 603.038 1055.76 602.908C1055.84 602.778 1055.96 602.672 1056.09 602.601C1057.32 601.966 1060.92 604.167 1061.33 604.433C1061.38 604.461 1061.41 604.501 1061.43 604.548C1061.45 604.595 1061.46 604.648 1061.45 604.699C1061.44 604.749 1061.42 604.796 1061.38 604.833C1061.34 604.87 1061.3 604.895 1061.24 604.905C1060.31 605.146 1059.36 605.28 1058.39 605.304ZM1056.74 603C1056.62 602.991 1056.5 603.017 1056.4 603.074C1056.34 603.1 1056.3 603.142 1056.27 603.195C1056.24 603.247 1056.22 603.308 1056.22 603.369C1056.2 603.547 1056.22 603.729 1056.28 603.897C1056.35 604.065 1056.45 604.214 1056.59 604.329C1057.83 604.905 1059.24 604.979 1060.54 604.536C1059.38 603.784 1058.09 603.262 1056.74 603Z" fill="#083CF5"/>
<path d="M1061.24 604.92C1061.21 604.935 1061.16 604.935 1061.13 604.92C1059.96 604.3 1057.74 601.863 1057.98 600.622C1058.01 600.426 1058.11 600.249 1058.27 600.121C1058.42 599.994 1058.61 599.925 1058.81 599.928C1059.01 599.903 1059.22 599.92 1059.41 599.978C1059.61 600.037 1059.79 600.135 1059.94 600.267C1061.23 601.316 1061.42 604.536 1061.51 604.699C1061.51 604.747 1061.5 604.794 1061.48 604.838C1061.46 604.882 1061.43 604.92 1061.39 604.95C1061.34 604.955 1061.29 604.945 1061.24 604.92ZM1059 600.4H1058.88C1058.53 600.4 1058.51 600.607 1058.5 600.666C1058.35 601.405 1059.77 603.251 1060.92 604.122C1060.84 602.851 1060.38 601.632 1059.61 600.622C1059.43 600.48 1059.22 600.402 1059 600.4Z" fill="#083CF5"/>
<path d="M980.598 605.304C979.641 605.391 978.683 605.152 977.88 604.625C977.701 604.466 977.563 604.266 977.478 604.042C977.393 603.819 977.364 603.577 977.393 603.34C977.401 603.196 977.444 603.056 977.519 602.932C977.594 602.809 977.697 602.705 977.821 602.631C979.18 601.877 983.655 604.108 984.172 604.418C984.218 604.444 984.256 604.483 984.279 604.531C984.303 604.578 984.312 604.631 984.305 604.684C984.3 604.738 984.276 604.789 984.239 604.829C984.202 604.869 984.152 604.896 984.098 604.905C982.947 605.149 981.775 605.282 980.598 605.304ZM978.574 603C978.405 602.989 978.237 603.025 978.087 603.103C978.035 603.13 977.991 603.17 977.96 603.219C977.929 603.269 977.911 603.326 977.91 603.384C977.894 603.54 977.916 603.697 977.972 603.844C978.029 603.99 978.119 604.121 978.235 604.226C978.929 604.832 980.76 604.935 983.212 604.536C981.765 603.763 980.197 603.243 978.574 603Z" fill="#083CF5"/>
<path d="M984.039 604.92H983.936C982.592 604.314 979.933 601.966 980.125 600.651C980.125 600.356 980.391 599.987 981.115 599.913C981.378 599.879 981.646 599.901 981.9 599.977C982.155 600.053 982.391 600.182 982.592 600.356C984.069 601.523 984.305 604.521 984.32 604.654C984.327 604.699 984.322 604.746 984.303 604.788C984.285 604.83 984.255 604.865 984.216 604.89C984.162 604.918 984.1 604.928 984.039 604.92ZM981.322 600.4H981.174C980.686 600.4 980.657 600.637 980.657 600.696C980.524 601.464 982.341 603.354 983.714 604.181C983.586 602.91 983.071 601.709 982.237 600.74C981.985 600.517 981.658 600.396 981.322 600.4Z" fill="#083CF5"/>
<path d="M983.36 315.907C985.911 314.119 988.791 312.853 991.833 312.182C994.876 311.511 998.021 311.449 1001.09 311.998C1004.15 312.547 1007.08 313.697 1009.7 315.382C1012.32 317.066 1014.58 319.253 1016.36 321.815C1021.52 318.221 1027.89 316.823 1034.08 317.93C1040.27 319.036 1045.77 322.556 1049.36 327.716C1052.96 332.875 1054.35 339.25 1053.25 345.44C1052.14 351.629 1048.62 357.126 1043.46 360.72L1004.5 387.824L977.407 348.904C975.622 346.35 974.359 343.468 973.691 340.424C973.024 337.38 972.965 334.234 973.518 331.167C974.072 328.1 975.226 325.173 976.915 322.554C978.604 319.935 980.794 317.676 983.36 315.907Z" fill="#083CF5"/>
<path opacity="0.3" d="M983.36 315.907C985.911 314.119 988.791 312.853 991.833 312.182C994.876 311.511 998.021 311.449 1001.09 311.998C1004.15 312.547 1007.08 313.697 1009.7 315.382C1012.32 317.066 1014.58 319.253 1016.36 321.815C1021.52 318.221 1027.89 316.823 1034.08 317.93C1040.27 319.036 1045.77 322.556 1049.36 327.716C1052.96 332.875 1054.35 339.25 1053.25 345.44C1052.14 351.629 1048.62 357.126 1043.46 360.72L1004.5 387.824L977.407 348.904C975.622 346.35 974.359 343.468 973.691 340.424C973.024 337.38 972.965 334.234 973.518 331.167C974.072 328.1 975.226 325.173 976.915 322.554C978.604 319.935 980.794 317.676 983.36 315.907Z" fill="white"/>
<path d="M931.708 355.979C932.811 350.965 935.858 346.594 940.181 343.824C944.504 341.055 949.749 340.114 954.765 341.208C955.957 336.293 959.026 332.039 963.314 329.357C967.603 326.675 972.77 325.777 977.712 326.856C982.654 327.935 986.977 330.904 989.758 335.129C992.539 339.354 993.556 344.5 992.592 349.465L984.335 387.292L946.508 379.035C944.022 378.494 941.666 377.469 939.577 376.017C937.487 374.565 935.704 372.716 934.33 370.574C932.955 368.433 932.016 366.042 931.566 363.537C931.116 361.033 931.165 358.465 931.708 355.979Z" fill="#083CF5"/>
<path opacity="0.5" d="M931.708 355.979C932.811 350.965 935.858 346.594 940.181 343.824C944.504 341.055 949.749 340.114 954.765 341.208C955.957 336.293 959.026 332.039 963.314 329.357C967.603 326.675 972.77 325.777 977.712 326.856C982.654 327.935 986.977 330.904 989.758 335.129C992.539 339.354 993.556 344.5 992.592 349.465L984.335 387.292L946.508 379.035C944.022 378.494 941.666 377.469 939.577 376.017C937.487 374.565 935.704 372.716 934.33 370.574C932.955 368.433 932.016 366.042 931.566 363.537C931.116 361.033 931.165 358.465 931.708 355.979Z" fill="white"/>
<path d="M955.03 369.701C959.838 362.525 967.297 357.552 975.769 355.873C984.242 354.195 993.034 355.949 1000.21 360.75C1002.56 357.11 1005.6 353.973 1009.17 351.523C1012.74 349.073 1016.76 347.359 1021 346.48C1025.24 345.602 1029.61 345.577 1033.86 346.407C1038.11 347.237 1042.15 348.906 1045.75 351.315C1049.34 353.724 1052.42 356.826 1054.81 360.439C1057.19 364.052 1058.83 368.104 1059.63 372.358C1060.43 376.613 1060.38 380.984 1059.47 385.217C1058.56 389.45 1056.82 393.459 1054.35 397.011L1018.1 451.13L963.967 414.869C960.408 412.495 957.352 409.443 954.976 405.885C952.599 402.328 950.949 398.337 950.118 394.141C949.288 389.944 949.295 385.625 950.138 381.431C950.981 377.237 952.643 373.251 955.03 369.701Z" fill="#083CF5"/>
<path opacity="0.7" d="M955.03 369.701C959.838 362.525 967.297 357.552 975.769 355.873C984.242 354.195 993.034 355.949 1000.21 360.75C1002.56 357.11 1005.6 353.973 1009.17 351.523C1012.74 349.073 1016.76 347.359 1021 346.48C1025.24 345.602 1029.61 345.577 1033.86 346.407C1038.11 347.237 1042.15 348.906 1045.75 351.315C1049.34 353.724 1052.42 356.826 1054.81 360.439C1057.19 364.052 1058.83 368.104 1059.63 372.358C1060.43 376.613 1060.38 380.984 1059.47 385.217C1058.56 389.45 1056.82 393.459 1054.35 397.011L1018.1 451.13L963.967 414.869C960.408 412.495 957.352 409.443 954.976 405.885C952.599 402.328 950.949 398.337 950.118 394.141C949.288 389.944 949.295 385.625 950.138 381.431C950.981 377.237 952.643 373.251 955.03 369.701Z" fill="white"/>
<path d="M1070.85 312.007C1071.82 314.075 1072.62 315.907 1073.39 317.916C1074.15 319.924 1074.86 321.785 1075.63 323.824C1077.11 327.738 1078.33 331.711 1079.44 335.773C1080.59 339.854 1081.53 343.99 1082.26 348.165L1082.79 351.341L1083.18 354.576C1083.33 355.654 1083.39 356.762 1083.46 357.855L1083.58 359.509V359.923V360.602C1083.58 361.134 1083.58 361.592 1083.58 362.079C1083.29 364.984 1082.45 367.806 1081.1 370.395C1080.05 372.478 1078.87 374.487 1077.55 376.406C1075.11 379.919 1072.44 383.265 1069.56 386.421C1064 392.529 1057.98 398.199 1051.54 403.377L1045.63 397.469C1050.46 391.31 1055.26 384.944 1059.62 378.622C1061.75 375.546 1063.73 372.361 1065.53 369.08C1066.34 367.605 1067.05 366.075 1067.66 364.502C1068.09 363.497 1068.34 362.421 1068.39 361.326C1068.39 361.252 1068.39 361.326 1068.39 361.326C1068.39 361.414 1068.39 361.4 1068.39 361.326V360.986L1068.19 359.657C1068.05 358.756 1067.94 357.884 1067.73 356.969L1067.2 354.28L1066.56 351.563C1065.68 347.944 1064.64 344.31 1063.48 340.692C1062.31 337.073 1061.04 333.454 1059.69 329.85C1059.04 328.048 1058.35 326.261 1057.64 324.474L1055.53 319.274L1070.85 312.007Z" fill="#E4897B"/>
<path d="M1068.93 304.075C1078.87 307.901 1086 344.266 1086 344.266L1062.37 353.586C1062.37 353.586 1054.44 335.315 1051.78 321.8C1048.93 307.576 1057.67 299.733 1068.93 304.075Z" fill="#083CF5"/>
<path opacity="0.2" d="M1068.93 304.075C1078.87 307.901 1086 344.266 1086 344.266L1062.37 353.586C1062.37 353.586 1054.44 335.315 1051.78 321.8C1048.93 307.576 1057.67 299.733 1068.93 304.075Z" fill="black"/>
<path d="M1048.22 395.815L1037.29 398.769L1046.34 409.743C1046.34 409.743 1055.1 405.209 1053.21 400.29L1048.22 395.815Z" fill="#E4897B"/>
<path d="M1029.37 407.853L1037.29 416.449L1046.34 409.699L1037.29 398.725L1029.37 407.853Z" fill="#E4897B"/>
<path d="M345.267 248.241C345.267 248.241 351.042 250.264 339.477 321.325H290.291C291.119 301.311 291.148 288.963 281.577 247.886C288.463 246.463 295.443 245.545 302.462 245.139C309.897 244.606 317.36 244.606 324.795 245.139C334.396 246.01 345.267 248.241 345.267 248.241Z" fill="#083CF5"/>
<path opacity="0.6" d="M345.267 248.241C345.267 248.241 351.042 250.264 339.477 321.325H290.291C291.119 301.311 291.148 288.963 281.577 247.886C288.463 246.463 295.443 245.545 302.462 245.139C309.897 244.606 317.36 244.606 324.795 245.139C334.396 246.01 345.267 248.241 345.267 248.241Z" fill="white"/>
<path d="M382.621 288.726C380.007 291.193 377.274 293.674 374.542 296.038C371.809 298.401 369.018 300.676 366.211 302.684C364.856 303.665 363.446 304.568 361.987 305.387C360.936 306.009 359.816 306.505 358.649 306.864L358.457 306.362L357.541 303.925C355.241 297.229 353.439 290.371 352.15 283.409C351.441 279.894 350.954 276.334 350.422 272.789C349.89 269.244 349.506 265.581 349.196 262.213L336.833 262.996C337.069 267.029 337.542 270.706 338.059 274.547C338.576 278.387 339.3 282.094 340.112 285.861C341.695 293.438 343.969 300.854 346.906 308.017L348.132 310.734L348.428 311.399L348.59 311.739C348.651 311.89 348.72 312.038 348.797 312.182C349.221 313.038 349.752 313.838 350.378 314.56C351.125 315.413 352.021 316.124 353.021 316.657C354.009 317.169 355.079 317.504 356.182 317.647C357.86 317.827 359.558 317.646 361.16 317.115C363.404 316.354 365.52 315.259 367.437 313.866C369.104 312.683 370.697 311.401 372.208 310.025C377.842 304.771 382.902 298.933 387.304 292.611L382.621 288.726Z" fill="#E4897B"/>
<path d="M345.267 248.241C350.26 249.511 353.745 270.042 353.745 270.042L339.994 279.391C339.994 279.391 326.804 258.713 330.644 253.189C334.647 247.473 337.985 246.38 345.267 248.241Z" fill="#083CF5"/>
<path opacity="0.6" d="M345.267 248.241C350.26 249.511 353.745 270.042 353.745 270.042L339.994 279.391C339.994 279.391 326.804 258.713 330.644 253.189C334.647 247.473 337.985 246.38 345.267 248.241Z" fill="white"/>
<path d="M318.267 593.943H330.378L331.191 565.894H319.079L318.267 593.943Z" fill="#E4897B"/>
<path d="M330.792 592.54H317.188C316.953 592.534 316.723 592.615 316.543 592.768C316.364 592.92 316.246 593.133 316.214 593.367L314.663 604.12C314.636 604.392 314.666 604.667 314.752 604.927C314.838 605.187 314.977 605.426 315.161 605.629C315.344 605.832 315.568 605.995 315.818 606.106C316.068 606.218 316.339 606.276 316.612 606.276C321.354 606.276 323.643 605.922 329.625 605.922C333.303 605.922 340.91 606.306 346.006 606.306C351.101 606.306 351.353 601.269 349.24 600.826C339.743 598.773 335.947 595.967 332.816 593.278C332.25 592.801 331.533 592.539 330.792 592.54Z" fill="black"/>
<path d="M331.176 565.894L330.763 580.354H318.651L319.064 565.894H331.176Z" fill="#CE6F64"/>
<path d="M232.524 518.835L241.756 526.678L230.855 536.397L221.624 528.554L232.524 518.835Z" fill="#CE6F64"/>
<path d="M335.342 594.652C334.061 594.623 332.786 594.479 331.531 594.223C331.471 594.21 331.417 594.178 331.375 594.134C331.332 594.089 331.305 594.033 331.294 593.972C331.287 593.914 331.297 593.855 331.323 593.802C331.349 593.749 331.391 593.706 331.442 593.677C331.989 593.396 336.819 590.93 338.31 591.742C338.447 591.822 338.563 591.933 338.648 592.067C338.732 592.2 338.784 592.352 338.798 592.51C338.829 592.766 338.799 593.026 338.709 593.267C338.619 593.509 338.472 593.725 338.281 593.899C337.415 594.476 336.378 594.742 335.342 594.652ZM332.476 593.81C335.164 594.253 337.158 594.135 337.897 593.485C338.021 593.367 338.115 593.221 338.172 593.059C338.228 592.897 338.246 592.724 338.222 592.554C338.219 592.49 338.2 592.428 338.167 592.374C338.133 592.32 338.086 592.275 338.03 592.244C337.232 591.845 334.455 592.85 332.476 593.81Z" fill="#083CF5"/>
<path d="M331.575 594.224C331.522 594.242 331.465 594.242 331.412 594.224C331.374 594.194 331.344 594.156 331.323 594.112C331.303 594.068 331.293 594.021 331.294 593.972C331.294 593.84 331.589 590.575 333.111 589.305C333.327 589.12 333.579 588.982 333.851 588.898C334.122 588.814 334.408 588.787 334.691 588.818C335.489 588.818 335.725 589.29 335.769 589.615C335.991 590.989 333.14 593.603 331.693 594.253L331.575 594.224ZM334.529 589.32C334.165 589.317 333.812 589.448 333.539 589.689C332.648 590.744 332.106 592.05 331.988 593.426C333.465 592.525 335.4 590.472 335.267 589.659C335.267 589.659 335.267 589.379 334.691 589.32H334.529Z" fill="#083CF5"/>
<path d="M339.477 321.325C339.477 321.325 349.048 414.6 348.236 451.526C347.409 489.93 333.333 577.548 333.333 577.548H316.967C316.967 577.548 319.552 492.175 318.104 454.451C316.524 413.33 303.467 321.31 303.467 321.31L339.477 321.325Z" fill="#083CF5"/>
<path opacity="0.5" d="M339.477 321.325C339.477 321.325 349.048 414.6 348.236 451.526C347.409 489.93 333.333 577.548 333.333 577.548H316.967C316.967 577.548 319.552 492.175 318.104 454.451C316.524 413.33 303.467 321.31 303.467 321.31L339.477 321.325Z" fill="black"/>
<path d="M382.489 287.958L389.032 277.619L392.739 289.361C392.739 289.361 387.378 294.989 382.518 293.645L382.489 287.958Z" fill="#E4897B"/>
<path d="M211.403 537.682L220.634 545.525L241.756 526.678L232.524 518.835L211.403 537.682Z" fill="#E4897B"/>
<path d="M223.16 544.58L214.209 534.344C214.061 534.162 213.85 534.041 213.618 534.006C213.386 533.97 213.149 534.023 212.953 534.152L203.825 540.06C203.602 540.218 203.414 540.421 203.274 540.656C203.134 540.891 203.045 541.153 203.013 541.425C202.981 541.696 203.007 541.972 203.088 542.233C203.17 542.494 203.305 542.735 203.486 542.941C206.661 546.456 208.375 547.992 212.348 552.497C214.77 555.274 218.02 559.572 221.358 563.398C224.696 567.223 228.743 564.122 227.62 562.231C222.909 553.738 224.046 550.754 223.957 546.589C223.938 545.846 223.656 545.134 223.16 544.58Z" fill="black"/>
<path d="M291.532 211.167C281.193 222.673 290.779 248.551 308.356 238.271C325.933 227.99 310.483 218.153 310.483 218.153L291.532 211.167Z" fill="black"/>
<path d="M292.389 236.823C292.339 236.822 292.289 236.811 292.244 236.791C292.198 236.771 292.157 236.741 292.123 236.705C287.455 232.067 285.151 227.193 285.269 222.23C285.497 217.704 287.435 213.433 290.69 210.28C290.725 210.245 290.766 210.216 290.812 210.197C290.857 210.177 290.906 210.167 290.956 210.167C291.006 210.167 291.055 210.177 291.101 210.197C291.146 210.216 291.188 210.245 291.222 210.28C291.258 210.315 291.286 210.356 291.306 210.402C291.325 210.448 291.335 210.497 291.335 210.546C291.335 210.596 291.325 210.645 291.306 210.691C291.286 210.736 291.258 210.778 291.222 210.812C288.143 213.845 286.3 217.915 286.052 222.23C285.934 226.971 288.164 231.653 292.669 236.144C292.705 236.178 292.734 236.219 292.753 236.265C292.772 236.311 292.782 236.36 292.782 236.409C292.782 236.459 292.772 236.508 292.753 236.554C292.734 236.6 292.705 236.641 292.669 236.675C292.637 236.719 292.594 236.755 292.546 236.781C292.497 236.806 292.444 236.821 292.389 236.823Z" fill="black"/>
<path d="M315.445 188.745C314.234 192.689 323.303 199.779 321.058 209.764C319.862 215.096 322.122 220.103 324.647 221.58C327.173 223.057 336.774 223.677 338.738 219.113C335.484 214.23 333.55 208.586 333.126 202.733C332.284 191.877 318.798 177.83 315.445 188.745Z" fill="black"/>
<path d="M316.745 184.861C312.521 177.475 277.943 184.27 290.159 208.863C302.374 233.455 316.745 184.861 316.745 184.861Z" fill="black"/>
<path d="M304.737 219.985C306.14 227.178 307.558 240.338 302.521 245.094C302.521 245.094 304.486 252.376 317.838 252.376C332.52 252.376 324.854 245.094 324.854 245.094C316.849 243.174 317.056 237.236 318.444 231.653L304.737 219.985Z" fill="#E4897B"/>
<path d="M310.261 224.756L318.385 231.683C318.033 232.984 317.801 234.313 317.691 235.656C314.633 235.213 310.424 231.845 310.099 228.64C309.923 227.346 309.978 226.031 310.261 224.756Z" fill="#CE6F64"/>
<path d="M297.101 206.809C299.922 218.493 300.867 223.5 307.898 228.507C318.488 236.025 332.225 229.984 333.008 217.725C333.672 206.662 328.946 189.41 316.553 186.707C313.813 186.089 310.96 186.187 308.268 186.991C305.576 187.795 303.136 189.277 301.182 191.296C299.229 193.315 297.827 195.802 297.113 198.519C296.398 201.236 296.394 204.091 297.101 206.809Z" fill="#E4897B"/>
<path d="M315.549 578.139H334.751L336.168 572.009L314.648 571.27L315.549 578.139Z" fill="#083CF5"/>
<path opacity="0.2" d="M318.267 344.529C330.349 368.841 320.689 413.167 316.421 429.651C314.234 404.881 310.512 374.616 307.662 352.372C309.493 339.788 312.698 333.362 318.267 344.529Z" fill="black"/>
<path d="M315.593 206.928C315.771 207.888 316.421 208.582 317.07 208.405C317.72 208.227 318.075 207.415 317.912 206.455C317.75 205.495 317.085 204.801 316.435 204.978C315.785 205.155 315.431 205.968 315.593 206.928Z" fill="black"/>
<path d="M326.479 205.007C326.642 205.967 327.292 206.662 327.956 206.484C328.621 206.307 328.961 205.509 328.798 204.549C328.636 203.589 327.971 202.895 327.321 202.998C326.671 203.102 326.302 204.047 326.479 205.007Z" fill="black"/>
<path d="M327.041 203.161L329.227 202.098C329.227 202.098 328.37 204.106 327.041 203.161Z" fill="black"/>
<path d="M323.938 207.164C325.183 209.209 326.704 211.073 328.458 212.703C328.028 213.139 327.508 213.477 326.934 213.694C326.36 213.911 325.747 214.001 325.135 213.958L323.938 207.164Z" fill="#DE5753"/>
<path d="M320.748 218.478C318.659 218.513 316.638 217.729 315.121 216.292C315.066 216.237 315.036 216.163 315.036 216.085C315.036 216.008 315.066 215.934 315.121 215.879C315.147 215.852 315.178 215.831 315.212 215.817C315.246 215.803 315.283 215.795 315.32 215.795C315.357 215.795 315.394 215.803 315.428 215.817C315.462 215.831 315.493 215.852 315.519 215.879C316.418 216.7 317.497 217.298 318.67 217.624C319.843 217.95 321.076 217.995 322.269 217.754C322.343 217.746 322.418 217.765 322.478 217.809C322.539 217.853 322.58 217.918 322.594 217.991C322.607 218.067 322.59 218.145 322.546 218.209C322.502 218.272 322.434 218.316 322.358 218.33C321.826 218.42 321.288 218.469 320.748 218.478Z" fill="black"/>
<path d="M319.847 187.903C319.508 192.009 308.445 195.288 306.835 205.347C305.978 210.724 301.99 214.608 299.124 214.992C295.184 214.92 291.405 213.419 288.49 210.768C288.183 210.426 287.953 210.022 287.815 209.583C287.677 209.145 287.635 208.682 287.691 208.226C287.747 207.77 287.9 207.331 288.14 206.939C288.379 206.547 288.7 206.21 289.08 205.953C293.128 203.117 297.411 199.66 298.209 194.314C299.183 188.036 320.793 176.515 319.847 187.903Z" fill="black"/>
<path d="M296.598 216.868C297.504 219.006 299.211 220.703 301.355 221.595C304.22 222.747 305.978 220.28 305.476 217.4C305.003 214.815 302.965 211.108 299.966 211.182C299.31 211.21 298.672 211.401 298.109 211.738C297.546 212.075 297.076 212.547 296.741 213.112C296.407 213.677 296.218 214.316 296.194 214.972C296.169 215.628 296.308 216.28 296.598 216.868Z" fill="#E4897B"/>
<path d="M311.605 204.018C311.517 204.032 311.428 204.032 311.339 204.018C311.207 203.943 311.107 203.821 311.061 203.676C311.014 203.531 311.024 203.373 311.088 203.235C311.486 202.414 312.074 201.7 312.804 201.153C313.533 200.605 314.384 200.241 315.283 200.089C315.436 200.073 315.589 200.119 315.708 200.216C315.827 200.313 315.903 200.453 315.918 200.606C315.934 200.759 315.888 200.911 315.791 201.031C315.694 201.15 315.554 201.225 315.401 201.241C314.69 201.368 314.02 201.664 313.447 202.103C312.874 202.543 312.415 203.113 312.107 203.767C312.053 203.849 311.978 203.916 311.89 203.96C311.802 204.004 311.704 204.024 311.605 204.018Z" fill="black"/>
<path d="M330.423 199.129C330.345 199.129 330.269 199.114 330.197 199.083C330.126 199.053 330.062 199.008 330.009 198.951C329.525 198.415 328.92 198.002 328.245 197.745C327.569 197.488 326.843 197.396 326.125 197.474C325.985 197.481 325.849 197.437 325.74 197.35C325.631 197.263 325.557 197.14 325.532 197.003C325.506 196.866 325.532 196.725 325.603 196.605C325.674 196.485 325.786 196.395 325.918 196.352C326.823 196.234 327.744 196.338 328.601 196.654C329.458 196.971 330.225 197.49 330.836 198.169C330.944 198.277 331.004 198.423 331.004 198.575C331.004 198.727 330.944 198.873 330.836 198.981C330.722 199.08 330.574 199.133 330.423 199.129Z" fill="black"/>
<path d="M297.352 295.373C291.444 298.327 285.358 301.518 279.435 303.925C278.313 304.398 277.19 304.797 276.112 305.151C276.23 304.457 276.333 303.763 276.452 303.068C277.013 299.937 277.692 296.791 278.549 293.645C279.406 290.499 280.277 287.323 281.252 284.177C283.261 277.929 285.476 271.548 287.795 265.507L276.333 260.825C273.684 267.297 271.392 273.909 269.465 280.632C267.452 287.399 265.97 294.313 265.034 301.311C264.857 303.128 264.635 304.93 264.591 306.82L264.517 308.209C264.468 309.145 264.543 310.083 264.739 311C264.932 311.776 265.24 312.518 265.654 313.201C266.138 313.981 266.764 314.662 267.501 315.21C268.623 316.041 269.951 316.551 271.341 316.687C272.17 316.788 273.008 316.788 273.837 316.687C274.469 316.589 275.096 316.456 275.713 316.288C276.72 316.006 277.707 315.655 278.667 315.239C280.402 314.509 282.089 313.671 283.719 312.728C289.776 309.17 295.496 305.066 300.808 300.469L297.352 295.373Z" fill="#E4897B"/>
<path d="M226.454 550.488H226.276C224.799 550.326 223.322 547.903 222.51 546.485C222.478 546.437 222.461 546.381 222.461 546.323C222.461 546.265 222.478 546.209 222.51 546.16C222.545 546.118 222.592 546.088 222.644 546.072C222.697 546.056 222.753 546.056 222.805 546.072C223.293 546.205 227.488 547.416 227.945 548.893C227.994 549.06 227.997 549.236 227.956 549.405C227.914 549.573 227.829 549.728 227.709 549.853C227.557 550.042 227.366 550.196 227.15 550.305C226.933 550.415 226.696 550.477 226.454 550.488ZM223.352 546.81C224.415 548.671 225.523 549.764 226.306 549.912C226.494 549.924 226.681 549.888 226.852 549.808C227.022 549.728 227.17 549.606 227.281 549.454C227.334 549.401 227.372 549.335 227.39 549.262C227.408 549.189 227.406 549.112 227.384 549.041C227.192 548.199 224.977 547.283 223.367 546.751L223.352 546.81Z" fill="#083CF5"/>
<path d="M224.696 546.796C224.012 546.815 223.33 546.73 222.672 546.545C222.626 546.526 222.586 546.495 222.555 546.457C222.524 546.418 222.503 546.372 222.495 546.323C222.485 546.275 222.488 546.225 222.504 546.178C222.519 546.132 222.547 546.09 222.584 546.057C222.702 545.954 225.36 543.694 227.015 543.901C227.235 543.923 227.448 543.994 227.637 544.109C227.826 544.224 227.987 544.38 228.108 544.565C228.248 544.745 228.324 544.966 228.324 545.193C228.324 545.421 228.248 545.642 228.108 545.821C227.128 546.553 225.914 546.9 224.696 546.796ZM223.396 546.131C224.873 546.397 227.221 546.131 227.738 545.466C227.827 545.363 227.901 545.186 227.738 544.89C227.662 544.772 227.56 544.672 227.44 544.598C227.32 544.523 227.185 544.477 227.044 544.462C225.686 544.633 224.413 545.215 223.396 546.131Z" fill="#083CF5"/>
<path d="M316.169 205.096L318.355 204.018C318.355 204.018 317.484 206.027 316.169 205.096Z" fill="black"/>
<path d="M326.494 321.325C326.494 321.325 315.357 418.307 306.938 449.444C296.953 486.37 234.903 536.146 234.903 536.146L222.318 525.467C222.318 525.467 267.294 471.422 274.93 451.955C291.178 410.391 277.279 348.443 290.292 321.325H326.494Z" fill="#083CF5"/>
<path opacity="0.5" d="M326.494 321.325C326.494 321.325 315.357 418.307 306.938 449.444C296.953 486.37 234.903 536.146 234.903 536.146L222.318 525.467C222.318 525.467 267.294 471.422 274.93 451.955C291.178 410.391 277.279 348.443 290.292 321.325H326.494Z" fill="black"/>
<path d="M220.309 524.891L235.921 538.155L241.756 534.654L224.09 518.229L220.309 524.891Z" fill="#083CF5"/>
<path d="M289.568 318.444L288.297 322.876C288.135 323.215 288.534 323.555 289.11 323.555H339.728C340.171 323.555 340.54 323.348 340.57 323.068L341.013 318.637C341.013 318.326 340.659 318.075 340.171 318.075H290.365C290.211 318.061 290.057 318.087 289.916 318.152C289.776 318.217 289.656 318.318 289.568 318.444Z" fill="#083CF5"/>
<path opacity="0.2" d="M289.568 318.444L288.297 322.876C288.135 323.215 288.534 323.555 289.11 323.555H339.728C340.171 323.555 340.54 323.348 340.57 323.068L341.013 318.637C341.013 318.326 340.659 318.075 340.171 318.075H290.365C290.211 318.061 290.057 318.087 289.916 318.152C289.776 318.217 289.656 318.318 289.568 318.444Z" fill="white"/>
<path d="M296.244 324.013H294.915C294.649 324.013 294.442 323.865 294.472 323.703L295.092 317.987C295.092 317.809 295.343 317.677 295.609 317.677H296.938C297.204 317.677 297.411 317.809 297.396 317.987L296.761 323.703C296.746 323.865 296.51 324.013 296.244 324.013Z" fill="#083CF5"/>
<path d="M335.976 324.013H334.647C334.381 324.013 334.174 323.865 334.189 323.703L334.824 317.987C334.824 317.809 335.075 317.677 335.341 317.677H336.671C336.937 317.677 337.129 317.809 337.114 317.987L336.493 323.703C336.479 323.865 336.242 324.013 335.976 324.013Z" fill="#083CF5"/>
<path d="M316.11 324.013H314.781C314.515 324.013 314.308 323.865 314.323 323.703L314.958 317.987C314.958 317.809 315.209 317.677 315.475 317.677H316.804C317.07 317.677 317.277 317.809 317.262 317.987L316.627 323.703C316.553 323.865 316.376 324.013 316.11 324.013Z" fill="#083CF5"/>
<path opacity="0.5" d="M296.244 324.013H294.915C294.649 324.013 294.442 323.865 294.472 323.703L295.092 317.987C295.092 317.809 295.343 317.677 295.609 317.677H296.938C297.204 317.677 297.411 317.809 297.396 317.987L296.761 323.703C296.746 323.865 296.51 324.013 296.244 324.013Z" fill="black"/>
<path opacity="0.5" d="M335.976 324.013H334.647C334.381 324.013 334.174 323.865 334.189 323.703L334.824 317.987C334.824 317.809 335.075 317.677 335.341 317.677H336.671C336.937 317.677 337.129 317.809 337.114 317.987L336.493 323.703C336.479 323.865 336.242 324.013 335.976 324.013Z" fill="black"/>
<path opacity="0.5" d="M316.11 324.013H314.781C314.515 324.013 314.308 323.865 314.323 323.703L314.958 317.987C314.958 317.809 315.209 317.677 315.475 317.677H316.804C317.07 317.677 317.277 317.809 317.262 317.987L316.627 323.703C316.553 323.865 316.376 324.013 316.11 324.013Z" fill="black"/>
<path d="M385.753 256.556C380.479 252.598 374.061 250.462 367.467 250.471V248.994C374.392 248.967 381.136 251.208 386.668 255.375L385.753 256.556Z" fill="#083CF5"/>
<path d="M393.256 264.651C391.918 262.547 390.331 260.613 388.53 258.89L389.549 257.827C391.44 259.628 393.107 261.651 394.512 263.853L393.256 264.651Z" fill="#083CF5"/>
<path opacity="0.2" d="M385.753 256.556C380.479 252.598 374.061 250.462 367.467 250.471V248.994C374.392 248.967 381.136 251.208 386.668 255.375L385.753 256.556Z" fill="black"/>
<path opacity="0.2" d="M393.256 264.651C391.918 262.547 390.331 260.613 388.53 258.89L389.549 257.827C391.44 259.628 393.107 261.651 394.512 263.853L393.256 264.651Z" fill="black"/>
<path d="M308.37 270.307C312.638 264.61 318.993 260.84 326.039 259.826C333.086 258.812 340.246 260.638 345.946 264.901C350.266 259.346 356.594 255.708 363.569 254.771C370.543 253.833 377.607 255.671 383.24 259.889C388.874 264.108 392.626 270.368 393.69 277.325C394.753 284.281 393.044 291.378 388.929 297.086L356.744 340.068L313.762 307.898C310.939 305.784 308.561 303.135 306.763 300.101C304.965 297.068 303.781 293.71 303.281 290.219C302.78 286.729 302.972 283.174 303.845 279.757C304.719 276.341 306.256 273.13 308.37 270.307Z" fill="#083CF5"/>
<path opacity="0.2" d="M308.37 270.307C312.638 264.61 318.993 260.84 326.039 259.826C333.086 258.812 340.246 260.638 345.946 264.901C350.266 259.346 356.594 255.708 363.569 254.771C370.543 253.833 377.607 255.671 383.24 259.889C388.874 264.108 392.626 270.368 393.69 277.325C394.753 284.281 393.044 291.378 388.929 297.086L356.744 340.068L313.762 307.898C310.939 305.784 308.561 303.135 306.763 300.101C304.965 297.068 303.781 293.71 303.281 290.219C302.78 286.729 302.972 283.174 303.845 279.757C304.719 276.341 306.256 273.13 308.37 270.307Z" fill="black"/>
<path d="M308.178 278.564L313.141 287.619L306.214 294.694L299.73 284.236L308.178 278.564Z" fill="#E4897B"/>
<path d="M295.668 296.673L299.73 284.236L306.214 294.694C306.214 294.694 302.403 301.473 297.352 301.37L295.668 296.673Z" fill="#E4897B"/>
<path d="M281.577 247.886C276.658 249.363 270.735 266.349 270.735 266.349L289.848 280.012C289.848 280.012 296.82 265.847 294.752 259.481C292.596 252.849 287.204 246.217 281.577 247.886Z" fill="#083CF5"/>
<path opacity="0.6" d="M281.577 247.886C276.658 249.363 270.735 266.349 270.735 266.349L289.848 280.012C289.848 280.012 296.82 265.847 294.752 259.481C292.596 252.849 287.204 246.217 281.577 247.886Z" fill="white"/>
<path d="M398.618 274.207L401.203 284.207L392.739 289.376L389.032 277.634L398.618 274.207Z" fill="#E4897B"/>
</svg>
