<svg width="366" height="272" viewBox="0 0 366 272" fill="none" xmlns="http://www.w3.org/2000/svg">
<path d="M366 239.029H0V239.212H366V239.029Z" fill="#E6E6E6"/>
<path d="M326.362 245.345H301.181V245.528H326.362V245.345Z" fill="#E6E6E6"/>
<path d="M190.064 245.345H182.539V245.528H190.064V245.345Z" fill="#E6E6E6"/>
<path d="M293.532 248.937H279.36V249.12H293.532V248.937Z" fill="#E6E6E6"/>
<path d="M84.6412 245.775H53.0261V245.958H84.6412V245.775Z" fill="#E6E6E6"/>
<path d="M94.1864 243.176H81.3471V243.359H94.1864V243.176Z" fill="#E6E6E6"/>
<path d="M233.757 250.908H165.183V251.091H233.757V250.908Z" fill="#E6E6E6"/>
<path d="M173.484 206.468H32.1421C31.0349 206.466 29.9736 206.026 29.1913 205.244C28.4091 204.463 27.9697 203.403 27.9697 202.299V4.13227C27.9794 3.03425 28.423 1.98435 29.2042 1.21064C29.9854 0.436925 31.0412 0.00188098 32.1421 0H173.484C174.593 0 175.656 0.439209 176.44 1.22101C177.223 2.0028 177.664 3.06315 177.664 4.16878V202.299C177.664 203.405 177.223 204.465 176.44 205.247C175.656 206.028 174.593 206.468 173.484 206.468ZM32.1421 0.146017C31.0834 0.147951 30.0687 0.568783 29.3208 1.31614C28.5728 2.0635 28.1527 3.07632 28.1527 4.13227V202.299C28.1527 203.355 28.5728 204.368 29.3208 205.115C30.0687 205.862 31.0834 206.283 32.1421 206.285H173.484C174.543 206.283 175.559 205.863 176.308 205.115C177.057 204.368 177.479 203.356 177.481 202.299V4.13227C177.479 3.07565 177.057 2.06285 176.308 1.3157C175.559 0.568546 174.543 0.147947 173.484 0.146017H32.1421Z" fill="#E6E6E6"/>
<path d="M331.823 206.468H190.474C189.366 206.466 188.304 206.026 187.52 205.245C186.737 204.463 186.296 203.404 186.294 202.299V4.13227C186.306 3.03358 186.751 1.98369 187.533 1.21018C188.316 0.436669 189.372 0.00186047 190.474 0H331.823C332.923 0.00379972 333.976 0.439692 334.756 1.2132C335.536 1.98671 335.978 3.03551 335.988 4.13227V202.299C335.988 203.402 335.55 204.46 334.769 205.242C333.988 206.023 332.929 206.464 331.823 206.468ZM190.474 0.146017C189.414 0.147947 188.399 0.568546 187.65 1.3157C186.901 2.06285 186.479 3.07565 186.477 4.13227V202.299C186.479 203.356 186.901 204.368 187.65 205.115C188.399 205.863 189.414 206.283 190.474 206.285H331.823C332.882 206.283 333.898 205.863 334.647 205.115C335.396 204.368 335.818 203.356 335.82 202.299V4.13227C335.818 3.07565 335.396 2.06285 334.647 1.3157C333.898 0.568546 332.882 0.147947 331.823 0.146017H190.474Z" fill="#E6E6E6"/>
<path d="M149.533 239.029H211.621C205.538 216.149 209.184 191.508 222.543 168.627H160.454C147.088 191.508 143.472 216.149 149.533 239.029Z" fill="#FAFAFA"/>
<path d="M147.417 201.503H210.179C212.334 189.915 216.514 178.795 222.528 168.649H159.774C153.76 178.795 149.578 189.915 147.417 201.503Z" fill="#E6E6E6"/>
<path d="M54.8268 192.844L305.786 192.844C309.909 192.844 313.252 189.51 313.252 185.397V31.2476C313.252 27.1348 309.909 23.8007 305.786 23.8007L54.8268 23.8007C50.7032 23.8007 47.3604 27.1348 47.3604 31.2476V185.397C47.3604 189.51 50.7032 192.844 54.8268 192.844Z" fill="#E6E6E6"/>
<path d="M58.3477 192.844L309.307 192.844C313.43 192.844 316.773 189.51 316.773 185.397V31.2476C316.773 27.1348 313.43 23.8007 309.307 23.8007L58.3477 23.8007C54.2242 23.8007 50.8813 27.1348 50.8813 31.2476V185.397C50.8813 189.51 54.2242 192.844 58.3477 192.844Z" fill="#F5F5F5"/>
<path d="M50.8813 168.635L316.773 168.635V32.3646L50.8813 32.3646V168.635Z" fill="white"/>
<path d="M183.834 186.12C186.644 186.12 188.922 183.848 188.922 181.046C188.922 178.244 186.644 175.972 183.834 175.972C181.025 175.972 178.747 178.244 178.747 181.046C178.747 183.848 181.025 186.12 183.834 186.12Z" fill="#E6E6E6"/>
<path d="M161.04 234.131H231.92C233.222 234.131 234.472 234.647 235.393 235.565C236.314 236.484 236.831 237.73 236.831 239.029H156.143C156.143 237.733 156.658 236.489 157.576 235.571C158.494 234.652 159.74 234.134 161.04 234.131Z" fill="#F5F5F5"/>
<path d="M144.204 234.131H156.897C158.198 234.132 159.446 234.649 160.365 235.568C161.285 236.486 161.801 237.731 161.801 239.029H139.256C139.257 238.383 139.386 237.744 139.635 237.147C139.884 236.551 140.25 236.01 140.709 235.555C141.169 235.099 141.715 234.739 142.314 234.495C142.914 234.251 143.556 234.127 144.204 234.131Z" fill="#E6E6E6"/>
<path d="M208.254 12.886C208.252 11.7925 207.816 10.7445 207.041 9.9713C206.265 9.19813 205.214 8.76292 204.118 8.76099H75.2862C74.1905 8.76483 73.1408 9.20066 72.366 9.97341C71.5912 10.7462 71.1542 11.7931 71.1504 12.886V26.1589H208.254V12.886Z" fill="#E6E6E6"/>
<path d="M174.824 20.581C176.55 20.581 177.949 19.1853 177.949 17.4636C177.949 15.7419 176.55 14.3461 174.824 14.3461C173.097 14.3461 171.698 15.7419 171.698 17.4636C171.698 19.1853 173.097 20.581 174.824 20.581Z" fill="white"/>
<path d="M185.899 20.581C187.625 20.581 189.024 19.1853 189.024 17.4636C189.024 15.7419 187.625 14.3461 185.899 14.3461C184.172 14.3461 182.773 15.7419 182.773 17.4636C182.773 19.1853 184.172 20.581 185.899 20.581Z" fill="white"/>
<path d="M196.981 20.581C198.707 20.581 200.107 19.1853 200.107 17.4636C200.107 15.7419 198.707 14.3461 196.981 14.3461C195.255 14.3461 193.856 15.7419 193.856 17.4636C193.856 19.1853 195.255 20.581 196.981 20.581Z" fill="white"/>
<path d="M75.3228 115.558H204.155C205.25 115.556 206.3 115.122 207.075 114.35C207.85 113.578 208.287 112.532 208.291 111.44V26.1589H71.187V111.44C71.1928 112.532 71.6306 113.577 72.4052 114.348C73.1797 115.119 74.2283 115.554 75.3228 115.558Z" fill="#FAFAFA"/>
<path d="M217.477 26.6846C217.473 25.5937 217.037 24.5486 216.264 23.7772C215.49 23.0058 214.442 22.5707 213.349 22.5669H84.5533C83.4583 22.5688 82.4086 23.003 81.6336 23.7746C80.8586 24.5462 80.4214 25.5924 80.4175 26.6846V39.9648H217.477V26.6846Z" fill="#F5F5F5"/>
<path d="M184.047 34.3797C185.773 34.3797 187.172 32.9839 187.172 31.2622C187.172 29.5405 185.773 28.1447 184.047 28.1447C182.321 28.1447 180.921 29.5405 180.921 31.2622C180.921 32.9839 182.321 34.3797 184.047 34.3797Z" fill="#E6E6E6"/>
<path d="M195.129 34.3797C196.855 34.3797 198.255 32.9839 198.255 31.2622C198.255 29.5405 196.855 28.1447 195.129 28.1447C193.403 28.1447 192.004 29.5405 192.004 31.2622C192.004 32.9839 193.403 34.3797 195.129 34.3797Z" fill="#E6E6E6"/>
<path d="M209.352 31.2622C209.352 31.8788 209.169 32.4815 208.825 32.9942C208.482 33.5068 207.994 33.9064 207.422 34.1424C206.851 34.3783 206.223 34.44 205.617 34.3198C205.01 34.1995 204.453 33.9026 204.016 33.4666C203.579 33.0306 203.281 32.4751 203.161 31.8704C203.04 31.2657 203.102 30.6388 203.339 30.0692C203.575 29.4996 203.976 29.0127 204.49 28.6701C205.004 28.3276 205.608 28.1447 206.226 28.1447C207.055 28.1447 207.85 28.4732 208.437 29.0578C209.023 29.6425 209.352 30.4354 209.352 31.2622Z" fill="#E6E6E6"/>
<path d="M84.5533 129.364H213.385C214.48 129.36 215.529 128.924 216.303 128.151C217.077 127.378 217.512 126.331 217.514 125.239V39.9648H80.4175V125.239C80.4195 126.332 80.8558 127.38 81.631 128.153C82.4062 128.926 83.4571 129.362 84.5533 129.364Z" fill="white"/>
<path d="M226.708 40.4905C226.706 39.397 226.269 38.349 225.494 37.5758C224.719 36.8026 223.668 36.3674 222.572 36.3655H93.7765C92.6803 36.3674 91.6294 36.8026 90.8542 37.5758C90.079 38.349 89.6427 39.397 89.6407 40.4905V53.7634H226.708V40.4905Z" fill="#FAFAFA"/>
<path d="M193.277 48.1855C195.004 48.1855 196.403 46.7898 196.403 45.0681C196.403 43.3464 195.004 41.9506 193.277 41.9506C191.551 41.9506 190.152 43.3464 190.152 45.0681C190.152 46.7898 191.551 48.1855 193.277 48.1855Z" fill="#F0F0F0"/>
<path d="M204.352 48.1855C206.079 48.1855 207.478 46.7898 207.478 45.0681C207.478 43.3464 206.079 41.9506 204.352 41.9506C202.626 41.9506 201.227 43.3464 201.227 45.0681C201.227 46.7898 202.626 48.1855 204.352 48.1855Z" fill="#F0F0F0"/>
<path d="M218.561 45.0681C218.562 45.6864 218.379 46.2913 218.036 46.8061C217.693 47.3209 217.204 47.7226 216.632 47.9602C216.059 48.1978 215.429 48.2607 214.821 48.141C214.213 48.0212 213.654 47.7242 213.215 47.2875C212.776 46.8508 212.477 46.294 212.355 45.6877C212.234 45.0813 212.295 44.4527 212.532 43.8813C212.769 43.3099 213.171 42.8214 213.686 42.4777C214.202 42.1341 214.808 41.9506 215.428 41.9506C216.257 41.9506 217.053 42.2788 217.64 42.8633C218.228 43.4477 218.559 44.2406 218.561 45.0681Z" fill="#F0F0F0"/>
<path d="M93.7765 143.169H222.609C223.704 143.166 224.754 142.73 225.529 141.957C226.304 141.184 226.741 140.137 226.744 139.044V53.7634H89.6407V139.044C89.6446 140.137 90.0816 141.184 90.8564 141.957C91.6311 142.73 92.6809 143.166 93.7765 143.169Z" fill="#E6E6E6"/>
<path opacity="0.5" d="M261.324 90.0923H214.117V160.399H284.616V90.0923H261.324ZM238.01 90.6399H260.768V113.345H237.988L238.01 90.6399ZM260.768 136.599H237.988V113.893H260.746L260.768 136.599ZM214.696 90.6399H237.453V113.345H214.674L214.696 90.6399ZM214.696 113.893H237.453V136.599H214.674L214.696 113.893ZM237.431 159.888H214.674V137.183H237.431V159.888ZM260.746 159.888H237.988V137.183H260.746V159.888ZM284.06 159.888H261.324V137.183H284.082L284.06 159.888ZM284.06 136.635H261.324V113.893H284.082L284.06 136.635ZM261.324 113.345V90.6399H284.082V113.345H261.324Z" fill="#E6E6E6"/>
<path d="M242.277 79.2652L324.561 79.2652V41.9433L242.277 41.9433V79.2652Z" fill="#F5F5F5"/>
<path d="M324.562 56.4939V79.2725H242.292V50.9818C255.944 50.9818 263.227 63.4662 280.115 63.4662C297.002 63.4662 302.089 56.4939 324.562 56.4939Z" fill="white"/>
<path d="M324.562 67.3794C306.071 67.3794 299.966 59.2244 289.579 59.2244C279.192 59.2244 274.09 67.7883 261.148 67.7883C247.665 67.7883 242.277 61.0569 242.277 61.0569V79.309H324.562V67.3794Z" fill="#E6E6E6"/>
<path d="M183 272C261.384 272 324.927 268.3 324.927 263.735C324.927 259.171 261.384 255.471 183 255.471C104.616 255.471 41.0725 259.171 41.0725 263.735C41.0725 268.3 104.616 272 183 272Z" fill="#F5F5F5"/>
<path d="M147.864 114.273C144.799 103.332 146.018 91.6389 151.276 81.5622C156.533 71.4854 165.435 63.7793 176.178 60.0056L178.937 68.7228C170.524 71.7768 163.565 77.8685 159.438 85.7932C155.311 93.7178 154.315 102.899 156.648 111.52L147.864 114.273Z" fill="#407BFF"/>
<path d="M170.256 141.811C166.806 140.035 163.606 137.81 160.74 135.197C155.302 130.225 151.177 123.994 148.728 117.054L157.468 114.302C159.511 119.948 162.952 124.987 167.471 128.951C171.991 132.915 177.441 135.674 183.317 136.973C189.193 138.272 195.302 138.068 201.077 136.38C206.853 134.693 212.106 131.576 216.35 127.319L223.106 133.496C216.349 140.34 207.568 144.841 198.055 146.338C188.542 147.835 178.798 146.248 170.256 141.811Z" fill="#407BFF"/>
<path opacity="0.7" d="M170.256 141.811C166.806 140.035 163.606 137.81 160.74 135.197C155.302 130.225 151.177 123.994 148.728 117.054L157.468 114.302C159.511 119.948 162.952 124.987 167.471 128.951C171.991 132.915 177.441 135.674 183.317 136.973C189.193 138.272 195.302 138.068 201.077 136.38C206.853 134.693 212.106 131.576 216.35 127.319L223.106 133.496C216.349 140.34 207.568 144.841 198.055 146.338C188.542 147.835 178.798 146.248 170.256 141.811Z" fill="white"/>
<path d="M218.363 125.166C223.267 119.367 226.187 112.158 226.695 104.589C227.203 97.0196 225.273 89.4866 221.187 83.0879C217.102 76.6893 211.073 71.7597 203.982 69.0181C196.89 66.2764 189.105 65.866 181.763 67.8467L179.003 59.0857C190.22 55.9525 202.219 57.2917 212.463 62.8203C222.708 68.3489 230.396 77.6337 233.903 88.7125C236.183 95.9691 236.577 103.685 235.049 111.135C233.52 118.585 230.118 125.526 225.163 131.306L218.363 125.166Z" fill="#407BFF"/>
<path opacity="0.3" d="M218.363 125.166C223.267 119.367 226.187 112.158 226.695 104.589C227.203 97.0196 225.273 89.4866 221.187 83.0879C217.102 76.6893 211.073 71.7597 203.982 69.0181C196.89 66.2764 189.105 65.866 181.763 67.8467L179.003 59.0857C190.22 55.9525 202.219 57.2917 212.463 62.8203C222.708 68.3489 230.396 77.6337 233.903 88.7125C236.183 95.9691 236.577 103.685 235.049 111.135C233.52 118.585 230.118 125.526 225.163 131.306L218.363 125.166Z" fill="black"/>
<path d="M199.433 91.4065C198.399 90.3744 197.171 89.5556 195.819 88.9968C194.468 88.4381 193.019 88.1503 191.556 88.15C190.093 88.1496 188.644 88.4367 187.292 88.9948C185.94 89.553 184.712 90.3712 183.677 91.4028C182.642 92.4345 181.821 93.6593 181.261 95.0073C180.701 96.3554 180.412 97.8003 180.412 99.2596C180.412 100.719 180.7 102.164 181.259 103.512C181.819 104.861 182.639 106.086 183.673 107.118L191.55 114.974L199.433 107.118C201.522 105.034 202.695 102.208 202.695 99.2622C202.695 96.3159 201.522 93.4902 199.433 91.4065Z" fill="#407BFF"/>
<path opacity="0.3" d="M199.433 91.4065C198.399 90.3744 197.171 89.5556 195.819 88.9968C194.468 88.4381 193.019 88.1503 191.556 88.15C190.093 88.1496 188.644 88.4367 187.292 88.9948C185.94 89.553 184.712 90.3712 183.677 91.4028C182.642 92.4345 181.821 93.6593 181.261 95.0073C180.701 96.3554 180.412 97.8003 180.412 99.2596C180.412 100.719 180.7 102.164 181.259 103.512C181.819 104.861 182.639 106.086 183.673 107.118L191.55 114.974L199.433 107.118C201.522 105.034 202.695 102.208 202.695 99.2622C202.695 96.3159 201.522 93.4902 199.433 91.4065Z" fill="black"/>
<path d="M191.997 117.303H191.118V120.807H191.997V117.303Z" fill="#407BFF"/>
<path opacity="0.3" d="M191.997 117.303H191.118V120.807H191.997V117.303Z" fill="black"/>
<path d="M191.997 123.516H191.118V127.02H191.997V123.516Z" fill="#407BFF"/>
<path opacity="0.3" d="M191.997 123.516H191.118V127.02H191.997V123.516Z" fill="black"/>
<path d="M161.15 151.872H131.335V259.545H161.15V151.872Z" fill="#407BFF"/>
<path opacity="0.7" d="M161.15 151.872H131.335V259.545H161.15V151.872Z" fill="white"/>
<path d="M175.46 151.872H161.15V259.545H175.46V151.872Z" fill="#407BFF"/>
<path opacity="0.5" d="M175.46 151.872H161.15V259.545H175.46V151.872Z" fill="white"/>
<path d="M216.277 191.501H215.516V208.264H216.277V191.501Z" fill="#263238"/>
<path d="M216.277 181.645H215.516V188.384H216.277V181.645Z" fill="#263238"/>
<path d="M237.454 218.66H207.639V259.545H237.454V218.66Z" fill="#407BFF"/>
<path opacity="0.5" d="M237.454 218.66H207.639V259.545H237.454V218.66Z" fill="black"/>
<path d="M251.764 218.66H237.453V259.545H251.764V218.66Z" fill="#407BFF"/>
<path opacity="0.6" d="M251.764 218.66H237.453V259.545H251.764V218.66Z" fill="black"/>
<path d="M199.302 129.108H169.487V259.545H199.302V129.108Z" fill="#407BFF"/>
<path opacity="0.7" d="M199.302 129.108H169.487V259.545H199.302V129.108Z" fill="black"/>
<path d="M213.612 129.108H199.302V259.545H213.612V129.108Z" fill="#407BFF"/>
<path opacity="0.8" d="M213.612 129.108H199.302V259.545H213.612V129.108Z" fill="black"/>
<path d="M257.832 99.0212C256.808 107.096 255.519 115.193 254.37 123.202C254.227 124.372 254.015 125.532 253.733 126.677C253.404 127.849 252.983 128.994 252.474 130.101C251.503 132.183 250.289 134.143 248.858 135.942C247.494 137.67 245.991 139.284 244.364 140.767C243.573 141.498 242.731 142.228 241.882 142.863C241.033 143.498 240.191 144.155 239.218 144.79L236.619 141.556C237.227 140.884 237.915 140.096 238.537 139.366C239.159 138.636 239.774 137.847 240.374 137.073C241.548 135.56 242.621 133.973 243.588 132.32C244.519 130.771 245.287 129.129 245.879 127.422C246.151 126.632 246.359 125.821 246.501 124.998C246.629 124.134 246.712 123.264 246.75 122.391C247.021 118.244 247.431 114.141 247.885 110.046C248.338 105.95 248.88 101.905 249.524 97.8312L257.832 99.0212Z" fill="#E58A7B"/>
<path d="M259.655 96.2469C261.522 101.19 252.072 115.74 252.072 115.74L240.996 109.746C242.663 105.218 244.815 100.883 247.416 96.8164C251.31 90.9903 257.613 90.8224 259.655 96.2469Z" fill="#407BFF"/>
<path opacity="0.2" d="M259.655 96.2469C261.522 101.19 252.072 115.74 252.072 115.74L240.996 109.746C242.663 105.218 244.815 100.883 247.416 96.8164C251.31 90.9903 257.613 90.8224 259.655 96.2469Z" fill="black"/>
<path d="M253.082 92.4651C253.082 92.4651 246.545 109.147 252.752 140.205H282.376C282.581 135.671 279.719 113.55 284.104 92.1877C280.831 91.5546 277.52 91.1351 274.193 90.9319C269.999 90.6907 265.796 90.6907 261.602 90.9319C258.726 91.2209 255.878 91.7335 253.082 92.4651Z" fill="#407BFF"/>
<path opacity="0.2" d="M253.082 92.4651C253.082 92.4651 246.545 109.147 252.752 140.205H282.376C282.581 135.671 279.719 113.55 284.104 92.1877C280.831 91.5546 277.52 91.1351 274.193 90.9319C269.999 90.6907 265.796 90.6907 261.602 90.9319C258.726 91.2209 255.878 91.7335 253.082 92.4651Z" fill="black"/>
<path d="M257.013 256.931H251.479L250 244.14H255.541L257.013 256.931Z" fill="#E58A7B"/>
<path d="M295.984 256.931H290.45L286.132 244.14H291.673L295.984 256.931Z" fill="#E58A7B"/>
<path d="M289.711 256.259H296.46C296.57 256.259 296.677 256.296 296.762 256.366C296.848 256.435 296.907 256.531 296.929 256.639L298.027 261.552C298.051 261.672 298.047 261.795 298.018 261.913C297.988 262.031 297.932 262.141 297.854 262.235C297.776 262.329 297.678 262.404 297.568 262.455C297.457 262.506 297.336 262.532 297.214 262.531C295.018 262.494 293.459 262.37 290.721 262.37C289.038 262.37 285.597 262.545 283.247 262.545C280.898 262.545 280.62 260.253 281.571 260.041C285.839 259.114 287.427 257.851 288.811 256.603C289.058 256.381 289.379 256.258 289.711 256.259Z" fill="#263238"/>
<path d="M251.515 256.259H257.562C257.672 256.26 257.779 256.298 257.866 256.367C257.952 256.435 258.013 256.531 258.037 256.639L259.128 261.552C259.155 261.671 259.154 261.794 259.126 261.912C259.098 262.03 259.044 262.14 258.967 262.235C258.89 262.329 258.793 262.404 258.683 262.456C258.572 262.507 258.452 262.533 258.33 262.531C256.134 262.494 252.994 262.37 250.278 262.37C247.072 262.37 244.305 262.545 240.543 262.545C238.266 262.545 237.615 260.253 238.588 260.041C242.922 259.099 246.457 258.997 250.205 256.69C250.594 256.43 251.047 256.281 251.515 256.259Z" fill="#263238"/>
<path d="M238.632 139.446L233.991 143.315L240.089 146.886C240.988 146.193 241.641 145.232 241.953 144.144C242.265 143.055 242.22 141.895 241.824 140.833L238.632 139.446Z" fill="#E58A7B"/>
<path d="M250.007 244.147L250.761 250.74H256.303L255.541 244.147H250.007Z" fill="#CF6F64"/>
<path d="M291.673 244.147H286.132L288.357 250.74H293.898L291.673 244.147Z" fill="#CF6F64"/>
<path opacity="0.2" d="M278.072 102.394C279.038 97.5173 280.92 98.3642 282.706 100.766C281.943 107.23 281.59 113.736 281.652 120.245C280.437 118.179 276.454 110.564 278.072 102.394Z" fill="black"/>
<path d="M272.941 76.7975C272.15 80.8349 271.36 88.2379 274.193 90.9319C274.193 90.9319 273.087 95.035 265.555 95.035C257.276 95.035 261.602 90.9392 261.602 90.9392C266.119 89.8587 265.994 86.5149 265.211 83.3756L272.941 76.7975Z" fill="#E58A7B"/>
<path d="M269.793 79.4842L265.218 83.3755C265.414 84.1048 265.543 84.85 265.606 85.6023C267.334 85.3541 269.705 83.4632 269.888 81.6598C269.988 80.9348 269.955 80.1979 269.793 79.4842Z" fill="#CF6F64"/>
<path d="M260.065 64.3642C257.342 65.5177 255.863 73.1252 259.333 74.8847C262.803 76.6442 265.226 62.1885 260.065 64.3642Z" fill="#263238"/>
<path d="M273.424 70.7159C273.087 76.1842 273.168 79.4039 270.401 82.2147C266.236 86.4346 259.457 83.9304 258.154 78.4694C256.976 73.5559 257.723 65.4301 263.095 63.2544C264.277 62.7693 265.563 62.5936 266.832 62.7439C268.101 62.8942 269.311 63.3655 270.345 64.1131C271.38 64.8607 272.206 65.8598 272.745 67.0154C273.284 68.171 273.518 69.4448 273.424 70.7159Z" fill="#E58A7B"/>
<path d="M256.508 60.9328C259.823 55.9171 260.343 58.3337 260.292 60.7211C263.22 57.9614 268.629 54.4424 271.272 57.6547C271.585 57.9862 271.788 58.4053 271.855 58.8556C271.922 59.306 271.849 59.766 271.645 60.1735C275.049 59.2682 278.482 59.0127 277.86 62.6777C277.311 65.9193 274.991 67.1093 271.74 67.1312C265.914 67.9343 251.808 68.0146 256.508 60.9328Z" fill="#263238"/>
<path d="M273.036 76.0747C270.108 77.2647 264.215 66.5398 273.08 65.2768C281.944 64.0137 277.728 74.1546 273.036 76.0747Z" fill="#263238"/>
<path d="M275.906 76.7464C275.165 77.9097 273.995 78.7358 272.648 79.0461C270.862 79.4404 270.064 77.8196 270.65 76.1842C271.177 74.724 272.736 72.7455 274.493 73.0814C274.875 73.1629 275.231 73.3382 275.528 73.5916C275.825 73.8449 276.054 74.1682 276.195 74.5321C276.335 74.8961 276.382 75.2891 276.331 75.6758C276.281 76.0624 276.135 76.4304 275.906 76.7464Z" fill="#E58A7B"/>
<path d="M278.797 66.934C278.39 66.4819 277.876 66.1382 277.302 65.9342C276.728 65.7302 276.112 65.6724 275.51 65.7659C275.51 65.7659 278.372 63.5173 278.797 66.934Z" fill="#263238"/>
<path d="M252.752 140.176C252.752 140.176 237.168 179.674 237.739 196.524C238.361 214.046 248.719 249.462 248.719 249.462H258.103C258.103 249.462 254.26 215.061 254.677 197.86C255.131 179.097 272.245 140.183 272.245 140.183L252.752 140.176Z" fill="#407BFF"/>
<path opacity="0.2" d="M265.196 153.252L266.097 155.289C262.812 163.73 259.958 172.332 257.547 181.061C257.291 171.102 259.355 160.122 265.196 153.252Z" fill="black"/>
<path d="M263.264 140.176C263.264 140.176 260.109 180.564 263.557 196.393C267.334 213.71 285.751 249.448 285.751 249.448H295.896C295.896 249.448 282.325 215.134 280.166 197.962C277.831 179.352 282.362 140.191 282.362 140.191L263.264 140.176Z" fill="#407BFF"/>
<path d="M265.109 72.2783C265.109 72.7236 264.867 73.0887 264.574 73.0887C264.281 73.0887 264.047 72.7236 264.047 72.2783C264.047 71.8329 264.281 71.4752 264.574 71.4752C264.867 71.4752 265.109 71.7964 265.109 72.2783Z" fill="#263238"/>
<path d="M260.058 72.2783C260.058 72.7236 259.816 73.0887 259.531 73.0887C259.245 73.0887 258.996 72.7236 258.996 72.2783C258.996 71.8329 259.238 71.4752 259.531 71.4752C259.824 71.4752 260.058 71.7964 260.058 72.2783Z" fill="#263238"/>
<path d="M261.661 72.4681C261.128 73.8271 260.412 75.1069 259.531 76.2719C259.835 76.49 260.183 76.639 260.551 76.7084C260.919 76.7778 261.298 76.7658 261.661 76.6734V72.4681Z" fill="#DF5753"/>
<path d="M262.964 77.9072C262.929 77.9072 262.895 77.8934 262.871 77.8687C262.846 77.8441 262.832 77.8107 262.832 77.7758C262.832 77.7409 262.846 77.7075 262.871 77.6829C262.895 77.6582 262.929 77.6444 262.964 77.6444C263.519 77.6567 264.07 77.5381 264.571 77.2984C265.072 77.0586 265.51 76.7044 265.848 76.2645C265.857 76.2501 265.87 76.2377 265.884 76.2281C265.899 76.2185 265.915 76.2118 265.932 76.2084C265.949 76.205 265.966 76.205 265.983 76.2084C266 76.2117 266.016 76.2184 266.031 76.228C266.058 76.2472 266.077 76.276 266.084 76.3085C266.09 76.341 266.085 76.3748 266.067 76.4032C265.71 76.8854 265.242 77.2741 264.701 77.536C264.161 77.798 263.564 77.9253 262.964 77.9072Z" fill="#263238"/>
<path d="M266.624 70.621C266.584 70.6199 266.545 70.6102 266.51 70.5926C266.475 70.5749 266.443 70.5497 266.419 70.5188C266.228 70.2503 265.975 70.0309 265.683 69.8786C265.39 69.7263 265.065 69.6454 264.735 69.6427C264.7 69.6457 264.665 69.6415 264.632 69.6305C264.599 69.6195 264.568 69.6018 264.542 69.5785C264.516 69.5553 264.495 69.527 264.481 69.4953C264.466 69.4636 264.458 69.4293 264.457 69.3945C264.453 69.3259 264.476 69.2585 264.521 69.2066C264.566 69.1548 264.63 69.1226 264.699 69.117C265.115 69.1146 265.527 69.2114 265.898 69.3993C266.27 69.5873 266.592 69.8609 266.836 70.1975C266.878 70.2541 266.896 70.3246 266.886 70.3941C266.876 70.4636 266.84 70.5266 266.785 70.5699C266.737 70.6009 266.681 70.6186 266.624 70.621Z" fill="#263238"/>
<path d="M257.847 70.5115C257.808 70.5185 257.769 70.5185 257.73 70.5115C257.699 70.4968 257.671 70.4758 257.648 70.45C257.625 70.4242 257.607 70.394 257.596 70.3612C257.585 70.3285 257.581 70.2939 257.584 70.2595C257.587 70.2251 257.597 70.1916 257.613 70.1611C257.786 69.7849 258.047 69.4558 258.375 69.2017C258.702 68.9475 259.086 68.7758 259.494 68.7009C259.559 68.6998 259.622 68.7227 259.671 68.7651C259.72 68.8075 259.752 68.8664 259.76 68.9306C259.768 68.9949 259.752 69.0598 259.715 69.1131C259.678 69.1663 259.623 69.2041 259.56 69.2193C259.24 69.2886 258.941 69.4317 258.687 69.6371C258.433 69.8425 258.23 70.1045 258.096 70.402C258.069 70.4417 258.031 70.473 257.987 70.4924C257.943 70.5118 257.895 70.5184 257.847 70.5115Z" fill="#263238"/>
<path d="M286.212 96.4806C286.688 97.5027 287.09 98.4153 287.471 99.4009C287.852 100.387 288.203 101.321 288.591 102.321C289.323 104.263 289.931 106.234 290.487 108.242C291.043 110.25 291.504 112.301 291.885 114.39L292.149 115.959L292.339 117.565C292.412 118.098 292.441 118.646 292.485 119.193L292.537 120.011V120.216V120.559C292.537 120.814 292.537 121.048 292.537 121.289C292.392 122.727 291.974 124.124 291.307 125.406C290.787 126.438 290.197 127.433 289.543 128.385C288.33 130.126 287.002 131.785 285.568 133.35C282.809 136.38 279.816 139.19 276.616 141.753L273.688 138.833C276.081 135.781 278.468 132.627 280.642 129.495C281.7 127.97 282.677 126.391 283.57 124.764C283.978 124.034 284.333 123.275 284.631 122.493C284.848 121.994 284.972 121.46 284.997 120.916V120.749L284.894 120.091C284.829 119.646 284.77 119.208 284.668 118.763L284.404 117.427L284.089 116.083C283.643 114.287 283.138 112.484 282.552 110.688C281.966 108.892 281.344 107.103 280.678 105.315C280.012 103.526 279.28 101.723 278.599 100.073L286.212 96.4806Z" fill="#E58A7B"/>
<path d="M287.874 257.26C287.498 257.288 287.123 257.188 286.812 256.975C286.708 256.887 286.628 256.773 286.58 256.645C286.533 256.518 286.519 256.379 286.541 256.245C286.541 256.17 286.561 256.096 286.6 256.032C286.639 255.967 286.694 255.915 286.761 255.88C287.383 255.566 289.162 256.661 289.367 256.785C289.388 256.799 289.405 256.819 289.416 256.842C289.426 256.865 289.43 256.891 289.426 256.916C289.421 256.943 289.409 256.967 289.39 256.986C289.372 257.006 289.349 257.019 289.323 257.026C288.85 257.156 288.364 257.234 287.874 257.26ZM287.054 256.113C286.995 256.109 286.937 256.122 286.886 256.15C286.849 256.15 286.805 256.201 286.798 256.303C286.789 256.391 286.801 256.48 286.832 256.562C286.864 256.645 286.915 256.719 286.981 256.778C287.599 257.055 288.3 257.089 288.942 256.873C288.368 256.501 287.727 256.243 287.054 256.113Z" fill="#407BFF"/>
<path d="M289.294 257.062H289.236C288.657 256.749 287.552 255.544 287.669 254.923C287.689 254.827 287.741 254.741 287.817 254.679C287.893 254.616 287.988 254.581 288.086 254.58C288.185 254.569 288.286 254.578 288.382 254.607C288.477 254.636 288.566 254.684 288.643 254.748C289.287 255.274 289.419 256.865 289.426 256.938C289.427 256.961 289.422 256.984 289.411 257.004C289.401 257.024 289.386 257.042 289.367 257.055C289.344 257.065 289.319 257.067 289.294 257.062ZM288.181 254.799H288.115C287.947 254.799 287.932 254.894 287.925 254.931C287.859 255.296 288.562 256.208 289.133 256.639C289.093 256.011 288.866 255.408 288.481 254.909C288.398 254.838 288.291 254.799 288.181 254.799Z" fill="#407BFF"/>
<path d="M249.209 257.26C248.737 257.302 248.264 257.18 247.87 256.916C247.78 256.839 247.71 256.74 247.667 256.63C247.623 256.519 247.608 256.399 247.621 256.281C247.625 256.21 247.647 256.141 247.684 256.08C247.721 256.019 247.772 255.968 247.833 255.931C248.514 255.558 250.761 256.661 250.988 256.814C251.014 256.826 251.034 256.846 251.047 256.871C251.061 256.896 251.066 256.924 251.061 256.952C251.057 256.979 251.045 257.005 251.025 257.025C251.005 257.045 250.979 257.058 250.952 257.062C250.378 257.18 249.795 257.246 249.209 257.26ZM248.207 256.113C248.123 256.108 248.039 256.125 247.965 256.164C247.939 256.176 247.917 256.196 247.903 256.221C247.888 256.246 247.882 256.275 247.885 256.303C247.874 256.38 247.882 256.458 247.909 256.531C247.936 256.603 247.98 256.668 248.038 256.719C248.382 257.026 249.297 257.077 250.512 256.873C249.793 256.49 249.013 256.233 248.207 256.113Z" fill="#407BFF"/>
<path d="M250.93 257.062C250.911 257.069 250.89 257.069 250.871 257.062C250.205 256.763 248.88 255.602 248.983 254.945C248.983 254.799 249.107 254.617 249.473 254.58C249.604 254.567 249.736 254.58 249.862 254.619C249.988 254.658 250.104 254.722 250.205 254.806C250.937 255.383 251.061 256.873 251.061 256.931C251.065 256.954 251.062 256.978 251.053 257C251.044 257.022 251.029 257.041 251.01 257.055C250.985 257.065 250.957 257.068 250.93 257.062ZM249.612 254.799H249.532C249.297 254.799 249.283 254.916 249.275 254.945C249.217 255.318 250.117 256.259 250.798 256.668C250.736 256.039 250.48 255.445 250.066 254.967C249.94 254.858 249.779 254.798 249.612 254.799Z" fill="#407BFF"/>
<path d="M274.969 138.022L269.537 139.482L274.039 144.929C274.039 144.929 278.394 142.673 277.457 140.242L274.969 138.022Z" fill="#E58A7B"/>
<path d="M266.726 143.126L270.657 147.448L274.039 144.907L269.537 139.461L266.726 143.126Z" fill="#E58A7B"/>
<path d="M283.957 249.681H297.221V246.119L282.398 245.892L283.957 249.681Z" fill="#407BFF"/>
<path opacity="0.4" d="M283.957 249.681H297.221V246.119L282.398 245.892L283.957 249.681Z" fill="black"/>
<path d="M246.589 249.681H259.853V246.082L245.03 245.892L246.589 249.681Z" fill="#407BFF"/>
<path opacity="0.4" d="M246.589 249.681H259.853V246.082L245.03 245.892L246.589 249.681Z" fill="black"/>
<path d="M285.261 92.5454C290.202 94.4436 295.143 111.922 295.143 111.922L281.967 117.091C281.967 117.091 278.036 108.052 276.696 101.336C275.32 94.2903 279.661 90.3989 285.261 92.5454Z" fill="#407BFF"/>
<path opacity="0.2" d="M285.261 92.5454C290.202 94.4436 295.143 111.922 295.143 111.922L281.967 117.091C281.967 117.091 278.036 108.052 276.696 101.336C275.32 94.2903 279.661 90.3989 285.261 92.5454Z" fill="black"/>
<path d="M231.846 120.281C230.443 125.162 230.584 130.355 232.249 135.153C233.772 139.618 236.552 143.552 240.257 146.484C245.192 150.381 251.426 152.263 257.699 151.75C263.973 151.236 269.816 148.366 274.048 143.719C278.28 139.073 280.585 132.996 280.496 126.719C280.408 120.442 277.932 114.433 273.57 109.907C270.574 106.795 266.806 104.528 262.649 103.336C258.804 102.227 254.749 102.057 250.824 102.841C246.9 103.625 243.223 105.34 240.103 107.841C239.535 108.297 238.993 108.785 238.478 109.301C235.337 112.315 233.049 116.102 231.846 120.281Z" fill="#407BFF"/>
<path opacity="0.6" d="M231.846 120.281C230.443 125.162 230.584 130.355 232.249 135.153C233.772 139.618 236.552 143.552 240.257 146.484C245.192 150.381 251.426 152.263 257.699 151.75C263.973 151.236 269.816 148.366 274.048 143.719C278.28 139.073 280.585 132.996 280.496 126.719C280.408 120.442 277.932 114.433 273.57 109.907C270.574 106.795 266.806 104.528 262.649 103.336C258.804 102.227 254.749 102.057 250.824 102.841C246.9 103.625 243.223 105.34 240.103 107.841C239.535 108.297 238.993 108.785 238.478 109.301C235.337 112.315 233.049 116.102 231.846 120.281Z" fill="black"/>
<path d="M270.452 108.936L252.591 126.129L245.747 149.93C251 151.434 256.604 151.167 261.689 149.171C266.774 147.175 271.057 143.56 273.872 138.888C276.687 134.217 277.878 128.749 277.26 123.333C276.642 117.917 274.249 112.857 270.452 108.936Z" fill="#407BFF"/>
<path opacity="0.9" d="M270.452 108.936L252.591 126.129L245.747 149.93C251 151.434 256.604 151.167 261.689 149.171C266.774 147.175 271.057 143.56 273.872 138.888C276.687 134.217 277.878 128.749 277.26 123.333C276.642 117.917 274.249 112.857 270.452 108.936Z" fill="white"/>
<g opacity="0.7">
<path d="M252.591 126.129L270.452 108.928C267.425 105.8 263.625 103.523 259.436 102.324C255.246 101.126 250.813 101.049 246.584 102.101C242.355 103.153 238.478 105.298 235.343 108.319C232.209 111.34 229.927 115.131 228.728 119.31L252.591 126.129Z" fill="#407BFF"/>
<path opacity="0.44" d="M252.591 126.129L270.452 108.928C267.425 105.8 263.625 103.523 259.436 102.324C255.246 101.126 250.813 101.049 246.584 102.101C242.355 103.153 238.478 105.298 235.343 108.319C232.209 111.34 229.927 115.131 228.728 119.31L252.591 126.129Z" fill="white"/>
</g>
<path d="M233.611 146.601L238.991 148.295L240.067 146.907L233.969 143.337L233.611 146.601Z" fill="#E58A7B"/>
<path d="M252.591 126.129L228.735 119.31C226.924 125.622 227.698 132.392 230.89 138.134C234.081 143.876 239.428 148.118 245.754 149.93L252.591 126.129Z" fill="#407BFF"/>
<path opacity="0.6" d="M252.591 126.129L228.735 119.31C226.924 125.622 227.698 132.392 230.89 138.134C234.081 143.876 239.428 148.118 245.754 149.93L252.591 126.129Z" fill="black"/>
<path d="M115.832 92.6184C114.551 93.9253 113.175 95.3708 111.908 96.8164C110.642 98.262 109.368 99.7367 108.175 101.248C106.982 102.759 105.855 104.314 104.771 105.884L103.981 107.074L103.249 108.279C103 108.68 102.765 109.089 102.517 109.498L101.909 110.615C101.662 111.252 101.521 111.925 101.492 112.608C101.433 113.488 101.433 114.371 101.492 115.251C101.629 117.144 101.873 119.029 102.224 120.895C102.553 122.807 102.956 124.727 103.432 126.633C103.907 128.539 104.376 130.481 104.896 132.364L102.077 133.415C100.37 129.696 98.9437 125.855 97.8098 121.924C97.2256 119.905 96.778 117.849 96.4703 115.769C96.3161 114.659 96.2379 113.539 96.2361 112.418C96.2159 111.097 96.4392 109.783 96.8948 108.542C97.0705 108.118 97.1657 107.943 97.2828 107.695L97.6268 106.965C97.8538 106.483 98.0953 106.008 98.3588 105.548L99.0908 104.154L99.8961 102.796C100.972 101.01 102.143 99.2819 103.402 97.6195C104.647 95.9622 105.935 94.3414 107.297 92.7863C108.658 91.2313 110.042 89.7419 111.615 88.2452L115.832 92.6184Z" fill="#E58A7B"/>
<path d="M104.12 131.174L109.127 132.634L105.796 136.007C105.796 136.007 102.187 134.898 101.682 132.444L104.12 131.174Z" fill="#E58A7B"/>
<path d="M112.164 136.504L111.315 139.723L105.796 136.029L109.127 132.664L112.164 136.504Z" fill="#E58A7B"/>
<path d="M67.3441 227.02L71.4433 231.407L82.5697 223.464L78.4631 219.076L67.3441 227.02Z" fill="#E58A7B"/>
<path d="M121.739 243.096L120.758 250.645L114.895 249.667L115.802 242.658L121.739 243.096Z" fill="#CF6F64"/>
<path d="M78.4631 219.076L82.5623 223.471L77.9581 226.757L73.7125 222.464L78.4631 219.076Z" fill="#CF6F64"/>
<path d="M132.009 122.924C132.009 122.924 120.414 161.655 114.748 183.981C108.775 207.512 80.2492 226.698 80.2492 226.698L74.1589 220.66C74.1589 220.66 93.2275 204.599 99.0469 182.645C110.803 138.059 105.152 128.619 114.521 119.551L132.009 122.924Z" fill="#407BFF"/>
<path opacity="0.6" d="M132.009 122.924C132.009 122.924 120.414 161.655 114.748 183.981C108.775 207.512 80.2492 226.698 80.2492 226.698L74.1589 220.66C74.1589 220.66 93.2275 204.599 99.0469 182.645C110.803 138.059 105.152 128.619 114.521 119.551L132.009 122.924Z" fill="black"/>
<path d="M73.2366 230.706L69.8182 224.866C69.7622 224.764 69.671 224.687 69.5619 224.648C69.4527 224.609 69.333 224.611 69.2253 224.654L64.3501 226.611C64.2291 226.668 64.1215 226.75 64.0342 226.851C63.9468 226.953 63.8818 227.071 63.8431 227.199C63.8045 227.327 63.7932 227.461 63.8099 227.594C63.8266 227.727 63.871 227.854 63.9402 227.969C65.17 229.976 65.8581 230.889 67.366 233.452C68.2956 235.029 69.4888 237.423 70.7625 239.599C72.0361 241.775 74.2102 240.665 73.8661 239.65C72.3289 235.087 73.1341 233.766 73.4343 231.736C73.4886 231.38 73.4188 231.017 73.2366 230.706Z" fill="#263238"/>
<path d="M80.7689 227.56L73.1708 220.018L75.235 217.733L84.4875 225.589L80.7689 227.56Z" fill="#F5F5F5"/>
<path opacity="0.3" d="M126.563 131.174C118.957 137.015 118.445 159.326 118.621 169.401C122.493 155.318 127.068 139.643 129.74 130.583C129.008 129.955 127.961 130.094 126.563 131.174Z" fill="black"/>
<path d="M74.4664 233.89C74.3942 233.888 74.3226 233.876 74.2541 233.853C73.5221 233.634 73.017 232.313 72.7901 231.546C72.7817 231.519 72.7814 231.49 72.7892 231.463C72.797 231.436 72.8126 231.411 72.834 231.393C72.8564 231.377 72.8833 231.368 72.9109 231.368C72.9384 231.368 72.9653 231.377 72.9877 231.393C73.2073 231.502 75.1325 232.502 75.1837 233.262C75.1916 233.344 75.1782 233.426 75.1449 233.502C75.1116 233.577 75.0594 233.643 74.9934 233.692C74.845 233.816 74.6593 233.885 74.4664 233.89ZM73.1561 231.794C73.5148 232.809 73.9466 233.466 74.3346 233.59C74.4208 233.612 74.5111 233.611 74.597 233.588C74.6829 233.565 74.7614 233.521 74.825 233.459C74.8561 233.44 74.881 233.413 74.8967 233.381C74.9123 233.348 74.9179 233.312 74.9129 233.276C74.869 232.897 73.932 232.218 73.1561 231.794Z" fill="#407BFF"/>
<path d="M74.664 232.043C74.0307 232.041 73.4056 231.899 72.834 231.626C72.8144 231.612 72.7984 231.594 72.7874 231.572C72.7763 231.55 72.7706 231.526 72.7706 231.502C72.7706 231.478 72.7763 231.454 72.7874 231.433C72.7984 231.411 72.8144 231.392 72.834 231.378C72.8999 231.378 74.342 230.509 75.1618 230.779C75.268 230.81 75.366 230.863 75.4484 230.937C75.5308 231.01 75.5955 231.101 75.6376 231.203C75.6939 231.301 75.7152 231.415 75.6979 231.526C75.6806 231.638 75.6258 231.74 75.5424 231.816C75.2839 231.989 74.9741 232.069 74.664 232.043ZM73.2 231.495C73.8735 231.765 75.0374 231.875 75.3448 231.604C75.396 231.561 75.44 231.488 75.3448 231.32C75.3174 231.254 75.2756 231.194 75.2224 231.146C75.1693 231.098 75.106 231.063 75.0374 231.042C74.3932 231.006 73.753 231.164 73.2 231.495Z" fill="#407BFF"/>
<path d="M114.046 256.245L119.982 256.683L121.739 243.089L115.81 242.651L114.046 256.245Z" fill="#E58A7B"/>
<path d="M137.938 124.114C137.938 124.114 139.402 170.978 136.101 188.632C132.646 206.993 122.127 248.754 122.127 248.754L113.57 247.652C113.57 247.652 118.987 205.46 121.278 187.223C123.789 167.335 120.502 120.749 120.502 120.749L137.938 124.114Z" fill="#407BFF"/>
<path opacity="0.6" d="M137.938 124.114C137.938 124.114 139.402 170.978 136.101 188.632C132.646 206.993 122.127 248.754 122.127 248.754L113.57 247.652C113.57 247.652 118.987 205.46 121.278 187.223C123.789 167.335 120.502 120.749 120.502 120.749L137.938 124.114Z" fill="black"/>
<path d="M144.526 68.365C144.446 68.8396 144.636 69.263 144.943 69.3287C145.251 69.3944 145.566 69.0513 145.676 68.5987C145.786 68.146 145.566 67.7006 145.258 67.6422C144.951 67.5838 144.607 67.8978 144.526 68.365Z" fill="#263238"/>
<path d="M145.082 67.628L146.276 67.5181C146.276 67.5181 145.544 68.2943 145.082 67.628Z" fill="#263238"/>
<path d="M144.848 68.898C145.094 70.054 145.495 71.1715 146.042 72.2199C145.768 72.3446 145.471 72.4092 145.171 72.4092C144.87 72.4092 144.573 72.3446 144.299 72.2199L144.848 68.898Z" fill="#DF5753"/>
<path d="M145.668 66.4376C145.614 66.4377 145.56 66.4219 145.515 66.392C145.469 66.3622 145.433 66.3197 145.412 66.2697C145.274 65.9386 145.061 65.6434 144.791 65.4068C144.521 65.1701 144.2 64.9983 143.853 64.9044C143.817 64.8983 143.782 64.8851 143.751 64.8656C143.72 64.8461 143.693 64.8206 143.672 64.7908C143.651 64.761 143.636 64.7273 143.628 64.6916C143.62 64.656 143.619 64.6192 143.626 64.5832C143.64 64.51 143.682 64.4452 143.744 64.4029C143.806 64.3606 143.881 64.344 143.955 64.3569C144.393 64.4644 144.799 64.6731 145.141 64.9661C145.483 65.259 145.751 65.628 145.924 66.0434C145.954 66.1113 145.957 66.1882 145.931 66.2577C145.905 66.3273 145.852 66.384 145.785 66.4157L145.668 66.4376Z" fill="#263238"/>
<path d="M129.505 72.2783C129.615 75.8557 129.249 82.3097 126.438 84.1422C126.438 84.1422 126.804 87.7926 133.268 89.0702C140.376 90.4428 137.25 86.2302 137.25 86.2302C133.517 84.5583 134.095 81.7256 135.215 79.1776L129.505 72.2783Z" fill="#E58A7B"/>
<path d="M147.805 91.4211C149.269 92.5308 150.88 93.7062 152.468 94.7795C154.057 95.8527 155.682 96.9697 157.336 97.9407C158.99 98.9117 160.667 99.8682 162.35 100.766C164.028 101.631 165.751 102.406 167.511 103.088C167.665 103.146 167.613 103.088 167.65 103.139H167.745C167.84 103.153 167.936 103.153 168.031 103.139C168.323 103.14 168.615 103.111 168.902 103.051C169.679 102.862 170.432 102.588 171.149 102.234C172.807 101.394 174.391 100.418 175.885 99.3133C177.451 98.2109 178.981 97.0062 180.482 95.7505C181.983 94.4947 183.476 93.1879 184.911 91.8883L187.107 93.8961C184.596 97.1588 181.794 100.187 178.732 102.942C177.127 104.373 175.389 105.649 173.543 106.753C172.503 107.362 171.398 107.851 170.249 108.213C169.57 108.415 168.87 108.533 168.162 108.563C167.757 108.586 167.35 108.569 166.947 108.512C166.73 108.487 166.515 108.448 166.303 108.396C166.113 108.344 165.813 108.264 165.732 108.228C161.745 106.916 157.908 105.188 154.284 103.073C152.498 102.036 150.733 100.963 149.021 99.8097C147.308 98.6562 145.668 97.4808 143.992 96.1155L147.805 91.4211Z" fill="#E58A7B"/>
<path d="M184.464 92.4432L186.206 87.9678L189.866 91.6182C189.866 91.6182 188.131 94.9474 185.643 94.9547L184.464 92.4432Z" fill="#E58A7B"/>
<path d="M189.815 86.6755L193.292 87.7634L189.895 91.6109L186.221 87.9678L189.815 86.6755Z" fill="#E58A7B"/>
<path d="M120.348 255.836H113.68C113.563 255.835 113.45 255.875 113.361 255.95C113.273 256.025 113.214 256.13 113.197 256.245L112.296 261.509C112.278 261.64 112.289 261.774 112.328 261.902C112.366 262.029 112.432 262.146 112.52 262.246C112.608 262.346 112.717 262.426 112.839 262.48C112.96 262.534 113.092 262.561 113.226 262.56C115.554 262.524 116.674 262.385 119.609 262.385C121.41 262.385 125.143 262.575 127.661 262.575C130.179 262.575 130.347 260.114 129.315 259.888C124.689 258.895 122.896 257.515 121.358 256.201C121.078 255.96 120.718 255.83 120.348 255.836Z" fill="#263238"/>
<path d="M128.92 64.0283C128.327 69.869 127.946 72.3002 130.384 75.8265C134.044 81.1196 141.364 80.7911 143.728 75.3081C145.829 70.3801 146.459 61.6775 141.152 58.2899C140.023 57.5255 138.714 57.0674 137.354 56.9608C135.995 56.8542 134.63 57.1026 133.396 57.6818C132.161 58.2609 131.099 59.1507 130.315 60.2635C129.53 61.3764 129.049 62.6739 128.92 64.0283Z" fill="#E58A7B"/>
<path d="M129.564 76.7318C126.782 75.6002 124.184 71.1321 124.286 64.1452C124.389 57.1583 129.608 53.1063 138.926 56.0485C148.245 58.9908 138.655 80.4406 129.564 76.7318Z" fill="#263238"/>
<path d="M137.455 56.691C140.2 55.6178 146.276 56.9465 146.276 62.6485L140.368 67.4305L137.455 56.691Z" fill="#263238"/>
<path d="M136.686 56.6399C140.346 56.4282 141.766 56.4428 145.082 57.37C142.901 54.7563 138.817 55.6178 136.686 56.6399Z" fill="#263238"/>
<path d="M139.856 67.0655C139.742 68.1499 139.965 69.2429 140.493 70.1976C141.225 71.5409 142.33 71.3584 142.74 70.2706C143.113 69.2923 143.179 67.4159 142.154 66.4084C141.13 65.4009 140.032 65.8609 139.856 67.0655Z" fill="#E58A7B"/>
<path d="M124.865 58.9834C126.987 60.283 134.205 59.2098 135.764 56.4427C137.323 53.6757 131.936 49.047 127.053 49.2149C122.171 49.3828 120.136 56.0777 124.865 58.9834Z" fill="#407BFF"/>
<path d="M123.95 249.265L111.747 247.695L111.901 244.804L125.172 245.381L123.95 249.265Z" fill="#F5F5F5"/>
<path d="M122.559 256.873C121.931 256.862 121.306 256.791 120.692 256.661C120.664 256.656 120.637 256.642 120.617 256.621C120.598 256.6 120.585 256.573 120.582 256.544C120.579 256.515 120.584 256.486 120.597 256.46C120.61 256.434 120.63 256.412 120.656 256.398C120.926 256.259 123.327 255.047 124.045 255.456C124.112 255.493 124.169 255.546 124.209 255.612C124.249 255.677 124.27 255.752 124.272 255.829C124.286 255.955 124.269 256.084 124.222 256.202C124.174 256.32 124.099 256.425 124.001 256.508C123.577 256.793 123.067 256.922 122.559 256.873ZM121.161 256.464C122.471 256.683 123.445 256.624 123.818 256.303C123.881 256.247 123.93 256.177 123.96 256.098C123.991 256.019 124.002 255.934 123.994 255.851C123.994 255.82 123.986 255.789 123.97 255.762C123.955 255.735 123.933 255.713 123.906 255.697C123.518 255.478 122.149 255.997 121.161 256.464Z" fill="#407BFF"/>
<path d="M120.721 256.661C120.693 256.668 120.663 256.668 120.634 256.661C120.615 256.645 120.6 256.625 120.591 256.602C120.582 256.579 120.579 256.554 120.582 256.53C120.582 256.427 120.868 254.003 122.193 254.003H122.31C122.691 254.04 122.8 254.237 122.83 254.39C122.939 255.062 121.497 256.347 120.78 256.668L120.721 256.661ZM122.185 254.266C121.329 254.266 120.992 255.668 120.883 256.274C121.615 255.829 122.603 254.814 122.537 254.42C122.537 254.42 122.537 254.295 122.266 254.266H122.185Z" fill="#407BFF"/>
<path d="M116.161 83.4778C112.04 83.6676 108.109 90.4793 108.109 90.4793L113.548 101.562C113.548 101.562 120.919 95.4365 121.014 89.4133C121.095 85.5001 120.209 83.2952 116.161 83.4778Z" fill="#407BFF"/>
<path opacity="0.8" d="M116.161 83.4778C112.04 83.6676 108.109 90.4793 108.109 90.4793L113.548 101.562C113.548 101.562 120.919 95.4365 121.014 89.4133C121.095 85.5001 120.209 83.2952 116.161 83.4778Z" fill="white"/>
<path d="M114.492 119.537L138.297 124.136C149.54 91.1071 146.854 90.0412 146.854 90.0412C145.105 89.0994 143.301 88.2631 141.452 87.537L141.122 87.4129C139.607 86.8654 139.285 86.7778 137.243 86.1864C133.736 85.3614 130.472 84.6897 126.431 84.1056L125.663 83.9961C124.931 83.9085 124.199 83.8282 123.503 83.7625C123.035 83.7114 122.559 83.6822 122.112 83.6457L120.575 83.5654C117.969 83.434 116.11 83.4778 116.11 83.4778C117.471 104.088 116.476 110.009 114.492 119.537Z" fill="#407BFF"/>
<path opacity="0.6" d="M114.492 119.537L138.297 124.136C149.54 91.1071 146.854 90.0412 146.854 90.0412C145.105 89.0994 143.301 88.2631 141.452 87.537L141.122 87.4129C139.607 86.8654 139.285 86.7778 137.243 86.1864C133.736 85.3614 130.472 84.6897 126.431 84.1056L125.663 83.9961C124.931 83.9085 124.199 83.8282 123.503 83.7625C123.035 83.7114 122.559 83.6822 122.112 83.6457L120.575 83.5654C117.969 83.434 116.11 83.4778 116.11 83.4778C117.471 104.088 116.476 110.009 114.492 119.537Z" fill="white"/>
<path opacity="0.2" d="M141.049 97.9845C141.993 99.8389 143.113 102.299 144.614 104C145.046 102.438 145.405 101.08 145.712 99.817L141.049 97.9845Z" fill="#407BFF"/>
<path d="M121.966 102.942C127.902 98.2619 129.154 93.9106 128.327 90.1069C127.5 86.3032 126.548 79.6667 127.229 77.4472C127.91 75.2278 130.281 70.621 129.798 66.6858C129.315 62.7507 128.188 57.2823 129.271 54.9169C130.355 52.5514 133.795 51.1496 131.006 47.7912C129.652 46.1632 123.913 45.9149 122.412 50.4561C120.912 54.9972 114.748 56.9611 112.325 57.4137C109.903 57.8664 105.635 60.5823 104.896 65.0066C104.156 69.4309 101.177 71.1758 97.0852 73.4464C92.9933 75.717 87.108 84.6167 89.4504 92.5162C92.6127 103.329 113.123 109.936 121.966 102.942Z" fill="#263238"/>
<path d="M139.812 88.0408C141.657 86.5807 149.599 91.3846 152.029 93.3923L150.609 103.803C150.609 103.803 139.263 99.1162 138.487 95.9111C137.653 92.5746 138.348 89.1579 139.812 88.0408Z" fill="#407BFF"/>
<path opacity="0.6" d="M139.812 88.0408C141.657 86.5807 149.599 91.3846 152.029 93.3923L150.609 103.803C150.609 103.803 139.263 99.1162 138.487 95.9111C137.653 92.5746 138.348 89.1579 139.812 88.0408Z" fill="white"/>
<path d="M114.36 118.084L112.94 119.989C112.831 120.135 112.999 120.34 113.27 120.398L138.238 125.217C138.451 125.26 138.648 125.217 138.685 125.056L139.248 122.983C139.285 122.844 139.124 122.683 138.89 122.639L114.778 117.982C114.705 117.96 114.628 117.958 114.555 117.976C114.482 117.994 114.415 118.031 114.36 118.084Z" fill="#407BFF"/>
<path d="M117.157 121.384L116.513 121.26C116.388 121.26 116.3 121.15 116.322 121.07L117.054 118.383C117.054 118.303 117.201 118.259 117.333 118.281L117.977 118.405C118.101 118.405 118.189 118.515 118.167 118.595L117.435 121.282C117.413 121.362 117.289 121.406 117.157 121.384Z" fill="#407BFF"/>
<path d="M133.466 124.567L132.814 124.443C132.69 124.443 132.602 124.333 132.624 124.253L133.356 121.566C133.356 121.493 133.502 121.449 133.634 121.471L134.279 121.595C134.41 121.595 134.498 121.705 134.476 121.785L133.744 124.472C133.715 124.552 133.59 124.596 133.466 124.567Z" fill="#407BFF"/>
<path opacity="0.6" d="M117.157 121.384L116.513 121.26C116.388 121.26 116.3 121.15 116.322 121.07L117.054 118.383C117.054 118.303 117.201 118.259 117.333 118.281L117.977 118.405C118.101 118.405 118.189 118.515 118.167 118.595L117.435 121.282C117.413 121.362 117.289 121.406 117.157 121.384Z" fill="black"/>
<path opacity="0.6" d="M133.466 124.567L132.814 124.443C132.69 124.443 132.602 124.333 132.624 124.253L133.356 121.566C133.356 121.493 133.502 121.449 133.634 121.471L134.279 121.595C134.41 121.595 134.498 121.705 134.476 121.785L133.744 124.472C133.715 124.552 133.59 124.596 133.466 124.567Z" fill="black"/>
</svg>
