<svg width="216" height="33" viewBox="0 0 216 33" fill="none" xmlns="http://www.w3.org/2000/svg">
<path d="M42.9683 25.5006L44.9543 23.0549C47.0787 25.0644 49.9036 26.1616 52.8252 26.1121C53.774 26.1395 54.7193 25.9831 55.6089 25.6515C56.2708 25.4044 56.8532 24.9817 57.2938 24.4286C57.6559 23.9617 57.8559 23.3893 57.8635 22.7981C57.8685 22.1729 57.6887 21.5602 57.3467 21.0372C56.872 20.389 56.2534 19.8601 55.5397 19.4923C54.3801 18.868 53.1631 18.3575 51.9054 17.9678C50.2513 17.431 48.6624 16.7105 47.1682 15.8197C46.1678 15.2511 45.3276 14.4377 44.7264 13.4555C44.2555 12.594 44.0157 11.6249 44.0305 10.6429C44.0216 9.44156 44.3872 8.26739 45.0764 7.2841C45.8309 6.23742 46.8471 5.408 48.0229 4.87914C49.3781 4.25383 50.8572 3.94443 52.349 3.97422C53.8174 3.98664 55.2716 4.26276 56.6426 4.78946C58.0663 5.31065 59.3864 6.08077 60.5414 7.06399L58.592 9.61976C57.7347 8.78018 56.7304 8.10588 55.6292 7.63058C54.5115 7.15333 53.3076 6.91189 52.0926 6.92132C50.5081 6.92132 49.3198 7.25828 48.5275 7.93222C48.1644 8.2111 47.8688 8.56861 47.663 8.97802C47.4573 9.38742 47.3465 9.83812 47.3392 10.2964C47.3446 10.831 47.5121 11.3512 47.8194 11.7883C48.268 12.3679 48.8448 12.8353 49.5043 13.1538C50.595 13.7117 51.7337 14.1701 52.9066 14.5234C54.6641 15.0355 56.343 15.7871 57.8961 16.7572C58.972 17.4186 59.8825 18.318 60.5577 19.3863C61.0911 20.2825 61.3723 21.3065 61.3716 22.3497C61.382 23.5749 61.0247 24.7748 60.3461 25.7941C59.5991 26.8895 58.5598 27.7525 57.3467 28.2847C55.8325 28.9401 54.1932 29.2546 52.5444 29.2059C51.34 29.2039 50.1412 29.0422 48.9793 28.7249C47.8143 28.4195 46.6889 27.979 45.6258 27.4124C44.6547 26.9033 43.7601 26.2598 42.9683 25.5006Z" fill="#EDEDED"/>
<path d="M65.2745 19.7084C65.2155 17.9151 65.5794 16.1332 66.3367 14.5072C66.9733 13.1755 67.9829 12.0581 69.2425 11.291C70.5324 10.5692 71.9853 10.1902 73.4628 10.1902C74.9404 10.1902 76.3933 10.5692 77.6832 11.291C78.9394 12.0597 79.946 13.1769 80.5808 14.5072C81.3358 16.134 81.6996 17.9153 81.643 19.7084C81.6976 21.5013 81.3339 23.2822 80.5808 24.9096C79.9483 26.2443 78.9359 27.3618 77.6709 28.1217C76.3777 28.8332 74.9261 29.2062 73.4506 29.2062C71.9751 29.2062 70.5235 28.8332 69.2303 28.1217C67.9711 27.3597 66.9645 26.2423 66.3367 24.9096C65.5817 23.2828 65.2179 21.5015 65.2745 19.7084V19.7084ZM68.6076 19.7084C68.5724 20.9366 68.7684 22.1604 69.1855 23.3158C69.5087 24.2106 70.0893 24.9893 70.8541 25.5537C71.6326 26.0516 72.5371 26.3162 73.4608 26.3162C74.3845 26.3162 75.289 26.0516 76.0675 25.5537C76.8299 24.9878 77.4088 24.2094 77.732 23.3158C78.1519 22.1609 78.3507 20.9371 78.318 19.7084C78.3502 18.4811 78.1514 17.2587 77.732 16.105C77.4058 15.2075 76.8278 14.4234 76.0675 13.8468C75.2928 13.3386 74.3869 13.0679 73.4608 13.0679C72.5347 13.0679 71.6288 13.3386 70.8541 13.8468C70.0915 14.422 69.5118 15.2064 69.1855 16.105C68.7689 17.2592 68.5729 18.4816 68.6076 19.7084V19.7084Z" fill="#EDEDED"/>
<path d="M86.6247 21.7707V10.5448H89.8805V21.3427C89.8805 23.003 90.2413 24.2109 90.963 24.9664C91.3203 25.3424 91.7531 25.6382 92.233 25.8343C92.7129 26.0303 93.2288 26.1221 93.7467 26.1037C94.7088 26.0997 95.652 25.8364 96.4775 25.3414C97.4094 24.784 98.2473 24.0824 98.9601 23.2626V25.8183C98.207 26.7942 97.2814 27.6232 96.2293 28.2641C95.2423 28.8581 94.1171 29.1824 92.9659 29.2046C91.8147 29.2268 90.6778 28.946 89.6688 28.3904C88.6915 27.8126 87.9124 26.9512 87.4345 25.9202C86.8494 24.6179 86.5723 23.1978 86.6247 21.7707V21.7707ZM99.1798 28.8388L98.4351 25.2843V10.5448H101.691V24.5017C101.691 24.999 101.691 25.4556 101.744 25.8672C101.797 26.2789 101.845 26.7518 101.939 27.2695L102.224 28.8347L99.1798 28.8388Z" fill="#EDEDED"/>
<path d="M105.406 26.2098L108.813 22.2315C109.231 22.8149 109.776 23.2946 110.408 23.6337C111.082 24.0028 111.838 24.1923 112.606 24.184C113.17 24.2154 113.734 24.1221 114.258 23.9108C114.782 23.6995 115.253 23.3752 115.638 22.9611C116.358 22.1459 116.72 20.9719 116.72 19.4107V4.3288H122.394V20.1363C122.447 21.8788 121.997 23.5997 121.099 25.093C120.258 26.4368 119.052 27.5138 117.624 28.199C116.114 28.9221 114.458 29.2876 112.785 29.267C111.371 29.2885 109.969 29.0107 108.67 28.4518C107.452 27.915 106.345 27.1546 105.406 26.2098V26.2098ZM110.921 8.60473V4.3288H120.497V8.60473H110.921Z" fill="#EDEDED"/>
<path d="M127.554 21.7707V10.1902H132.873V20.9514C132.873 22.1118 133.151 22.9705 133.707 23.5276C134.002 23.8074 134.351 24.024 134.732 24.1641C135.114 24.3043 135.52 24.3651 135.925 24.3428C136.656 24.3372 137.377 24.1672 138.033 23.8455C138.758 23.4933 139.395 22.9836 139.897 22.3536V25.8714C139.2 26.8347 138.334 27.6633 137.342 28.3171C136.335 28.9557 135.163 29.2832 133.972 29.2587C132.885 29.2629 131.816 28.9818 130.871 28.4435C129.853 27.8487 129.023 26.9802 128.474 25.9366C127.818 24.6489 127.502 23.2151 127.554 21.7707V21.7707ZM140.04 28.8388L139.364 25.2844V10.2024H144.683V24.3999C144.683 24.8972 144.683 25.3415 144.736 25.7287C144.789 26.1159 144.838 26.5766 144.932 27.0983L145.217 28.8388H140.04Z" fill="#EDEDED"/>
<path d="M149.469 10.191H154.65L155.322 13.7414V28.8233H150.003V14.63C150.003 14.1327 150.003 13.6884 149.95 13.297C149.897 12.9057 149.848 12.4533 149.754 11.9315L149.469 10.191ZM154.793 16.6558V13.1381C155.497 12.1637 156.381 11.3335 157.397 10.6924C158.425 10.0581 159.613 9.73141 160.82 9.75075C161.966 9.74971 163.09 10.0596 164.074 10.6474C165.058 11.2352 165.864 12.079 166.408 13.0892C167.078 14.375 167.402 15.8137 167.348 17.2632V28.8396H162.029V18.0744C162.054 17.4053 161.914 16.7403 161.622 16.1382C161.376 15.6578 160.986 15.267 160.507 15.0213C159.999 14.7774 159.442 14.656 158.879 14.6667C158.097 14.6812 157.327 14.8668 156.624 15.2104C155.921 15.554 155.302 16.0473 154.809 16.6558H154.793Z" fill="#EDEDED"/>
<path d="M172.097 4.82629C172.093 4.42867 172.168 4.03419 172.317 3.66552C172.465 3.29686 172.685 2.96129 172.964 2.67813C173.548 2.09567 174.338 1.76862 175.162 1.76862C175.986 1.76862 176.776 2.09567 177.359 2.67813C177.635 2.96249 177.853 3.29863 177.999 3.66727C178.145 4.0359 178.216 4.42978 178.21 4.82629C178.215 5.22362 178.141 5.61794 177.993 5.98659C177.845 6.35524 177.625 6.69095 177.347 6.97445C176.763 7.55025 175.976 7.87293 175.156 7.87293C174.336 7.87293 173.549 7.55025 172.964 6.97445C172.686 6.69115 172.466 6.35557 172.317 5.98693C172.168 5.6183 172.094 5.22388 172.097 4.82629V4.82629ZM172.504 28.8392V10.1906H177.828V28.8392H172.504Z" fill="#EDEDED"/>
<path d="M181.816 19.5337C181.765 17.7224 182.168 15.9272 182.988 14.3121C183.728 12.898 184.858 11.7265 186.244 10.937C187.703 10.1556 189.332 9.74673 190.987 9.74673C192.642 9.74673 194.271 10.1556 195.73 10.937C197.099 11.7344 198.214 12.9048 198.945 14.3121C199.763 15.9224 200.166 17.7116 200.117 19.5174C200.163 21.3112 199.76 23.0878 198.945 24.686C198.211 26.0949 197.092 27.2655 195.718 28.0611C194.259 28.8426 192.63 29.2514 190.975 29.2514C189.32 29.2514 187.691 28.8426 186.231 28.0611C184.846 27.2716 183.716 26.1001 182.976 24.686C182.168 23.0916 181.77 21.3209 181.816 19.5337V19.5337ZM187.208 19.5337C187.177 20.5828 187.332 21.6292 187.668 22.6235C187.909 23.3382 188.367 23.9595 188.979 24.4007C189.576 24.771 190.264 24.9672 190.967 24.9672C191.669 24.9672 192.357 24.771 192.955 24.4007C193.566 23.9595 194.024 23.3382 194.265 22.6235C194.603 21.6297 194.759 20.583 194.725 19.5337C194.759 18.4844 194.603 17.4377 194.265 16.4439C194.022 15.7249 193.564 15.0976 192.955 14.6463C192.361 14.2658 191.671 14.0635 190.967 14.0635C190.262 14.0635 189.572 14.2658 188.979 14.6463C188.369 15.0976 187.912 15.7249 187.668 16.4439C187.332 17.4382 187.176 18.4846 187.208 19.5337V19.5337Z" fill="#EDEDED"/>
<path d="M203.593 10.1907H208.778L209.445 13.9041V28.823H204.126V14.6297C204.126 14.1324 204.106 13.6881 204.073 13.2968C204.04 12.9055 203.971 12.453 203.878 11.9313L203.593 10.1907ZM208.912 17.1896V13.8471C209.57 12.6484 210.5 11.6209 211.626 10.847C212.674 10.137 213.91 9.75915 215.175 9.76272V15.021C213.993 14.992 212.814 15.1474 211.679 15.4816C210.65 15.8547 209.708 16.436 208.912 17.1896V17.1896Z" fill="#EDEDED"/>
<path d="M7.26042 23.3439H2.02673C0.907399 23.3439 0 24.2527 0 25.3739V30.6158C0 31.737 0.907399 32.6458 2.02673 32.6458H7.26042C8.37976 32.6458 9.28715 31.737 9.28715 30.6158V25.3739C9.28715 24.2527 8.37976 23.3439 7.26042 23.3439Z" fill="#EDEDED"/>
<path d="M18.5214 11.8498H13.2877C12.1684 11.8498 11.261 12.7587 11.261 13.8798V19.1218C11.261 20.2429 12.1684 21.1517 13.2877 21.1517H18.5214C19.6407 21.1517 20.5481 20.2429 20.5481 19.1218V13.8798C20.5481 12.7587 19.6407 11.8498 18.5214 11.8498Z" fill="#EDEDED"/>
<path d="M29.9736 0.354614H24.7399C23.6205 0.354614 22.7131 1.26345 22.7131 2.38456V7.62656C22.7131 8.74767 23.6205 9.65651 24.7399 9.65651H29.9736C31.0929 9.65651 32.0003 8.74767 32.0003 7.62656V2.38456C32.0003 1.26345 31.0929 0.354614 29.9736 0.354614Z" fill="#EDEDED"/>
<path d="M18.5214 23.3439H13.2877C12.1684 23.3439 11.261 24.2527 11.261 25.3739V30.6158C11.261 31.737 12.1684 32.6458 13.2877 32.6458H18.5214C19.6407 32.6458 20.5481 31.737 20.5481 30.6158V25.3739C20.5481 24.2527 19.6407 23.3439 18.5214 23.3439Z" fill="#EDEDED"/>
<path d="M29.9736 11.8498H24.7399C23.6205 11.8498 22.7131 12.7587 22.7131 13.8798V19.1218C22.7131 20.2429 23.6205 21.1517 24.7399 21.1517H29.9736C31.0929 21.1517 32.0003 20.2429 32.0003 19.1218V13.8798C32.0003 12.7587 31.0929 11.8498 29.9736 11.8498Z" fill="#EDEDED"/>
<path d="M7.26042 11.8498H2.02673C0.907399 11.8498 0 12.7587 0 13.8798V19.1218C0 20.2429 0.907399 21.1517 2.02673 21.1517H7.26042C8.37976 21.1517 9.28715 20.2429 9.28715 19.1218V13.8798C9.28715 12.7587 8.37976 11.8498 7.26042 11.8498Z" fill="#EDEDED"/>
<path d="M18.5214 0.354614H13.2877C12.1684 0.354614 11.261 1.26345 11.261 2.38456V7.62656C11.261 8.74767 12.1684 9.65651 13.2877 9.65651H18.5214C19.6407 9.65651 20.5481 8.74767 20.5481 7.62656V2.38456C20.5481 1.26345 19.6407 0.354614 18.5214 0.354614Z" fill="#EDEDED"/>
</svg>
