<svg width="228" height="224" viewBox="0 0 228 224" fill="none" xmlns="http://www.w3.org/2000/svg">
<path d="M162.857 120.143C154.533 112.543 146.436 105.079 138.564 97.7501C130.693 90.4215 123.726 83.2286 117.664 76.1715C111.602 69.1144 106.762 62.2834 103.143 55.6786C99.5238 49.0739 97.7143 42.6953 97.7143 36.5429C97.7143 26.4096 101.152 17.9048 108.029 11.0286C114.905 4.15245 123.41 0.714355 133.543 0.714355C139.333 0.714355 144.762 1.93578 149.829 4.37864C154.895 6.8215 159.238 10.1239 162.857 14.2858C166.476 10.1239 170.819 6.8215 175.886 4.37864C180.952 1.93578 186.381 0.714355 192.171 0.714355C202.305 0.714355 210.81 4.15245 217.686 11.0286C224.562 17.9048 228 26.4096 228 36.5429C228 42.6953 226.19 49.0739 222.571 55.6786C218.952 62.2834 214.112 69.1144 208.05 76.1715C201.988 83.2286 195.067 90.4215 187.286 97.7501C179.505 105.079 171.362 112.543 162.857 120.143ZM162.857 90.8286C173.533 80.6953 183.44 70.6072 192.579 60.5644C201.717 50.5215 206.286 42.5144 206.286 36.5429C206.286 32.381 204.974 28.9882 202.35 26.3644C199.726 23.7405 196.333 22.4286 192.171 22.4286C189.638 22.4286 187.24 22.9263 184.979 23.9215C182.717 24.9167 180.771 26.4096 179.143 28.4001L162.857 47.9429L146.571 28.4001C144.943 26.4096 142.998 24.9167 140.736 23.9215C138.474 22.9263 136.076 22.4286 133.543 22.4286C129.381 22.4286 125.988 23.7405 123.364 26.3644C120.74 28.9882 119.429 32.381 119.429 36.5429C119.429 42.5144 123.998 50.5215 133.136 60.5644C142.274 70.6072 152.181 80.6953 162.857 90.8286ZM141.143 223.286L65.1429 202.114V217.857H0V98.4286H86.3143L153.629 123.4C159.6 125.571 164.44 129.371 168.15 134.8C171.86 140.229 173.714 146.2 173.714 152.714H195.429C204.476 152.714 212.167 155.7 218.5 161.671C224.833 167.643 228 175.514 228 185.286V196.143L141.143 223.286ZM21.7143 196.143H43.4286V120.143H21.7143V196.143ZM140.6 200.486L205.2 180.4C204.657 178.41 203.436 176.917 201.536 175.921C199.636 174.926 197.6 174.429 195.429 174.429H143.314C137.705 174.429 132.638 174.067 128.114 173.343C123.59 172.619 118.705 171.352 113.457 169.543L94.7286 163.029L100.971 142.4L122.686 149.457C125.943 150.543 129.743 151.357 134.086 151.9C138.429 152.443 144.4 152.714 152 152.714C152 150.724 151.412 148.824 150.236 147.014C149.06 145.205 147.657 144.029 146.029 143.486L82.5143 120.143H65.1429V179.857L140.6 200.486Z" fill="#EDEDED"/>
</svg>
