<svg width="217" height="35" viewBox="0 0 217 35" fill="none" xmlns="http://www.w3.org/2000/svg">
<path d="M43.9684 26.5004L45.9544 24.0547C48.0788 26.0641 50.9037 27.1614 53.8253 27.1119C54.7741 27.1393 55.7194 26.9829 56.609 26.6513C57.2709 26.4042 57.8534 25.9815 58.2939 25.4284C58.656 24.9615 58.856 24.389 58.8636 23.7979C58.8686 23.1727 58.6888 22.56 58.3468 22.037C57.8721 21.3888 57.2535 20.8599 56.5398 20.4921C55.3803 19.8678 54.1632 19.3573 52.9055 18.9676C51.2514 18.4308 49.6625 17.7102 48.1683 16.8195C47.1679 16.2509 46.3277 15.4375 45.7265 14.4553C45.2556 13.5938 45.0158 12.6247 45.0306 11.6427C45.0217 10.4413 45.3874 9.26718 46.0765 8.28389C46.831 7.23721 47.8472 6.40779 49.023 5.87893C50.3782 5.25362 51.8573 4.94422 53.3491 4.97401C54.8175 4.98642 56.2717 5.26254 57.6427 5.78925C59.0664 6.31044 60.3865 7.08055 61.5415 8.06377L59.5921 10.6196C58.7348 9.77997 57.7305 9.10567 56.6293 8.63036C55.5116 8.15312 54.3077 7.91168 53.0927 7.9211C51.5082 7.9211 50.3199 8.25807 49.5276 8.932C49.1645 9.21089 48.8689 9.5684 48.6632 9.9778C48.4574 10.3872 48.3466 10.8379 48.3393 11.2962C48.3447 11.8308 48.5122 12.351 48.8195 12.7881C49.2681 13.3677 49.8449 13.8351 50.5044 14.1536C51.5951 14.7115 52.7338 15.1699 53.9067 15.5232C55.6642 16.0353 57.3431 16.7869 58.8962 17.757C59.9721 18.4184 60.8826 19.3178 61.5578 20.3861C62.0912 21.2823 62.3724 22.3063 62.3717 23.3495C62.3821 24.5746 62.0248 25.7746 61.3462 26.7939C60.5992 27.8893 59.5599 28.7523 58.3468 29.2845C56.8326 29.9399 55.1933 30.2544 53.5445 30.2057C52.3401 30.2037 51.1413 30.042 49.9794 29.7247C48.8144 29.4193 47.689 28.9788 46.6259 28.4122C45.6548 27.9031 44.7602 27.2595 43.9684 26.5004Z" fill="#1165BA"/>
<path d="M66.2746 20.7082C66.2155 18.9149 66.5795 17.133 67.3368 15.507C67.9734 14.1753 68.983 13.0579 70.2426 12.2908C71.5324 11.569 72.9854 11.19 74.4629 11.19C75.9404 11.19 77.3934 11.569 78.6832 12.2908C79.9395 13.0594 80.9461 14.1767 81.5809 15.507C82.3359 17.1337 82.6997 18.9151 82.6431 20.7082C82.6977 22.5011 82.334 24.282 81.5809 25.9094C80.9483 27.244 79.9359 28.3616 78.671 29.1215C77.3778 29.8329 75.9262 30.206 74.4507 30.206C72.9752 30.206 71.5236 29.8329 70.2304 29.1215C68.9712 28.3595 67.9646 27.2421 67.3368 25.9094C66.5818 24.2826 66.218 22.5012 66.2746 20.7082ZM69.6077 20.7082C69.5724 21.9363 69.7685 23.1602 70.1856 24.3156C70.5088 25.2103 71.0894 25.9891 71.8542 26.5535C72.6327 27.0514 73.5372 27.316 74.4609 27.316C75.3846 27.316 76.289 27.0514 77.0675 26.5535C77.8299 25.9876 78.4089 25.2092 78.7321 24.3156C79.1519 23.1607 79.3508 21.9369 79.3181 20.7082C79.3502 19.4809 79.1514 18.2585 78.7321 17.1048C78.4059 16.2073 77.8279 15.4231 77.0675 14.8466C76.2929 14.3384 75.3869 14.0677 74.4609 14.0677C73.5348 14.0677 72.6289 14.3384 71.8542 14.8466C71.0915 15.4218 70.5119 16.2062 70.1856 17.1048C69.769 18.259 69.573 19.4814 69.6077 20.7082Z" fill="#1165BA"/>
<path d="M87.6246 22.7704V11.5446H90.8804V22.3424C90.8804 24.0028 91.2412 25.2107 91.9629 25.9662C92.3202 26.3422 92.7531 26.638 93.2329 26.8341C93.7128 27.0301 94.2287 27.1219 94.7467 27.1035C95.7087 27.0995 96.652 26.8362 97.4774 26.3412C98.4093 25.7838 99.2472 25.0822 99.96 24.2623V26.8181C99.207 27.794 98.2813 28.623 97.2292 29.2638C96.2423 29.8579 95.117 30.1822 93.9658 30.2044C92.8146 30.2266 91.6777 29.9458 90.6688 29.3902C89.6915 28.8124 88.9123 27.951 88.4345 26.92C87.8494 25.6177 87.5722 24.1976 87.6246 22.7704ZM100.18 29.8386L99.435 26.2841V11.5446H102.691V25.5015C102.691 25.9988 102.691 26.4553 102.744 26.867C102.797 27.2787 102.845 27.7516 102.939 28.2692L103.224 29.8345L100.18 29.8386Z" fill="#1165BA"/>
<path d="M106.406 27.2096L109.813 23.2313C110.231 23.8147 110.776 24.2944 111.408 24.6335C112.081 25.0026 112.838 25.1921 113.606 25.1838C114.17 25.2152 114.734 25.1219 115.258 24.9106C115.782 24.6993 116.253 24.375 116.638 23.9609C117.358 23.1457 117.72 21.9717 117.72 20.4105V5.32858H123.394V21.1361C123.447 22.8786 122.997 24.5994 122.099 26.0928C121.258 27.4366 120.052 28.5136 118.624 29.1988C117.114 29.9219 115.458 30.2873 113.785 30.2668C112.371 30.2883 110.969 30.0105 109.67 29.4515C108.452 28.9148 107.345 28.1544 106.406 27.2096ZM111.921 9.60452V5.32858H121.497V9.60452H111.921Z" fill="#1165BA"/>
<path d="M128.554 22.7705V11.19H133.873V21.9512C133.873 23.1115 134.151 23.9703 134.707 24.5273C135.002 24.8071 135.351 25.0238 135.732 25.1639C136.114 25.3041 136.52 25.3649 136.925 25.3426C137.656 25.3369 138.377 25.167 139.034 24.8453C139.758 24.493 140.395 23.9834 140.897 23.3534V26.8712C140.2 27.8345 139.334 28.6631 138.342 29.3169C137.335 29.9555 136.163 30.283 134.972 30.2585C133.885 30.2627 132.816 29.9816 131.871 29.4432C130.853 28.8485 130.023 27.98 129.474 26.9364C128.818 25.6487 128.502 24.2149 128.554 22.7705ZM141.04 29.8386L140.364 26.2842V11.2022H145.683V25.3996C145.683 25.8969 145.683 26.3413 145.736 26.7285C145.789 27.1157 145.838 27.5763 145.932 28.0981L146.217 29.8386H141.04Z" fill="#1165BA"/>
<path d="M150.469 11.1908H155.65L156.322 14.7411V29.8231H151.003V15.6298C151.003 15.1325 151.003 14.6881 150.95 14.2968C150.897 13.9055 150.848 13.4531 150.754 12.9313L150.469 11.1908ZM155.793 17.6556V14.1379C156.497 13.1635 157.381 12.3333 158.397 11.6921C159.425 11.0579 160.613 10.7312 161.82 10.7505C162.966 10.7495 164.09 11.0593 165.074 11.6472C166.058 12.235 166.864 13.0788 167.408 14.0889C168.078 15.3748 168.402 16.8134 168.348 18.263V29.8394H163.029V19.0741C163.054 18.4051 162.914 17.7401 162.622 17.1379C162.376 16.6576 161.986 16.2668 161.507 16.0211C160.999 15.7772 160.442 15.6558 159.879 15.6664C159.097 15.681 158.327 15.8666 157.624 16.2102C156.921 16.5538 156.302 17.0471 155.809 17.6556H155.793Z" fill="#1165BA"/>
<path d="M173.097 5.82608C173.093 5.42846 173.168 5.03397 173.316 4.66531C173.465 4.29665 173.685 3.96108 173.964 3.67792C174.548 3.09546 175.338 2.7684 176.162 2.7684C176.986 2.7684 177.776 3.09546 178.359 3.67792C178.635 3.96228 178.853 4.29842 178.999 4.66705C179.144 5.03569 179.216 5.42956 179.21 5.82608C179.215 6.22341 179.141 6.61773 178.993 6.98638C178.844 7.35503 178.625 7.69074 178.347 7.97424C177.763 8.55004 176.976 8.87272 176.156 8.87272C175.336 8.87272 174.549 8.55004 173.964 7.97424C173.686 7.69094 173.466 7.35535 173.317 6.98672C173.168 6.61809 173.093 6.22366 173.097 5.82608ZM173.504 29.839V11.1904H178.827V29.839H173.504Z" fill="#1165BA"/>
<path d="M182.816 20.5335C182.765 18.7222 183.168 16.927 183.988 15.3119C184.728 13.8978 185.858 12.7263 187.244 11.9368C188.703 11.1553 190.332 10.7465 191.987 10.7465C193.642 10.7465 195.271 11.1553 196.73 11.9368C198.099 12.7342 199.214 13.9046 199.945 15.3119C200.763 16.9222 201.166 18.7114 201.117 20.5172C201.163 22.3109 200.76 24.0876 199.945 25.6858C199.211 27.0947 198.092 28.2653 196.718 29.0609C195.259 29.8423 193.63 30.2512 191.975 30.2512C190.32 30.2512 188.691 29.8423 187.232 29.0609C185.846 28.2714 184.716 27.0999 183.976 25.6858C183.168 24.0914 182.77 22.3207 182.816 20.5335ZM188.208 20.5335C188.177 21.5826 188.332 22.629 188.668 23.6233C188.909 24.338 189.368 24.9593 189.979 25.4005C190.576 25.7708 191.264 25.967 191.967 25.967C192.669 25.967 193.358 25.7708 193.955 25.4005C194.566 24.9593 195.024 24.338 195.265 23.6233C195.603 22.6294 195.759 21.5827 195.725 20.5335C195.759 19.4842 195.603 18.4375 195.265 17.4437C195.022 16.7247 194.564 16.0974 193.955 15.6461C193.361 15.2656 192.671 15.0633 191.967 15.0633C191.262 15.0633 190.572 15.2656 189.979 15.6461C189.369 16.0974 188.912 16.7247 188.668 17.4437C188.332 18.4379 188.176 19.4843 188.208 20.5335Z" fill="#1165BA"/>
<path d="M204.593 11.1905H209.778L210.445 14.9039V29.8228H205.126V15.6295C205.126 15.1322 205.106 14.6879 205.073 14.2966C205.041 13.9053 204.971 13.4528 204.878 12.931L204.593 11.1905ZM209.912 18.1893V14.8469C210.57 13.6482 211.5 12.6207 212.627 11.8468C213.674 11.1367 214.911 10.7589 216.175 10.7625V16.0208C214.993 15.9917 213.814 16.1471 212.679 16.4814C211.65 16.8544 210.708 17.4358 209.912 18.1893Z" fill="#1165BA"/>
<path d="M8.26042 24.3437H3.02673C1.9074 24.3437 1 25.2525 1 26.3736V31.6156C1 32.7367 1.9074 33.6456 3.02673 33.6456H8.26042C9.37976 33.6456 10.2872 32.7367 10.2872 31.6156V26.3736C10.2872 25.2525 9.37976 24.3437 8.26042 24.3437Z" fill="#1165BA"/>
<path d="M19.5213 12.8496H14.2876C13.1683 12.8496 12.2609 13.7584 12.2609 14.8796V20.1216C12.2609 21.2427 13.1683 22.1515 14.2876 22.1515H19.5213C20.6407 22.1515 21.5481 21.2427 21.5481 20.1216V14.8796C21.5481 13.7584 20.6407 12.8496 19.5213 12.8496Z" fill="#1165BA"/>
<path d="M30.9736 1.3544H25.7399C24.6205 1.3544 23.7131 2.26324 23.7131 3.38435V8.62635C23.7131 9.74746 24.6205 10.6563 25.7399 10.6563H30.9736C32.0929 10.6563 33.0003 9.74746 33.0003 8.62635V3.38435C33.0003 2.26324 32.0929 1.3544 30.9736 1.3544Z" fill="#1165BA"/>
<path d="M19.5213 24.3437H14.2876C13.1683 24.3437 12.2609 25.2525 12.2609 26.3736V31.6156C12.2609 32.7367 13.1683 33.6456 14.2876 33.6456H19.5213C20.6407 33.6456 21.5481 32.7367 21.5481 31.6156V26.3736C21.5481 25.2525 20.6407 24.3437 19.5213 24.3437Z" stroke="#1165BA" stroke-width="0.830793" stroke-miterlimit="10"/>
<path d="M30.9736 12.8496H25.7399C24.6205 12.8496 23.7131 13.7584 23.7131 14.8796V20.1216C23.7131 21.2427 24.6205 22.1515 25.7399 22.1515H30.9736C32.0929 22.1515 33.0003 21.2427 33.0003 20.1216V14.8796C33.0003 13.7584 32.0929 12.8496 30.9736 12.8496Z" stroke="#1165BA" stroke-width="0.830793" stroke-miterlimit="10"/>
<path d="M8.26042 12.8496H3.02673C1.9074 12.8496 1 13.7584 1 14.8796V20.1216C1 21.2427 1.9074 22.1515 3.02673 22.1515H8.26042C9.37976 22.1515 10.2872 21.2427 10.2872 20.1216V14.8796C10.2872 13.7584 9.37976 12.8496 8.26042 12.8496Z" stroke="#1165BA" stroke-width="0.830793" stroke-miterlimit="10"/>
<path d="M19.5213 1.3544H14.2876C13.1683 1.3544 12.2609 2.26324 12.2609 3.38435V8.62635C12.2609 9.74746 13.1683 10.6563 14.2876 10.6563H19.5213C20.6407 10.6563 21.5481 9.74746 21.5481 8.62635V3.38435C21.5481 2.26324 20.6407 1.3544 19.5213 1.3544Z" stroke="#1165BA" stroke-width="0.830793" stroke-miterlimit="10"/>
</svg>
