<svg width="1696" height="879" viewBox="0 0 1696 879" fill="none" xmlns="http://www.w3.org/2000/svg">
<g clip-path="url(#clip0_2269_11032)">
<rect width="1696" height="879" fill="#2400FF"/>
<rect x="10.9297" width="1685.07" height="879" fill="url(#paint0_linear_2269_11032)" fill-opacity="0.5"/>
<rect width="1696" height="879" fill="url(#paint1_linear_2269_11032)" fill-opacity="0.75"/>
<g style="mix-blend-mode:soft-light">
<path d="M77.0599 -6.68888C76.2543 -10.4791 80.7694 -13.0859 83.649 -10.4931L100.708 4.86688C101.996 6.02642 103.884 6.22486 105.385 5.3584L125.264 -6.11918C128.62 -8.05663 132.495 -4.56802 130.918 -1.02812L121.582 19.9425C120.877 21.5255 121.272 23.3824 122.559 24.542L139.618 39.902C142.498 42.4948 140.377 47.2577 136.524 46.8526L113.694 44.4532C111.971 44.272 110.327 45.2212 109.622 46.8043L100.285 67.7749C98.7094 71.3148 93.5243 70.7698 92.7187 66.9796L87.946 44.5261C87.5857 42.831 86.1749 41.5608 84.4515 41.3796L61.6221 38.9801C57.7685 38.5751 56.6845 33.4754 60.0402 31.538L79.92 20.0604C81.4207 19.1939 82.1929 17.4597 81.8326 15.7646L77.0599 -6.68888Z" fill="#EDEDED"/>
</g>
<g style="mix-blend-mode:soft-light">
<path d="M183.06 96.3111C182.254 92.5209 186.769 89.9141 189.649 92.5069L206.708 107.867C207.996 109.026 209.884 109.225 211.385 108.358L231.264 96.8808C234.62 94.9434 238.495 98.432 236.918 101.972L227.582 122.942C226.877 124.526 227.272 126.382 228.559 127.542L245.618 142.902C248.498 145.495 246.377 150.258 242.524 149.853L219.694 147.453C217.971 147.272 216.327 148.221 215.622 149.804L206.285 170.775C204.709 174.315 199.524 173.77 198.719 169.98L193.946 147.526C193.586 145.831 192.175 144.561 190.452 144.38L167.622 141.98C163.768 141.575 162.684 136.475 166.04 134.538L185.92 123.06C187.421 122.194 188.193 120.46 187.833 118.765L183.06 96.3111Z" fill="#EDEDED"/>
</g>
<g style="mix-blend-mode:soft-light">
<path d="M289.06 199.311C288.254 195.521 292.769 192.914 295.649 195.507L312.708 210.867C313.996 212.026 315.884 212.225 317.385 211.358L337.264 199.881C340.62 197.943 344.495 201.432 342.918 204.972L333.582 225.942C332.877 227.526 333.272 229.382 334.559 230.542L351.618 245.902C354.498 248.495 352.377 253.258 348.524 252.853L325.694 250.453C323.971 250.272 322.327 251.221 321.622 252.804L312.285 273.775C310.709 277.315 305.524 276.77 304.719 272.98L299.946 250.526C299.586 248.831 298.175 247.561 296.452 247.38L273.622 244.98C269.768 244.575 268.684 239.475 272.04 237.538L291.92 226.06C293.421 225.194 294.193 223.46 293.833 221.765L289.06 199.311Z" fill="#EDEDED"/>
</g>
<g style="mix-blend-mode:soft-light">
<path d="M395.06 302.311C394.254 298.521 398.769 295.914 401.649 298.507L418.708 313.867C419.996 315.026 421.884 315.225 423.385 314.358L443.264 302.881C446.62 300.943 450.495 304.432 448.918 307.972L439.582 328.942C438.877 330.526 439.272 332.382 440.559 333.542L457.618 348.902C460.498 351.495 458.377 356.258 454.524 355.853L431.694 353.453C429.971 353.272 428.327 354.221 427.622 355.804L418.285 376.775C416.709 380.315 411.524 379.77 410.719 375.98L405.946 353.526C405.586 351.831 404.175 350.561 402.452 350.38L379.622 347.98C375.768 347.575 374.684 342.475 378.04 340.538L397.92 329.06C399.421 328.194 400.193 326.46 399.833 324.765L395.06 302.311Z" fill="#EDEDED"/>
</g>
<g style="mix-blend-mode:soft-light">
<path d="M501.06 405.311C500.254 401.521 504.769 398.914 507.649 401.507L524.708 416.867C525.996 418.026 527.884 418.225 529.385 417.358L549.264 405.881C552.62 403.943 556.495 407.432 554.918 410.972L545.582 431.942C544.877 433.526 545.272 435.382 546.559 436.542L563.618 451.902C566.498 454.495 564.377 459.258 560.524 458.853L537.694 456.453C535.971 456.272 534.327 457.221 533.622 458.804L524.285 479.775C522.709 483.315 517.524 482.77 516.719 478.98L511.946 456.526C511.586 454.831 510.175 453.561 508.452 453.38L485.622 450.98C481.768 450.575 480.684 445.475 484.04 443.538L503.92 432.06C505.421 431.194 506.193 429.46 505.833 427.765L501.06 405.311Z" fill="#EDEDED"/>
</g>
<g style="mix-blend-mode:soft-light">
<path d="M607.06 508.311C606.254 504.521 610.769 501.914 613.649 504.507L630.708 519.867C631.996 521.026 633.884 521.225 635.385 520.358L655.264 508.881C658.62 506.943 662.495 510.432 660.918 513.972L651.582 534.942C650.877 536.526 651.272 538.382 652.559 539.542L669.618 554.902C672.498 557.495 670.377 562.258 666.524 561.853L643.694 559.453C641.971 559.272 640.327 560.221 639.622 561.804L630.285 582.775C628.709 586.315 623.524 585.77 622.719 581.98L617.946 559.526C617.586 557.831 616.175 556.561 614.452 556.38L591.622 553.98C587.768 553.575 586.684 548.475 590.04 546.538L609.92 535.06C611.421 534.194 612.193 532.46 611.833 530.765L607.06 508.311Z" fill="#EDEDED"/>
</g>
<g style="mix-blend-mode:soft-light">
<path d="M713.06 611.311C712.254 607.521 716.769 604.914 719.649 607.507L736.708 622.867C737.996 624.026 739.884 624.225 741.385 623.358L761.264 611.881C764.62 609.943 768.495 613.432 766.918 616.972L757.582 637.942C756.877 639.526 757.272 641.382 758.559 642.542L775.618 657.902C778.498 660.495 776.377 665.258 772.524 664.853L749.694 662.453C747.971 662.272 746.327 663.221 745.622 664.804L736.285 685.775C734.709 689.315 729.524 688.77 728.719 684.98L723.946 662.526C723.586 660.831 722.175 659.561 720.452 659.38L697.622 656.98C693.768 656.575 692.684 651.475 696.04 649.538L715.92 638.06C717.421 637.194 718.193 635.46 717.833 633.765L713.06 611.311Z" fill="#EDEDED"/>
</g>
<g style="mix-blend-mode:soft-light">
<path d="M819.06 714.311C818.254 710.521 822.769 707.914 825.649 710.507L842.708 725.867C843.996 727.026 845.884 727.225 847.385 726.358L867.264 714.881C870.62 712.943 874.495 716.432 872.918 719.972L863.582 740.942C862.877 742.526 863.272 744.382 864.559 745.542L881.618 760.902C884.498 763.495 882.377 768.258 878.524 767.853L855.694 765.453C853.971 765.272 852.327 766.221 851.622 767.804L842.285 788.775C840.709 792.315 835.524 791.77 834.719 787.98L829.946 765.526C829.586 763.831 828.175 762.561 826.452 762.38L803.622 759.98C799.768 759.575 798.684 754.475 802.04 752.538L821.92 741.06C823.421 740.194 824.193 738.46 823.833 736.765L819.06 714.311Z" fill="#EDEDED"/>
</g>
<g style="mix-blend-mode:soft-light">
<path d="M925.06 817.311C924.254 813.521 928.769 810.914 931.649 813.507L948.708 828.867C949.996 830.026 951.884 830.225 953.385 829.358L973.264 817.881C976.62 815.943 980.495 819.432 978.918 822.972L969.582 843.942C968.877 845.526 969.272 847.382 970.559 848.542L987.618 863.902C990.498 866.495 988.377 871.258 984.524 870.853L961.694 868.453C959.971 868.272 958.327 869.221 957.622 870.804L948.285 891.775C946.709 895.315 941.524 894.77 940.719 890.98L935.946 868.526C935.586 866.831 934.175 865.561 932.452 865.38L909.622 862.98C905.768 862.575 904.684 857.475 908.04 855.538L927.92 844.06C929.421 843.194 930.193 841.46 929.833 839.765L925.06 817.311Z" fill="#EDEDED"/>
</g>
<g style="mix-blend-mode:soft-light">
<path d="M59.0599 199.311C58.2543 195.521 62.7694 192.914 65.649 195.507L82.708 210.867C83.9958 212.026 85.8838 212.225 87.3846 211.358L107.264 199.881C110.62 197.943 114.495 201.432 112.918 204.972L103.582 225.942C102.877 227.526 103.272 229.382 104.559 230.542L121.618 245.902C124.498 248.495 122.377 253.258 118.524 252.853L95.6944 250.453C93.971 250.272 92.327 251.221 91.6221 252.804L82.2854 273.775C80.7094 277.315 75.5243 276.77 74.7187 272.98L69.946 250.526C69.5857 248.831 68.1749 247.561 66.4515 247.38L43.6221 244.98C39.7685 244.575 38.6845 239.475 42.0402 237.538L61.92 226.06C63.4207 225.194 64.1929 223.46 63.8326 221.765L59.0599 199.311Z" fill="#EDEDED"/>
</g>
<g style="mix-blend-mode:soft-light">
<path d="M165.06 302.311C164.254 298.521 168.769 295.914 171.649 298.507L188.708 313.867C189.996 315.026 191.884 315.225 193.385 314.358L213.264 302.881C216.62 300.943 220.495 304.432 218.918 307.972L209.582 328.942C208.877 330.526 209.272 332.382 210.559 333.542L227.618 348.902C230.498 351.495 228.377 356.258 224.524 355.853L201.694 353.453C199.971 353.272 198.327 354.221 197.622 355.804L188.285 376.775C186.709 380.315 181.524 379.77 180.719 375.98L175.946 353.526C175.586 351.831 174.175 350.561 172.452 350.38L149.622 347.98C145.768 347.575 144.684 342.475 148.04 340.538L167.92 329.06C169.421 328.194 170.193 326.46 169.833 324.765L165.06 302.311Z" fill="#EDEDED"/>
</g>
<g style="mix-blend-mode:soft-light">
<path d="M271.06 405.311C270.254 401.521 274.769 398.914 277.649 401.507L294.708 416.867C295.996 418.026 297.884 418.225 299.385 417.358L319.264 405.881C322.62 403.943 326.495 407.432 324.918 410.972L315.582 431.942C314.877 433.526 315.272 435.382 316.559 436.542L333.618 451.902C336.498 454.495 334.377 459.258 330.524 458.853L307.694 456.453C305.971 456.272 304.327 457.221 303.622 458.804L294.285 479.775C292.709 483.315 287.524 482.77 286.719 478.98L281.946 456.526C281.586 454.831 280.175 453.561 278.452 453.38L255.622 450.98C251.768 450.575 250.684 445.475 254.04 443.538L273.92 432.06C275.421 431.194 276.193 429.46 275.833 427.765L271.06 405.311Z" fill="#EDEDED"/>
</g>
<g style="mix-blend-mode:soft-light">
<path d="M377.06 508.311C376.254 504.521 380.769 501.914 383.649 504.507L400.708 519.867C401.996 521.026 403.884 521.225 405.385 520.358L425.264 508.881C428.62 506.943 432.495 510.432 430.918 513.972L421.582 534.942C420.877 536.526 421.272 538.382 422.559 539.542L439.618 554.902C442.498 557.495 440.377 562.258 436.524 561.853L413.694 559.453C411.971 559.272 410.327 560.221 409.622 561.804L400.285 582.775C398.709 586.315 393.524 585.77 392.719 581.98L387.946 559.526C387.586 557.831 386.175 556.561 384.452 556.38L361.622 553.98C357.768 553.575 356.684 548.475 360.04 546.538L379.92 535.06C381.421 534.194 382.193 532.46 381.833 530.765L377.06 508.311Z" fill="#EDEDED"/>
</g>
<g style="mix-blend-mode:soft-light">
<path d="M483.06 611.311C482.254 607.521 486.769 604.914 489.649 607.507L506.708 622.867C507.996 624.026 509.884 624.225 511.385 623.358L531.264 611.881C534.62 609.943 538.495 613.432 536.918 616.972L527.582 637.942C526.877 639.526 527.272 641.382 528.559 642.542L545.618 657.902C548.498 660.495 546.377 665.258 542.524 664.853L519.694 662.453C517.971 662.272 516.327 663.221 515.622 664.804L506.285 685.775C504.709 689.315 499.524 688.77 498.719 684.98L493.946 662.526C493.586 660.831 492.175 659.561 490.452 659.38L467.622 656.98C463.768 656.575 462.684 651.475 466.04 649.538L485.92 638.06C487.421 637.194 488.193 635.46 487.833 633.765L483.06 611.311Z" fill="#EDEDED"/>
</g>
<g style="mix-blend-mode:soft-light">
<path d="M589.06 714.311C588.254 710.521 592.769 707.914 595.649 710.507L612.708 725.867C613.996 727.026 615.884 727.225 617.385 726.358L637.264 714.881C640.62 712.943 644.495 716.432 642.918 719.972L633.582 740.942C632.877 742.526 633.272 744.382 634.559 745.542L651.618 760.902C654.498 763.495 652.377 768.258 648.524 767.853L625.694 765.453C623.971 765.272 622.327 766.221 621.622 767.804L612.285 788.775C610.709 792.315 605.524 791.77 604.719 787.98L599.946 765.526C599.586 763.831 598.175 762.561 596.452 762.38L573.622 759.98C569.768 759.575 568.684 754.475 572.04 752.538L591.92 741.06C593.421 740.194 594.193 738.46 593.833 736.765L589.06 714.311Z" fill="#EDEDED"/>
</g>
<g style="mix-blend-mode:soft-light">
<path d="M695.06 817.311C694.254 813.521 698.769 810.914 701.649 813.507L718.708 828.867C719.996 830.026 721.884 830.225 723.385 829.358L743.264 817.881C746.62 815.943 750.495 819.432 748.918 822.972L739.582 843.942C738.877 845.526 739.272 847.382 740.559 848.542L757.618 863.902C760.498 866.495 758.377 871.258 754.524 870.853L731.694 868.453C729.971 868.272 728.327 869.221 727.622 870.804L718.285 891.775C716.709 895.315 711.524 894.77 710.719 890.98L705.946 868.526C705.586 866.831 704.175 865.561 702.452 865.38L679.622 862.98C675.768 862.575 674.684 857.475 678.04 855.538L697.92 844.06C699.421 843.194 700.193 841.46 699.833 839.765L695.06 817.311Z" fill="#EDEDED"/>
</g>
<g style="mix-blend-mode:soft-light">
<path d="M-8.94006 343.311C-9.7457 339.521 -5.23056 336.914 -2.35095 339.507L14.708 354.867C15.9958 356.026 17.8838 356.225 19.3846 355.358L39.2643 343.881C42.6201 341.943 46.4946 345.432 44.9185 348.972L35.5818 369.942C34.877 371.526 35.2717 373.382 36.5595 374.542L53.6184 389.902C56.4981 392.495 54.3775 397.258 50.5238 396.853L27.6944 394.453C25.971 394.272 24.327 395.221 23.6221 396.804L14.2854 417.775C12.7094 421.315 7.52429 420.77 6.71865 416.98L1.94601 394.526C1.58572 392.831 0.174945 391.561 -1.54846 391.38L-24.3779 388.98C-28.2315 388.575 -29.3155 383.475 -25.9598 381.538L-6.08002 370.06C-4.57927 369.194 -3.80713 367.46 -4.16742 365.765L-8.94006 343.311Z" fill="#EDEDED"/>
</g>
<g style="mix-blend-mode:soft-light">
<path d="M97.0599 446.311C96.2543 442.521 100.769 439.914 103.649 442.507L120.708 457.867C121.996 459.026 123.884 459.225 125.385 458.358L145.264 446.881C148.62 444.943 152.495 448.432 150.918 451.972L141.582 472.942C140.877 474.526 141.272 476.382 142.559 477.542L159.618 492.902C162.498 495.495 160.377 500.258 156.524 499.853L133.694 497.453C131.971 497.272 130.327 498.221 129.622 499.804L120.285 520.775C118.709 524.315 113.524 523.77 112.719 519.98L107.946 497.526C107.586 495.831 106.175 494.561 104.452 494.38L81.6221 491.98C77.7685 491.575 76.6845 486.475 80.0402 484.538L99.92 473.06C101.421 472.194 102.193 470.46 101.833 468.765L97.0599 446.311Z" fill="#EDEDED"/>
</g>
<g style="mix-blend-mode:soft-light">
<path d="M203.06 549.311C202.254 545.521 206.769 542.914 209.649 545.507L226.708 560.867C227.996 562.026 229.884 562.225 231.385 561.358L251.264 549.881C254.62 547.943 258.495 551.432 256.918 554.972L247.582 575.942C246.877 577.526 247.272 579.382 248.559 580.542L265.618 595.902C268.498 598.495 266.377 603.258 262.524 602.853L239.694 600.453C237.971 600.272 236.327 601.221 235.622 602.804L226.285 623.775C224.709 627.315 219.524 626.77 218.719 622.98L213.946 600.526C213.586 598.831 212.175 597.561 210.452 597.38L187.622 594.98C183.768 594.575 182.684 589.475 186.04 587.538L205.92 576.06C207.421 575.194 208.193 573.46 207.833 571.765L203.06 549.311Z" fill="#EDEDED"/>
</g>
<g style="mix-blend-mode:soft-light">
<path d="M309.06 652.311C308.254 648.521 312.769 645.914 315.649 648.507L332.708 663.867C333.996 665.026 335.884 665.225 337.385 664.358L357.264 652.881C360.62 650.943 364.495 654.432 362.918 657.972L353.582 678.942C352.877 680.526 353.272 682.382 354.559 683.542L371.618 698.902C374.498 701.495 372.377 706.258 368.524 705.853L345.694 703.453C343.971 703.272 342.327 704.221 341.622 705.804L332.285 726.775C330.709 730.315 325.524 729.77 324.719 725.98L319.946 703.526C319.586 701.831 318.175 700.561 316.452 700.38L293.622 697.98C289.768 697.575 288.684 692.475 292.04 690.538L311.92 679.06C313.421 678.194 314.193 676.46 313.833 674.765L309.06 652.311Z" fill="#EDEDED"/>
</g>
<g style="mix-blend-mode:soft-light">
<path d="M415.06 755.311C414.254 751.521 418.769 748.914 421.649 751.507L438.708 766.867C439.996 768.026 441.884 768.225 443.385 767.358L463.264 755.881C466.62 753.943 470.495 757.432 468.918 760.972L459.582 781.942C458.877 783.526 459.272 785.382 460.559 786.542L477.618 801.902C480.498 804.495 478.377 809.258 474.524 808.853L451.694 806.453C449.971 806.272 448.327 807.221 447.622 808.804L438.285 829.775C436.709 833.315 431.524 832.77 430.719 828.98L425.946 806.526C425.586 804.831 424.175 803.561 422.452 803.38L399.622 800.98C395.768 800.575 394.684 795.475 398.04 793.538L417.92 782.06C419.421 781.194 420.193 779.46 419.833 777.765L415.06 755.311Z" fill="#EDEDED"/>
</g>
<g style="mix-blend-mode:soft-light">
<path d="M521.06 858.311C520.254 854.521 524.769 851.914 527.649 854.507L544.708 869.867C545.996 871.026 547.884 871.225 549.385 870.358L569.264 858.881C572.62 856.943 576.495 860.432 574.918 863.972L565.582 884.942C564.877 886.526 565.272 888.382 566.559 889.542L583.618 904.902C586.498 907.495 584.377 912.258 580.524 911.853L557.694 909.453C555.971 909.272 554.327 910.221 553.622 911.804L544.285 932.775C542.709 936.315 537.524 935.77 536.719 931.98L531.946 909.526C531.586 907.831 530.175 906.561 528.452 906.38L505.622 903.98C501.768 903.575 500.684 898.475 504.04 896.538L523.92 885.06C525.421 884.194 526.193 882.46 525.833 880.765L521.06 858.311Z" fill="#EDEDED"/>
</g>
<g style="mix-blend-mode:soft-light">
<path d="M-42.9401 508.311C-43.7457 504.521 -39.2306 501.914 -36.351 504.507L-19.292 519.867C-18.0042 521.026 -16.1162 521.225 -14.6154 520.358L5.26432 508.881C8.62008 506.943 12.4946 510.432 10.9185 513.972L1.58179 534.942C0.876958 536.526 1.27165 538.382 2.55945 539.542L19.6184 554.902C22.4981 557.495 20.3775 562.258 16.5238 561.853L-6.30558 559.453C-8.02899 559.272 -9.67304 560.221 -10.3779 561.804L-19.7146 582.775C-21.2906 586.315 -26.4757 585.77 -27.2813 581.98L-32.054 559.526C-32.4143 557.831 -33.8251 556.561 -35.5485 556.38L-58.3779 553.98C-62.2315 553.575 -63.3155 548.475 -59.9598 546.538L-40.08 535.06C-38.5793 534.194 -37.8071 532.46 -38.1674 530.765L-42.9401 508.311Z" fill="#EDEDED"/>
</g>
<g style="mix-blend-mode:soft-light">
<path d="M63.0599 611.311C62.2543 607.521 66.7694 604.914 69.649 607.507L86.708 622.867C87.9958 624.026 89.8838 624.225 91.3846 623.358L111.264 611.881C114.62 609.943 118.495 613.432 116.918 616.972L107.582 637.942C106.877 639.526 107.272 641.382 108.559 642.542L125.618 657.902C128.498 660.495 126.377 665.258 122.524 664.853L99.6944 662.453C97.971 662.272 96.327 663.221 95.6221 664.804L86.2854 685.775C84.7094 689.315 79.5243 688.77 78.7187 684.98L73.946 662.526C73.5857 660.831 72.1749 659.561 70.4515 659.38L47.6221 656.98C43.7685 656.575 42.6845 651.475 46.0402 649.538L65.92 638.06C67.4207 637.194 68.1929 635.46 67.8326 633.765L63.0599 611.311Z" fill="#EDEDED"/>
</g>
<g style="mix-blend-mode:soft-light">
<path d="M169.06 714.311C168.254 710.521 172.769 707.914 175.649 710.507L192.708 725.867C193.996 727.026 195.884 727.225 197.385 726.358L217.264 714.881C220.62 712.943 224.495 716.432 222.918 719.972L213.582 740.942C212.877 742.526 213.272 744.382 214.559 745.542L231.618 760.902C234.498 763.495 232.377 768.258 228.524 767.853L205.694 765.453C203.971 765.272 202.327 766.221 201.622 767.804L192.285 788.775C190.709 792.315 185.524 791.77 184.719 787.98L179.946 765.526C179.586 763.831 178.175 762.561 176.452 762.38L153.622 759.98C149.768 759.575 148.684 754.475 152.04 752.538L171.92 741.06C173.421 740.194 174.193 738.46 173.833 736.765L169.06 714.311Z" fill="#EDEDED"/>
</g>
<g style="mix-blend-mode:soft-light">
<path d="M275.06 817.311C274.254 813.521 278.769 810.914 281.649 813.507L298.708 828.867C299.996 830.026 301.884 830.225 303.385 829.358L323.264 817.881C326.62 815.943 330.495 819.432 328.918 822.972L319.582 843.942C318.877 845.526 319.272 847.382 320.559 848.542L337.618 863.902C340.498 866.495 338.377 871.258 334.524 870.853L311.694 868.453C309.971 868.272 308.327 869.221 307.622 870.804L298.285 891.775C296.709 895.315 291.524 894.77 290.719 890.98L285.946 868.526C285.586 866.831 284.175 865.561 282.452 865.38L259.622 862.98C255.768 862.575 254.684 857.475 258.04 855.538L277.92 844.06C279.421 843.194 280.193 841.46 279.833 839.765L275.06 817.311Z" fill="#EDEDED"/>
</g>
<g style="mix-blend-mode:soft-light">
<path d="M-62.9401 621.311C-63.7457 617.521 -59.2306 614.914 -56.351 617.507L-39.292 632.867C-38.0042 634.026 -36.1162 634.225 -34.6154 633.358L-14.7357 621.881C-11.3799 619.943 -7.50544 623.432 -9.0815 626.972L-18.4182 647.942C-19.123 649.526 -18.7283 651.382 -17.4405 652.542L-0.381553 667.902C2.49806 670.495 0.377485 675.258 -3.47618 674.853L-26.3056 672.453C-28.029 672.272 -29.673 673.221 -30.3779 674.804L-39.7146 695.775C-41.2906 699.315 -46.4757 698.77 -47.2813 694.98L-52.054 672.526C-52.4143 670.831 -53.8251 669.561 -55.5485 669.38L-78.3779 666.98C-82.2315 666.575 -83.3155 661.475 -79.9598 659.538L-60.08 648.06C-58.5793 647.194 -57.8071 645.46 -58.1674 643.765L-62.9401 621.311Z" fill="#EDEDED"/>
</g>
<g style="mix-blend-mode:soft-light">
<path d="M43.0599 724.311C42.2543 720.521 46.7694 717.914 49.649 720.507L66.708 735.867C67.9958 737.026 69.8838 737.225 71.3846 736.358L91.2643 724.881C94.6201 722.943 98.4946 726.432 96.9185 729.972L87.5818 750.942C86.877 752.526 87.2717 754.382 88.5595 755.542L105.618 770.902C108.498 773.495 106.377 778.258 102.524 777.853L79.6944 775.453C77.971 775.272 76.327 776.221 75.6221 777.804L66.2854 798.775C64.7094 802.315 59.5243 801.77 58.7187 797.98L53.946 775.526C53.5857 773.831 52.1749 772.561 50.4515 772.38L27.6221 769.98C23.7685 769.575 22.6845 764.475 26.0402 762.538L45.92 751.06C47.4207 750.194 48.1929 748.46 47.8326 746.765L43.0599 724.311Z" fill="#EDEDED"/>
</g>
<g style="mix-blend-mode:soft-light">
<path d="M149.06 827.311C148.254 823.521 152.769 820.914 155.649 823.507L172.708 838.867C173.996 840.026 175.884 840.225 177.385 839.358L197.264 827.881C200.62 825.943 204.495 829.432 202.918 832.972L193.582 853.942C192.877 855.526 193.272 857.382 194.559 858.542L211.618 873.902C214.498 876.495 212.377 881.258 208.524 880.853L185.694 878.453C183.971 878.272 182.327 879.221 181.622 880.804L172.285 901.775C170.709 905.315 165.524 904.77 164.719 900.98L159.946 878.526C159.586 876.831 158.175 875.561 156.452 875.38L133.622 872.98C129.768 872.575 128.684 867.475 132.04 865.538L151.92 854.06C153.421 853.194 154.193 851.46 153.833 849.765L149.06 827.311Z" fill="#EDEDED"/>
</g>
</g>
<defs>
<linearGradient id="paint0_linear_2269_11032" x1="853.465" y1="328" x2="853.465" y2="1614.5" gradientUnits="userSpaceOnUse">
<stop offset="0.109433" stop-color="#472785"/>
<stop offset="0.590966" stop-opacity="0.69"/>
</linearGradient>
<linearGradient id="paint1_linear_2269_11032" x1="848" y1="328" x2="848" y2="1311" gradientUnits="userSpaceOnUse">
<stop stop-color="#E90000"/>
<stop offset="0.541667" stop-color="#A162D2" stop-opacity="0.5"/>
<stop offset="1" stop-color="#046AD0"/>
</linearGradient>
<clipPath id="clip0_2269_11032">
<rect width="1696" height="879" fill="white"/>
</clipPath>
</defs>
</svg>
