<svg width="61" height="61" viewBox="0 0 61 61" fill="none" xmlns="http://www.w3.org/2000/svg">
<path fill-rule="evenodd" clip-rule="evenodd" d="M18.9982 47.5H14.3765C12.9494 47.5 11.7915 46.3175 11.7915 44.86V26.39C11.7915 24.9325 12.9494 23.75 14.3765 23.75H18.9982C20.4253 23.75 21.5832 24.9325 21.5832 26.39V44.86C21.5832 46.3175 20.4253 47.5 18.9982 47.5V47.5Z" stroke="#EDEDED" stroke-width="2" stroke-linecap="round" stroke-linejoin="round"/>
<path d="M21.5835 26.43L30.5159 14.5525C32.1781 12.34 35.424 12.285 37.1596 14.4375V14.4375C37.8083 15.24 38.1608 16.25 38.1608 17.29V25.4675H45.7395C47.2107 25.4675 48.584 26.2175 49.4016 27.465L50.207 28.6925C50.9291 29.795 51.1396 31.1675 50.7798 32.44L47.4531 44.245C46.9096 46.1725 45.1839 47.5 43.2206 47.5H27.8257C26.6017 47.5 25.4316 46.98 24.5993 46.065L21.5835 42.75" stroke="#EDEDED" stroke-width="2" stroke-linecap="round" stroke-linejoin="round"/>
</svg>
