<svg width="61" height="61" viewBox="0 0 61 61" fill="none" xmlns="http://www.w3.org/2000/svg">
<path d="M13.5555 27.1112C12.6202 27.1112 11.8611 26.352 11.8611 25.4167V6.77782C11.8611 5.84249 12.6202 5.08337 13.5555 5.08337C14.4909 5.08337 15.25 5.84249 15.25 6.77782V25.4167C15.25 26.352 14.4909 27.1112 13.5555 27.1112Z" fill="#CCD6DD"/>
<path d="M3.38892 55.9167C3.38892 52.1279 10.1667 45.75 15.25 45.75V54.2222C13.5556 54.2222 8.47225 55.9167 6.7778 57.6111C5.08336 59.3056 3.38892 57.6111 3.38892 55.9167ZM27.1111 55.9167C27.1111 52.1279 20.3334 45.75 15.25 45.75V54.2222C16.9445 54.2222 22.0278 55.9167 23.7222 57.6111C25.4167 59.3056 27.1111 57.6111 27.1111 55.9167Z" fill="#3B88C3"/>
<path d="M25.4167 23.7222C28.8056 23.7222 32.1945 25.4166 32.1945 27.1111C32.1945 32.1944 26.8282 46.6683 18.3559 48.3628C9.88371 50.0572 25.4167 23.7222 25.4167 23.7222ZM5.08335 33.8888C3.3889 35.5833 1.69446 38.9722 1.69446 42.3611C1.69446 45.7499 6.35418 38.901 8.47224 40.6666C11.3833 43.0931 5.08335 33.8888 5.08335 33.8888Z" fill="#3B88C3"/>
<path d="M9.46009 20.757C12.0018 21.6042 13.8368 20.9688 15.6736 19.4861C17.5104 18.0035 17.7917 23.7934 15.25 25.6997C12.7083 27.6059 8.26043 32.0538 8.33159 28.1007C8.40107 24.1459 9.46009 20.757 9.46009 20.757Z" fill="black"/>
<path d="M15.289 18.6406C14.3164 19.7081 12.1441 22.5921 11.0851 26.1216C9.60244 26.9688 9.67361 24.0747 9.88542 23.1563C10.2667 21.5042 10.7428 21.5008 10.4717 20.5791C10.1159 19.6454 9.13478 19.9623 8.57561 20.3097C5.67303 21.977 3.38892 25.0778 3.38892 30.5C3.38892 39.8568 11.8611 52.5278 15.25 52.5278C18.6389 52.5278 27.1111 39.8568 27.1111 30.5C27.1111 21.1653 20.3689 18.6525 15.289 18.6406Z" fill="#55ACEE"/>
<path d="M19.4861 28.8055C20.8898 28.8055 22.0278 27.6676 22.0278 26.2638C22.0278 24.8601 20.8898 23.7222 19.4861 23.7222C18.0824 23.7222 16.9445 24.8601 16.9445 26.2638C16.9445 27.6676 18.0824 28.8055 19.4861 28.8055Z" fill="black"/>
<path d="M15.1721 38.6791C12.6236 38.6791 10.3785 37.7675 8.39429 36.7322C7.56402 36.2984 7.24377 35.2749 7.67754 34.4447C8.10963 33.6178 9.13307 33.2924 9.96335 33.7262C13.1675 35.4003 16.0464 36.073 19.681 33.9126C20.4858 33.4365 21.5245 33.7025 22.0024 34.5057C22.4802 35.3122 22.2142 36.3509 21.4093 36.8287C19.1489 38.1707 17.0749 38.6791 15.1721 38.6791Z" fill="#226699"/>
<path d="M50.5521 59.7292C49.715 59.3107 48.7865 58.1059 49.3168 56.8537C51.5772 51.523 56.5657 28.2176 52.0347 14.8976C51.1858 12.4034 48.4459 8.69763 45.1214 6.65752C34.3837 0.0712117 18.339 3.67868 16.0973 4.80041C15.2585 5.22063 12.6338 6.06107 12.2136 5.22402C11.7951 4.38696 13.2116 3.52449 14.0487 3.10596C17.0241 1.61993 33.1349 -3.46509 47.3733 4.44627C49.915 5.85774 53.4564 8.47227 55.3423 13.4319C60.8611 27.9482 57.1164 53.109 54.0088 58.8803C53.0226 60.7171 50.7961 59.8495 50.5521 59.7292Z" fill="#662113"/>
<path d="M47.4445 49.1389C51.1877 49.1389 54.2222 46.1044 54.2222 42.3612C54.2222 38.6179 51.1877 35.5834 47.4445 35.5834C43.7012 35.5834 40.6667 38.6179 40.6667 42.3612C40.6667 46.1044 43.7012 49.1389 47.4445 49.1389Z" fill="#99AAB5"/>
<path d="M47.4444 45.7499C49.3161 45.7499 50.8333 44.2327 50.8333 42.3611C50.8333 40.4894 49.3161 38.9722 47.4444 38.9722C45.5728 38.9722 44.0555 40.4894 44.0555 42.3611C44.0555 44.2327 45.5728 45.7499 47.4444 45.7499Z" fill="#66757F"/>
</svg>
