<svg width="61" height="61" viewBox="0 0 61 61" fill="none" xmlns="http://www.w3.org/2000/svg">
<g clip-path="url(#clip0_332_553)">
<path fill-rule="evenodd" clip-rule="evenodd" d="M47.0061 44.174H13.0186C8.32591 44.174 4.52173 40.3698 4.52173 35.6771V13.0188C4.52173 8.32609 8.32591 4.52191 13.0186 4.52191H47.0061C51.6988 4.52191 55.503 8.32609 55.503 13.0188V35.6771C55.503 40.3698 51.6988 44.174 47.0061 44.174Z" stroke="#EDEDED" stroke-width="2" stroke-linecap="round" stroke-linejoin="round"/>
<path d="M35.6771 44.174L37.0932 55.5031" stroke="#EDEDED" stroke-width="2" stroke-linecap="round" stroke-linejoin="round"/>
<path d="M24.3476 44.174L22.9315 55.5031" stroke="#EDEDED" stroke-width="2" stroke-linecap="round" stroke-linejoin="round"/>
<path d="M16.4175 55.5032H43.6075" stroke="#EDEDED" stroke-width="2" stroke-linecap="round" stroke-linejoin="round"/>
<path d="M43.5965 24.2939L39.3379 28.5525" stroke="#EDEDED" stroke-width="2" stroke-linecap="round" stroke-linejoin="round"/>
<path d="M39.3865 20.0851L43.5963 24.2939" stroke="#EDEDED" stroke-width="2" stroke-linecap="round" stroke-linejoin="round"/>
<path d="M20.6869 28.5831L16.4282 24.3254" stroke="#EDEDED" stroke-width="2" stroke-linecap="round" stroke-linejoin="round"/>
<path d="M20.6383 20.1154L16.4282 24.3254" stroke="#EDEDED" stroke-width="2" stroke-linecap="round" stroke-linejoin="round"/>
<path d="M32.1578 17.2672L27.8992 31.4287" stroke="#EDEDED" stroke-width="2" stroke-linecap="round" stroke-linejoin="round"/>
</g>
<defs>
<clipPath id="clip0_332_553">
<rect width="61" height="61" fill="white"/>
</clipPath>
</defs>
</svg>
