<svg width="61" height="61" viewBox="0 0 61 61" fill="none" xmlns="http://www.w3.org/2000/svg">
<path d="M50.6571 45.1857C50.6622 45.6653 50.5385 46.2922 50.4097 46.809C49.51 50.4436 45.5145 54.5221 39.8906 54.1511C34.7937 53.8156 30.6423 51.3688 30.6423 47.9375C30.6423 44.5063 34.7836 41.724 39.8906 41.724C44.9977 41.724 50.6249 41.7545 50.6571 45.1857Z" fill="#EA596E"/>
<path d="M39.8906 42.3002C37.1473 42.3002 30.8863 43.0593 29.4494 43.0593C26.9112 43.0593 24.8524 44.6521 24.8524 46.6176C24.8524 47.5631 25.337 48.4171 26.1131 49.0542C26.1131 49.0542 27.8177 50.7639 30.888 49.9438C32.2317 49.5846 34.4176 46.9175 38.2656 46.4939C40.1821 46.2821 43.7726 47.7648 50.0827 47.8003C50.3538 47.2174 50.4097 46.8125 50.4097 46.8125C50.4097 43.3778 44.9977 42.3002 39.8906 42.3002Z" fill="#DD2E44"/>
<path d="M50.3735 46.3049C47.6196 46.091 44.8936 45.4705 42.5887 44.8943C42.1904 44.7947 41.8029 44.696 41.4297 44.601C40.7211 44.4205 40.0642 44.2531 39.4829 44.118C38.6045 43.9138 37.8371 43.7674 37.2778 43.7674C36.6947 43.7674 36.0449 43.9424 35.3173 44.1916C34.8689 44.3452 34.3605 44.5384 33.7951 44.7532C33.4431 44.887 33.0691 45.0292 32.6736 45.1754C30.5913 45.9453 27.7622 46.8885 23.7765 47.5874L23.7517 47.5918L23.7276 47.5985C20.6199 48.4718 18.2348 47.7326 16.5008 46.4743C14.7462 45.2011 13.6438 43.3832 13.1775 42.1172L13.0844 41.8643L12.8219 41.8031C10.6991 41.308 8.07867 40.6552 5.87843 38.9966C3.70514 37.3584 1.89869 34.7031 1.48755 30.1031L1.48752 30.1027C1.4195 29.3477 1.56997 26.4042 3.09206 22.8221C4.60731 19.2561 7.4762 15.0712 12.8287 11.7945C15.6153 10.0887 19.2375 9.13616 21.2566 8.60518C21.6915 8.49082 22.052 8.39601 22.3138 8.31744C26.5101 7.05807 30.1327 6.98958 32.7016 7.23406C33.9861 7.35631 35.0066 7.55677 35.7025 7.72544C36.0504 7.80976 36.317 7.88609 36.4947 7.94064C36.5836 7.96791 36.6502 7.98973 36.6936 8.00438C36.7153 8.0117 36.7312 8.01722 36.7412 8.02074L36.7517 8.02448L36.7533 8.02504L36.7536 8.02515L36.7536 8.02517L36.7537 8.0252L36.8417 8.05746L36.9356 8.05547L36.9357 8.05546L36.9358 8.05546L36.9359 8.05546L36.9381 8.05542L36.9497 8.05527C36.9605 8.05516 36.9775 8.05504 37.0004 8.05506C37.0461 8.0551 37.1152 8.05568 37.2054 8.05792C37.3858 8.06242 37.6503 8.07358 37.9804 8.10035C38.6413 8.15395 39.5615 8.26983 40.5945 8.51846C42.6692 9.01781 45.1488 10.0402 46.9237 12.1166L47.0211 12.2305L47.1643 12.2718L47.1645 12.2719L47.1647 12.272L47.1651 12.2721L47.1652 12.2721L47.1721 12.2742C47.179 12.2763 47.1902 12.2797 47.2055 12.2846C47.2363 12.2945 47.2836 12.3101 47.3458 12.3321C47.4703 12.3762 47.6539 12.4457 47.8825 12.5451C48.34 12.7442 48.9753 13.0621 49.676 13.5342C51.0773 14.4782 52.7312 16.0319 53.7613 18.4804L53.8194 18.6185L53.9427 18.7011L53.9428 18.7011L53.9432 18.7014L53.9435 18.7016L53.9439 18.7019L53.9464 18.7036L53.967 18.7183C53.9866 18.7324 54.0174 18.7551 54.058 18.7868C54.1393 18.8502 54.2596 18.949 54.407 19.0851C54.7018 19.3573 55.1038 19.7774 55.5181 20.3589C56.3446 21.5193 57.2249 23.329 57.3951 25.9088L57.4049 26.0567L57.4933 26.1749L57.4933 26.1749L57.4935 26.1751L57.4937 26.1754L57.4942 26.1761L57.4996 26.1836C57.5016 26.1862 57.504 26.1895 57.5067 26.1934C57.5115 26.2 57.5175 26.2084 57.5246 26.2185C57.5471 26.2505 57.5811 26.2998 57.6241 26.3652C57.7102 26.4962 57.8322 26.6915 57.9713 26.9425C58.2501 27.4454 58.595 28.167 58.8582 29.0391C59.3843 30.7819 59.5786 33.0991 58.3004 35.49L58.2295 35.6225L58.2434 35.7713L58.2434 35.7716L58.2434 35.7718L58.2434 35.7722L58.2438 35.7768L58.2457 35.8027C58.2464 35.8131 58.2472 35.8262 58.2481 35.8416C58.2492 35.8619 58.2505 35.8863 58.2516 35.9148C58.2556 36.0155 58.2588 36.1666 58.2546 36.3602C58.2462 36.7477 58.2084 37.304 58.09 37.9675C57.8531 39.2954 57.2953 41.0427 56.0133 42.7296C54.9278 44.1572 53.5037 45.0576 52.3362 45.6024C51.7544 45.8739 51.242 46.0544 50.877 46.1666C50.6947 46.2226 50.5497 46.2614 50.4519 46.2859C50.4209 46.2936 50.3947 46.2999 50.3735 46.3049Z" fill="#F4ABBA" stroke="#F4ABBA"/>
<path d="M30.0544 31.598C33.999 29.4715 36.1374 29.6697 38.025 29.8409C38.6249 29.8951 39.1925 29.9375 39.7669 29.9341C43.1287 29.8578 45.8517 28.4413 47.0564 27.0705C47.3648 26.718 47.3292 26.1843 46.9785 25.8742C46.6294 25.5658 46.0957 25.598 45.7822 25.9504C44.8536 27.0078 42.5644 28.1752 39.7279 28.2396C39.2196 28.2549 38.7096 28.204 38.1809 28.1549C36.156 27.9668 33.6415 27.7364 29.2495 30.1069C28.1227 30.7152 26.5774 30.9406 24.9032 31.11C21.1805 25.7369 23.4206 21.0569 24.0611 19.9419C24.1238 19.9453 24.1848 19.9657 24.2492 19.9657C24.927 19.9657 25.6081 19.7996 26.2249 19.4505C26.6316 19.2201 26.7756 18.7033 26.5452 18.2966C26.3147 17.89 25.7979 17.7459 25.3912 17.9764C24.3068 18.5898 22.8801 18.2356 22.2057 17.1851C21.9532 16.7903 21.4296 16.675 21.0365 16.9292C20.6434 17.1817 20.5282 17.7053 20.7807 18.0984C21.1822 18.727 21.7482 19.1998 22.387 19.5166C21.5042 21.3093 19.8284 26.0233 23.0173 31.2947C20.7739 31.515 18.527 31.8318 16.7682 32.9654C15.6329 33.6974 14.4722 34.7683 13.586 36.0002C12.5202 35.8172 8.61794 34.8564 7.93677 30.5254C8.36038 30.1967 8.70266 29.7629 8.91447 29.2275C9.0873 28.792 8.8738 28.3006 8.43833 28.1278C8.00286 27.955 7.51147 28.1685 7.33863 28.6039C7.18783 28.9852 6.91502 29.2631 6.56936 29.3851C6.22708 29.5071 5.83905 29.4664 5.47983 29.2665C5.06808 29.0377 4.55466 29.1885 4.3276 29.5952C4.10055 30.0035 4.24797 30.5203 4.65633 30.7474C5.13755 31.0151 5.65266 31.1507 6.16438 31.1507C6.22708 31.1507 6.28638 31.1219 6.34908 31.1185C7.15563 35.2072 10.3869 37.0033 12.6727 37.5472C12.3745 38.2047 12.1729 38.8824 12.1119 39.567C12.0712 40.0313 12.4152 40.4447 12.8812 40.4854L12.9574 40.4888C13.3912 40.4888 13.7623 40.1583 13.8012 39.7161C13.9842 37.6607 15.9447 35.5139 17.6866 34.3871C19.32 33.3348 21.7109 33.1129 24.0255 32.8977C26.2707 32.6926 28.3921 32.4961 30.0544 31.598ZM51.8551 29.0496C51.6331 29.4596 51.7856 29.9747 52.194 30.1967C52.3227 30.2679 52.4634 30.3018 52.6006 30.3018C52.8989 30.3018 53.1886 30.1442 53.3428 29.8629C53.375 29.8053 56.464 24.0188 50.6808 20.13C50.2945 19.8725 49.7675 19.9724 49.5049 20.3605C49.2439 20.7485 49.3473 21.2755 49.7353 21.5364C54.2154 24.5491 51.9534 28.8666 51.8551 29.0496ZM16.7343 15.3686C16.9987 15.3686 17.2579 15.2466 17.4223 15.0162C19.8792 11.5985 23.2817 12.7677 23.4257 12.8219C23.8645 12.9812 24.3475 12.7575 24.5101 12.3203C24.6728 11.8815 24.4491 11.3952 24.0103 11.2325C22.3836 10.6293 18.627 10.4395 16.0464 14.0283C15.7736 14.4062 15.86 14.9365 16.2395 15.2093C16.3904 15.3178 16.5632 15.3686 16.7343 15.3686ZM38.8841 12.1695C42.6542 11.8628 44.369 14.596 44.447 14.7247C44.6062 14.9925 44.8875 15.1416 45.1773 15.1416C45.323 15.1416 45.4721 15.1043 45.606 15.0247C46.0092 14.7874 46.1448 14.2689 45.9093 13.8657C45.8178 13.7115 43.6387 10.1074 38.7519 10.4802C38.286 10.5157 37.9386 10.9241 37.9742 11.3918C38.0115 11.8577 38.4334 12.2119 38.8841 12.1695ZM54.3883 36.927C53.9714 36.9033 53.5122 37.2337 53.475 37.7014C53.4716 37.7319 53.2022 40.6142 50.2386 41.5885C49.7946 41.7342 49.5523 42.212 49.6997 42.6576C49.815 43.0135 50.1488 43.2405 50.5046 43.2405C50.5927 43.2405 50.6808 43.227 50.7689 43.1982C54.7882 41.8799 55.1508 38.0064 55.1643 37.842C55.1999 37.3744 54.8542 36.9643 54.3883 36.927Z" fill="#EA596E"/>
<path d="M12.4491 28.6938C12.3271 29.1462 12.5948 29.6105 13.0472 29.7325C13.1201 29.7528 13.1946 29.7613 13.2675 29.7613C13.642 29.7613 13.9826 29.5122 14.0842 29.1343C14.4062 27.9296 15.655 27.1569 16.8834 27.4162C17.3426 27.5094 17.79 27.2196 17.8866 26.7604C17.9831 26.3029 17.69 25.8539 17.2308 25.7573C16.509 25.6048 15.7838 25.676 15.1161 25.903C13.1404 22.5243 13.5251 19.193 13.5301 19.1575C13.5911 18.6949 13.2658 18.2696 12.8032 18.2052C12.3423 18.1493 11.9153 18.4661 11.8509 18.9287C11.8289 19.0931 11.3765 22.853 13.6521 26.7469C13.0862 27.2569 12.6558 27.9228 12.4491 28.6938ZM31.3913 24.5085C32.0809 23.8697 33.1874 23.8816 33.8567 24.5339C34.0228 24.6932 34.2346 24.7728 34.4481 24.7728C34.67 24.7728 34.8903 24.6864 35.0547 24.5153C35.38 24.1798 35.3732 23.6426 35.0377 23.3173C34.648 22.9395 34.182 22.687 33.6873 22.5294C34.1888 20.8078 33.9906 20.0436 33.5246 18.6118C33.4433 18.3628 33.3534 18.0849 33.2586 17.768L33.2077 17.5986C32.5909 15.5517 32.1826 14.2012 33.3551 12.295C33.6008 11.8968 33.4754 11.3749 33.0773 11.1292C32.6858 10.8852 32.1589 11.0055 31.9115 11.4071C30.339 13.9623 30.9168 15.8753 31.5861 18.09L31.637 18.2594C31.7369 18.5881 31.8284 18.8762 31.9132 19.1354C32.3317 20.4249 32.4588 20.857 31.9471 22.4159C31.3218 22.5328 30.7237 22.8158 30.2357 23.2699C29.8934 23.5884 29.8748 24.1256 30.1933 24.4678C30.5136 24.8101 31.0507 24.8271 31.3913 24.5085ZM42.1764 19.4506C42.6695 19.4506 43.1677 19.3472 43.6319 19.127C44.0556 18.927 44.2369 18.4221 44.0369 17.9985C43.8387 17.5748 43.3269 17.3986 42.9101 17.5935C42.0595 17.9934 41.0106 17.646 40.565 16.8191C40.343 16.4057 39.8262 16.2549 39.4179 16.4718C39.0061 16.692 38.8502 17.2071 39.0722 17.6189C39.3772 18.1882 39.8313 18.6373 40.36 18.949C39.4501 21.1603 39.9669 23.5088 40.3888 24.7542C40.5074 25.1083 40.8378 25.3303 41.1919 25.3303C41.2817 25.3303 41.3716 25.3168 41.4631 25.2863C41.907 25.1371 42.1442 24.6559 41.9934 24.2137C41.7088 23.3698 41.1564 21.2382 41.99 19.4252C42.0544 19.4286 42.1137 19.4506 42.1764 19.4506ZM50.3047 35.4275C50.2725 34.9615 49.8692 34.5938 49.4049 34.6362C47.6867 34.7582 46.2227 33.4552 46.1058 31.7506C46.0719 31.2846 45.6568 30.9372 45.2027 30.9626C44.7367 30.9948 44.3843 31.3998 44.4148 31.8658C44.4842 32.8655 44.8655 33.767 45.445 34.5006C44.0827 36.1036 42.2984 36.5594 41.3038 36.6763C40.4244 36.7814 39.6551 36.6916 38.7655 36.5865C37.9505 36.4933 37.0287 36.3866 35.8883 36.4205L35.8799 36.4221C35.846 35.9375 35.7308 35.231 35.3631 34.643C35.1157 34.2482 34.5921 34.1279 34.1956 34.3753C33.8008 34.6226 33.6788 35.1462 33.9279 35.5427C34.1549 35.907 34.1973 36.4882 34.1973 36.7712C33.3433 37.0779 32.6045 37.5286 31.9369 37.9641C30.744 38.7401 29.8036 39.3535 28.3887 39.035C27.1077 38.7418 25.825 38.6825 24.7372 38.835C24.5678 38.4097 24.3 37.9014 23.8866 37.51C23.546 37.188 23.0106 37.2016 22.6886 37.5439C22.3684 37.8828 22.3819 38.4199 22.7225 38.7418C22.8682 38.8791 22.9834 39.079 23.0766 39.279C21.2077 40.0483 20.2706 41.3343 20.2266 41.397C19.9555 41.7766 20.0453 42.3002 20.4214 42.573C20.5706 42.6797 20.7434 42.7323 20.9162 42.7323C21.1789 42.7323 21.4381 42.6119 21.6042 42.3849C21.6126 42.3713 22.5429 41.1259 24.378 40.6227C25.3269 40.3617 26.6875 40.3838 28.0143 40.6854C28.3853 40.7701 28.7293 40.7989 29.0631 40.804C29.2207 41.1734 29.2817 41.6122 29.2902 41.7749C29.3173 42.2256 29.6901 42.5747 30.1357 42.5747L30.1814 42.573C30.6474 42.5476 31.0049 42.1528 30.9829 41.6868C30.9778 41.6021 30.9439 41.1005 30.7626 40.5244C31.5438 40.2414 32.2232 39.7992 32.8621 39.384C33.8313 38.752 34.748 38.1539 35.9459 38.1149C36.9491 38.0793 37.7759 38.1759 38.574 38.2691C39.3772 38.3623 40.1668 38.4233 41.0378 38.3725C41.1919 38.8011 41.1801 39.3739 41.1564 39.5653C41.1004 40.0279 41.4275 40.4515 41.8917 40.5125C41.9273 40.5176 41.9629 40.5193 41.9985 40.5193C42.417 40.5193 42.7813 40.2092 42.8372 39.7822C42.8508 39.6772 42.9372 38.9147 42.7373 38.12C43.9539 37.7929 45.4619 37.083 46.7108 35.6275C47.4411 36.0748 48.2934 36.3374 49.1999 36.3374C49.3049 36.3374 49.4117 36.334 49.5168 36.3273C49.9827 36.2968 50.3352 35.8952 50.3047 35.4275Z" fill="#EA596E"/>
</svg>
