<svg width="61" height="61" viewBox="0 0 61 61" fill="none" xmlns="http://www.w3.org/2000/svg">
<g clip-path="url(#clip0_332_556)">
<path fill-rule="evenodd" clip-rule="evenodd" d="M53.1667 18H7.83333C6.26933 18 5 19.232 5 20.75V26.25C5 27.768 6.26933 29 7.83333 29H53.1667C54.7307 29 56 27.768 56 26.25V20.75C56 19.232 54.7307 18 53.1667 18Z" stroke="#EDEDED" stroke-width="2" stroke-linecap="round" stroke-linejoin="round"/>
<path d="M30.5 55V18" stroke="#EDEDED" stroke-width="2" stroke-linecap="round" stroke-linejoin="round"/>
<path d="M40.7312 13.5811C37.7105 16.792 32.9554 17.5532 30.6521 17.5532" stroke="#EDEDED" stroke-width="2" stroke-linecap="round" stroke-linejoin="round"/>
<path d="M30.6524 17.5532C30.6524 17.5532 29.2682 8.63611 32.6727 5.01892" stroke="#EDEDED" stroke-width="2" stroke-linecap="round" stroke-linejoin="round"/>
<path d="M40.7315 13.5811C42.9564 11.2174 42.9564 7.38267 40.7315 5.0189C38.5067 2.65514 34.9004 2.65514 32.6755 5.0189" stroke="#EDEDED" stroke-width="2" stroke-linecap="round" stroke-linejoin="round"/>
<path d="M20.0183 13.5811C23.039 16.792 27.7941 17.5532 30.0974 17.5532" stroke="#EDEDED" stroke-width="2" stroke-linecap="round" stroke-linejoin="round"/>
<path d="M30.0977 17.5532C30.0977 17.5532 31.4819 8.63611 28.0774 5.01892" stroke="#EDEDED" stroke-width="2" stroke-linecap="round" stroke-linejoin="round"/>
<path d="M20.0185 13.5811C17.7936 11.2174 17.7936 7.38267 20.0185 5.0189C22.2433 2.65514 25.8496 2.65514 28.0745 5.0189" stroke="#EDEDED" stroke-width="2" stroke-linecap="round" stroke-linejoin="round"/>
<path d="M49.9897 29V51.8936C49.9897 53.4733 48.7343 54.7553 47.1876 54.7553H13.5626C12.0158 54.7553 10.7605 53.4733 10.7605 51.8936V29" stroke="#EDEDED" stroke-width="2" stroke-linecap="round" stroke-linejoin="round"/>
</g>
<defs>
<clipPath id="clip0_332_556">
<rect width="61" height="61" fill="white"/>
</clipPath>
</defs>
</svg>
