<svg width="61" height="61" viewBox="0 0 61 61" fill="none" xmlns="http://www.w3.org/2000/svg">
<path d="M60.368 18.344L0.632019 28.0599V44.5333H0.638797C0.618464 44.7858 0.85738 45.0332 1.38944 45.3348C2.6213 46.0329 18.0543 54.2916 19.2709 54.8898C20.7874 55.6336 21.7126 55.7251 23.0089 55.0796C24.0696 54.5509 55.6032 37.842 58.477 36.3153C59.9393 35.5375 60.4188 35.1105 60.3392 34.7581H60.3697V18.344H60.368Z" fill="#C1694F"/>
<path d="M0.632019 28.0601V44.5334H0.638797C0.618464 44.7859 0.85738 45.0333 1.38944 45.3349C2.6213 46.033 18.0543 54.2918 19.2709 54.8899C20.0029 55.2491 20.5943 55.4474 21.1585 55.4931V28.0601H0.632019Z" fill="#A0041E"/>
<path d="M37.6573 7.93348C39.4805 6.98798 39.5432 6.86937 41.4681 7.89281C43.393 8.91625 58.1516 16.7853 59.2378 17.3631C60.617 18.0984 61.122 18.3645 58.477 19.7709C55.6032 21.2993 24.0696 38.0082 23.0088 38.5351C21.7126 39.1807 20.7874 39.0892 19.2709 38.3454C18.0543 37.7489 2.62128 29.4902 1.38942 28.7904C-2.3365e-05 28.0025 0.572699 27.5941 2.69245 26.469L37.6573 7.93348Z" fill="#D99E82"/>
<path d="M18.9591 32.247C22.402 32.247 25.193 30.8512 25.193 29.1293C25.193 27.4074 22.402 26.0115 18.9591 26.0115C15.5163 26.0115 12.7253 27.4074 12.7253 29.1293C12.7253 30.8512 15.5163 32.247 18.9591 32.247Z" fill="#C1694F"/>
<path d="M19.7267 28.3548C17.0681 27.4804 14.0469 27.7295 12.7659 28.9292C12.7575 28.997 12.7253 29.0614 12.7253 29.1291C12.7253 30.8507 15.516 32.2469 18.9591 32.2469C20.7603 32.2469 22.3701 31.8589 23.507 31.2489C22.9428 30.0763 21.6669 28.9919 19.7267 28.3548Z" fill="#A0041E"/>
<path d="M30.5 26.2282C33.9428 26.2282 36.7338 24.8324 36.7338 23.1105C36.7338 21.3886 33.9428 19.9927 30.5 19.9927C27.0571 19.9927 24.2661 21.3886 24.2661 23.1105C24.2661 24.8324 27.0571 26.2282 30.5 26.2282Z" fill="#C1694F"/>
<path d="M31.2676 22.3362C28.609 21.4619 25.5878 21.711 24.3068 22.9106C24.2983 22.9784 24.2661 23.0428 24.2661 23.1106C24.2661 24.8321 27.0569 26.2284 30.5 26.2284C32.3012 26.2284 33.9109 25.8403 35.0479 25.2303C34.4836 24.0578 33.2077 22.9733 31.2676 22.3362Z" fill="#A0041E"/>
<path d="M42.0409 20.2097C45.4837 20.2097 48.2747 18.8138 48.2747 17.0919C48.2747 15.37 45.4837 13.9741 42.0409 13.9741C38.598 13.9741 35.807 15.37 35.807 17.0919C35.807 18.8138 38.598 20.2097 42.0409 20.2097Z" fill="#C1694F"/>
<path d="M42.8085 16.3174C40.1499 15.4431 37.1287 15.6922 35.8477 16.8918C35.8392 16.9596 35.807 17.024 35.807 17.0918C35.807 18.8133 38.5978 20.2096 42.0409 20.2096C43.8421 20.2096 45.4501 19.8215 46.5888 19.2115C46.0245 18.039 44.7486 16.9545 42.8085 16.3174Z" fill="#A0041E"/>
</svg>
