<svg width="61" height="61" viewBox="0 0 61 61" fill="none" xmlns="http://www.w3.org/2000/svg">
<path d="M48.0951 11.4426C48.0951 11.4426 43.9946 11.4375 43.5252 14.8298L41.3224 31.1965C40.6921 34.8937 44.9367 35.6647 47.4902 35.7172C50.0437 35.7698 52.1686 33.8313 52.2363 31.3862L52.4126 26.225L52.6718 18.6203L52.7481 16.165C52.7481 14.1182 51.8653 11.9323 48.0951 11.4426Z" fill="#FFDC5D"/>
<path d="M49.5625 37.1186H43.4727L42.6255 34.3126H50.4097L49.5625 37.1186ZM34.6074 12.7186C34.6074 12.7186 34.8514 11.424 36.8898 11.5664L36.3272 13.3472L34.6074 12.7186Z" fill="#FFDC5D"/>
<path d="M49.1389 4.00737C49.1389 2.72976 48.1036 1.69446 46.826 1.69446H39.5907C38.3131 1.69446 37.2778 2.72976 37.2778 4.00737V29.8815C37.2778 31.1592 41.702 32.1945 42.9796 32.1945H46.826C48.1036 32.1945 49.1389 31.1592 49.1389 29.8815V4.00737Z" fill="#6D6E71"/>
<path d="M47.4444 4.00737C47.4444 2.72976 46.4091 1.69446 45.1315 1.69446H37.8962C36.6186 1.69446 35.5833 2.72976 35.5833 4.00737V29.8815C35.5833 31.1592 36.6186 32.1945 37.8962 32.1945H45.1315C46.4091 32.1945 47.4444 31.1592 47.4444 29.8815V4.00737Z" fill="#231F20"/>
<path d="M37.2778 5.08337H45.75V27.1112H37.2778V5.08337Z" fill="#88C9F9"/>
<path d="M34.8141 23.9526L35.036 25.2149L35.946 25.1387L36.9609 25.0675C37.7912 25.0082 38.4588 24.4406 38.6926 23.6916L34.8141 23.9526ZM34.8141 19.9012L34.848 21.1381L35.951 21.1262C36.8406 21.1008 37.5896 20.5603 37.9369 19.8012L34.8141 19.9012ZM34.7971 15.4109L34.8158 16.6258L35.1936 16.6783C36.0815 16.7393 36.8796 16.2751 37.2981 15.5532L34.7971 15.4109ZM51.0807 17.6882L50.8113 17.6764C50.0081 17.6442 49.3236 18.2745 49.2897 19.0777L49.166 23.3239L52.1584 23.8797L52.3821 18.6219C52.1753 18.0983 51.6772 17.7119 51.0807 17.6882Z" fill="#EF9645"/>
<path d="M51.5179 20.0927L51.2739 20.2062C50.5453 20.5468 49.671 20.2299 49.3304 19.5013L48.0375 16.7377C47.6969 16.0091 48.0138 15.1348 48.7424 14.7942L48.9864 14.6806C49.715 14.3401 50.5893 14.6569 50.9299 15.3855L52.2228 18.1492C52.5634 18.8778 52.2465 19.7521 51.5179 20.0927Z" fill="#EF9645"/>
<path d="M49.6913 27.3941L49.4218 27.3822C48.6187 27.3484 47.9883 26.6638 48.0205 25.8606L48.295 19.1913C48.3289 18.3881 49.0135 17.7578 49.8166 17.79L50.0861 17.8019C50.8892 17.8357 51.5196 18.5203 51.4874 19.3235L51.2129 25.9928C51.1807 26.7977 50.4961 27.428 49.6913 27.3941Z" fill="#FFDC5D"/>
<path d="M50.6385 20.1894L50.3945 20.3029C49.6659 20.6435 48.7915 20.3266 48.4509 19.598L47.1564 16.8344C46.8158 16.1058 47.1327 15.2314 47.8613 14.8908L48.1053 14.7756C48.8339 14.435 49.7082 14.7519 50.0488 15.4805L51.3417 18.2441C51.6839 18.9728 51.3671 19.8488 50.6385 20.1894ZM52.2194 23.3495C50.8892 22.7869 49.4422 23.1394 48.8746 23.5427C43.9827 27.0061 44.7028 32.3673 48.1154 33.1078C50.8774 33.7059 51.8127 31.7709 51.8127 31.7709L52.1211 26.2267L52.2194 23.3495ZM35.3224 25.0609L35.6392 27.9296L36.6068 27.8466C36.6068 27.8466 37.0999 27.7839 37.476 27.4467C37.7404 27.2111 37.9471 26.8434 37.8827 26.2538C37.7234 24.8203 36.2899 24.9779 36.2899 24.9779L35.3224 25.0609Z" fill="#FFDC5D"/>
<path d="M35.6664 27.9262L35.6139 27.933C35.3648 27.9686 35.1309 27.7923 35.0954 27.5433L34.8209 25.5929C34.7853 25.3439 34.9615 25.11 35.2106 25.0744L35.2631 25.0677C35.5122 25.0321 35.746 25.2083 35.7816 25.4574L36.0561 27.4077C36.0917 27.6568 35.9155 27.8906 35.6664 27.9262ZM35.0665 24.3475L37.5845 24.1696C37.5845 24.1696 38.225 24.1205 38.6927 23.6901C38.9841 23.4207 39.2095 23.0038 39.162 22.3515C39.0417 20.6536 37.3439 20.7739 37.3439 20.7739L36.661 20.8231L35.6461 20.8943L34.8276 20.9519L35.0665 24.3475Z" fill="#FFDC5D"/>
<path d="M35.097 24.3458L35.0343 24.3509C34.7378 24.3712 34.4786 24.1459 34.4565 23.8493L34.2922 21.5313C34.2718 21.2348 34.4972 20.9756 34.7937 20.9535L34.8564 20.9485C35.1529 20.9281 35.4122 21.1535 35.4342 21.45L35.5986 23.768C35.6189 24.0645 35.3936 24.3255 35.097 24.3458ZM35.1055 20.1673L35.0038 20.1707C34.6988 20.1792 34.4413 19.9369 34.4328 19.6302L34.3633 17.1275C34.3549 16.8225 34.5972 16.5649 34.9039 16.5565L35.0055 16.5531C35.3105 16.5446 35.5681 16.7869 35.5766 17.0936L35.646 19.5963C35.6545 19.9013 35.4122 20.1589 35.1055 20.1673Z" fill="#FFDC5D"/>
<path d="M36.8288 20.1182C36.8288 20.1182 37.4354 20.0894 37.9352 19.7217C38.2978 19.4557 38.6062 19.0185 38.5842 18.2611C38.5334 16.4548 36.7271 16.5056 36.7271 16.5056L35.8239 16.531L34.953 16.5548L35.0547 20.169L36.8288 20.1182ZM36.1578 15.8397C36.1578 15.8397 36.7644 15.8702 37.2981 15.5534C37.6844 15.3246 38.0335 14.9179 38.086 14.1622C38.2114 12.3593 36.4085 12.2339 36.4085 12.2339L35.5071 12.1712L35.2563 12.1543L35.0055 15.7601L36.1578 15.8397Z" fill="#FFDC5D"/>
<path d="M35.0564 15.7634L34.9547 15.7567C34.6497 15.7346 34.4176 15.4686 34.4379 15.1636L34.6107 12.666C34.6327 12.361 34.8988 12.1289 35.2038 12.1492L35.3054 12.156C35.6104 12.178 35.8426 12.444 35.8222 12.749L35.6494 15.2466C35.6274 15.5533 35.3614 15.7855 35.0564 15.7634Z" fill="#FFDC5D"/>
<path d="M49.5625 35.5834H43.1372C42.4408 35.5834 42.1493 35.9273 41.1073 37.6353L33.6822 48.9864L11.0139 43.837V61H38.7435C41.0022 61 43.0355 60.4798 43.8861 58.3872L51.7365 38.6876C52.4566 36.4306 51.1672 35.5834 49.5625 35.5834Z" fill="#FA743E"/>
</svg>
