<svg width="61" height="61" viewBox="0 0 61 61" fill="none" xmlns="http://www.w3.org/2000/svg">
<g clip-path="url(#clip0_332_555)">
<path d="M25.4167 52.5278C25.4167 56.2708 24.0764 59.3056 20.3334 59.3056H8.47225C1.69447 59.3056 1.69447 35.5834 8.47225 35.5834H20.3334C24.0764 35.5834 25.4167 38.6181 25.4167 42.3612V52.5278Z" fill="#553788"/>
<path d="M57.6111 55.9167H55.9166V38.9723H57.6111C58.5481 38.9723 59.3055 38.2148 59.3055 37.2778C59.3055 36.3408 58.5481 35.5834 57.6111 35.5834H16.9444C10.1666 35.5834 10.1666 59.3056 16.9444 59.3056H57.6111C58.5481 59.3056 59.3055 58.5482 59.3055 57.6112C59.3055 56.6741 58.5481 55.9167 57.6111 55.9167Z" fill="#9266CC"/>
<path d="M57.9026 55.9166H18.6389C15.25 55.9166 15.25 38.9722 18.6389 38.9722H57.9026C59.7732 38.9722 59.7732 55.9166 57.9026 55.9166Z" fill="#CCD6DD"/>
<path d="M19.4861 42.3611H59.0514C58.8226 40.3701 58.4414 38.9722 57.9026 38.9722H18.6389C15.8414 38.9722 15.355 50.5079 17.1766 54.5407C16.5124 49.5269 17.2816 42.3611 19.4861 42.3611Z" fill="#99AAB5"/>
<path d="M20.3333 13.5556C20.3333 17.2986 17.2986 20.3333 13.5556 20.3333H6.77779C1.34706e-05 20.3333 1.34706e-05 1.69446 6.77779 1.69446H13.5556C17.2986 1.69446 20.3333 4.72921 20.3333 8.47224V13.5556Z" fill="#226699"/>
<path d="M52.5278 16.9445H50.8333V5.08335H52.5278C53.4648 5.08335 54.2222 4.32593 54.2222 3.3889C54.2222 2.45187 53.4648 1.69446 52.5278 1.69446H11.8611C5.08333 1.69446 5.08333 20.3333 11.8611 20.3333H52.5278C53.4648 20.3333 54.2222 19.5759 54.2222 18.6389C54.2222 17.7019 53.4648 16.9445 52.5278 16.9445Z" fill="#55ACEE"/>
<path d="M52.8193 16.9445H13.5556C10.1667 16.9445 10.1667 5.08337 13.5556 5.08337H52.8193C54.6899 5.08337 54.6899 16.9445 52.8193 16.9445Z" fill="#CCD6DD"/>
<path d="M13.5555 8.47226H54.0951C53.9019 6.56601 53.4783 5.08337 52.8192 5.08337H13.5555C11.5341 5.08337 10.7275 9.30085 11.1189 12.7084C11.3832 10.4073 12.1881 8.47226 13.5555 8.47226Z" fill="#99AAB5"/>
<path d="M33.8889 28.8056C33.8889 32.5486 30.8541 35.5834 27.1111 35.5834H10.1666C3.38887 35.5834 3.38887 20.3334 10.1666 20.3334H27.1111C30.8541 20.3334 33.8889 23.3681 33.8889 27.1112V28.8056Z" fill="#F4900C"/>
<path d="M59.3055 32.1945H57.6111V23.7223H59.3055C60.2426 23.7223 61 22.9648 61 22.0278C61 21.0908 60.2426 20.3334 59.3055 20.3334H25.4166C18.6389 20.3334 18.6389 35.5834 25.4166 35.5834H59.3055C60.2426 35.5834 61 34.826 61 33.8889C61 32.9519 60.2426 32.1945 59.3055 32.1945Z" fill="#FFAC33"/>
<path d="M59.597 32.1944H27.1111C23.7222 32.1944 23.7222 23.7222 27.1111 23.7222H59.597C61.4677 23.7222 61.4677 32.1944 59.597 32.1944Z" fill="#CCD6DD"/>
<path d="M27.1111 27.1111H60.9729C60.8628 25.3116 60.407 23.7222 59.597 23.7222H27.1111C24.9524 23.7222 24.1747 27.1568 24.7677 29.6527C25.1032 28.2311 25.881 27.1111 27.1111 27.1111Z" fill="#99AAB5"/>
</g>
<defs>
<clipPath id="clip0_332_555">
<rect width="61" height="61" fill="white"/>
</clipPath>
</defs>
</svg>
