<svg width="61" height="61" viewBox="0 0 61 61" fill="none" xmlns="http://www.w3.org/2000/svg">
<path d="M53.1688 28.9982V22.585C53.1688 19.5474 50.6316 17.085 47.5019 17.085H32.0004C31.0625 17.085 30.1854 16.6346 29.6578 15.882L25.6768 10.203C25.1491 9.45041 24.272 8.99996 23.334 9H10.6669C7.53717 9 5 11.4624 5 14.5V48.4222C5 49.6363 5.49694 50.8007 6.3815 51.6592C7.26606 52.5177 8.46579 53 9.71675 53V53C11.9274 53 13.8415 51.5098 14.3211 49.4153L18.1813 32.5569C18.7574 30.0405 21.0571 28.25 23.7131 28.25H50.333C52.0519 28.25 53.6779 29.0072 54.7535 30.3085C55.829 31.6098 56.2379 33.3146 55.865 34.9431L52.7167 48.6931C52.1405 51.2096 49.8408 53 47.1848 53H9.71675" stroke="#EDEDED" stroke-width="2" stroke-linecap="round" stroke-linejoin="round"/>
</svg>
