<svg width="61" height="61" viewBox="0 0 61 61" fill="none" xmlns="http://www.w3.org/2000/svg">
<path d="M48.6915 48.7441L12.3321 48.8729L9.53801 57.0656C9.43295 57.3824 9.36687 57.7213 9.41431 58.0517C9.66001 59.7191 11.0969 61.0001 12.832 61.0001H48.2357C49.9708 61.0001 51.4077 59.7191 51.6534 58.0517C51.7026 57.7213 51.6365 57.3824 51.5297 57.0656L48.6915 48.7441Z" fill="#BF6952"/>
<path d="M48.6915 48.7441L48.3696 47.802C48.0324 46.7887 47.0835 46.1058 46.016 46.1058H15.0517C13.9842 46.1058 13.0353 46.7887 12.6982 47.802L12.3322 48.8729C17.2935 52.8446 23.5765 55.2338 30.4254 55.2338C37.3523 55.2338 43.7048 52.7972 48.6915 48.7441Z" fill="#854836"/>
<path d="M30.4254 52.1482C44.7322 52.1482 56.3301 40.5503 56.3301 26.2435C56.3301 11.9368 44.7322 0.338867 30.4254 0.338867C16.1187 0.338867 4.52075 11.9368 4.52075 26.2435C4.52075 40.5503 16.1187 52.1482 30.4254 52.1482Z" fill="#AA8DD8"/>
<path d="M39.423 28.0684C43.3487 28.0684 46.5311 24.886 46.5311 20.9602C46.5311 17.0345 43.3487 13.8521 39.423 13.8521C35.4972 13.8521 32.3148 17.0345 32.3148 20.9602C32.3148 24.886 35.4972 28.0684 39.423 28.0684Z" fill="#744EAA"/>
<path d="M25.2049 36.9525C28.1489 36.9525 30.5356 34.5658 30.5356 31.6217C30.5356 28.6777 28.1489 26.291 25.2049 26.291C22.2608 26.291 19.8741 28.6777 19.8741 31.6217C19.8741 34.5658 22.2608 36.9525 25.2049 36.9525Z" fill="#744EAA"/>
<path d="M26.9823 12.0746C28.9457 12.0746 30.5373 10.483 30.5373 8.51967C30.5373 6.55632 28.9457 4.96472 26.9823 4.96472C25.019 4.96472 23.4274 6.55632 23.4274 8.51967C23.4274 10.483 25.019 12.0746 26.9823 12.0746Z" fill="#744EAA"/>
</svg>
