<svg width="61" height="61" viewBox="0 0 61 61" fill="none" xmlns="http://www.w3.org/2000/svg">
<g clip-path="url(#clip0_332_554)">
<path d="M6.77778 61C6.77778 61 0 61 0 54.2222V6.77778C0 6.77778 0 0 6.77778 0H50.8333C52.5278 0 54.2222 1.69444 54.2222 1.69444L59.3056 6.77778C59.3056 6.77778 61 8.47222 61 10.1667V54.2222C61 54.2222 61 61 54.2222 61H6.77778Z" fill="#31373D"/>
<path d="M8.47223 32.1944V30.5C8.47223 30.5 8.47223 27.1111 11.8611 27.1111H47.4445C50.8333 27.1111 50.8333 30.5 50.8333 30.5V32.1944H8.47223Z" fill="#55ACEE"/>
<path d="M8.47223 54.2578V32.1945H50.8333V54.2222C50.8333 54.2222 50.8333 57.6111 47.4445 57.6111H11.8611C8.47223 57.6111 8.47223 54.2578 8.47223 54.2578ZM16.9445 5.08336C16.9445 5.08336 16.9445 3.38892 18.6389 3.38892H49.1389C50.9147 3.38892 50.8333 5.08336 50.8333 5.08336V22.0278C50.8333 22.0278 50.8333 23.7222 49.1389 23.7222H18.6389C18.6389 23.7222 16.9445 23.7222 16.9445 22.0278V5.08336ZM37.2778 22.0278H45.75V5.08336H37.2778V22.0278Z" fill="#E1E8ED"/>
</g>
<defs>
<clipPath id="clip0_332_554">
<rect width="61" height="61" fill="white"/>
</clipPath>
</defs>
</svg>
