<svg width="61" height="61" viewBox="0 0 61 61" fill="none" xmlns="http://www.w3.org/2000/svg">
<path d="M52.5278 3.38892H8.47225C5.66456 3.38892 3.38892 5.66456 3.38892 8.47225V52.5278C3.38892 55.3355 5.66456 57.6111 8.47225 57.6111H52.5278C55.3355 57.6111 57.6111 55.3355 57.6111 52.5278V8.47225C57.6111 5.66456 55.3355 3.38892 52.5278 3.38892Z" fill="#CCD6DD"/>
<path d="M52.5278 1.69434H8.47224C4.72921 1.69434 1.69446 4.72909 1.69446 8.47211V52.5277C1.69446 56.2707 4.72921 59.3054 8.47224 59.3054H52.5278C56.2708 59.3054 59.3056 56.2707 59.3056 52.5277V8.47211C59.3056 4.72909 56.2708 1.69434 52.5278 1.69434ZM52.5278 5.08322C54.3968 5.08322 55.9167 6.60314 55.9167 8.47211V15.2499H45.75V5.08322H52.5278ZM45.75 32.1943H55.9167V42.361H45.75V32.1943ZM45.75 28.8054V18.6388H55.9167V28.8054H45.75ZM42.3611 5.08322V15.2499H32.1945V5.08322H42.3611ZM32.1945 18.6388H42.3611V28.8054H32.1945V18.6388ZM32.1945 32.1943H42.3611V42.361H32.1945V32.1943ZM28.8056 5.08322V15.2499H18.6389V5.08322H28.8056ZM18.6389 18.6388H28.8056V28.8054H18.6389V18.6388ZM18.6389 32.1943H28.8056V42.361H18.6389V32.1943ZM5.08335 8.47211C5.08335 6.60314 6.60326 5.08322 8.47224 5.08322H15.25V15.2499H5.08335V8.47211ZM5.08335 18.6388H15.25V28.8054H5.08335V18.6388ZM5.08335 32.1943H15.25V42.361H5.08335V32.1943ZM8.47224 55.9166C6.60326 55.9166 5.08335 54.3966 5.08335 52.5277V45.7499H15.25V55.9166H8.47224ZM18.6389 55.9166V45.7499H28.8056V55.9166H18.6389ZM32.1945 55.9166V45.7499H42.3611V55.9166H32.1945ZM52.5278 55.9166H45.75V45.7499H55.9167V52.5277C55.9167 54.3966 54.3968 55.9166 52.5278 55.9166Z" fill="#E1E8ED"/>
<path d="M22.0278 55.9166H11.8611V27.1111C11.8611 25.2404 13.3793 23.7222 15.25 23.7222H18.6389C20.5095 23.7222 22.0278 25.2404 22.0278 27.1111V55.9166Z" fill="#5C913B"/>
<path d="M49.1389 55.9166H38.9722V15.25C38.9722 13.3793 40.4905 11.8611 42.3611 11.8611H45.75C47.6207 11.8611 49.1389 13.3793 49.1389 15.25V55.9166Z" fill="#3B94D9"/>
<path d="M35.5834 55.9166H25.4167V38.9721C25.4167 37.1015 26.9349 35.5833 28.8056 35.5833H32.1945C34.0651 35.5833 35.5834 37.1015 35.5834 38.9721V55.9166Z" fill="#DD2E44"/>
</svg>
