<svg width="61" height="61" viewBox="0 0 61 61" fill="none" xmlns="http://www.w3.org/2000/svg">
<path d="M30.5 5.32568C13.6555 5.32568 0 17.0309 0 31.4676C0 33.2738 0.2135 35.0378 0.621861 36.7407C3.63628 41.9274 5.72214 38.6537 15.25 33.8889C24.9541 29.036 15.25 40.6667 11.8611 47.4445C10.819 49.5287 11.3833 51.2926 12.81 52.7379C17.8018 55.7947 23.8984 57.6112 30.5 57.6112C47.3445 57.6112 61 45.9076 61 31.4676C61 17.0309 47.3445 5.32568 30.5 5.32568ZM35.3275 46.7498C34.6582 49.0305 31.1591 50.0099 27.511 48.9373C23.8629 47.8664 21.4483 45.1519 22.1176 42.8695C22.7869 40.5888 26.2859 39.6094 29.9341 40.6837C33.5822 41.7528 35.9968 44.4674 35.3275 46.7498Z" fill="#D99E82"/>
<path d="M16.9444 23.7222C19.7519 23.7222 22.0278 21.4463 22.0278 18.6389C22.0278 15.8314 19.7519 13.5555 16.9444 13.5555C14.137 13.5555 11.8611 15.8314 11.8611 18.6389C11.8611 21.4463 14.137 23.7222 16.9444 23.7222Z" fill="#5C913B"/>
<path d="M33.8889 20.3333C36.6963 20.3333 38.9722 18.0574 38.9722 15.25C38.9722 12.4425 36.6963 10.1666 33.8889 10.1666C31.0814 10.1666 28.8055 12.4425 28.8055 15.25C28.8055 18.0574 31.0814 20.3333 33.8889 20.3333Z" fill="#226699"/>
<path d="M49.1389 30.5C51.9463 30.5 54.2222 28.2242 54.2222 25.4167C54.2222 22.6093 51.9463 20.3334 49.1389 20.3334C46.3314 20.3334 44.0555 22.6093 44.0555 25.4167C44.0555 28.2242 46.3314 30.5 49.1389 30.5Z" fill="#DD2E44"/>
<path d="M47.4444 45.75C50.2519 45.75 52.5278 43.4742 52.5278 40.6667C52.5278 37.8593 50.2519 35.5834 47.4444 35.5834C44.637 35.5834 42.3611 37.8593 42.3611 40.6667C42.3611 43.4742 44.637 45.75 47.4444 45.75Z" fill="#FFCC4D"/>
</svg>
