<svg width="61" height="61" viewBox="0 0 61 61" fill="none" xmlns="http://www.w3.org/2000/svg">
<path d="M0 49.1388C0 52.8818 3.03475 55.9166 6.77778 55.9166H47.4444C51.1875 55.9166 54.2222 52.8818 54.2222 49.1388V20.3333C54.2222 16.5902 51.1875 13.5555 47.4444 13.5555H32.1944C26.1588 13.5555 27.1111 5.08325 17.8967 5.08325H6.77778C3.03475 5.08325 0 8.118 0 11.861V49.1388Z" fill="#226699"/>
<path d="M54.7916 20.3333H43.6726C34.4582 20.3333 34.5514 28.8055 28.5158 28.8055H13.2658C9.52278 28.8055 6.17964 31.8402 5.80008 35.5833L4.96472 42.1475L4.07683 49.1388L4.04294 49.1354C3.84639 50.1639 2.90428 50.8282 1.84017 50.8282C0.750639 50.8282 -0.0338889 49.9691 0.0203333 48.8897C0.0169444 48.9744 0 49.0541 0 49.1388C0 52.5345 2.50439 55.3201 5.76111 55.8132C6.06103 55.8776 6.38975 55.9166 6.77778 55.9166H50.8333C54.5764 55.9166 57.9195 52.8818 58.2991 49.1388L60.8797 27.111C61.2609 23.368 58.5346 20.3333 54.7916 20.3333Z" fill="#55ACEE"/>
</svg>
