<svg width="61" height="61" viewBox="0 0 61 61" fill="none" xmlns="http://www.w3.org/2000/svg">
<g clip-path="url(#clip0_332_548)">
<path d="M54.2222 13.5556H44.0556V6.77778C44.0556 3.03475 41.0208 0 37.2778 0H23.7222C19.9792 0 16.9444 3.03475 16.9444 6.77778V13.5556H6.77778C3.03475 13.5556 0 16.5903 0 20.3333V54.2222C0 57.9652 3.03475 61 6.77778 61H54.2222C57.9652 61 61 57.9652 61 54.2222V20.3333C61 16.5903 57.9652 13.5556 54.2222 13.5556ZM20.3333 10.1667C20.3333 8.296 21.8516 6.77778 23.7222 6.77778H37.2778C39.1484 6.77778 40.6667 8.296 40.6667 10.1667V13.5556H20.3333V10.1667Z" fill="#9A4E1C"/>
<path d="M61 33.8889C61 37.6319 57.9652 40.6667 54.2222 40.6667H6.77778C3.03475 40.6667 0 37.6319 0 33.8889V20.3333C0 16.5903 3.03475 13.5555 6.77778 13.5555H54.2222C57.9652 13.5555 61 16.5903 61 20.3333V33.8889Z" fill="#662113"/>
<path d="M61 30.5C61 34.243 57.9652 37.2778 54.2222 37.2778H6.77778C3.03475 37.2778 0 34.243 0 30.5V20.3333C0 16.5903 3.03475 13.5555 6.77778 13.5555H54.2222C57.9652 13.5555 61 16.5903 61 20.3333V30.5Z" fill="#9A4E1C"/>
<path d="M37.2778 30.5C37.2778 32.3706 35.7596 33.8889 33.8889 33.8889H27.1111C25.2405 33.8889 23.7222 32.3706 23.7222 30.5C23.7222 28.6293 25.2405 27.1111 27.1111 27.1111H33.8889C35.7596 27.1111 37.2778 28.6293 37.2778 30.5Z" fill="#CCD6DD"/>
</g>
<defs>
<clipPath id="clip0_332_548">
<rect width="61" height="61" fill="white"/>
</clipPath>
</defs>
</svg>
