<svg width="220" height="34" viewBox="0 0 220 34" fill="none" xmlns="http://www.w3.org/2000/svg">
<path d="M44.2321 25.9193L46.2534 23.4957C48.4155 25.487 51.2907 26.5743 54.2642 26.5253C55.2299 26.5525 56.1919 26.3975 57.0974 26.0688C57.7711 25.824 58.3638 25.4051 58.8122 24.857C59.1807 24.3943 59.3843 23.827 59.3921 23.2412C59.3972 22.6216 59.2142 22.0144 58.866 21.4961C58.3829 20.8538 57.7533 20.3297 57.0269 19.9652C55.8468 19.3465 54.6081 18.8406 53.3281 18.4544C51.6445 17.9224 50.0274 17.2084 48.5067 16.3256C47.4884 15.7622 46.6333 14.9561 46.0214 13.9828C45.5421 13.1291 45.2981 12.1687 45.3131 11.1955C45.3041 10.005 45.6763 8.84146 46.3777 7.86704C47.1456 6.8298 48.1798 6.00786 49.3765 5.48376C50.7558 4.86409 52.2612 4.55749 53.7796 4.58701C55.274 4.59931 56.7541 4.87294 58.1494 5.3949C59.5985 5.91139 60.942 6.67456 62.1176 7.64891L60.1335 10.1816C59.261 9.34963 58.2388 8.68141 57.1181 8.21039C55.9805 7.73745 54.7552 7.49819 53.5186 7.50753C51.906 7.50753 50.6965 7.84146 49.8901 8.50931C49.5205 8.78569 49.2197 9.13997 49.0103 9.54568C48.8008 9.95139 48.6882 10.398 48.6807 10.8522C48.6862 11.3819 48.8566 11.8975 49.1694 12.3306C49.626 12.905 50.213 13.3682 50.8842 13.6838C51.9944 14.2367 53.1533 14.6909 54.347 15.0411C56.1358 15.5485 57.8445 16.2934 59.4252 17.2547C60.5203 17.9102 61.4469 18.8014 62.1341 19.8602C62.677 20.7482 62.9632 21.763 62.9626 22.7968C62.9731 24.0109 62.6095 25.2001 61.9187 26.2102C61.1585 27.2957 60.1007 28.1509 58.866 28.6783C57.325 29.3278 55.6565 29.6394 53.9784 29.5912C52.7526 29.5892 51.5325 29.4289 50.3499 29.1145C49.1642 28.8119 48.0188 28.3754 46.9368 27.8138C45.9485 27.3094 45.0379 26.6716 44.2321 25.9193Z" fill="#003986"/>
<path d="M66.935 20.1794C66.8749 18.4023 67.2453 16.6364 68.0161 15.025C68.664 13.7054 69.6916 12.598 70.9735 11.8379C72.2863 11.1226 73.7651 10.747 75.2689 10.747C76.7727 10.747 78.2514 11.1226 79.5642 11.8379C80.8428 12.5996 81.8673 13.7067 82.5134 15.025C83.2818 16.6372 83.6521 18.4025 83.5945 20.1794C83.6501 21.9561 83.2799 23.721 82.5134 25.3337C81.8696 26.6563 80.8392 27.7637 79.5518 28.5168C78.2356 29.2219 76.7582 29.5915 75.2565 29.5915C73.7548 29.5915 72.2773 29.2219 70.9611 28.5168C69.6795 27.7617 68.655 26.6544 68.0161 25.3337C67.2477 23.7216 66.8774 21.9563 66.935 20.1794ZM70.3274 20.1794C70.2915 21.3965 70.491 22.6092 70.9156 23.7543C71.2445 24.6409 71.8354 25.4126 72.6138 25.9719C73.4062 26.4654 74.3267 26.7276 75.2668 26.7276C76.207 26.7276 77.1275 26.4654 77.9198 25.9719C78.6958 25.4112 79.285 24.6398 79.6139 23.7543C80.0413 22.6098 80.2436 21.397 80.2104 20.1794C80.2431 18.9631 80.0408 17.7517 79.6139 16.6085C79.2819 15.7191 78.6937 14.942 77.9198 14.3706C77.1314 13.867 76.2093 13.5988 75.2668 13.5988C74.3243 13.5988 73.4023 13.867 72.6138 14.3706C71.8376 14.9406 71.2476 15.718 70.9156 16.6085C70.4916 17.7523 70.292 18.9636 70.3274 20.1794Z" fill="#003986"/>
<path d="M88.6642 22.223V11.0983H91.9779V21.7988C91.9779 23.4442 92.3451 24.6412 93.0797 25.3899C93.4433 25.7625 93.8838 26.0557 94.3722 26.2499C94.8606 26.4442 95.3857 26.5352 95.9128 26.5169C96.892 26.5129 97.852 26.252 98.6922 25.7615C99.6406 25.2091 100.493 24.5138 101.219 23.7014V26.2341C100.452 27.2012 99.5104 28.0228 98.4395 28.6578C97.4351 29.2465 96.2898 29.5679 95.1181 29.5899C93.9465 29.6119 92.7894 29.3336 91.7625 28.783C90.7678 28.2104 89.9748 27.3568 89.4885 26.3351C88.893 25.0445 88.6109 23.6373 88.6642 22.223ZM101.443 29.2274L100.685 25.705V11.0983H103.998V24.9294C103.998 25.4222 103.998 25.8746 104.052 26.2826C104.106 26.6906 104.156 27.1592 104.251 27.6722L104.541 29.2233L101.443 29.2274Z" fill="#003986"/>
<path d="M107.78 26.6221L111.247 22.6796C111.672 23.2577 112.227 23.7331 112.87 24.0691C113.556 24.4349 114.326 24.6227 115.107 24.6145C115.681 24.6456 116.255 24.5532 116.788 24.3438C117.322 24.1343 117.801 23.813 118.193 23.4026C118.926 22.5947 119.295 21.4314 119.295 19.8843V4.93831H125.069V20.6033C125.123 22.33 124.666 24.0354 123.752 25.5153C122.895 26.847 121.668 27.9143 120.214 28.5933C118.678 29.3099 116.993 29.672 115.289 29.6517C113.851 29.673 112.424 29.3977 111.102 28.8438C109.862 28.3119 108.735 27.5583 107.78 26.6221ZM113.392 9.17569V4.93831H123.139V9.17569H113.392Z" fill="#003986"/>
<path d="M130.321 22.2231V10.747H135.735V21.4112C135.735 22.5611 136.018 23.412 136.584 23.9641C136.884 24.2414 137.239 24.456 137.627 24.5949C138.016 24.7338 138.429 24.7941 138.841 24.772C139.585 24.7664 140.319 24.598 140.987 24.2792C141.724 23.9301 142.372 23.425 142.884 22.8007V26.2868C142.174 27.2414 141.293 28.0626 140.283 28.7104C139.259 29.3433 138.066 29.6679 136.853 29.6436C135.747 29.6477 134.659 29.3692 133.697 28.8357C132.662 28.2463 131.816 27.3856 131.257 26.3514C130.59 25.0754 130.268 23.6544 130.321 22.2231ZM143.029 29.2275L142.342 25.7051V10.7591H147.755V24.8285C147.755 25.3213 147.755 25.7616 147.809 26.1454C147.863 26.5291 147.913 26.9856 148.008 27.5027L148.298 29.2275H143.029Z" fill="#003986"/>
<path d="M152.626 10.7476H157.899L158.582 14.266V29.2119H153.169V15.1466C153.169 14.6537 153.169 14.2134 153.115 13.8257C153.061 13.4379 153.011 12.9895 152.916 12.4724L152.626 10.7476ZM158.044 17.1542V13.6681C158.761 12.7025 159.661 11.8798 160.695 11.2444C161.741 10.6159 162.95 10.2922 164.178 10.3113C165.344 10.3103 166.489 10.6174 167.49 11.1999C168.492 11.7824 169.312 12.6186 169.865 13.6196C170.548 14.8939 170.877 16.3196 170.822 17.756V29.2281H165.409V18.5599C165.434 17.8968 165.292 17.2379 164.994 16.6412C164.745 16.1651 164.348 15.7778 163.859 15.5343C163.343 15.2927 162.775 15.1723 162.203 15.1829C161.407 15.1973 160.623 15.3812 159.908 15.7217C159.192 16.0622 158.562 16.5511 158.061 17.1542H158.044Z" fill="#003986"/>
<path d="M175.656 5.4314C175.652 5.03736 175.728 4.64643 175.88 4.28109C176.031 3.91575 176.255 3.58322 176.539 3.30261C177.133 2.7254 177.937 2.40129 178.775 2.40129C179.614 2.40129 180.418 2.7254 181.012 3.30261C181.293 3.5844 181.514 3.91751 181.663 4.28282C181.811 4.64813 181.884 5.03846 181.878 5.4314C181.882 5.82515 181.807 6.21591 181.657 6.58123C181.506 6.94656 181.283 7.27925 181 7.56019C180.405 8.1308 179.604 8.45057 178.769 8.45057C177.935 8.45057 177.134 8.1308 176.539 7.56019C176.255 7.27945 176.031 6.94688 175.88 6.58157C175.729 6.21626 175.653 5.8254 175.656 5.4314ZM176.071 29.2278V10.7473H181.488V29.2278H176.071Z" fill="#003986"/>
<path d="M185.548 20.0061C185.496 18.2112 185.906 16.4322 186.74 14.8316C187.494 13.4302 188.644 12.2693 190.054 11.4869C191.539 10.7126 193.198 10.3074 194.882 10.3074C196.566 10.3074 198.224 10.7126 199.709 11.4869C201.103 12.2772 202.238 13.437 202.982 14.8316C203.813 16.4274 204.224 18.2005 204.175 19.99C204.22 21.7676 203.81 23.5282 202.982 25.112C202.234 26.5082 201.095 27.6682 199.697 28.4567C198.212 29.2311 196.554 29.6362 194.869 29.6362C193.185 29.6362 191.527 29.2311 190.042 28.4567C188.632 27.6743 187.481 26.5134 186.728 25.112C185.906 23.5319 185.501 21.7773 185.548 20.0061ZM191.036 20.0061C191.004 21.0458 191.162 22.0827 191.504 23.068C191.749 23.7763 192.216 24.3921 192.838 24.8292C193.445 25.1962 194.146 25.3906 194.861 25.3906C195.576 25.3906 196.277 25.1962 196.884 24.8292C197.506 24.3921 197.973 23.7763 198.218 23.068C198.562 22.0832 198.72 21.0459 198.686 20.0061C198.721 18.9663 198.562 17.929 198.218 16.9442C197.97 16.2316 197.505 15.61 196.884 15.1628C196.28 14.7857 195.578 14.5853 194.861 14.5853C194.144 14.5853 193.442 14.7857 192.838 15.1628C192.217 15.61 191.752 16.2316 191.504 16.9442C191.162 17.9295 191.003 18.9664 191.036 20.0061Z" fill="#003986"/>
<path d="M207.712 10.7475H212.989L213.668 14.4275V29.2119H208.254V15.1465C208.254 14.6537 208.234 14.2134 208.2 13.8256C208.167 13.4378 208.097 12.9894 208.002 12.4724L207.712 10.7475ZM213.125 17.6833V14.3709C213.795 13.183 214.742 12.1648 215.888 11.3979C216.954 10.6943 218.213 10.3199 219.5 10.3234V15.5343C218.297 15.5055 217.097 15.6595 215.942 15.9907C214.894 16.3604 213.935 16.9365 213.125 17.6833Z" fill="#003986"/>
<path d="M7.88948 23.782H2.56276C1.42353 23.782 0.5 24.6826 0.5 25.7936V30.9884C0.5 32.0994 1.42353 33 2.56276 33H7.88948C9.02871 33 9.95223 32.0994 9.95223 30.9884V25.7936C9.95223 24.6826 9.02871 23.782 7.88948 23.782Z" fill="#003986"/>
<path d="M19.3504 12.3914H14.0237C12.8845 12.3914 11.9609 13.2921 11.9609 14.4031V19.5978C11.9609 20.7088 12.8845 21.6095 14.0237 21.6095H19.3504C20.4896 21.6095 21.4132 20.7088 21.4132 19.5978V14.4031C21.4132 13.2921 20.4896 12.3914 19.3504 12.3914Z" fill="#003986"/>
<path d="M31.0061 1H25.6793C24.5401 1 23.6166 1.90064 23.6166 3.01165V8.20638C23.6166 9.31738 24.5401 10.218 25.6793 10.218H31.0061C32.1453 10.218 33.0688 9.31738 33.0688 8.20638V3.01165C33.0688 1.90064 32.1453 1 31.0061 1Z" fill="#003986"/>
<path d="M19.3504 23.782H14.0237C12.8845 23.782 11.9609 24.6826 11.9609 25.7936V30.9884C11.9609 32.0994 12.8845 33 14.0237 33H19.3504C20.4896 33 21.4132 32.0994 21.4132 30.9884V25.7936C21.4132 24.6826 20.4896 23.782 19.3504 23.782Z" stroke="#003986" stroke-width="0.830793" stroke-miterlimit="10"/>
<path d="M31.0061 12.3914H25.6793C24.5401 12.3914 23.6166 13.2921 23.6166 14.4031V19.5978C23.6166 20.7088 24.5401 21.6095 25.6793 21.6095H31.0061C32.1453 21.6095 33.0688 20.7088 33.0688 19.5978V14.4031C33.0688 13.2921 32.1453 12.3914 31.0061 12.3914Z" stroke="#003986" stroke-width="0.830793" stroke-miterlimit="10"/>
<path d="M7.88948 12.3914H2.56276C1.42353 12.3914 0.5 13.2921 0.5 14.4031V19.5978C0.5 20.7088 1.42353 21.6095 2.56276 21.6095H7.88948C9.02871 21.6095 9.95223 20.7088 9.95223 19.5978V14.4031C9.95223 13.2921 9.02871 12.3914 7.88948 12.3914Z" stroke="#003986" stroke-width="0.830793" stroke-miterlimit="10"/>
<path d="M19.3504 1H14.0237C12.8845 1 11.9609 1.90064 11.9609 3.01165V8.20638C11.9609 9.31738 12.8845 10.218 14.0237 10.218H19.3504C20.4896 10.218 21.4132 9.31738 21.4132 8.20638V3.01165C21.4132 1.90064 20.4896 1 19.3504 1Z" stroke="#003986" stroke-width="0.830793" stroke-miterlimit="10"/>
</svg>
