<svg width="217" height="35" viewBox="0 0 217 35" fill="none" xmlns="http://www.w3.org/2000/svg">
<path d="M43.9683 26.5005L45.9543 24.0548C48.0787 26.0642 50.9036 27.1615 53.8252 27.112C54.774 27.1394 55.7193 26.983 56.6089 26.6513C57.2708 26.4043 57.8532 25.9816 58.2938 25.4285C58.6559 24.9616 58.8559 24.3891 58.8635 23.798C58.8685 23.1728 58.6887 22.5601 58.3467 22.0371C57.872 21.3889 57.2534 20.86 56.5397 20.4922C55.3801 19.8679 54.1631 19.3574 52.9054 18.9677C51.2513 18.4309 49.6624 17.7103 48.1682 16.8195C47.1678 16.251 46.3276 15.4376 45.7264 14.4553C45.2555 13.5939 45.0157 12.6248 45.0305 11.6428C45.0216 10.4414 45.3872 9.26727 46.0764 8.28398C46.8309 7.2373 47.8471 6.40788 49.0229 5.87902C50.3781 5.25371 51.8572 4.94431 53.349 4.9741C54.8174 4.98652 56.2716 5.26263 57.6426 5.78934C59.0663 6.31053 60.3864 7.08064 61.5414 8.06386L59.592 10.6196C58.7347 9.78006 57.7304 9.10576 56.6292 8.63046C55.5115 8.15321 54.3076 7.91177 53.0926 7.9212C51.5081 7.9212 50.3198 8.25816 49.5275 8.93209C49.1644 9.21098 48.8688 9.56849 48.663 9.97789C48.4573 10.3873 48.3465 10.838 48.3392 11.2963C48.3446 11.8308 48.5121 12.3511 48.8194 12.7882C49.268 13.3678 49.8448 13.8352 50.5043 14.1537C51.595 14.7116 52.7337 15.17 53.9066 15.5233C55.6641 16.0354 57.343 16.787 58.8961 17.7571C59.972 18.4185 60.8825 19.3179 61.5577 20.3862C62.0911 21.2823 62.3723 22.3064 62.3716 23.3496C62.382 24.5747 62.0247 25.7747 61.3461 26.794C60.5991 27.8894 59.5598 28.7524 58.3467 29.2846C56.8325 29.94 55.1932 30.2544 53.5444 30.2058C52.34 30.2038 51.1412 30.0421 49.9793 29.7248C48.8143 29.4194 47.6889 28.9789 46.6258 28.4123C45.6547 27.9032 44.7601 27.2596 43.9683 26.5005Z" fill="#EDEDED"/>
<path d="M66.2745 20.7083C66.2155 18.915 66.5794 17.1331 67.3367 15.507C67.9733 14.1754 68.9829 13.0579 70.2425 12.2909C71.5324 11.5691 72.9853 11.1901 74.4628 11.1901C75.9404 11.1901 77.3933 11.5691 78.6832 12.2909C79.9394 13.0595 80.946 14.1767 81.5808 15.507C82.3358 17.1338 82.6996 18.9152 82.643 20.7083C82.6976 22.5012 82.3339 24.2821 81.5808 25.9095C80.9483 27.2441 79.9359 28.3617 78.6709 29.1216C77.3777 29.833 75.9261 30.206 74.4506 30.206C72.9751 30.206 71.5235 29.833 70.2303 29.1216C68.9711 28.3595 67.9645 27.2422 67.3367 25.9095C66.5817 24.2827 66.2179 22.5013 66.2745 20.7083ZM69.6076 20.7083C69.5724 21.9364 69.7684 23.1603 70.1855 24.3157C70.5087 25.2104 71.0893 25.9892 71.8541 26.5536C72.6326 27.0515 73.5371 27.3161 74.4608 27.3161C75.3845 27.3161 76.289 27.0515 77.0675 26.5536C77.8299 25.9877 78.4088 25.2093 78.732 24.3157C79.1519 23.1608 79.3507 21.937 79.318 20.7083C79.3502 19.481 79.1514 18.2586 78.732 17.1049C78.4058 16.2074 77.8278 15.4232 77.0675 14.8467C76.2928 14.3385 75.3869 14.0678 74.4608 14.0678C73.5347 14.0678 72.6288 14.3385 71.8541 14.8467C71.0915 15.4218 70.5118 16.2063 70.1855 17.1049C69.7689 18.2591 69.5729 19.4815 69.6076 20.7083Z" fill="#EDEDED"/>
<path d="M87.6247 22.7705V11.5447H90.8805V22.3425C90.8805 24.0029 91.2413 25.2108 91.963 25.9663C92.3203 26.3423 92.7531 26.6381 93.233 26.8342C93.7129 27.0302 94.2288 27.122 94.7467 27.1035C95.7088 27.0995 96.652 26.8362 97.4775 26.3413C98.4094 25.7839 99.2473 25.0823 99.9601 24.2624V26.8182C99.207 27.7941 98.2814 28.6231 97.2293 29.2639C96.2423 29.858 95.1171 30.1823 93.9659 30.2045C92.8147 30.2267 91.6778 29.9459 90.6688 29.3903C89.6915 28.8125 88.9124 27.9511 88.4345 26.9201C87.8494 25.6178 87.5723 24.1977 87.6247 22.7705ZM100.18 29.8387L99.4351 26.2842V11.5447H102.691V25.5016C102.691 25.9989 102.691 26.4554 102.744 26.8671C102.797 27.2788 102.845 27.7517 102.939 28.2693L103.224 29.8346L100.18 29.8387Z" fill="#EDEDED"/>
<path d="M106.406 27.2097L109.813 23.2314C110.231 23.8148 110.776 24.2945 111.408 24.6336C112.082 25.0027 112.838 25.1922 113.606 25.1839C114.17 25.2153 114.734 25.122 115.258 24.9107C115.782 24.6994 116.253 24.3751 116.638 23.961C117.358 23.1458 117.72 21.9718 117.72 20.4106V5.32867H123.394V21.1362C123.447 22.8786 122.997 24.5995 122.099 26.0928C121.258 27.4367 120.052 28.5137 118.624 29.1989C117.114 29.922 115.458 30.2874 113.785 30.2669C112.371 30.2884 110.969 30.0106 109.67 29.4516C108.452 28.9149 107.345 28.1545 106.406 27.2097ZM111.921 9.60461V5.32867H121.497V9.60461H111.921Z" fill="#EDEDED"/>
<path d="M128.554 22.7706V11.1901H133.873V21.9513C133.873 23.1116 134.151 23.9704 134.707 24.5274C135.002 24.8072 135.351 25.0238 135.732 25.164C136.114 25.3042 136.52 25.365 136.925 25.3427C137.656 25.337 138.377 25.1671 139.033 24.8454C139.758 24.4931 140.395 23.9835 140.897 23.3535V26.8712C140.2 27.8346 139.334 28.6632 138.342 29.317C137.335 29.9556 136.163 30.2831 134.972 30.2586C133.885 30.2628 132.816 29.9817 131.871 29.4433C130.853 28.8486 130.023 27.9801 129.474 26.9365C128.818 25.6488 128.502 24.215 128.554 22.7706ZM141.04 29.8387L140.364 26.2843V11.2023H145.683V25.3997C145.683 25.897 145.683 26.3413 145.736 26.7286C145.789 27.1158 145.838 27.5764 145.932 28.0982L146.217 29.8387H141.04Z" fill="#EDEDED"/>
<path d="M150.469 11.1909H155.65L156.322 14.7412V29.8232H151.003V15.6298C151.003 15.1325 151.003 14.6882 150.95 14.2969C150.897 13.9056 150.848 13.4532 150.754 12.9314L150.469 11.1909ZM155.793 17.6557V14.138C156.497 13.1636 157.381 12.3334 158.397 11.6922C159.425 11.058 160.613 10.7313 161.82 10.7506C162.966 10.7496 164.09 11.0594 165.074 11.6473C166.058 12.2351 166.864 13.0789 167.408 14.089C168.078 15.3749 168.402 16.8135 168.348 18.2631V29.8395H163.029V19.0742C163.054 18.4052 162.914 17.7402 162.622 17.138C162.376 16.6577 161.986 16.2669 161.507 16.0212C160.999 15.7773 160.442 15.6558 159.879 15.6665C159.097 15.6811 158.327 15.8666 157.624 16.2102C156.921 16.5538 156.302 17.0472 155.809 17.6557H155.793Z" fill="#EDEDED"/>
<path d="M173.097 5.82617C173.093 5.42855 173.168 5.03406 173.317 4.6654C173.465 4.29674 173.685 3.96117 173.964 3.67801C174.548 3.09555 175.338 2.76849 176.162 2.76849C176.986 2.76849 177.776 3.09555 178.359 3.67801C178.635 3.96237 178.853 4.29851 178.999 4.66715C179.145 5.03578 179.216 5.42965 179.21 5.82617C179.215 6.2235 179.141 6.61782 178.993 6.98647C178.845 7.35512 178.625 7.69083 178.347 7.97433C177.763 8.55013 176.976 8.87281 176.156 8.87281C175.336 8.87281 174.549 8.55013 173.964 7.97433C173.686 7.69103 173.466 7.35544 173.317 6.98681C173.168 6.61818 173.094 6.22375 173.097 5.82617ZM173.504 29.8391V11.1905H178.828V29.8391H173.504Z" fill="#EDEDED"/>
<path d="M182.816 20.5336C182.765 18.7223 183.168 16.9271 183.988 15.312C184.728 13.8978 185.858 12.7264 187.244 11.9369C188.703 11.1554 190.332 10.7466 191.987 10.7466C193.642 10.7466 195.271 11.1554 196.73 11.9369C198.099 12.7343 199.214 13.9047 199.945 15.312C200.763 16.9222 201.166 18.7115 201.117 20.5173C201.163 22.311 200.76 24.0877 199.945 25.6859C199.211 27.0948 198.092 28.2654 196.718 29.061C195.259 29.8424 193.63 30.2513 191.975 30.2513C190.32 30.2513 188.691 29.8424 187.231 29.061C185.846 28.2715 184.716 27.1 183.976 25.6859C183.168 24.0915 182.77 22.3208 182.816 20.5336ZM188.208 20.5336C188.177 21.5827 188.332 22.6291 188.668 23.6233C188.909 24.3381 189.367 24.9594 189.979 25.4006C190.576 25.7709 191.264 25.9671 191.967 25.9671C192.669 25.9671 193.357 25.7709 193.955 25.4006C194.566 24.9594 195.024 24.3381 195.265 23.6233C195.603 22.6295 195.759 21.5828 195.725 20.5336C195.759 19.4843 195.603 18.4376 195.265 17.4438C195.022 16.7248 194.564 16.0975 193.955 15.6462C193.361 15.2657 192.671 15.0634 191.967 15.0634C191.262 15.0634 190.572 15.2657 189.979 15.6462C189.369 16.0975 188.912 16.7248 188.668 17.4438C188.332 18.438 188.176 19.4844 188.208 20.5336Z" fill="#EDEDED"/>
<path d="M204.593 11.1906H209.778L210.445 14.904V29.8229H205.126V15.6296C205.126 15.1323 205.106 14.688 205.073 14.2967C205.04 13.9053 204.971 13.4529 204.878 12.9311L204.593 11.1906ZM209.912 18.1894V14.847C210.57 13.6482 211.5 12.6207 212.626 11.8469C213.674 11.1368 214.91 10.759 216.175 10.7626V16.0209C214.993 15.9918 213.814 16.1472 212.679 16.4815C211.65 16.8545 210.708 17.4359 209.912 18.1894Z" fill="#EDEDED"/>
<path d="M8.26042 24.3438H3.02673C1.9074 24.3438 1 25.2526 1 26.3737V31.6157C1 32.7368 1.9074 33.6457 3.02673 33.6457H8.26042C9.37976 33.6457 10.2872 32.7368 10.2872 31.6157V26.3737C10.2872 25.2526 9.37976 24.3438 8.26042 24.3438Z" fill="#EDEDED"/>
<path d="M19.5214 12.8497H14.2877C13.1684 12.8497 12.261 13.7585 12.261 14.8797V20.1216C12.261 21.2428 13.1684 22.1516 14.2877 22.1516H19.5214C20.6407 22.1516 21.5481 21.2428 21.5481 20.1216V14.8797C21.5481 13.7585 20.6407 12.8497 19.5214 12.8497Z" fill="#EDEDED"/>
<path d="M30.9736 1.35449H25.7399C24.6205 1.35449 23.7131 2.26333 23.7131 3.38444V8.62644C23.7131 9.74755 24.6205 10.6564 25.7399 10.6564H30.9736C32.0929 10.6564 33.0003 9.74755 33.0003 8.62644V3.38444C33.0003 2.26333 32.0929 1.35449 30.9736 1.35449Z" fill="#EDEDED"/>
<path d="M19.5214 24.3438H14.2877C13.1684 24.3438 12.261 25.2526 12.261 26.3737V31.6157C12.261 32.7368 13.1684 33.6457 14.2877 33.6457H19.5214C20.6407 33.6457 21.5481 32.7368 21.5481 31.6157V26.3737C21.5481 25.2526 20.6407 24.3438 19.5214 24.3438Z" stroke="#EDEDED" stroke-width="0.830793" stroke-miterlimit="10"/>
<path d="M30.9736 12.8497H25.7399C24.6205 12.8497 23.7131 13.7585 23.7131 14.8797V20.1216C23.7131 21.2428 24.6205 22.1516 25.7399 22.1516H30.9736C32.0929 22.1516 33.0003 21.2428 33.0003 20.1216V14.8797C33.0003 13.7585 32.0929 12.8497 30.9736 12.8497Z" stroke="#EDEDED" stroke-width="0.830793" stroke-miterlimit="10"/>
<path d="M8.26042 12.8497H3.02673C1.9074 12.8497 1 13.7585 1 14.8797V20.1216C1 21.2428 1.9074 22.1516 3.02673 22.1516H8.26042C9.37976 22.1516 10.2872 21.2428 10.2872 20.1216V14.8797C10.2872 13.7585 9.37976 12.8497 8.26042 12.8497Z" stroke="#EDEDED" stroke-width="0.830793" stroke-miterlimit="10"/>
<path d="M19.5214 1.35449H14.2877C13.1684 1.35449 12.261 2.26333 12.261 3.38444V8.62644C12.261 9.74755 13.1684 10.6564 14.2877 10.6564H19.5214C20.6407 10.6564 21.5481 9.74755 21.5481 8.62644V3.38444C21.5481 2.26333 20.6407 1.35449 19.5214 1.35449Z" stroke="#EDEDED" stroke-width="0.830793" stroke-miterlimit="10"/>
</svg>
